<svg width="327" height="160" viewBox="0 0 327 160" fill="none" xmlns="http://www.w3.org/2000/svg">
<g clip-path="url(#clip0_286_8)">
<rect width="327" height="160" fill="#ECF1FD"/>
<path d="M300.792 83.7578L195.422 22.9225L249.872 -8.51646L355.242 52.3188L300.792 83.7578Z" fill="#F6F9FF"/>
<path d="M301.224 81.2227L199.812 22.6733L249.447 -5.98314L350.858 52.5663L301.224 81.2227Z" fill="#4F79E1"/>
<path d="M334.578 49.0331L255.555 3.41117C249.895 6.67743 241.334 7.03418 236.431 4.20395L233.702 5.77893L231.557 7.01836L217.447 15.1655C222.348 17.993 221.734 22.9373 216.074 26.2036L295.096 71.8281C300.755 68.5592 309.318 68.2051 314.219 71.0353L328.328 62.8882L330.474 61.6515L333.204 60.0738C328.302 57.2436 328.917 52.302 334.578 49.0331Z" fill="#F6F9FF"/>
<path d="M220.297 24.9091L221.414 25.5539L225.364 23.2707L224.404 22.7157L225.385 22.1503C226.081 22.3907 226.631 22.4832 227.284 22.5255L228.156 23.0302L222.599 26.2384L223.56 26.7933L222.28 27.5332L219.016 25.6491L220.297 24.9091Z" fill="#4F79E1"/>
<path d="M228.997 27.4379C230.872 26.3544 230.987 25.9342 230.583 25.7017C230.187 25.4744 229.451 25.5352 227.577 26.616C225.713 27.6916 225.545 28.154 225.941 28.3813C226.344 28.6138 227.135 28.5108 228.997 27.4379ZM226.456 25.9686C228.782 24.6235 230.712 24.3593 231.811 24.9935C232.91 25.6277 232.448 26.7402 230.122 28.0853C227.796 29.4278 225.812 29.7237 224.714 29.0922C223.615 28.4553 224.129 27.311 226.456 25.9686Z" fill="#4F79E1"/>
<path d="M233.263 29.899C235.139 28.8182 235.251 28.3981 234.849 28.1655C234.452 27.9382 233.717 27.9964 231.843 29.0798C229.979 30.1554 229.81 30.6178 230.206 30.8451C230.61 31.0776 231.401 30.9745 233.263 29.899ZM230.721 28.4324C233.047 27.0873 234.978 26.823 236.077 27.4572C237.174 28.0915 236.714 29.2041 234.388 30.5465C232.062 31.8916 230.078 32.1875 228.979 31.5533C227.881 30.9191 228.395 29.7722 230.721 28.4324Z" fill="#4F79E1"/>
<path d="M284.89 62.3134L286.006 62.9582L289.959 60.675L288.997 60.12L289.977 59.5545C290.674 59.795 291.223 59.8875 291.876 59.9298L292.75 60.4345L287.191 63.6427L288.154 64.1976L286.872 64.9375L283.609 63.0534L284.89 62.3134Z" fill="#4F79E1"/>
<path d="M293.601 64.8402C295.475 63.7568 295.587 63.3366 295.185 63.1041C294.789 62.8768 294.054 62.9349 292.18 64.0184C290.318 65.094 290.148 65.5564 290.544 65.7837C290.946 66.0162 291.738 65.9131 293.601 64.8402ZM291.057 63.371C293.383 62.0259 295.313 61.7616 296.412 62.3958C297.512 63.03 297.05 64.1426 294.724 65.4877C292.398 66.8302 290.414 67.1261 289.316 66.4945C288.216 65.8576 288.731 64.7134 291.057 63.371Z" fill="#4F79E1"/>
<path d="M297.867 67.3014C299.74 66.2205 299.854 65.8004 299.451 65.5678C299.055 65.3405 298.318 65.3987 296.445 66.4822C294.582 67.5577 294.414 68.0202 294.809 68.2474C295.212 68.48 296.004 68.3769 297.867 67.3014ZM295.323 65.8347C297.649 64.4896 299.579 64.2254 300.678 64.8596C301.776 65.4938 301.316 66.6064 298.99 67.9488C296.664 69.2939 294.68 69.5899 293.581 68.9556C292.482 68.3214 292.997 67.1745 295.323 65.8347Z" fill="#4F79E1"/>
<path d="M288.375 45.1855C278.434 50.9253 264.46 52.1646 257.165 47.9523C249.869 43.74 252.014 35.6722 261.955 29.9325C271.897 24.1927 285.871 22.956 293.167 27.1683C300.462 31.378 298.316 39.4458 288.375 45.1855Z" fill="#4D68EF"/>
<path d="M286.738 44.2449C277.918 49.3345 265.522 50.4339 259.051 46.6972C252.579 42.9606 254.482 35.8044 263.301 30.7122C272.12 25.6199 284.518 24.5205 290.989 28.2572C297.461 31.9938 295.559 39.15 286.738 44.2449Z" fill="#4D68EF"/>
<path d="M251.862 22.1509C247.652 24.5795 241.286 24.8437 237.641 22.7402C233.995 20.6341 234.452 16.9582 238.662 14.5297C242.87 12.0985 249.237 11.8342 252.882 13.9404C256.527 16.0439 256.07 19.7197 251.862 22.1509Z" fill="#4F79E1"/>
<path d="M249.878 21.0063C246.931 22.7055 242.476 22.8905 239.926 21.4185C237.375 19.9466 237.694 17.3727 240.64 15.6735C243.585 13.9717 248.041 13.7867 250.592 15.2613C253.143 16.7332 252.823 19.3044 249.878 21.0063Z" fill="#4D68EF"/>
<path d="M316.146 59.2662C311.937 61.6974 305.57 61.9616 301.926 59.8555C298.281 57.7519 298.738 54.0761 302.946 51.6475C307.156 49.2163 313.522 48.9521 317.168 51.0556C320.813 53.1617 320.356 56.8376 316.146 59.2662Z" fill="#4F79E1"/>
<path d="M314.174 58.1293C311.229 59.8285 306.773 60.0135 304.222 58.5416C301.671 57.0697 301.991 54.4958 304.936 52.7966C307.882 51.0947 312.338 50.9097 314.888 52.3843C317.44 53.8562 317.12 56.4275 314.174 58.1293Z" fill="#4D68EF"/>
<path d="M275.06 17.877L253.711 5.54925L254.751 4.94937L276.1 17.2744L275.06 17.877Z" fill="#4F79E1"/>
<path d="M264.633 13.5935L252.204 6.41885L251.164 7.01873L263.592 14.1934L264.633 13.5935Z" fill="#4F79E1"/>
<path d="M240.982 27.1872L228.552 20.01L227.512 20.6098L239.941 27.7871L240.982 27.1872Z" fill="#4F79E1"/>
<path d="M331.201 50.2891L309.852 37.9639L310.892 37.3614L332.242 49.6892L331.201 50.2891Z" fill="#4F79E1"/>
<path d="M329.697 51.156L317.267 43.9813L316.227 44.5812L328.656 51.7559L329.697 51.156Z" fill="#4F79E1"/>
<path d="M306.043 64.7497L293.614 57.5724L292.574 58.1749L305.003 65.3496L306.043 64.7497Z" fill="#4F79E1"/>
<path d="M195.422 22.922V34.1979L300.792 95.0332V83.7572L195.422 22.922Z" fill="#A9BCF4"/>
<path d="M355.243 52.3182V63.5968L300.793 95.0332V83.7572L355.243 52.3182Z" fill="#C5D2F8"/>
<path d="M296.13 87.438C292.985 85.2684 289.386 83.6512 285.99 81.9071C282.964 80.3559 279.938 78.6831 276.727 77.5494L276.672 77.6816C279.87 79.7904 283.437 81.3891 286.832 83.157C289.856 84.7294 292.816 86.5264 295.977 87.8027L296.13 87.438Z" fill="#819EEF"/>
<path d="M289.442 81.5399C281.6 75.0285 271.951 69.8279 262.82 65.3619L262.699 65.5944C271.485 70.9932 280.118 77.0051 289.146 81.9653C289.437 82.1239 289.702 81.7566 289.442 81.5399Z" fill="#819EEF"/>
<path d="M224.008 46.6062C219.764 43.591 215.222 41.0304 210.708 38.4459C206.586 36.0861 202.458 33.5677 198.085 31.6993L197.961 31.9557C202.082 34.7119 206.569 36.9661 210.858 39.4527C215.169 41.95 219.391 44.6032 223.808 46.9102L224.008 46.6062Z" fill="#819EEF"/>
<path d="M250.927 59.2504C248.106 57.2288 245.044 55.5481 242.045 53.8092C239.433 52.2924 236.867 50.5456 234.041 49.4648L233.891 49.7687C236.527 51.9648 239.76 53.5556 242.716 55.297C245.338 56.8403 247.933 58.4338 250.689 59.7287C250.974 59.8635 251.166 59.4221 250.927 59.2504Z" fill="#819EEF"/>
<path d="M212.826 36.068C210.697 34.6172 208.247 33.6421 205.961 32.4635C203.662 31.2743 201.415 29.9503 199.047 28.9065L198.906 29.0889C202.784 32.0882 207.902 35.1642 212.635 36.5198C212.916 36.6018 213.052 36.2212 212.826 36.068Z" fill="#819EEF"/>
<path d="M325.414 77.4617C329.655 74.4438 334.2 71.8832 338.714 69.2987C342.836 66.9389 346.964 64.4231 351.338 62.5522L351.459 62.8085C347.339 65.5674 342.852 67.8189 338.563 70.3056C334.253 72.8028 330.03 75.456 325.613 77.7656L325.414 77.4617Z" fill="#A9BCF4"/>
<path d="M317.499 30.5281L262.93 61.8984L234.57 45.5249L289.141 14.1546L317.499 30.5281Z" fill="#4F79E1"/>
<path d="M314.586 28.8472L260.016 60.2148L236.867 46.8513L291.438 15.481L314.586 28.8472Z" fill="#C5D2F8"/>
<path d="M262.93 61.8972L234.57 45.5236V56.8022L262.93 73.1758V61.8972Z" fill="#4D68EF"/>
<path d="M236.867 46.8499V58.1285L260.016 71.4922V60.2135L236.867 46.8499Z" fill="#4D68EF"/>
<path d="M300.792 70.2715L195.422 9.4362L249.872 -22.0002L355.242 38.8325L300.792 70.2715Z" fill="#F6F9FF"/>
<path d="M301.224 67.7383L199.812 9.18882L249.447 -19.4675L350.858 39.0819L301.224 67.7383Z" fill="#4F79E1"/>
<path d="M334.578 35.5487L255.555 -10.0732C249.895 -6.80431 241.334 -6.4502 236.431 -9.28042L233.702 -7.70538L231.557 -6.46601L217.447 1.68108C222.348 4.5113 221.734 9.45297 216.074 12.7219L295.096 58.3438C300.755 55.0775 309.318 54.7207 314.219 57.551L328.328 49.4065L330.474 48.1671L333.204 46.5895C328.302 43.7592 328.917 38.8176 334.578 35.5487Z" fill="#F6F9FF"/>
<path d="M220.297 11.4228L221.414 12.0676L225.364 9.78439L224.404 9.23207L225.385 8.66393C226.081 8.90441 226.631 8.99952 227.284 9.03916L228.156 9.54387L222.599 12.752L223.56 13.3069L222.28 14.0469L219.016 12.1627L220.297 11.4228Z" fill="#4F79E1"/>
<path d="M228.997 13.9523C230.872 12.8689 230.987 12.4487 230.583 12.2161C230.188 11.9889 229.452 12.0496 227.577 13.1305C225.714 14.206 225.546 14.6684 225.941 14.8984C226.345 15.1309 227.135 15.0279 228.997 13.9523ZM226.456 12.483C228.782 11.1406 230.712 10.8737 231.812 11.5079C232.909 12.1422 232.448 13.2547 230.123 14.5998C227.796 15.9422 225.812 16.2408 224.714 15.6066C223.615 14.9698 224.129 13.8255 226.456 12.483Z" fill="#4F79E1"/>
<path d="M233.263 16.4144C235.139 15.331 235.252 14.9109 234.849 14.6783C234.452 14.451 233.717 14.5118 231.843 15.5926C229.979 16.6682 229.81 17.1306 230.206 17.3579C230.61 17.5904 231.401 17.4873 233.263 16.4144ZM230.721 14.9452C233.047 13.6001 234.978 13.3358 236.077 13.97C237.174 14.6043 236.714 15.7168 234.388 17.0619C232.062 18.4044 230.078 18.7003 228.979 18.0687C227.881 17.4318 228.395 16.2876 230.721 14.9452Z" fill="#4F79E1"/>
<path d="M284.89 48.8271L286.006 49.4719L289.959 47.1887L288.997 46.6337L289.977 46.0682C290.674 46.3087 291.223 46.4038 291.876 46.4435L292.75 46.9482L287.191 50.1563L288.154 50.7112L286.872 51.4512L283.609 49.567L284.89 48.8271Z" fill="#4F79E1"/>
<path d="M293.601 51.3559C295.475 50.2724 295.587 49.8522 295.185 49.6197C294.789 49.3924 294.054 49.4532 292.18 50.534C290.318 51.6095 290.148 52.072 290.544 52.3019C290.946 52.5318 291.738 52.4314 293.601 51.3559ZM291.057 49.8866C293.383 48.5441 295.313 48.2772 296.412 48.9115C297.512 49.5457 297.05 50.6608 294.724 52.0033C292.398 53.3457 290.414 53.6417 289.316 53.0101C288.216 52.3733 288.731 51.229 291.057 49.8866Z" fill="#4F79E1"/>
<path d="M297.867 53.8188C299.74 52.7353 299.854 52.3152 299.451 52.0826C299.055 51.8554 298.318 51.9135 296.445 52.9969C294.582 54.0725 294.414 54.5349 294.809 54.7622C295.212 54.9947 296.004 54.8917 297.867 53.8188ZM295.323 52.3495C297.649 51.0044 299.579 50.7401 300.678 51.3744C301.776 52.0086 301.316 53.1211 298.99 54.4662C296.664 55.8086 294.68 56.1046 293.581 55.473C292.482 54.8362 292.997 53.692 295.323 52.3495Z" fill="#4F79E1"/>
<path d="M288.375 31.7004C278.434 37.4428 264.46 38.6795 257.165 34.4672C249.869 30.2549 252.014 22.1897 261.955 16.4473C271.897 10.7102 285.871 9.47086 293.167 13.6832C300.462 17.8955 298.316 25.9633 288.375 31.7004Z" fill="#4D68EF"/>
<path d="M286.738 30.7598C277.918 35.8521 265.522 36.9487 259.051 33.2121C252.579 29.4755 254.482 22.3193 263.301 17.227C272.12 12.1347 284.518 11.0354 290.989 14.772C297.461 18.5087 295.559 25.6675 286.738 30.7598Z" fill="#4D68EF"/>
<path d="M251.862 8.66656C247.652 11.0951 241.286 11.3594 237.641 9.25586C233.995 7.15235 234.452 3.47647 238.662 1.04528C242.87 -1.38591 249.237 -1.64752 252.882 0.455986C256.527 2.5595 256.07 6.23537 251.862 8.66656Z" fill="#4F79E1"/>
<path d="M249.878 7.52101C246.931 9.22285 242.476 9.4052 239.926 7.93327C237.375 6.46135 237.694 3.88746 240.64 2.18826C243.585 0.486429 248.041 0.301432 250.592 1.776C253.143 3.24793 252.823 5.81918 249.878 7.52101Z" fill="#4D68EF"/>
<path d="M316.146 45.7837C311.938 48.2123 305.571 48.4766 301.926 46.373C298.28 44.2669 298.738 40.591 302.947 38.1625C307.155 35.7313 313.522 35.467 317.168 37.5732C320.813 39.6767 320.356 43.3526 316.146 45.7837Z" fill="#4F79E1"/>
<path d="M314.174 44.6441C311.229 46.3459 306.773 46.5282 304.222 45.0563C301.671 43.5844 301.991 41.0105 304.936 39.3113C307.882 37.6095 312.338 37.4245 314.888 38.899C317.44 40.371 317.12 42.9449 314.174 44.6441Z" fill="#4D68EF"/>
<path d="M275.06 4.39062L253.711 -7.93443L254.751 -8.53695L276.1 3.78817L275.06 4.39062Z" fill="#4F79E1"/>
<path d="M264.633 0.107156L252.204 -7.06748L251.164 -6.4676L263.592 0.707031L264.633 0.107156Z" fill="#4F79E1"/>
<path d="M240.982 13.701L228.552 6.52363L227.512 7.12615L239.941 14.3008L240.982 13.701Z" fill="#4F79E1"/>
<path d="M331.201 36.8047L309.852 24.4796L310.892 23.8797L332.242 36.2048L331.201 36.8047Z" fill="#4F79E1"/>
<path d="M329.697 37.6709L317.267 30.4962L316.227 31.0961L328.656 38.2734L329.697 37.6709Z" fill="#4F79E1"/>
<path d="M306.043 51.2634L293.614 44.0861L292.574 44.6886L305.003 51.8633L306.043 51.2634Z" fill="#4F79E1"/>
<path d="M195.422 9.43684V20.7154L300.792 81.5508V70.2721L195.422 9.43684Z" fill="#A9BCF4"/>
<path d="M355.243 38.8331V50.1117L300.793 81.5508V70.2721L355.243 38.8331Z" fill="#C5D2F8"/>
<path d="M296.13 73.9563C292.985 71.7841 289.386 70.1668 285.99 68.4253C282.964 66.8715 279.938 65.1987 276.727 64.0651L276.672 64.1972C279.87 66.306 283.437 67.9074 286.832 69.6726C289.856 71.245 292.816 73.042 295.977 74.3184L296.13 73.9563Z" fill="#819EEF"/>
<path d="M289.442 68.0581C281.6 61.5441 271.951 56.3435 262.82 51.8775L262.699 52.11C271.485 57.5089 280.118 63.5208 289.146 68.4809C289.437 68.6395 289.702 68.2722 289.442 68.0581Z" fill="#819EEF"/>
<path d="M224.008 33.1219C219.764 30.1041 215.222 27.5433 210.708 24.9589C206.586 22.599 202.458 20.0806 198.085 18.2123L197.961 18.4686C202.082 21.2275 206.569 23.479 210.858 25.9657C215.169 28.463 219.391 31.1161 223.808 33.4258L224.008 33.1219Z" fill="#819EEF"/>
<path d="M250.927 45.766C248.106 43.7444 245.044 42.0664 242.045 40.3249C239.433 38.8081 236.867 37.0613 234.041 35.9804L233.891 36.2844C236.527 38.483 239.76 40.0738 242.716 41.8127C245.338 43.3586 247.933 44.9494 250.689 46.2443C250.974 46.3791 251.166 45.9378 250.927 45.766Z" fill="#819EEF"/>
<path d="M212.826 22.5836C210.697 21.1354 208.247 20.1603 205.961 18.9791C203.662 17.7926 201.415 16.4659 199.047 15.4221L198.906 15.6045C202.784 18.6038 207.902 21.6798 212.635 23.0381C212.916 23.1174 213.052 22.7368 212.826 22.5836Z" fill="#819EEF"/>
<path d="M325.414 63.9774C329.655 60.9595 334.2 58.4015 338.714 55.817C342.836 53.4572 346.964 50.9387 351.338 49.0678L351.459 49.3241C347.339 52.083 342.852 54.3345 338.563 56.8212C334.253 59.3185 330.03 61.9716 325.613 64.2812L325.414 63.9774Z" fill="#A9BCF4"/>
<path d="M317.499 17.0445L262.93 48.4121L234.57 32.0386L289.141 0.670927L317.499 17.0445Z" fill="#4F79E1"/>
<path d="M314.586 15.3628L260.016 46.7305L236.867 33.3668L291.438 1.99652L314.586 15.3628Z" fill="#C5D2F8"/>
<path d="M262.93 48.4128L234.57 32.0393V43.3179L262.93 59.6914V48.4128Z" fill="#4D68EF"/>
<path d="M236.867 33.3656V44.6442L260.016 58.0078V46.7292L236.867 33.3656Z" fill="#4D68EF"/>
<path d="M212.121 78.6741V96.6016C213.018 96.5487 213.893 96.4589 214.754 96.3426V78.6741H212.121Z" fill="#819EEF"/>
<path d="M208.504 78.6752V96.6184C209.014 96.6395 209.522 96.666 210.041 96.666C210.289 96.666 210.531 96.6475 210.778 96.6422V78.6752H208.504Z" fill="#819EEF"/>
<path d="M188.547 78.6755V83.7705C188.547 85.4908 189.119 87.1318 190.139 88.6328V78.6755H188.547Z" fill="#819EEF"/>
<path d="M216.102 78.677V96.1367C217.007 95.9782 217.883 95.7853 218.735 95.558V78.677H216.102Z" fill="#819EEF"/>
<path d="M220.09 78.6755V95.168C220.757 94.9539 221.405 94.7267 222.027 94.4756V78.6755H220.09Z" fill="#819EEF"/>
<path d="M194.77 78.6755V92.8425C195.378 93.2098 196.03 93.5506 196.707 93.873V78.6755H194.77Z" fill="#819EEF"/>
<path d="M204.883 78.6758V96.2755C205.627 96.3865 206.385 96.4737 207.157 96.5371V78.6758H204.883Z" fill="#819EEF"/>
<path d="M198.055 78.6755V94.4756C198.677 94.7267 199.326 94.9539 199.992 95.168V78.6755H198.055Z" fill="#819EEF"/>
<path d="M201.348 78.6768V95.5578C202.059 95.7481 202.787 95.9198 203.537 96.0625V78.6768H201.348Z" fill="#819EEF"/>
<path d="M191.492 78.6754V90.258C192.069 90.8526 192.707 91.4207 193.43 91.9492V78.6754H191.492Z" fill="#819EEF"/>
<path d="M231.537 78.6755H229.945V88.6328C230.964 87.1318 231.537 85.4908 231.537 83.7705V78.6755Z" fill="#819EEF"/>
<path d="M226.652 78.6754V91.9492C227.375 91.4207 228.012 90.8526 228.59 90.258V78.6754H226.652Z" fill="#819EEF"/>
<path d="M223.371 78.6755V93.873C224.049 93.5506 224.701 93.2098 225.309 92.8425V78.6755H223.371Z" fill="#819EEF"/>
<path d="M190.145 78.6753V88.6326C190.529 89.1954 190.985 89.7372 191.493 90.2578V78.6753H190.145Z" fill="#4F79E1"/>
<path d="M193.426 78.6767V91.9505C193.851 92.2597 194.302 92.5583 194.773 92.8438V78.6767H193.426Z" fill="#4F79E1"/>
<path d="M196.703 78.6764V93.874C197.142 94.0828 197.586 94.2889 198.051 94.4766V78.6764H196.703Z" fill="#4F79E1"/>
<path d="M200 78.6757V95.1681C200.44 95.3055 200.891 95.4351 201.348 95.5566V78.6757H200Z" fill="#4F79E1"/>
<path d="M203.535 78.6756V96.0613C203.976 96.1432 204.43 96.2093 204.883 96.2754V78.6756H203.535Z" fill="#4F79E1"/>
<path d="M207.152 78.6759V96.5373C207.598 96.5716 208.046 96.6006 208.5 96.6191V78.6759H207.152Z" fill="#4F79E1"/>
<path d="M210.773 78.6755V96.6426C211.225 96.6347 211.678 96.6267 212.12 96.603V78.6755H210.773Z" fill="#4F79E1"/>
<path d="M214.754 78.6753V96.3438C215.208 96.283 215.658 96.2143 216.101 96.135V78.6753H214.754Z" fill="#4F79E1"/>
<path d="M228.598 78.6753V90.2578C229.106 89.7372 229.562 89.1954 229.946 88.6326V78.6753H228.598Z" fill="#4F79E1"/>
<path d="M225.309 78.6767V92.8438C225.78 92.5583 226.231 92.2597 226.657 91.9505V78.6767H225.309Z" fill="#4F79E1"/>
<path d="M222.023 78.6764V94.4766C222.489 94.2889 222.933 94.0828 223.371 93.874V78.6764H222.023Z" fill="#4F79E1"/>
<path d="M218.742 78.6757V95.5566C219.198 95.4351 219.649 95.3055 220.089 95.1681V78.6757H218.742Z" fill="#4F79E1"/>
<path d="M210.04 65.7792C198.17 65.7792 188.547 71.5533 188.547 78.6751C188.547 85.7943 198.17 91.5684 210.04 91.5684C221.91 91.5684 231.532 85.7943 231.532 78.6751C231.532 71.5533 221.91 65.7792 210.04 65.7792Z" fill="#C5D2F8"/>
<path d="M210.042 68.3504C220.029 68.3504 228.169 73.0384 228.732 78.9473L228.787 78.2972C228.787 72.0871 220.394 67.0503 210.042 67.0503C199.689 67.0503 191.297 72.0871 191.297 78.2972L191.352 78.9473C191.915 73.0384 200.055 68.3504 210.042 68.3504Z" fill="#4F79E1"/>
<path d="M216.73 77.2584C214.34 78.6537 207.059 82.6176 202.55 85.5245C201.521 86.1878 202.766 86.7877 203.763 86.2063C207.139 84.2376 213.57 80.7626 217.839 77.9086C218.333 77.5809 217.269 76.9413 216.73 77.2584Z" fill="#4F79E1"/>
<path d="M212.679 75.0475C210.29 76.4428 203.008 80.4093 198.499 83.3135C197.47 83.9768 198.716 84.5767 199.711 83.9954C203.089 82.0266 209.52 78.5516 213.789 75.7002C214.282 75.3699 213.219 74.7304 212.679 75.0475Z" fill="#4F79E1"/>
<path d="M250.695 15.0374V32.9648C251.591 32.912 252.467 32.8221 253.328 32.7059V15.0374H250.695Z" fill="#819EEF"/>
<path d="M247.07 15.0365V32.9798C247.58 33.0009 248.088 33.0273 248.607 33.0273C248.856 33.0273 249.098 33.0088 249.344 33.0035V15.0365H247.07Z" fill="#819EEF"/>
<path d="M227.109 15.0368V20.1317C227.109 21.8547 227.681 23.4931 228.702 24.9941V15.0368H227.109Z" fill="#819EEF"/>
<path d="M254.672 15.0357V32.498C255.576 32.3368 256.455 32.144 257.304 31.9167V15.0357H254.672Z" fill="#819EEF"/>
<path d="M258.648 15.0368V31.5293C259.314 31.3179 259.963 31.088 260.586 30.8369V15.0368H258.648Z" fill="#819EEF"/>
<path d="M233.34 15.0361V29.2031C233.947 29.5731 234.599 29.9113 235.276 30.2363V15.0361H233.34Z" fill="#819EEF"/>
<path d="M243.449 15.0371V32.6368C244.193 32.7478 244.951 32.835 245.723 32.8984V15.0371H243.449Z" fill="#819EEF"/>
<path d="M236.625 15.0368V30.8369C237.248 31.088 237.897 31.3179 238.563 31.5293V15.0368H236.625Z" fill="#819EEF"/>
<path d="M239.906 15.0362V31.9172C240.617 32.1074 241.345 32.2792 242.096 32.4219V15.0362H239.906Z" fill="#819EEF"/>
<path d="M230.051 15.0368V26.622C230.628 27.2139 231.266 27.782 231.988 28.3105V15.0368H230.051Z" fill="#819EEF"/>
<path d="M270.096 15.0368H268.504V24.9941C269.523 23.4931 270.096 21.8547 270.096 20.1317V15.0368Z" fill="#819EEF"/>
<path d="M265.223 15.0368V28.3105C265.945 27.782 266.583 27.2139 267.16 26.622V15.0368H265.223Z" fill="#819EEF"/>
<path d="M261.934 15.0361V30.2363C262.612 29.9113 263.263 29.5731 263.871 29.2031V15.0361H261.934Z" fill="#819EEF"/>
<path d="M228.703 15.0359V24.9933C229.087 25.5588 229.542 26.0979 230.05 26.6211V15.0359H228.703Z" fill="#4F79E1"/>
<path d="M231.988 15.0361V28.3099C232.413 28.6191 232.865 28.9177 233.337 29.2031V15.0361H231.988Z" fill="#4F79E1"/>
<path d="M235.277 15.0358V30.2361C235.717 30.4448 236.16 30.6483 236.625 30.8359V15.0358H235.277Z" fill="#4F79E1"/>
<path d="M238.559 15.037V31.5295C238.998 31.6696 239.449 31.7964 239.907 31.918V15.037H238.559Z" fill="#4F79E1"/>
<path d="M242.102 15.037V32.4227C242.542 32.5072 242.997 32.5707 243.45 32.6367V15.037H242.102Z" fill="#4F79E1"/>
<path d="M245.723 15.0372V32.8985C246.169 32.9329 246.617 32.962 247.071 32.9805V15.0372H245.723Z" fill="#4F79E1"/>
<path d="M249.344 15.0369V33.0039C249.795 32.996 250.248 32.9907 250.692 32.9643V15.0369H249.344Z" fill="#4F79E1"/>
<path d="M253.324 15.0366V32.7051C253.778 32.6443 254.229 32.5756 254.671 32.4989V15.0366H253.324Z" fill="#4F79E1"/>
<path d="M267.156 15.0359V26.6211C267.664 26.0979 268.121 25.5588 268.505 24.9933V15.0359H267.156Z" fill="#4F79E1"/>
<path d="M263.879 15.0361V29.2031C264.351 28.9177 264.802 28.6191 265.227 28.3099V15.0361H263.879Z" fill="#4F79E1"/>
<path d="M260.586 15.0358V30.8359C261.052 30.6483 261.494 30.4448 261.933 30.2361V15.0358H260.586Z" fill="#4F79E1"/>
<path d="M257.301 15.037V31.918C257.758 31.7964 258.209 31.6696 258.649 31.5295V15.037H257.301Z" fill="#4F79E1"/>
<path d="M248.602 2.1406C236.732 2.1406 227.109 7.91463 227.109 15.0364C227.109 22.1582 236.732 27.9297 248.602 27.9297C260.472 27.9297 270.095 22.1582 270.095 15.0364C270.095 7.91463 260.472 2.1406 248.602 2.1406Z" fill="#C5D2F8"/>
<path d="M248.69 26.1934C238.703 26.1934 230.564 21.5027 230 15.5965C230.564 9.6903 238.703 4.99966 248.69 4.99966C258.678 4.99966 266.818 9.6903 267.381 15.5965C266.818 21.5027 258.678 26.1934 248.69 26.1934Z" fill="#A9BCF4"/>
<path d="M255.491 19.6956L252.693 18.0802L252.192 19.9056L249.909 19.6079L250.652 16.9017L248.611 15.7231L248.131 17.5361L245.827 17.2509L246.569 14.5446L242.005 11.9096L237.89 14.2856L235 12.6172L246.463 5.99903L249.353 7.66747L245.216 10.056L247.441 11.3404L247.956 9.37414L250.26 9.65939L249.482 12.5189L251.523 13.6974L252.04 11.7568L254.344 12.0421L253.564 14.8759L258.702 17.842L255.491 19.6956Z" fill="#4F79E1"/>
<path d="M248.6 4.71181C258.587 4.71181 266.728 9.40238 267.291 15.3086L267.345 14.6612C267.345 8.44842 258.953 3.41425 248.6 3.41425C238.248 3.41425 229.855 8.44842 229.855 14.6612L229.91 15.3086C230.474 9.40238 238.613 4.71181 248.6 4.71181Z" fill="#4F79E1"/>
<path d="M264.023 1.56867V19.4961C264.92 19.4459 265.795 19.3534 266.656 19.2371V1.56867H264.023Z" fill="#819EEF"/>
<path d="M260.398 1.56971V19.513C260.908 19.5368 261.417 19.5605 261.936 19.5605C262.184 19.5605 262.426 19.542 262.673 19.5394V1.56971H260.398Z" fill="#819EEF"/>
<path d="M240.441 1.57005V6.66763C240.441 8.38796 241.014 10.0263 242.034 11.5273V1.57005H240.441Z" fill="#819EEF"/>
<path d="M268 1.56893V19.0312C268.904 18.8701 269.782 18.6772 270.632 18.4499V1.56893H268Z" fill="#819EEF"/>
<path d="M271.984 1.56999V18.0625C272.651 17.8511 273.301 17.6212 273.922 17.3701V1.56999H271.984Z" fill="#819EEF"/>
<path d="M246.664 1.56929V15.7363C247.272 16.1063 247.924 16.4471 248.602 16.7695V1.56929H246.664Z" fill="#819EEF"/>
<path d="M256.777 1.57028V19.1727C257.521 19.281 258.279 19.3682 259.052 19.4316V1.57028H256.777Z" fill="#819EEF"/>
<path d="M249.957 1.56999V17.3701C250.579 17.6212 251.229 17.8511 251.895 18.0625V1.56999H249.957Z" fill="#819EEF"/>
<path d="M253.242 1.5694V18.4504C253.955 18.6406 254.682 18.8124 255.432 18.9551V1.5694H253.242Z" fill="#819EEF"/>
<path d="M243.383 1.56998V13.1552C243.96 13.7471 244.597 14.3152 245.32 14.8438V1.56998H243.383Z" fill="#819EEF"/>
<path d="M283.433 1.57005H281.84V11.5273C282.86 10.0263 283.433 8.38796 283.433 6.66763V1.57005Z" fill="#819EEF"/>
<path d="M278.547 1.56998V14.8438C279.27 14.3152 279.907 13.7471 280.484 13.1552V1.56998H278.547Z" fill="#819EEF"/>
<path d="M275.266 1.56929V16.7695C275.944 16.4471 276.594 16.1063 277.203 15.7363V1.56929H275.266Z" fill="#819EEF"/>
<path d="M242.039 1.56911V11.5264C242.423 12.0919 242.879 12.6311 243.387 13.1543V1.56911H242.039Z" fill="#4F79E1"/>
<path d="M245.32 1.56932V14.8431C245.746 15.1549 246.196 15.4509 246.668 15.7363V1.56932H245.32Z" fill="#4F79E1"/>
<path d="M248.609 1.57098V16.7712C249.048 16.98 249.492 17.1835 249.957 17.3711V1.57098H248.609Z" fill="#4F79E1"/>
<path d="M251.895 1.57021V18.0627C252.334 18.2028 252.785 18.3296 253.243 18.4512V1.57021H251.895Z" fill="#4F79E1"/>
<path d="M255.43 1.56949V18.9552C255.871 19.0397 256.326 19.1032 256.778 19.1719V1.56949H255.43Z" fill="#4F79E1"/>
<path d="M259.051 1.56843V19.4298C259.496 19.4668 259.945 19.4932 260.398 19.5117V1.56843H259.051Z" fill="#4F79E1"/>
<path d="M262.676 1.56938V19.5391C263.128 19.5285 263.58 19.5232 264.024 19.4968V1.56938H262.676Z" fill="#4F79E1"/>
<path d="M266.656 1.56983V19.2383C267.112 19.1775 267.561 19.1088 268.005 19.0322V1.56983H266.656Z" fill="#4F79E1"/>
<path d="M280.492 1.56911V13.1543C281 12.6311 281.457 12.0919 281.84 11.5264V1.56911H280.492Z" fill="#4F79E1"/>
<path d="M277.203 1.56932V15.7363C277.674 15.4509 278.125 15.1549 278.55 14.8431V1.56932H277.203Z" fill="#4F79E1"/>
<path d="M273.918 1.57098V17.3711C274.384 17.1835 274.828 16.98 275.266 16.7712V1.57098H273.918Z" fill="#4F79E1"/>
<path d="M270.637 1.57021V18.4512C271.093 18.3296 271.544 18.2028 271.984 18.0627V1.57021H270.637Z" fill="#4F79E1"/>
<path d="M261.934 -11.3263C250.064 -11.3263 240.441 -5.55217 240.441 1.56964C240.441 8.69144 250.064 14.4629 261.934 14.4629C273.805 14.4629 283.428 8.69144 283.428 1.56964C283.428 -5.55217 273.805 -11.3263 261.934 -11.3263Z" fill="#C5D2F8"/>
<path d="M261.936 -8.75505C271.924 -8.75505 280.064 -4.06441 280.628 1.8418L280.682 1.19437C280.682 -5.01838 272.289 -10.0525 261.936 -10.0525C251.585 -10.0525 243.191 -5.01838 243.191 1.19437L243.246 1.8418C243.81 -4.06441 251.949 -8.75505 261.936 -8.75505Z" fill="#4F79E1"/>
<path d="M261.933 12.4395C251.945 12.4395 243.806 7.74881 243.242 1.8426C243.806 -4.06361 251.945 -8.75425 261.933 -8.75425C271.92 -8.75425 280.06 -4.06361 280.624 1.8426C280.06 7.74881 271.92 12.4395 261.933 12.4395Z" fill="#A9BCF4"/>
<path d="M294.945 28.5179V46.4453C295.842 46.3925 296.718 46.3026 297.578 46.1863V28.5179H294.945Z" fill="#819EEF"/>
<path d="M291.324 28.5189V46.4622C291.834 46.4834 292.343 46.5098 292.861 46.5098C293.11 46.5098 293.352 46.4912 293.599 46.486V28.5189H291.324Z" fill="#819EEF"/>
<path d="M271.371 28.5192V33.6141C271.371 35.3371 271.944 36.9756 272.964 38.4766V28.5192H271.371Z" fill="#819EEF"/>
<path d="M298.926 28.5188V45.9785C299.83 45.82 300.707 45.6271 301.558 45.3998V28.5188H298.926Z" fill="#819EEF"/>
<path d="M302.902 28.5192V45.0117C303.568 44.7977 304.217 44.5704 304.84 44.3193V28.5192H302.902Z" fill="#819EEF"/>
<path d="M277.594 28.5192V42.6862C278.202 43.0535 278.853 43.3944 279.531 43.7168V28.5192H277.594Z" fill="#819EEF"/>
<path d="M287.699 28.5195V46.1192C288.445 46.2302 289.201 46.3174 289.975 46.3809V28.5195H287.699Z" fill="#819EEF"/>
<path d="M280.875 28.5192V44.3193C281.498 44.5704 282.147 44.7977 282.813 45.0117V28.5192H280.875Z" fill="#819EEF"/>
<path d="M284.172 28.5186V45.3996C284.884 45.5899 285.612 45.7616 286.362 45.9043V28.5186H284.172Z" fill="#819EEF"/>
<path d="M274.316 28.5192V40.1017C274.893 40.6963 275.531 41.2644 276.254 41.793V28.5192H274.316Z" fill="#819EEF"/>
<path d="M314.351 28.5192H312.758V38.4766C313.778 36.9756 314.351 35.3345 314.351 33.6141V28.5192Z" fill="#819EEF"/>
<path d="M309.48 28.5192V41.793C310.204 41.2644 310.841 40.6963 311.418 40.1017V28.5192H309.48Z" fill="#819EEF"/>
<path d="M306.195 28.5192V43.7168C306.874 43.3944 307.525 43.0535 308.133 42.6862V28.5192H306.195Z" fill="#819EEF"/>
<path d="M272.957 28.519V38.4764C273.341 39.0393 273.797 39.581 274.305 40.1016V28.519H272.957Z" fill="#4F79E1"/>
<path d="M276.25 28.5185V41.7923C276.674 42.1015 277.125 42.4001 277.597 42.6855V28.5185H276.25Z" fill="#4F79E1"/>
<path d="M279.535 28.5202V43.7178C279.974 43.9266 280.418 44.1327 280.882 44.3203V28.5202H279.535Z" fill="#4F79E1"/>
<path d="M282.812 28.5175V45.01C283.252 45.15 283.703 45.2769 284.161 45.3984V28.5175H282.812Z" fill="#4F79E1"/>
<path d="M286.352 28.5194V45.9051C286.792 45.987 287.246 46.0531 287.698 46.1191V28.5194H286.352Z" fill="#4F79E1"/>
<path d="M289.977 28.5176V46.379C290.421 46.4134 290.871 46.4424 291.323 46.4609V28.5176H289.977Z" fill="#4F79E1"/>
<path d="M293.598 28.5193V46.4863C294.049 46.4784 294.501 46.4705 294.945 46.4467V28.5193H293.598Z" fill="#4F79E1"/>
<path d="M297.578 28.519V46.1875C298.032 46.1267 298.482 46.058 298.926 45.9787V28.519H297.578Z" fill="#4F79E1"/>
<path d="M311.414 28.519V40.1016C311.922 39.581 312.378 39.0393 312.762 38.4764V28.519H311.414Z" fill="#4F79E1"/>
<path d="M308.133 28.5205V42.6875C308.603 42.4021 309.055 42.1035 309.48 41.7943V28.5205H308.133Z" fill="#4F79E1"/>
<path d="M304.848 28.5202V44.3203C305.312 44.1327 305.756 43.9266 306.195 43.7178V28.5202H304.848Z" fill="#4F79E1"/>
<path d="M301.559 28.5175V45.3984C302.016 45.2769 302.467 45.15 302.907 45.01V28.5175H301.559Z" fill="#4F79E1"/>
<path d="M292.863 15.623C280.994 15.623 271.371 21.397 271.371 28.5189C271.371 35.6407 280.994 41.4121 292.863 41.4121C304.734 41.4121 314.357 35.6407 314.357 28.5189C314.357 21.397 304.734 15.623 292.863 15.623Z" fill="#C5D2F8"/>
<path d="M292.866 18.1942C302.854 18.1942 310.994 22.8848 311.557 28.791L311.612 28.1409C311.612 21.9308 303.219 16.8967 292.866 16.8967C282.515 16.8967 274.121 21.9308 274.121 28.1409L274.177 28.791C274.739 22.8848 282.88 18.1942 292.866 18.1942Z" fill="#4F79E1"/>
<path d="M292.861 39.3867C282.875 39.3867 274.734 34.6961 274.172 28.7899C274.734 22.8837 282.875 18.1931 292.861 18.1931C302.849 18.1931 310.989 22.8837 311.552 28.7899C310.989 34.6961 302.849 39.3867 292.861 39.3867Z" fill="#A9BCF4"/>
<path d="M260.059 93.0101V110.938C260.954 110.885 261.83 110.795 262.691 110.679V93.0101H260.059Z" fill="#819EEF"/>
<path d="M256.438 93.0092V110.952C256.947 110.974 257.455 111 257.974 111C258.223 111 258.465 110.981 258.711 110.976V93.0092H256.438Z" fill="#819EEF"/>
<path d="M236.484 93.0095V98.1044C236.484 99.8274 237.057 101.466 238.077 102.967V93.0095H236.484Z" fill="#819EEF"/>
<path d="M264.039 93.0084V110.471C264.942 110.31 265.821 110.117 266.671 109.889V93.0084H264.039Z" fill="#819EEF"/>
<path d="M268.016 93.0095V109.502C268.682 109.291 269.331 109.061 269.953 108.81V93.0095H268.016Z" fill="#819EEF"/>
<path d="M242.711 93.0087V107.176C243.319 107.546 243.97 107.887 244.648 108.209V93.0087H242.711Z" fill="#819EEF"/>
<path d="M252.82 93.0097V110.612C253.564 110.72 254.322 110.808 255.094 110.871V93.0097H252.82Z" fill="#819EEF"/>
<path d="M245.992 93.0095V108.81C246.615 109.061 247.264 109.291 247.93 109.502V93.0095H245.992Z" fill="#819EEF"/>
<path d="M249.285 93.0089V109.89C249.997 110.08 250.725 110.252 251.476 110.395V93.0089H249.285Z" fill="#819EEF"/>
<path d="M239.43 93.0094V104.595C240.007 105.187 240.644 105.755 241.366 106.283V93.0094H239.43Z" fill="#819EEF"/>
<path d="M279.476 93.0095H277.883V102.967C278.903 101.466 279.476 99.8274 279.476 98.1044V93.0095Z" fill="#819EEF"/>
<path d="M274.594 93.0094V106.283C275.316 105.755 275.954 105.187 276.531 104.595V93.0094H274.594Z" fill="#819EEF"/>
<path d="M271.309 93.0087V108.209C271.987 107.887 272.638 107.546 273.245 107.176V93.0087H271.309Z" fill="#819EEF"/>
<path d="M238.082 93.0086V102.966C238.466 103.531 238.921 104.071 239.43 104.594V93.0086H238.082Z" fill="#4F79E1"/>
<path d="M241.363 93.0088V106.283C241.788 106.594 242.24 106.89 242.712 107.176V93.0088H241.363Z" fill="#4F79E1"/>
<path d="M244.648 93.0085V108.209C245.087 108.417 245.531 108.621 245.995 108.809V93.0085H244.648Z" fill="#4F79E1"/>
<path d="M247.938 93.0097V109.502C248.377 109.642 248.828 109.769 249.286 109.891V93.0097H247.938Z" fill="#4F79E1"/>
<path d="M251.477 93.0089V110.395C251.917 110.479 252.372 110.543 252.824 110.611V93.0089H251.477Z" fill="#4F79E1"/>
<path d="M255.09 93.0099V110.871C255.536 110.906 255.984 110.935 256.438 110.953V93.0099H255.09Z" fill="#4F79E1"/>
<path d="M258.711 93.0095V110.977C259.162 110.969 259.615 110.963 260.059 110.937V93.0095H258.711Z" fill="#4F79E1"/>
<path d="M262.691 93.0093V110.678C263.145 110.617 263.595 110.548 264.039 110.472V93.0093H262.691Z" fill="#4F79E1"/>
<path d="M276.527 93.0086V104.594C277.035 104.071 277.492 103.531 277.876 102.966V93.0086H276.527Z" fill="#4F79E1"/>
<path d="M273.246 93.0088V107.176C273.718 106.89 274.169 106.594 274.594 106.283V93.0088H273.246Z" fill="#4F79E1"/>
<path d="M269.961 93.0085V108.809C270.427 108.621 270.87 108.417 271.309 108.209V93.0085H269.961Z" fill="#4F79E1"/>
<path d="M266.672 93.0097V109.891C267.128 109.769 267.579 109.642 268.019 109.502V93.0097H266.672Z" fill="#4F79E1"/>
<path d="M257.977 80.1132C246.107 80.1132 236.484 85.8873 236.484 93.0091C236.484 100.131 246.107 105.902 257.977 105.902C269.848 105.902 279.471 100.131 279.471 93.0091C279.471 85.8873 269.848 80.1132 257.977 80.1132Z" fill="#C5D2F8"/>
<path d="M257.979 82.6844C267.967 82.6844 276.107 87.375 276.671 93.2812L276.725 92.6338C276.725 86.4211 268.332 81.3869 257.979 81.3869C247.627 81.3869 239.234 86.4211 239.234 92.6338L239.289 93.2812C239.853 87.375 247.992 82.6844 257.979 82.6844Z" fill="#4F79E1"/>
<path d="M257.979 103.879C247.992 103.879 239.853 99.1883 239.289 93.2821C239.853 87.3758 247.992 82.6852 257.979 82.6852C267.967 82.6852 276.107 87.3758 276.671 93.2821C276.107 99.1883 267.967 103.879 257.979 103.879Z" fill="#A9BCF4"/>
<path d="M209.69 89.1934C199.703 89.1934 191.563 84.5027 191 78.5965C191.563 72.6877 199.703 67.9997 209.69 67.9997C219.677 67.9997 227.818 72.6877 228.381 78.5965C227.818 84.5027 219.677 89.1934 209.69 89.1934Z" fill="#A9BCF4"/>
<path d="M216.491 84.2718L213.693 82.6563L213.192 84.4818L210.909 84.1841L211.652 81.4778L209.611 80.2993L209.131 82.1123L206.827 81.8271L207.569 79.1208L203.005 76.4857L198.89 78.8618L196 77.1934L207.463 70.5752L210.353 72.2436L206.216 74.6322L208.441 75.9166L208.956 73.9503L211.26 74.2356L210.482 77.0951L212.523 78.2736L213.04 76.333L215.344 76.6183L214.564 79.4521L219.702 82.4182L216.491 84.2718Z" fill="#4F79E1"/>
<path d="M203.574 68.0309V85.9609C204.47 85.9081 205.346 85.8182 206.207 85.702V68.0309H203.574Z" fill="#819EEF"/>
<path d="M199.953 68.0306V85.9766C200.463 85.9977 200.971 86.0215 201.49 86.0215C201.739 86.0215 201.981 86.0056 202.227 86.0003V68.0306H199.953Z" fill="#819EEF"/>
<path d="M180 68.031V73.1286C180 74.8489 180.573 76.4899 181.593 77.9883V68.031H180Z" fill="#819EEF"/>
<path d="M207.555 68.0318V85.4941C208.459 85.3356 209.336 85.14 210.187 84.9154V68.0318H207.555Z" fill="#819EEF"/>
<path d="M211.531 68.0309V84.5234C212.198 84.312 212.846 84.0847 213.469 83.8337V68.0309H211.531Z" fill="#819EEF"/>
<path d="M186.227 68.0302V82.1999C186.834 82.5672 187.486 82.9081 188.164 83.2305V68.0302H186.227Z" fill="#819EEF"/>
<path d="M196.328 68.0305V85.6329C197.072 85.7439 197.83 85.8311 198.602 85.8945V68.0305H196.328Z" fill="#819EEF"/>
<path d="M189.504 68.0309V83.8337C190.125 84.0847 190.775 84.312 191.44 84.5234V68.0309H189.504Z" fill="#819EEF"/>
<path d="M192.797 68.0323V84.9159C193.509 85.1062 194.237 85.2779 194.987 85.418V68.0323H192.797Z" fill="#819EEF"/>
<path d="M182.945 68.0322V79.6174C183.522 80.2119 184.159 80.7801 184.882 81.3086V68.0322H182.945Z" fill="#819EEF"/>
<path d="M222.983 68.031H221.391V77.9883C222.41 76.4873 222.983 74.8489 222.983 73.1286V68.031Z" fill="#819EEF"/>
<path d="M218.109 68.0322V81.3086C218.832 80.7801 219.47 80.2119 220.047 79.6174V68.0322H218.109Z" fill="#819EEF"/>
<path d="M214.824 68.0302V83.2305C215.503 82.9081 216.154 82.5672 216.762 82.1999V68.0302H214.824Z" fill="#819EEF"/>
<path d="M181.586 68.032V77.9893C181.97 78.5548 182.425 79.0966 182.934 79.6172V68.032H181.586Z" fill="#4F79E1"/>
<path d="M184.879 68.0315V81.3079C185.304 81.6171 185.756 81.9158 186.227 82.2012V68.0315H184.879Z" fill="#4F79E1"/>
<path d="M188.16 68.0312V83.2315C188.599 83.4402 189.043 83.6464 189.508 83.834V68.0312H188.16Z" fill="#4F79E1"/>
<path d="M191.441 68.0305V84.523C191.881 84.663 192.332 84.7925 192.79 84.9141V68.0305H191.441Z" fill="#4F79E1"/>
<path d="M194.98 68.0304V85.4161C195.42 85.5007 195.876 85.5667 196.328 85.6328V68.0304H194.98Z" fill="#4F79E1"/>
<path d="M198.605 68.0306V85.8946C199.052 85.929 199.501 85.9581 199.954 85.9766V68.0306H198.605Z" fill="#4F79E1"/>
<path d="M202.227 68.0303V86C202.678 85.9921 203.132 85.9842 203.575 85.9604V68.0303H202.227Z" fill="#4F79E1"/>
<path d="M206.203 68.032V85.7031C206.657 85.6423 207.107 85.5736 207.551 85.4943V68.032H206.203Z" fill="#4F79E1"/>
<path d="M220.043 68.032V79.6172C220.552 79.0966 221.007 78.5548 221.391 77.9893V68.032H220.043Z" fill="#4F79E1"/>
<path d="M216.758 68.0315V82.2012C217.229 81.9158 217.68 81.6171 218.105 81.3079V68.0315H216.758Z" fill="#4F79E1"/>
<path d="M213.477 68.0312V83.834C213.942 83.6464 214.386 83.4402 214.825 83.2315V68.0312H213.477Z" fill="#4F79E1"/>
<path d="M210.188 68.0305V84.9141C210.644 84.7925 211.095 84.663 211.535 84.523V68.0305H210.188Z" fill="#4F79E1"/>
<path d="M201.493 55.1386C189.623 55.1386 180 60.9127 180 68.0318C180 75.1536 189.623 80.9277 201.493 80.9277C213.364 80.9277 222.986 75.1536 222.986 68.0318C222.986 60.9127 213.364 55.1386 201.493 55.1386Z" fill="#C5D2F8"/>
<path d="M201.495 57.7078C211.482 57.7078 219.622 62.3958 220.186 68.3047L220.241 67.6546C220.241 61.4445 211.848 56.4077 201.495 56.4077C191.143 56.4077 182.75 61.4445 182.75 67.6546L182.805 68.3047C183.368 62.3958 191.508 57.7078 201.495 57.7078Z" fill="#4F79E1"/>
<path d="M201.495 78.9023C191.508 78.9023 183.368 74.2117 182.805 68.3055C183.368 62.3966 191.508 57.7086 201.495 57.7086C211.482 57.7086 219.622 62.3966 220.186 68.3055C219.622 74.2117 211.482 78.9023 201.495 78.9023Z" fill="#A9BCF4"/>
<path d="M270.315 8.09016L267.517 6.47469L267.016 8.30011L264.734 8.00242L265.476 5.29618L263.435 4.11768L262.955 5.93067L260.651 5.64541L261.394 2.93917L256.83 0.304094L252.714 2.68016L249.824 1.01172L261.287 -5.60644L264.177 -3.938L260.04 -1.54949L262.265 -0.265051L262.781 -2.23133L265.085 -1.94607L264.306 0.913453L266.347 2.09196L266.864 0.151362L269.168 0.436615L268.388 3.27046L273.526 6.23658L270.315 8.09016Z" fill="#4F79E1"/>
<path d="M299.296 34.4378L296.498 32.8223L295.997 34.6478L293.714 34.3501L294.457 31.6438L292.415 30.4653L291.936 32.2783L289.632 31.9931L290.374 29.2868L285.81 26.6518L281.695 29.0278L278.805 27.3594L290.268 20.7412L293.158 22.4097L289.02 24.7982L291.245 26.0826L291.761 24.1163L294.065 24.4016L293.286 27.2611L295.328 28.4396L295.845 26.499L298.149 26.7843L297.369 29.6181L302.506 32.5842L299.296 34.4378Z" fill="#4F79E1"/>
<path d="M265.046 98.9925L262.248 97.377L261.747 99.2025L259.464 98.9048L260.207 96.1985L258.165 95.02L257.686 96.833L255.382 96.5478L256.124 93.8415L251.56 91.2064L247.445 93.5825L244.555 91.9141L256.018 85.2959L258.908 86.9643L254.77 89.3529L256.995 90.6373L257.511 88.671L259.815 88.9563L259.036 91.8158L261.078 92.9943L261.595 91.0537L263.899 91.339L263.119 94.1728L268.256 97.1389L265.046 98.9925Z" fill="#4F79E1"/>
<path d="M209.71 73.9613L206.912 72.3458L206.411 74.1712L204.128 73.8735L204.871 71.1673L202.829 69.9888L202.35 71.8018L200.046 71.5165L200.788 68.8103L196.224 66.1752L192.109 68.5513L189.219 66.8828L200.682 60.2647L203.572 61.9331L199.435 64.3216L201.659 65.606L202.175 63.6398L204.479 63.925L203.7 66.7845L205.742 67.963L206.259 66.0225L208.563 66.3077L207.783 69.1416L212.92 72.1077L209.71 73.9613Z" fill="#4F79E1"/>
<path d="M70.8014 146.292C70.8014 148.643 73.9169 150.547 77.7601 150.547C81.6034 150.547 84.7188 148.643 84.7188 146.292C84.7188 143.942 81.6034 142.036 77.7601 142.036C73.9169 142.036 70.8014 143.942 70.8014 146.292Z" fill="#4F79E1"/>
<path d="M69.0214 131.829C69.0214 134.78 72.9341 137.174 77.7607 137.174C82.5873 137.174 86.5 134.78 86.5 131.829C86.5 128.876 82.5873 126.484 77.7607 126.484C72.9341 126.484 69.0214 128.876 69.0214 131.829Z" fill="#4F79E1"/>
<path d="M86.4414 132.425L84.7169 146.293H70.7996L69.019 131.83L86.4414 132.425Z" fill="#4F79E1"/>
<path d="M95.1467 131.771C95.1467 134.122 98.2621 136.027 102.105 136.027C105.947 136.027 109.062 134.122 109.062 131.771C109.062 129.421 105.947 127.515 102.105 127.515C98.2621 127.515 95.1467 129.421 95.1467 131.771Z" fill="#4F79E1"/>
<path d="M93.3706 117.308C93.3706 120.259 97.2832 122.652 102.11 122.652C106.936 122.652 110.848 120.259 110.848 117.308C110.848 114.356 106.936 111.963 102.11 111.963C97.2832 111.963 93.3706 114.356 93.3706 117.308Z" fill="#4F79E1"/>
<path d="M110.789 117.904L109.065 131.771H95.1487L93.3681 117.309L110.789 117.904Z" fill="#4F79E1"/>
<path d="M44.0398 130.124C44.0398 132.475 47.1551 134.379 50.9984 134.379C54.8417 134.379 57.957 132.475 57.957 130.124C57.957 127.774 54.8417 125.868 50.9984 125.868C47.1551 125.868 44.0398 127.774 44.0398 130.124Z" fill="#4F79E1"/>
<path d="M42.2637 110.317C42.2637 113.269 46.1763 115.662 51.0029 115.662C55.8295 115.662 59.7422 113.269 59.7422 110.317C59.7422 107.364 55.8295 104.973 51.0029 104.973C46.1763 104.973 42.2637 107.364 42.2637 110.317Z" fill="#4F79E1"/>
<path d="M59.6875 116.257L57.9629 130.125H44.0457L41.0602 105.87L59.6875 116.257Z" fill="#4F79E1"/>
<path d="M42.4965 73.1987C32.1538 91.7996 40.2597 116.763 60.5996 128.957C80.9381 141.152 105.811 135.959 116.152 117.358C126.495 98.7573 118.389 73.7935 98.049 61.5999C77.709 49.4048 52.8378 54.5978 42.4965 73.1987Z" fill="#A9BCF4"/>
<path d="M39.7498 79.5784C41.1289 92.8131 49.1196 105.827 62.1229 113.623C82.4629 125.817 107.334 120.624 117.675 102.023C118.82 99.967 119.725 97.8297 120.426 95.6433C121.204 103.112 119.886 110.649 116.155 117.358C105.813 135.959 80.9406 141.152 60.6021 128.957C42.5108 118.111 34.1112 97.1659 39.7498 79.5784Z" fill="#A9BCF4"/>
<path d="M60.5258 128.914L60.5229 128.913C60.514 128.906 60.5051 128.9 60.4963 128.896C60.5051 128.902 60.5169 128.908 60.5258 128.914ZM60.4667 128.879C60.4652 128.877 60.4638 128.876 60.4608 128.874C60.4549 128.871 60.4505 128.868 60.4446 128.865C60.452 128.87 60.4593 128.874 60.4667 128.879ZM60.4121 128.845C60.4092 128.844 60.4062 128.842 60.4033 128.84C60.4003 128.837 60.3973 128.836 60.3929 128.834C60.3988 128.837 60.4062 128.842 60.4121 128.845ZM60.3545 128.81C60.3531 128.808 60.3486 128.807 60.3457 128.805C60.3442 128.804 60.3427 128.804 60.3412 128.802C60.3456 128.805 60.3516 128.808 60.3545 128.81ZM60.3235 128.791L60.3206 128.79C60.3191 128.788 60.3147 128.785 60.3117 128.784C60.3161 128.787 60.3191 128.788 60.3235 128.791ZM60.2718 128.759C60.2689 128.758 60.2689 128.758 60.2659 128.756C60.2615 128.753 60.2541 128.749 60.2497 128.745C60.2571 128.75 60.2645 128.755 60.2718 128.759ZM60.2217 128.729C60.2187 128.727 60.2158 128.726 60.2128 128.724C60.2069 128.719 60.1995 128.716 60.1935 128.712C60.2024 128.718 60.2113 128.722 60.2217 128.729ZM60.1685 128.696C60.1596 128.69 60.1508 128.686 60.1419 128.681C60.1508 128.686 60.1596 128.692 60.1685 128.696ZM60.1124 128.663C60.105 128.657 60.0961 128.652 60.0873 128.646C60.0947 128.652 60.105 128.658 60.1124 128.663ZM60.0592 128.629C60.0504 128.624 60.0415 128.618 60.0326 128.614C60.0415 128.618 60.0489 128.623 60.0592 128.629ZM59.9647 128.571C59.9618 128.569 59.9603 128.568 59.9574 128.566C59.9603 128.568 59.9632 128.571 59.9647 128.571ZM59.9205 128.543C59.919 128.543 59.919 128.542 59.9175 128.542C59.9146 128.54 59.9145 128.54 59.913 128.538C59.9101 128.537 59.9086 128.535 59.9042 128.534C59.9101 128.537 59.9146 128.54 59.9205 128.543ZM59.8688 128.511C59.8673 128.511 59.8658 128.509 59.8643 128.508C59.8628 128.508 59.8614 128.506 59.8599 128.506C59.8584 128.505 59.854 128.502 59.851 128.5C59.8584 128.505 59.8629 128.508 59.8688 128.511ZM59.8171 128.479C59.8126 128.476 59.8053 128.471 59.8009 128.468C59.8068 128.473 59.8112 128.476 59.8171 128.479ZM59.6193 128.354C59.6178 128.353 59.6178 128.353 59.6163 128.353C59.6178 128.353 59.6178 128.354 59.6193 128.354ZM59.569 128.322C59.5675 128.322 59.569 128.322 59.5676 128.322H59.569ZM116.183 117.303C116.185 117.3 116.187 117.297 116.189 117.292C116.187 117.294 116.187 117.295 116.187 117.297C116.186 117.298 116.185 117.302 116.183 117.303ZM116.214 117.248C116.216 117.246 116.216 117.243 116.217 117.242C116.217 117.243 116.216 117.245 116.214 117.246V117.248ZM116.245 117.191C116.248 117.187 116.249 117.182 116.252 117.177C116.251 117.182 116.248 117.185 116.247 117.188C116.247 117.19 116.245 117.19 116.245 117.191ZM116.276 117.134C116.278 117.131 116.279 117.128 116.28 117.125C116.279 117.128 116.278 117.13 116.278 117.133L116.276 117.134Z" fill="#819EEF"/>
<path d="M60.5354 128.916C60.5324 128.914 60.5295 128.911 60.5266 128.911L60.5295 128.913C60.5324 128.914 60.5324 128.914 60.5354 128.916ZM60.4823 128.884C60.4763 128.881 60.4704 128.878 60.4645 128.873C60.4675 128.875 60.469 128.876 60.4704 128.878C60.4749 128.879 60.4778 128.882 60.4823 128.884ZM60.4306 128.853C60.4217 128.849 60.4158 128.844 60.407 128.839C60.4099 128.841 60.4129 128.842 60.4159 128.844C60.4203 128.847 60.4247 128.85 60.4306 128.853ZM60.376 128.819C60.3671 128.815 60.3582 128.809 60.3494 128.804C60.3523 128.806 60.3568 128.807 60.3582 128.809C60.3656 128.813 60.3701 128.816 60.376 128.819ZM60.3243 128.789C60.314 128.783 60.3051 128.776 60.2933 128.769C60.3007 128.773 60.3095 128.78 60.3154 128.783C60.3184 128.784 60.3228 128.787 60.3243 128.789ZM60.2696 128.755C60.2608 128.75 60.2505 128.743 60.2416 128.738C60.246 128.74 60.249 128.743 60.2534 128.744C60.2579 128.747 60.2652 128.752 60.2696 128.755ZM60.2165 128.723C60.2077 128.717 60.1988 128.712 60.1899 128.706C60.1929 128.709 60.1943 128.709 60.1973 128.711C60.2032 128.715 60.2106 128.718 60.2165 128.723ZM60.1722 128.695C60.1604 128.689 60.1486 128.681 60.1368 128.674C60.1412 128.675 60.1427 128.677 60.1456 128.68C60.1545 128.684 60.1633 128.689 60.1722 128.695ZM60.1234 128.665C60.1102 128.658 60.0955 128.649 60.0836 128.642C60.0866 128.642 60.088 128.645 60.091 128.645C60.0999 128.651 60.1087 128.655 60.1161 128.662C60.119 128.663 60.1205 128.665 60.1234 128.665ZM60.0718 128.634C60.0571 128.625 60.0438 128.616 60.029 128.608C60.0305 128.608 60.0349 128.611 60.0364 128.612C60.0452 128.617 60.0541 128.623 60.063 128.628C60.0659 128.629 60.0689 128.631 60.0718 128.634ZM59.9684 128.57C59.9537 128.56 59.936 128.55 59.9212 128.54C59.9227 128.54 59.9227 128.542 59.9242 128.542C59.9375 128.55 59.9493 128.557 59.9611 128.565C59.964 128.566 59.9655 128.568 59.9684 128.57ZM59.9167 128.537C59.9005 128.528 59.8843 128.517 59.868 128.507C59.8695 128.508 59.871 128.51 59.8725 128.51C59.8843 128.517 59.8975 128.525 59.9079 128.533C59.9123 128.534 59.9138 128.536 59.9167 128.537ZM59.8636 128.505C59.7957 128.462 59.7278 128.419 59.6584 128.376C59.7071 128.405 59.7573 128.438 59.8046 128.467C59.809 128.47 59.8164 128.474 59.8208 128.478C59.8326 128.485 59.8444 128.493 59.8547 128.499C59.8577 128.501 59.8621 128.504 59.8636 128.505ZM59.6554 128.373C59.6392 128.363 59.6229 128.353 59.6067 128.343C59.6111 128.346 59.6141 128.349 59.62 128.352C59.6215 128.352 59.6215 128.352 59.623 128.353C59.6333 128.359 59.6451 128.367 59.6554 128.373ZM59.6038 128.341C59.5875 128.332 59.5727 128.321 59.5565 128.312C59.5609 128.315 59.5668 128.318 59.5713 128.321C59.5728 128.321 59.5712 128.321 59.5727 128.321C59.5845 128.329 59.5935 128.335 59.6038 128.341ZM59.4487 128.243C59.431 128.232 59.4162 128.222 59.4 128.211C59.4147 128.222 59.4325 128.232 59.4487 128.243ZM59.3985 128.211C59.3823 128.2 59.366 128.191 59.3498 128.18C59.366 128.189 59.3823 128.2 59.3985 128.211ZM57.324 126.806C57.3093 126.796 57.2916 126.783 57.2783 126.774C57.2931 126.785 57.3078 126.796 57.324 126.806ZM57.2739 126.771C57.2606 126.76 57.2429 126.748 57.2281 126.739C57.2443 126.75 57.2591 126.76 57.2739 126.771ZM57.2251 126.736C57.1927 126.713 57.1602 126.69 57.1292 126.667C57.1617 126.69 57.1927 126.713 57.2251 126.736ZM56.6375 126.306C56.6227 126.296 56.608 126.285 56.5932 126.274C56.608 126.285 56.6242 126.297 56.6375 126.306ZM56.5873 126.27C56.574 126.261 56.5607 126.25 56.5475 126.241C56.5607 126.25 56.574 126.259 56.5873 126.27ZM56.4914 126.198C56.4781 126.187 56.4618 126.176 56.447 126.165C56.4633 126.176 56.4766 126.187 56.4914 126.198ZM56.4441 126.162C56.4278 126.15 56.4145 126.139 56.3983 126.127C56.4131 126.139 56.4293 126.152 56.4441 126.162ZM56.3481 126.09C56.2507 126.018 56.1562 125.945 56.0602 125.873C56.1562 125.945 56.2521 126.018 56.3481 126.09ZM56.0587 125.871C56.044 125.859 56.0292 125.848 56.0145 125.837C56.0292 125.848 56.044 125.86 56.0587 125.871ZM56.007 125.831C55.9938 125.822 55.982 125.811 55.9687 125.802C55.982 125.811 55.9938 125.821 56.007 125.831ZM55.9569 125.793C55.9451 125.784 55.9332 125.774 55.9214 125.765C55.9332 125.774 55.9451 125.782 55.9569 125.793ZM55.9111 125.756C55.8978 125.747 55.8875 125.739 55.8757 125.73C55.8875 125.739 55.8993 125.748 55.9111 125.756ZM55.8136 125.682C55.8048 125.675 55.7944 125.667 55.7856 125.66C55.7959 125.667 55.8033 125.675 55.8136 125.682ZM55.7664 125.646C55.7561 125.638 55.7457 125.629 55.7368 125.621C55.7457 125.629 55.7575 125.638 55.7664 125.646ZM55.7221 125.61C55.7118 125.603 55.7015 125.595 55.6911 125.586C55.7015 125.594 55.7118 125.603 55.7221 125.61ZM55.4755 125.417C55.4652 125.41 55.4534 125.4 55.4445 125.393C55.4548 125.4 55.4652 125.41 55.4755 125.417ZM55.4283 125.379C55.4179 125.371 55.4091 125.365 55.3987 125.357C55.4091 125.364 55.4194 125.373 55.4283 125.379ZM55.3781 125.341C55.3707 125.334 55.3619 125.327 55.353 125.321C55.3619 125.327 55.3707 125.333 55.3781 125.341ZM55.3308 125.302C55.3249 125.298 55.3161 125.29 55.3087 125.285C55.3161 125.29 55.3234 125.298 55.3308 125.302ZM55.2836 125.264C55.2777 125.259 55.2703 125.255 55.2644 125.249C55.2703 125.255 55.2762 125.259 55.2836 125.264ZM55.2364 125.227C55.2319 125.223 55.226 125.218 55.2201 125.215C55.226 125.218 55.2305 125.223 55.2364 125.227ZM55.192 125.19C55.1861 125.186 55.1803 125.183 55.1744 125.177C55.1803 125.181 55.1861 125.186 55.192 125.19ZM55.009 125.043C55.009 125.043 55.006 125.04 55.0045 125.04L55.009 125.043ZM116.184 117.307C116.185 117.305 116.185 117.303 116.187 117.302C116.188 117.3 116.19 117.297 116.191 117.296C116.188 117.299 116.187 117.304 116.184 117.307ZM116.216 117.25C116.216 117.248 116.218 117.248 116.218 117.247V117.245C116.218 117.247 116.216 117.248 116.216 117.25ZM116.247 117.192C116.249 117.192 116.249 117.19 116.249 117.19C116.249 117.188 116.25 117.188 116.25 117.187C116.25 117.188 116.249 117.19 116.247 117.192ZM116.278 117.135C116.28 117.135 116.28 117.133 116.28 117.133L116.281 117.132C116.28 117.133 116.28 117.135 116.278 117.135Z" fill="#819EEF"/>
<path d="M83.8139 135.555C97.1937 135.555 109.592 129.151 116.147 117.359C116.158 117.342 116.166 117.325 116.175 117.308C116.178 117.305 116.18 117.3 116.183 117.297C116.183 117.296 116.183 117.294 116.184 117.293C116.191 117.279 116.199 117.265 116.208 117.251C116.208 117.25 116.209 117.248 116.209 117.247C116.211 117.245 116.212 117.244 116.212 117.242C116.221 117.225 116.23 117.21 116.239 117.193C116.24 117.191 116.242 117.19 116.242 117.188C116.243 117.185 116.246 117.182 116.248 117.178C116.255 117.164 116.262 117.15 116.27 117.136C116.271 117.136 116.271 117.135 116.273 117.133C116.273 117.13 116.274 117.129 116.276 117.126C116.286 117.109 116.295 117.092 116.304 117.075C116.305 117.072 116.308 117.069 116.31 117.064C116.317 117.049 116.326 117.034 116.335 117.018C116.336 117.015 116.338 117.014 116.338 117.012C116.348 116.994 116.357 116.975 116.367 116.958C116.369 116.955 116.369 116.954 116.37 116.952C116.381 116.934 116.389 116.915 116.4 116.899C118.961 112.124 120.314 106.947 120.578 101.683C119.856 105.081 118.648 108.391 116.908 111.52C110.351 123.314 97.9555 129.718 84.5742 129.716C76.8508 129.716 68.7981 127.582 61.3537 123.119C46.366 114.134 38.0401 98.2164 38.8271 83.0192C35.6512 97.8561 41.8553 114.389 54.996 125.041C54.9974 125.041 55.0004 125.045 55.0004 125.045C55.0137 125.055 55.0255 125.064 55.0373 125.075C55.0403 125.078 55.0433 125.08 55.0462 125.081C55.0565 125.091 55.0683 125.1 55.0787 125.109C55.0831 125.112 55.0876 125.115 55.092 125.12C55.1023 125.127 55.1126 125.135 55.1215 125.143C55.1274 125.147 55.1333 125.152 55.1377 125.156C55.148 125.164 55.157 125.172 55.1658 125.178C55.1717 125.184 55.1776 125.187 55.1835 125.192C55.1923 125.201 55.2027 125.207 55.2115 125.216C55.2174 125.219 55.2234 125.224 55.2278 125.228C55.2367 125.236 55.247 125.244 55.2559 125.25C55.2618 125.256 55.2691 125.261 55.275 125.265C55.2824 125.273 55.2927 125.279 55.3001 125.287C55.3075 125.291 55.3163 125.299 55.3223 125.304C55.3296 125.31 55.3371 125.316 55.3445 125.322C55.3533 125.328 55.3622 125.336 55.3695 125.342C55.3769 125.347 55.3828 125.353 55.3902 125.359C55.4005 125.366 55.4094 125.373 55.4197 125.38C55.4256 125.385 55.43 125.389 55.4359 125.394C55.4448 125.402 55.4566 125.411 55.4669 125.419C55.4729 125.423 55.4773 125.426 55.4817 125.431C55.5127 125.454 55.5423 125.478 55.5733 125.501C55.5777 125.506 55.5851 125.512 55.591 125.517C55.6014 125.524 55.6102 125.531 55.6205 125.538C55.6249 125.543 55.6309 125.547 55.6353 125.55C55.6456 125.558 55.656 125.567 55.6663 125.575C55.6707 125.58 55.6767 125.583 55.6826 125.587C55.6929 125.597 55.7032 125.604 55.7136 125.612C55.7195 125.616 55.7224 125.618 55.7283 125.623C55.7371 125.63 55.7475 125.639 55.7578 125.647C55.7638 125.652 55.7711 125.656 55.777 125.661C55.7859 125.669 55.7962 125.676 55.8051 125.684C55.8095 125.687 55.8169 125.693 55.8214 125.696C55.8317 125.704 55.842 125.711 55.8524 125.719C55.8583 125.724 55.8612 125.727 55.8671 125.731C55.879 125.741 55.8892 125.748 55.9025 125.757C55.9055 125.761 55.9099 125.764 55.9128 125.767C55.9247 125.776 55.9365 125.785 55.9483 125.794C55.9513 125.796 55.9557 125.8 55.9601 125.803C55.9734 125.813 55.9852 125.823 55.9985 125.833C56 125.834 56.0044 125.837 56.0059 125.839C56.0207 125.85 56.0354 125.86 56.0502 125.872C56.0517 125.872 56.0517 125.873 56.0517 125.874C56.1477 125.946 56.2421 126.02 56.3396 126.092C56.3396 126.092 56.3425 126.093 56.3425 126.095C56.3588 126.106 56.3735 126.118 56.3883 126.129C56.3898 126.129 56.3883 126.129 56.3897 126.129C56.406 126.141 56.4193 126.152 56.4355 126.164C56.437 126.165 56.4385 126.165 56.4385 126.167C56.4532 126.178 56.4695 126.188 56.4828 126.199C56.4843 126.201 56.4873 126.202 56.4887 126.204C56.502 126.213 56.5153 126.224 56.5286 126.234C56.533 126.236 56.536 126.239 56.5389 126.242C56.5522 126.251 56.5655 126.262 56.5788 126.271C56.5803 126.273 56.5832 126.274 56.5847 126.276C56.5995 126.286 56.6142 126.297 56.629 126.308C56.6304 126.309 56.6304 126.309 56.6319 126.311C56.7943 126.431 56.9553 126.549 57.1192 126.667L57.1206 126.668C57.1516 126.691 57.1841 126.714 57.2166 126.737C57.2181 126.739 57.2195 126.739 57.2195 126.74C57.2343 126.749 57.252 126.762 57.2653 126.772C57.2668 126.774 57.2683 126.774 57.2698 126.776C57.2831 126.785 57.3007 126.797 57.3155 126.808C57.3155 126.809 57.317 126.809 57.3185 126.811C57.9755 127.28 58.6488 127.737 59.3369 128.177C59.3383 128.178 59.3398 128.18 59.3413 128.181C59.3575 128.192 59.3738 128.201 59.39 128.212C59.39 128.212 59.39 128.212 59.3914 128.212C59.4077 128.223 59.4225 128.234 59.4402 128.244C59.4416 128.244 59.4431 128.246 59.4431 128.246C59.4594 128.257 59.4756 128.267 59.4919 128.277C59.4933 128.278 59.4933 128.278 59.4948 128.278C59.5111 128.289 59.5258 128.298 59.542 128.309C59.5435 128.31 59.5465 128.312 59.5479 128.313C59.5642 128.323 59.579 128.333 59.5952 128.342L59.5981 128.344C59.6144 128.355 59.6306 128.364 59.6469 128.375C59.6483 128.376 59.6483 128.376 59.6498 128.378C59.7192 128.421 59.7871 128.464 59.8551 128.507C59.8565 128.507 59.858 128.508 59.8595 128.508C59.8757 128.519 59.892 128.53 59.9082 128.539C59.9097 128.54 59.9097 128.54 59.9127 128.542C59.9274 128.551 59.9451 128.562 59.9599 128.571C59.9643 128.574 59.9658 128.574 59.9688 128.577C59.982 128.585 59.9983 128.595 60.013 128.603C60.016 128.606 60.0175 128.606 60.0205 128.609C60.0352 128.617 60.0485 128.626 60.0633 128.635C60.0677 128.637 60.0707 128.64 60.0751 128.643C60.0869 128.651 60.1016 128.66 60.1149 128.666C60.1193 128.669 60.1238 128.672 60.1282 128.675C60.14 128.683 60.1518 128.691 60.1636 128.697C60.1695 128.7 60.1755 128.704 60.1814 128.707C60.1902 128.714 60.1991 128.718 60.208 128.724C60.2109 128.726 60.2139 128.727 60.2168 128.729C60.2213 128.732 60.2271 128.737 60.2331 128.74C60.2419 128.744 60.2522 128.752 60.2611 128.756C60.2641 128.758 60.2641 128.758 60.267 128.76C60.2729 128.764 60.2788 128.767 60.2847 128.77C60.2966 128.778 60.3054 128.784 60.3157 128.79L60.3187 128.792C60.3246 128.795 60.3305 128.799 60.3364 128.802C60.3378 128.804 60.3394 128.804 60.3408 128.805C60.3497 128.81 60.3586 128.816 60.3674 128.821C60.3748 128.825 60.3821 128.83 60.3881 128.835C60.3925 128.836 60.3955 128.838 60.3984 128.841C60.4073 128.845 60.4132 128.85 60.422 128.855C60.4279 128.858 60.4338 128.861 60.4397 128.865C60.4457 128.868 60.4501 128.871 60.456 128.875C60.4619 128.879 60.4678 128.882 60.4737 128.885C60.4796 128.89 60.4855 128.893 60.4914 128.896C60.5003 128.901 60.5092 128.907 60.518 128.913C60.521 128.913 60.5239 128.916 60.5268 128.917C60.5327 128.92 60.5372 128.924 60.5431 128.927C60.5594 128.937 60.577 128.948 60.5947 128.957C68.0391 133.422 76.0889 135.555 83.8139 135.555Z" fill="#819EEF"/>
<path d="M62.1241 113.622C49.1208 105.826 41.1301 92.8119 39.751 79.5773C40.4509 77.3924 41.356 75.2536 42.4988 73.1976C52.8415 54.5967 77.7127 49.4036 98.0527 61.5988C111.056 69.3936 119.047 82.4075 120.426 95.6422C119.726 97.8286 118.821 99.9659 117.678 102.022C107.335 120.623 82.4641 125.816 62.1241 113.622Z" fill="#C5D2F8"/>
<path d="M99.1093 119.371C99.1093 125.82 103.285 126.31 107.543 122.899C111.835 119.46 115.977 114.942 115.977 109.258C115.977 102.809 112.201 99.8441 107.543 102.638C102.886 105.43 99.1093 112.921 99.1093 119.371Z" fill="#4F79E1"/>
<path d="M119.496 106.027L113.038 102.14L100.81 124.35L107.786 128.438L119.496 106.027Z" fill="#4F79E1"/>
<path d="M105.211 122.991C105.211 129.439 109.386 129.929 113.644 126.519C117.937 123.08 122.078 118.561 122.078 112.878C122.078 106.429 118.301 103.464 113.644 106.257C108.986 109.049 105.211 116.541 105.211 122.991Z" fill="#A9BCF4"/>
<path d="M108.912 121.625C108.912 123.06 109.752 123.719 110.787 123.098C111.824 122.476 112.664 120.809 112.664 119.376C112.664 117.941 111.824 117.281 110.787 117.902C109.752 118.523 108.912 120.19 108.912 121.625Z" fill="#4F79E1"/>
<path d="M116.059 117.244C116.059 118.679 116.899 119.338 117.936 118.718C118.972 118.097 119.812 116.43 119.812 114.995C119.812 113.56 118.972 112.901 117.936 113.522C116.899 114.144 116.059 115.811 116.059 117.244Z" fill="#4F79E1"/>
<path d="M92.1614 107.567C92.1614 109.425 93.4297 110.934 94.9948 110.934C96.5598 110.934 97.8281 109.425 97.8281 107.567C97.8281 105.707 96.5598 104.2 94.9948 104.2C93.4297 104.2 92.1614 105.707 92.1614 107.567Z" fill="#253D7F"/>
<path d="M112.886 95.2776C112.886 97.1374 114.124 98.6445 115.653 98.6445C117.179 98.6445 118.418 97.1374 118.418 95.2776C118.418 93.4178 117.179 91.9107 115.653 91.9107C114.124 91.9107 112.886 93.4178 112.886 95.2776Z" fill="#253D7F"/>
<path d="M112.891 64.907C112.891 64.907 107.214 61.1491 101.631 64.4393C96.2847 67.5916 95.0002 72.2434 95.0002 72.2434L98.8848 74.4941L112.891 64.907Z" fill="#A9BCF4"/>
<path d="M85.6172 83.7129L80.8437 81.5602C80.8437 81.5602 71.3145 78.4463 66.0391 86.8498C63.3873 91.0753 62.906 98.6509 65.5253 103.019C68.1165 107.338 73.7936 108.473 73.7936 108.473L74.7031 93.116L85.6172 83.7129Z" fill="#A9BCF4"/>
<path d="M85.6172 83.7129C85.6172 83.7129 82.5284 86.764 78.4135 94.2859C75.301 99.9726 73.7936 108.473 73.7936 108.473C73.7936 108.473 62.7303 102.751 67.0328 90.919C72.0986 76.9882 85.6172 83.7129 85.6172 83.7129Z" fill="#4F79E1"/>
<path d="M109.388 76.5559C104.734 74.644 98.8811 74.4937 98.8811 74.4937C98.8811 74.4937 101.989 62.1882 110.829 64.1767C121.368 66.5471 116.822 83.1641 116.822 83.1641C116.822 83.1641 114.086 78.4878 109.388 76.5559Z" fill="#4F79E1"/>
<path d="M69.9675 59.2493C72.259 59.9055 76.5053 61.7454 78.6831 63.0516C80.7915 64.315 84.4399 66.3634 86.9839 68.8978C88.0499 69.9587 88.7911 72.1252 86.913 73.2046C85.4218 74.0617 83.0801 73.2306 81.927 72.2739C78.8972 69.7579 76.0077 67.8567 73.9687 66.6348C71.7215 65.2871 66.8034 63.5008 64.5828 62.4077C63.2495 61.7515 62.8656 60.7549 64.3421 59.8702C65.8171 58.9856 68.7656 58.9043 69.9675 59.2493Z" fill="#253D7F"/>
<path d="M76.2462 62.4055C75.5605 61.7273 74.8235 60.9498 74.082 60.0634C73.0564 58.8425 72.1183 57.6563 71.3794 56.7189C70.1682 55.188 69.8632 54.8145 69.6376 54.6793L69.0996 55.5199C69.2606 55.6463 69.939 56.5067 70.5961 57.3389C71.3422 58.2814 72.2857 59.4752 73.3171 60.7058C74.2889 61.8657 75.2474 62.8465 76.0893 63.6476L76.2462 62.4055Z" fill="#819EEF"/>
<path d="M76.0049 66C75.4523 66 75.0039 65.7578 75.0039 65.4579V33.5421C75.0039 33.2422 75.4523 33 76.0049 33C76.5576 33 77.0039 33.2422 77.0039 33.5421V65.4579C77.0039 65.7578 76.5576 66 76.0049 66Z" fill="#819EEF"/>
<path d="M65.9093 44.9063C72.5737 49.9401 71.9165 57.8896 71.9165 57.8896C71.9165 57.8896 65.5644 58.5532 60.6479 53.1947C55.7314 47.8361 55.0015 43.3038 55.0015 43.3038C55.0015 43.3038 61.7439 41.7576 65.9093 44.9063Z" fill="#C5D2F8"/>
<path d="M71.7045 57.904C71.6042 57.9092 71.4639 57.9143 71.2915 57.9161C71.1652 57.917 71.026 57.9156 70.8693 57.9107C69.0384 57.8545 65.125 57.333 61.6466 54.1861C61.3081 53.8811 60.976 53.5498 60.6485 53.1946C60.4481 52.9775 60.2558 52.7591 60.0683 52.5442C56.3392 48.2422 55.292 44.5875 55.0601 43.5791C55.0479 43.5283 55.0387 43.4834 55.0312 43.4488C56.8765 44.3895 58.8021 45.1702 60.5817 46.256C66.7173 49.9993 69.3514 53.8875 70.5457 55.794C70.9369 56.4214 71.3044 57.1663 71.7045 57.904Z" fill="#819EEF"/>
<path d="M76.0039 61.0685C76.547 60.2715 77.1193 59.3683 77.6791 58.3549C78.4491 56.9585 79.14 55.6142 79.6873 54.5529C80.58 52.8173 80.8089 52.3928 81.0024 52.2159L81.6933 52.936C81.5602 53.0941 81.0587 54.068 80.5738 55.0107C80.0244 56.0782 79.3272 57.4309 78.551 58.8376C77.8206 60.1611 77.0694 61.3099 76.3952 62.2588L76.0039 61.0685Z" fill="#819EEF"/>
<path d="M82.7439 41.6715C77.1731 47.8916 79.3477 55.5684 79.3477 55.5684C79.3477 55.5684 85.7072 54.9961 89.5029 48.7927C93.2966 42.5893 93.1405 38.0027 93.1405 38.0027C93.1405 38.0027 86.2274 37.7801 82.7439 41.6715Z" fill="#C5D2F8"/>
<path d="M79.5586 55.541C79.8083 54.7378 80.0268 53.9387 80.2911 53.2478C81.0944 51.146 82.9339 46.8238 88.2342 41.9709C89.7721 40.5621 91.5118 39.4259 93.1412 38.1502C93.1412 38.1898 93.1391 38.2439 93.1391 38.3084C93.0996 39.4134 92.7333 43.4172 89.6347 48.5739C89.6347 48.576 89.6347 48.576 89.6326 48.578C89.6285 48.5884 89.6202 48.5989 89.6139 48.6093C89.6139 48.6113 89.6118 48.6134 89.6098 48.6155C89.6056 48.6238 89.6014 48.6321 89.5952 48.6405C89.5931 48.6446 89.591 48.6488 89.5889 48.653C89.5827 48.6613 89.5786 48.6696 89.5723 48.6779C89.5702 48.6821 89.5702 48.6842 89.5682 48.6883C89.5619 48.6946 89.5577 48.7008 89.5536 48.7091C89.5515 48.7133 89.5473 48.7195 89.5452 48.7237C89.5411 48.7299 89.5369 48.7362 89.5327 48.7424C89.5307 48.7487 89.5265 48.7528 89.5245 48.7591C89.5161 48.7695 89.5099 48.782 89.5036 48.7924C89.4953 48.8049 89.489 48.8153 89.4828 48.8278C89.4786 48.8319 89.4745 48.8382 89.4724 48.8423C89.4683 48.8486 89.4641 48.8548 89.462 48.8611C89.4579 48.8673 89.4537 48.8735 89.4495 48.8798C89.4454 48.8839 89.4433 48.8902 89.4412 48.8944C89.437 48.9006 89.4329 48.9068 89.4287 48.9131C89.4245 48.9193 89.4225 48.9235 89.4183 48.9276C89.4142 48.9339 89.41 48.9422 89.4058 48.9485C89.4038 48.9526 89.4017 48.9568 89.3996 48.9609C89.3933 48.9672 89.3892 48.9755 89.385 48.9817C89.3829 48.9859 89.3808 48.9901 89.3767 48.9942C89.3725 49.0005 89.3684 49.0088 89.3642 49.015C89.3621 49.0213 89.358 49.0234 89.3559 49.0275C89.3517 49.0358 89.3476 49.0421 89.3434 49.0483C89.3413 49.0525 89.3371 49.0567 89.3351 49.0629C89.3205 49.0858 89.3059 49.1087 89.2914 49.1295C89.2872 49.1358 89.283 49.142 89.2789 49.1461C89.2768 49.1524 89.2726 49.1565 89.2705 49.1607C89.2664 49.1669 89.2623 49.1753 89.256 49.1815C89.2539 49.1857 89.2518 49.1898 89.2498 49.1919C89.2456 49.2002 89.2393 49.2086 89.2352 49.2148C89.2331 49.219 89.231 49.2231 89.2289 49.2252C89.2227 49.2336 89.2165 49.244 89.2102 49.2523C89.2102 49.2544 89.2082 49.2564 89.2082 49.2585C89.1998 49.2669 89.1936 49.2772 89.1873 49.2876C89.1873 49.2897 89.1852 49.2897 89.1852 49.2897C86.3364 53.5682 82.268 54.9563 80.3806 55.387C80.2266 55.4203 80.0872 55.4495 79.9644 55.4724C79.7958 55.5056 79.6585 55.5264 79.5586 55.541Z" fill="#819EEF"/>
<path d="M85.0218 15.928L80.9431 13.6243L80.9368 13.6348L80.7807 13.539C79.6841 13 78.4042 12.8565 77.0121 13.1478L84.077 17.2265L82.4414 18.1713L74.9706 13.8595C74.7188 13.9823 74.4629 14.1092 74.2048 14.257C73.8781 14.4463 73.5535 14.6607 73.233 14.8833L79.1284 18.2878L77.4928 19.2326L71.8554 15.9779C71.3663 16.4087 70.8919 16.879 70.432 17.3826L76.8913 21.1117L75.2536 22.0565L69.3519 18.6499C68.9399 19.1743 68.5445 19.7237 68.1679 20.296L74.9144 24.1916L73.2767 25.1364L67.3105 21.6902C66.9776 22.2688 66.6654 22.8619 66.372 23.4695L73.0977 27.3547L71.4621 28.2995L65.6978 24.9699C65.4127 25.6587 65.1484 26.3537 64.9195 27.0592L72.0156 31.1546L70.3779 32.0993L64.4513 28.6782C64.2515 29.4606 64.0891 30.2473 63.9664 31.0318L71.5079 35.3852L69.8722 36.33L63.752 32.7965C63.7104 33.3209 63.6875 33.8411 63.6875 34.3551C63.6875 34.7838 63.7125 35.1896 63.7395 35.5933L70.7192 39.6221L69.0835 40.5669L64.0288 37.6493C64.291 38.8605 64.6947 39.9176 65.2337 40.777L71.7118 44.5166L72.3486 43.1473C72.9521 42.9434 73.5701 42.6728 74.2048 42.3066C80.0149 38.952 84.7242 29.9559 84.7242 22.2084C84.7242 20.5644 84.5098 19.1077 84.1186 17.8675L85.0218 15.928Z" fill="#819EEF"/>
<path d="M79.1285 18.2886L73.2331 14.8841C72.7628 15.2129 72.305 15.5813 71.8555 15.9787L77.4929 19.2334L79.1285 18.2886Z" fill="#4F79E1"/>
<path d="M84.0791 17.2271L77.0141 13.1484C76.3565 13.2857 75.676 13.523 74.9727 13.8601L82.4434 18.1719L84.0791 17.2271Z" fill="#4F79E1"/>
<path d="M76.891 21.1128L70.4316 17.3837C70.0612 17.7874 69.7012 18.2078 69.3516 18.651L75.2533 22.0576L76.891 21.1128Z" fill="#4F79E1"/>
<path d="M74.9086 24.1919L68.162 20.2963C67.8624 20.7479 67.5773 21.214 67.3047 21.6906L73.2709 25.1367L74.9086 24.1919Z" fill="#4F79E1"/>
<path d="M73.0992 27.355L66.3735 23.4698C66.1341 23.963 65.9094 24.4625 65.6992 24.9702L71.4635 28.2998L73.0992 27.355Z" fill="#4F79E1"/>
<path d="M72.0175 31.1548L64.9213 27.0595C64.7465 27.5964 64.5946 28.1353 64.4531 28.6785L70.3798 32.0996L72.0175 31.1548Z" fill="#4F79E1"/>
<path d="M71.5019 35.3863L63.9604 31.0329C63.8668 31.6239 63.7898 32.2128 63.7461 32.7975L69.8663 36.3311L71.5019 35.3863Z" fill="#4F79E1"/>
<path d="M70.714 39.6236L63.7344 35.5948C63.7864 36.3252 63.8842 37.0099 64.0237 37.6508L69.0783 40.5684L70.714 39.6236Z" fill="#4F79E1"/>
<path d="M67.4158 42.9081L67.4137 42.9144L67.5053 42.9664L67.5094 42.9685L71.4009 45.166L71.7047 44.5167L65.2266 40.7772C65.8176 41.7178 66.5563 42.4378 67.4158 42.9081Z" fill="#4F79E1"/>
<path d="M88.7046 24.4597C88.7046 32.2052 83.9954 41.2034 78.1853 44.5558C72.3772 47.9104 67.668 44.3498 67.668 36.6044C67.668 28.859 72.3772 19.8608 78.1853 16.5062C83.9954 13.1537 88.7046 16.7122 88.7046 24.4597Z" fill="#C5D2F8"/>
<path d="M83.1467 17.1158C85.1465 18.1688 86.3972 20.8242 86.3494 24.6657C86.2661 31.4892 82.1187 39.4677 77.0827 42.4851C75.3597 43.5194 73.7615 43.8211 72.3984 43.5173C73.9529 44.3351 75.959 44.1832 78.1607 42.8618C83.1967 39.8444 87.3441 31.8659 87.4273 25.0423C87.4814 20.5557 85.7583 17.6985 83.1467 17.1158Z" fill="#4F79E1"/>
<path d="M73.4398 43.6309C73.4377 43.6309 73.4356 43.6309 73.4335 43.6309C73.1027 43.6309 72.7801 43.5975 72.47 43.533C72.4659 43.533 72.4617 43.531 72.4576 43.531C72.4389 43.5268 72.4201 43.5226 72.3993 43.5185C70.3995 42.4676 69.1488 39.8102 69.1966 35.9707C69.2799 29.1451 73.4273 21.1666 78.4633 18.1492C79.766 17.3688 80.9958 17.0046 82.1071 17.0046C82.4671 17.0046 82.8146 17.0442 83.1476 17.117C85.1079 18.1492 86.3482 20.7233 86.3523 24.4421C86.3523 24.517 86.3523 24.5919 86.3502 24.6668C86.267 31.4904 82.1196 39.4689 77.0836 42.4863C77.0524 42.5071 77.0191 42.5258 76.9879 42.5446C76.9733 42.5529 76.9608 42.5592 76.9483 42.5675C76.94 42.5716 76.9338 42.5758 76.9275 42.58C76.8693 42.6132 76.811 42.6445 76.7527 42.6778H76.7506C75.577 43.3249 74.4657 43.6288 73.4522 43.6309C73.4481 43.6309 73.444 43.6309 73.4398 43.6309Z" fill="#A9BCF4"/>
<path d="M76.5636 37.1416V35.266L75.4245 36.8153L74.875 36.1948L76.5636 33.8977V32.5295L75.4379 34.0711L74.875 33.4582L76.5636 31.1612V28.1018L74.0039 29.5797V27.6426L81.1336 23.5263V25.4634L78.5605 26.9489V28.4402L79.78 26.7675L80.3429 27.3804L78.5605 29.8085V31.1767L79.7666 29.5272L80.3295 30.14L78.5605 32.545V35.9887L76.5636 37.1416Z" fill="#4F79E1"/>
</g>
<defs>
<clipPath id="clip0_286_8">
<rect width="327" height="160" fill="white"/>
</clipPath>
</defs>
</svg>
