<svg width="327" height="160" viewBox="0 0 327 160" fill="none" xmlns="http://www.w3.org/2000/svg">
<g clip-path="url(#clip0_271_497)">
<rect width="327" height="160" fill="#ECF1FD"/>
<g clip-path="url(#clip1_271_497)">
<path d="M312.689 92.2998L197.812 25.9758L257.175 -8.29977L372.052 58.0243L312.689 92.2998Z" fill="#F6F9FF"/>
<path d="M313.163 89.5361L202.602 25.7042L256.714 -5.53768L367.275 58.2943L313.163 89.5361Z" fill="#4F79E1"/>
<path d="M349.524 54.4422L263.371 4.70418C257.201 8.26513 247.867 8.65406 242.522 5.56849L239.547 7.28557L237.208 8.63682L221.825 17.519C227.168 20.6017 226.499 25.9921 220.328 29.553L306.48 79.2939C312.649 75.7301 321.985 75.3441 327.328 78.4296L342.71 69.5474L345.049 68.1991L348.026 66.4792C342.682 63.3936 343.352 58.0061 349.524 54.4422Z" fill="#F6F9FF"/>
<path d="M224.932 28.1421L226.149 28.845L230.457 26.3559L229.41 25.7508L230.479 25.1343C231.238 25.3965 231.837 25.4973 232.55 25.5434L233.501 26.0937L227.442 29.5913L228.489 30.1962L227.094 31.0029L223.535 28.9488L224.932 28.1421Z" fill="#4F79E1"/>
<path d="M234.418 30.8986C236.462 29.7174 236.587 29.2593 236.147 29.0058C235.716 28.758 234.913 28.8243 232.869 30.0026C230.838 31.1752 230.655 31.6793 231.086 31.9271C231.526 32.1806 232.388 32.0683 234.418 30.8986ZM231.647 29.2968C234.183 27.8303 236.287 27.5422 237.486 28.2337C238.683 28.9251 238.18 30.138 235.645 31.6045C233.108 33.068 230.945 33.3907 229.749 32.7021C228.55 32.0078 229.111 30.7603 231.647 29.2968Z" fill="#4F79E1"/>
<path d="M239.071 33.5822C241.115 32.4039 241.238 31.9459 240.799 31.6923C240.367 31.4446 239.566 31.5079 237.522 32.6892C235.491 33.8617 235.306 34.3659 235.738 34.6137C236.178 34.8672 237.04 34.7548 239.071 33.5822ZM236.299 31.9833C238.835 30.5169 240.94 30.2287 242.138 30.9202C243.335 31.6116 242.833 32.8246 240.297 34.2881C237.761 35.7546 235.598 36.0772 234.4 35.3858C233.203 34.6943 233.763 33.444 236.299 31.9833Z" fill="#4F79E1"/>
<path d="M295.353 68.9204L296.57 69.6234L300.879 67.1342L299.83 66.5291L300.899 65.9126C301.659 66.1747 302.258 66.2756 302.969 66.3217L303.923 66.872L297.862 70.3696L298.912 70.9745L297.514 71.7812L293.957 69.7271L295.353 68.9204Z" fill="#4F79E1"/>
<path d="M304.851 71.676C306.893 70.4947 307.016 70.0367 306.577 69.7832C306.146 69.5354 305.343 69.5988 303.301 70.78C301.271 71.9526 301.086 72.4567 301.517 72.7045C301.956 72.958 302.819 72.8456 304.851 71.676ZM302.076 70.0742C304.613 68.6077 306.716 68.3196 307.915 69.011C309.114 69.7024 308.61 70.9154 306.075 72.3819C303.538 73.8454 301.375 74.168 300.179 73.4795C298.979 72.7851 299.541 71.5377 302.076 70.0742Z" fill="#4F79E1"/>
<path d="M309.503 74.3586C311.545 73.1803 311.67 72.7222 311.229 72.4686C310.798 72.2209 309.995 72.2843 307.952 73.4655C305.921 74.6381 305.739 75.1423 306.169 75.39C306.608 75.6436 307.472 75.5312 309.503 74.3586ZM306.729 72.7596C309.266 71.2932 311.369 71.0051 312.568 71.6966C313.765 72.388 313.263 73.6009 310.727 75.0645C308.191 76.5309 306.028 76.8536 304.831 76.1621C303.632 75.4707 304.194 74.2203 306.729 72.7596Z" fill="#4F79E1"/>
<path d="M299.152 50.2476C288.313 56.5051 273.079 57.8563 265.126 53.264C257.171 48.6716 259.51 39.8759 270.348 33.6183C281.187 27.3607 296.422 26.0124 304.376 30.6048C312.329 35.1942 309.99 43.99 299.152 50.2476Z" fill="#4D68EF"/>
<path d="M297.368 49.2221C287.752 54.7709 274.237 55.9694 267.182 51.8957C260.126 47.8219 262.201 40.0201 271.816 34.4684C281.431 28.9166 294.947 27.7181 302.002 31.7919C309.059 35.8656 306.984 43.6675 297.368 49.2221Z" fill="#4D68EF"/>
<path d="M259.343 25.1347C254.754 27.7824 247.813 28.0705 243.84 25.7772C239.865 23.481 240.363 19.4735 244.953 16.8258C249.541 14.1753 256.482 13.8872 260.456 16.1833C264.43 18.4766 263.932 22.4842 259.343 25.1347Z" fill="#4F79E1"/>
<path d="M257.181 23.8873C253.969 25.7397 249.112 25.9414 246.331 24.3367C243.55 22.732 243.898 19.9259 247.11 18.0734C250.32 16.218 255.179 16.0163 257.96 17.6239C260.74 19.2286 260.392 22.0319 257.181 23.8873Z" fill="#4D68EF"/>
<path d="M329.428 65.5984C324.84 68.2489 317.899 68.537 313.925 66.2408C309.951 63.9475 310.45 59.94 315.038 57.2924C319.627 54.6418 326.568 54.3537 330.542 56.647C334.516 58.9432 334.018 62.9507 329.428 65.5984Z" fill="#4F79E1"/>
<path d="M327.278 64.3599C324.067 66.2124 319.209 66.4141 316.428 64.8094C313.647 63.2046 313.996 60.3985 317.207 58.546C320.419 56.6906 325.276 56.489 328.057 58.0966C330.839 59.7013 330.49 62.5045 327.278 64.3599Z" fill="#4D68EF"/>
<path d="M284.635 20.4756L261.359 7.03564L262.494 6.38164L285.768 19.8187L284.635 20.4756Z" fill="#4F79E1"/>
<path d="M273.27 15.805L259.72 7.98303L258.586 8.63703L272.136 16.459L273.27 15.805Z" fill="#4F79E1"/>
<path d="M247.482 30.6253L233.931 22.8005L232.797 23.4545L246.348 31.2793L247.482 30.6253Z" fill="#4F79E1"/>
<path d="M345.842 55.8115L322.566 42.3744L323.701 41.7175L346.977 55.1575L345.842 55.8115Z" fill="#4F79E1"/>
<path d="M318.415 71.5765L304.864 63.7516L303.73 64.4084L317.28 72.2305L318.415 71.5765Z" fill="#4F79E1"/>
<path d="M197.812 25.9754V38.2687L312.689 104.593V92.2995L197.812 25.9754Z" fill="#A9BCF4"/>
<path d="M372.054 58.0239V70.3201L312.691 104.593V92.2995L372.054 58.0239Z" fill="#C5D2F8"/>
<path d="M307.608 96.3123C304.179 93.947 300.256 92.1839 296.554 90.2824C293.255 88.5912 289.955 86.7675 286.454 85.5316L286.395 85.6756C289.881 87.9747 293.77 89.7177 297.472 91.6451C300.768 93.3593 303.995 95.3184 307.442 96.71L307.608 96.3123Z" fill="#819EEF"/>
<path d="M300.316 89.8818C291.766 82.783 281.247 77.1131 271.292 72.2442L271.16 72.4977C280.738 78.3836 290.15 84.9379 299.993 90.3456C300.31 90.5185 300.6 90.1181 300.316 89.8818Z" fill="#819EEF"/>
<path d="M228.979 51.7966C224.353 48.5093 219.4 45.7176 214.479 42.9C209.985 40.3272 205.484 37.5816 200.717 35.5447L200.582 35.8242C205.075 38.8291 209.967 41.2866 214.643 43.9977C219.343 46.7203 223.945 49.6128 228.761 52.1279L228.979 51.7966Z" fill="#819EEF"/>
<path d="M258.328 65.5819C255.252 63.3779 251.914 61.5455 248.644 59.6498C245.796 57.9961 242.999 56.0918 239.918 54.9134L239.754 55.2448C242.628 57.6389 246.153 59.3733 249.375 61.2719C252.234 62.9544 255.063 64.6917 258.068 66.1034C258.378 66.2503 258.587 65.7692 258.328 65.5819Z" fill="#819EEF"/>
<path d="M216.785 40.3074C214.464 38.7257 211.793 37.6627 209.3 36.3777C206.794 35.0813 204.344 33.6378 201.762 32.4998L201.609 32.6986C205.837 35.9686 211.417 39.3221 216.577 40.8001C216.883 40.8894 217.032 40.4745 216.785 40.3074Z" fill="#819EEF"/>
<path d="M330.907 34.2681L271.414 68.4688L240.496 50.6179L299.99 16.4173L330.907 34.2681Z" fill="#4F79E1"/>
<path d="M327.73 32.4351L268.237 66.6328L243 52.0635L302.494 17.8629L327.73 32.4351Z" fill="#C5D2F8"/>
<path d="M271.414 68.4675L240.496 50.6167V62.9129L271.414 80.7637V68.4675Z" fill="#4D68EF"/>
<path d="M243 52.0622V64.3584L268.237 78.9277V66.6315L243 52.0622Z" fill="#4D68EF"/>
<path d="M312.689 77.5967L197.812 11.2726L257.175 -23L372.052 43.3211L312.689 77.5967Z" fill="#F6F9FF"/>
<path d="M313.163 74.835L202.602 11.003L256.714 -20.2389L367.275 43.5931L313.163 74.835Z" fill="#4F79E1"/>
<path d="M349.524 39.7411L263.371 -9.99699C257.201 -6.43317 247.867 -6.04711 242.522 -9.13269L239.547 -7.41554L237.208 -6.06435L221.825 2.8178C227.168 5.90338 226.499 11.2909 220.328 14.8547L306.48 64.5928C312.649 61.0318 321.985 60.6429 327.328 63.7285L342.71 54.8491L345.049 53.4979L348.026 51.778C342.682 48.6924 343.352 43.3049 349.524 39.7411Z" fill="#F6F9FF"/>
<path d="M224.932 13.439L226.149 14.1419L230.457 11.6527L229.41 11.0506L230.479 10.4312C231.238 10.6934 231.837 10.7971 232.55 10.8403L233.501 11.3905L227.442 14.8881L228.489 15.4931L227.094 16.2998L223.535 14.2457L224.932 13.439Z" fill="#4F79E1"/>
<path d="M234.418 16.1962C236.462 15.015 236.587 14.5569 236.147 14.3033C235.716 14.0556 234.914 14.1218 232.87 15.3001C230.838 16.4727 230.655 16.9769 231.086 17.2275C231.526 17.4811 232.388 17.3687 234.418 16.1962ZM231.648 14.5943C234.183 13.1307 236.288 12.8398 237.486 13.5312C238.683 14.2227 238.181 15.4356 235.645 16.902C233.108 18.3656 230.945 18.6911 229.748 17.9997C228.551 17.3054 229.111 16.0579 231.648 14.5943Z" fill="#4F79E1"/>
<path d="M239.071 18.881C241.115 17.6998 241.239 17.2418 240.799 16.9882C240.367 16.7405 239.566 16.8067 237.522 17.9851C235.491 19.1576 235.306 19.6618 235.738 19.9096C236.178 20.1631 237.04 20.0507 239.071 18.881ZM236.299 17.2792C238.835 15.8128 240.94 15.5246 242.138 16.2161C243.335 16.9075 242.833 18.1205 240.297 19.5869C237.761 21.0505 235.598 21.3731 234.4 20.6846C233.203 19.9902 233.763 18.7428 236.299 17.2792Z" fill="#4F79E1"/>
<path d="M295.353 54.2173L296.57 54.9202L300.879 52.4311L299.83 51.826L300.899 51.2095C301.659 51.4717 302.258 51.5754 302.969 51.6186L303.923 52.1688L297.862 55.6665L298.912 56.2714L297.514 57.0781L293.957 55.024L295.353 54.2173Z" fill="#4F79E1"/>
<path d="M304.851 56.9748C306.893 55.7936 307.016 55.3355 306.577 55.0819C306.146 54.8342 305.343 54.9004 303.301 56.0788C301.271 57.2513 301.086 57.7555 301.517 58.0062C301.956 58.2568 302.819 58.1474 304.851 56.9748ZM302.076 55.3729C304.613 53.9094 306.716 53.6184 307.915 54.3098C309.114 55.0013 308.61 56.2171 306.075 57.6806C303.538 59.1442 301.375 59.4669 300.179 58.7783C298.979 58.084 299.541 56.8365 302.076 55.3729Z" fill="#4F79E1"/>
<path d="M309.503 59.6603C311.545 58.4791 311.67 58.0211 311.229 57.7676C310.798 57.5198 309.995 57.5832 307.952 58.7644C305.921 59.937 305.739 60.4411 306.169 60.6889C306.608 60.9424 307.472 60.83 309.503 59.6603ZM306.729 58.0585C309.266 56.5921 311.369 56.304 312.568 56.9954C313.765 57.6868 313.263 58.8997 310.727 60.3662C308.191 61.8297 306.028 62.1524 304.831 61.4639C303.632 60.7695 304.194 59.5221 306.729 58.0585Z" fill="#4F79E1"/>
<path d="M299.152 35.5456C288.313 41.806 273.079 43.1543 265.126 38.562C257.171 33.9696 259.51 25.1768 270.348 18.9163C281.187 12.6616 296.422 11.3104 304.376 15.9027C312.329 20.4951 309.99 29.2908 299.152 35.5456Z" fill="#4D68EF"/>
<path d="M297.368 34.5201C287.752 40.0718 274.237 41.2674 267.182 37.1937C260.126 33.1199 262.201 25.3181 271.816 19.7664C281.431 14.2146 294.947 13.0161 302.002 17.0899C309.059 21.1636 306.984 28.9683 297.368 34.5201Z" fill="#4D68EF"/>
<path d="M259.343 10.4335C254.754 13.0812 247.813 13.3693 243.84 11.076C239.865 8.78269 240.363 4.77517 244.953 2.12463C249.541 -0.525916 256.482 -0.811131 260.456 1.48216C264.43 3.77546 263.932 7.78298 259.343 10.4335Z" fill="#4F79E1"/>
<path d="M257.181 9.18511C253.969 11.0405 249.112 11.2393 246.331 9.63457C243.55 8.02984 243.898 5.22372 247.11 3.37122C250.32 1.51584 255.179 1.31415 257.96 2.92177C260.74 4.5265 260.392 7.32973 257.181 9.18511Z" fill="#4D68EF"/>
<path d="M329.429 50.8993C324.84 53.547 317.899 53.8351 313.925 51.5418C309.95 49.2456 310.45 45.2381 315.038 42.5904C319.627 39.9399 326.568 39.6518 330.543 41.948C334.517 44.2413 334.018 48.2488 329.429 50.8993Z" fill="#4F79E1"/>
<path d="M327.278 49.6578C324.067 51.5131 319.209 51.712 316.428 50.1072C313.647 48.5025 313.996 45.6964 317.207 43.8439C320.419 41.9885 325.276 41.7868 328.057 43.3944C330.839 44.9992 330.49 47.8053 327.278 49.6578Z" fill="#4D68EF"/>
<path d="M284.635 5.77246L261.359 -7.6646L262.494 -8.32149L285.768 5.11565L284.635 5.77246Z" fill="#4F79E1"/>
<path d="M273.27 1.10186L259.72 -6.72009L258.586 -6.06609L272.136 1.75586L273.27 1.10186Z" fill="#4F79E1"/>
<path d="M247.482 15.9222L233.931 8.09734L232.797 8.75422L246.348 16.5762L247.482 15.9222Z" fill="#4F79E1"/>
<path d="M345.842 41.1113L322.566 27.6742L323.701 27.0202L346.977 40.4573L345.842 41.1113Z" fill="#4F79E1"/>
<path d="M318.415 56.8733L304.864 49.0485L303.73 49.7053L317.28 57.5273L318.415 56.8733Z" fill="#4F79E1"/>
<path d="M197.812 11.2742V23.5704L312.689 89.8945V77.5983L197.812 11.2742Z" fill="#A9BCF4"/>
<path d="M372.054 43.3227V55.6189L312.691 89.8945V77.5983L372.054 43.3227Z" fill="#C5D2F8"/>
<path d="M307.608 81.6141C304.179 79.2459 300.256 77.4827 296.554 75.5841C293.255 73.89 289.955 72.0664 286.454 70.8304L286.395 70.9745C289.881 73.2735 293.77 75.0194 297.472 76.9439C300.768 78.6581 303.995 80.6173 307.442 82.0088L307.608 81.6141Z" fill="#819EEF"/>
<path d="M300.316 75.1835C291.766 68.0818 281.247 62.4119 271.292 57.543L271.16 57.7965C280.738 63.6824 290.15 70.2367 299.993 75.6444C300.31 75.8173 300.6 75.4169 300.316 75.1835Z" fill="#819EEF"/>
<path d="M228.979 37.0955C224.353 33.8053 219.4 31.0136 214.479 28.1959C209.985 25.6232 205.484 22.8776 200.717 20.8407L200.582 21.1201C205.075 24.1279 209.967 26.5826 214.643 29.2936C219.343 32.0162 223.945 34.9087 228.761 37.4268L228.979 37.0955Z" fill="#819EEF"/>
<path d="M258.328 50.8807C255.252 48.6767 251.914 46.8473 248.644 44.9487C245.796 43.295 242.999 41.3906 239.918 40.2123L239.754 40.5436C242.628 42.9406 246.153 44.675 249.375 46.5707C252.234 48.2561 255.063 49.9905 258.068 51.4022C258.378 51.5491 258.587 51.068 258.328 50.8807Z" fill="#819EEF"/>
<path d="M216.785 25.606C214.464 24.0272 211.793 22.9642 209.3 21.6764C206.794 20.3828 204.344 18.9364 201.762 17.7984L201.609 17.9973C205.837 21.2672 211.417 24.6207 216.577 26.1016C216.883 26.188 217.032 25.7731 216.785 25.606Z" fill="#819EEF"/>
<path d="M330.907 19.5679L271.414 53.7656L240.496 35.9148L299.99 1.71706L330.907 19.5679Z" fill="#4F79E1"/>
<path d="M327.73 17.7338L268.237 51.9316L243 37.3623L302.494 3.16165L327.73 17.7338Z" fill="#C5D2F8"/>
<path d="M271.414 53.7663L240.496 35.9155V48.2117L271.414 66.0625V53.7663Z" fill="#4D68EF"/>
<path d="M243 37.361V49.6572L268.237 64.2266V51.9304L243 37.361Z" fill="#4D68EF"/>
<path d="M216.02 86.7578V106.303C216.998 106.245 217.952 106.147 218.89 106.02V86.7578H216.02Z" fill="#819EEF"/>
<path d="M212.078 86.759V106.321C212.634 106.344 213.188 106.373 213.754 106.373C214.024 106.373 214.288 106.353 214.558 106.347V86.759H212.078Z" fill="#819EEF"/>
<path d="M190.316 86.7596V92.3142C190.316 94.1897 190.94 95.9788 192.052 97.6152V86.7596H190.316Z" fill="#819EEF"/>
<path d="M220.359 86.761V105.796C221.346 105.623 222.302 105.413 223.23 105.165V86.761H220.359Z" fill="#819EEF"/>
<path d="M224.707 86.7588V104.739C225.434 104.506 226.141 104.258 226.819 103.984V86.7588H224.707Z" fill="#819EEF"/>
<path d="M197.102 86.7594V102.205C197.764 102.605 198.476 102.977 199.214 103.328V86.7594H197.102Z" fill="#819EEF"/>
<path d="M208.129 86.7596V105.947C208.94 106.068 209.766 106.163 210.608 106.232V86.7596H208.129Z" fill="#819EEF"/>
<path d="M200.684 86.7588V103.984C201.362 104.258 202.07 104.506 202.796 104.739V86.7588H200.684Z" fill="#819EEF"/>
<path d="M204.273 86.7606V105.165C205.049 105.372 205.842 105.559 206.66 105.715V86.7606H204.273Z" fill="#819EEF"/>
<path d="M193.531 86.7591V99.3866C194.16 100.035 194.856 100.654 195.644 101.23V86.7591H193.531Z" fill="#819EEF"/>
<path d="M237.185 86.7596H235.449V97.6152C236.56 95.9788 237.185 94.1897 237.185 92.3142V86.7596Z" fill="#819EEF"/>
<path d="M231.863 86.7591V101.23C232.651 100.654 233.345 100.035 233.976 99.3866V86.7591H231.863Z" fill="#819EEF"/>
<path d="M228.285 86.7594V103.328C229.025 102.977 229.735 102.605 230.398 102.205V86.7594H228.285Z" fill="#819EEF"/>
<path d="M192.059 86.7592V97.6148C192.477 98.2285 192.975 98.8192 193.528 99.3867V86.7592H192.059Z" fill="#4F79E1"/>
<path d="M195.637 86.7609V101.232C196.1 101.569 196.592 101.895 197.105 102.206V86.7609H195.637Z" fill="#4F79E1"/>
<path d="M199.211 86.7607V103.329C199.689 103.557 200.173 103.782 200.681 103.986V86.7607H199.211Z" fill="#4F79E1"/>
<path d="M202.805 86.7591V104.74C203.284 104.889 203.776 105.031 204.275 105.163V86.7591H202.805Z" fill="#4F79E1"/>
<path d="M206.66 86.7596V105.714C207.141 105.803 207.636 105.875 208.13 105.947V86.7596H206.66Z" fill="#4F79E1"/>
<path d="M210.602 86.7601V106.233C211.088 106.27 211.576 106.302 212.071 106.322V86.7601H210.602Z" fill="#4F79E1"/>
<path d="M214.551 86.7596V106.348C215.043 106.339 215.537 106.33 216.019 106.304V86.7596H214.551Z" fill="#4F79E1"/>
<path d="M218.891 86.7589V106.021C219.386 105.955 219.877 105.88 220.359 105.794V86.7589H218.891Z" fill="#4F79E1"/>
<path d="M233.984 86.7592V99.3867C234.538 98.8192 235.035 98.2285 235.454 97.6148V86.7592H233.984Z" fill="#4F79E1"/>
<path d="M230.395 86.7609V102.206C230.909 101.895 231.401 101.569 231.864 101.232V86.7609H230.395Z" fill="#4F79E1"/>
<path d="M226.816 86.7607V103.986C227.324 103.782 227.808 103.557 228.285 103.329V86.7607H226.816Z" fill="#4F79E1"/>
<path d="M223.238 86.7591V105.163C223.736 105.031 224.227 104.889 224.707 104.74V86.7591H223.238Z" fill="#4F79E1"/>
<path d="M213.748 72.6995C200.807 72.6995 190.316 78.9945 190.316 86.7589C190.316 94.5204 200.807 100.815 213.748 100.815C226.689 100.815 237.18 94.5204 237.18 86.7589C237.18 78.9945 226.689 72.6995 213.748 72.6995Z" fill="#C5D2F8"/>
<path d="M213.753 75.5027C224.641 75.5027 233.516 80.6137 234.129 87.0557L234.189 86.3469C234.189 79.5765 225.039 74.0853 213.753 74.0853C202.466 74.0853 193.316 79.5765 193.316 86.3469L193.376 87.0557C193.991 80.6137 202.864 75.5027 213.753 75.5027Z" fill="#4F79E1"/>
<path d="M221.044 85.2141C218.439 86.7353 210.501 91.0568 205.584 94.2259C204.463 94.9491 205.821 95.6031 206.907 94.9693C210.588 92.8229 217.599 89.0344 222.254 85.9229C222.792 85.5656 221.631 84.8684 221.044 85.2141Z" fill="#4F79E1"/>
<path d="M216.626 82.8039C214.022 84.3251 206.083 88.6495 201.166 91.8158C200.045 92.5389 201.404 93.1929 202.488 92.5591C206.171 90.4127 213.182 86.6242 217.837 83.5155C218.373 83.1554 217.214 82.4582 216.626 82.8039Z" fill="#4F79E1"/>
<path d="M258.074 17.3789V36.9238C259.051 36.8662 260.005 36.7683 260.944 36.6415V17.3789H258.074Z" fill="#819EEF"/>
<path d="M254.121 17.3782V36.9403C254.677 36.9634 255.231 36.9922 255.797 36.9922C256.068 36.9922 256.331 36.972 256.6 36.9662V17.3782H254.121Z" fill="#819EEF"/>
<path d="M232.359 17.3786V22.9332C232.359 24.8117 232.983 26.598 234.096 28.2344V17.3786H232.359Z" fill="#819EEF"/>
<path d="M262.41 17.3782V36.416C263.396 36.2403 264.354 36.03 265.28 35.7822V17.3782H262.41Z" fill="#819EEF"/>
<path d="M266.746 17.3789V35.3594C267.472 35.1289 268.18 34.8782 268.858 34.6045V17.3789H266.746Z" fill="#819EEF"/>
<path d="M239.152 17.3776V32.8228C239.814 33.2261 240.525 33.5949 241.264 33.9492V17.3776H239.152Z" fill="#819EEF"/>
<path d="M250.172 17.3787V36.5663C250.983 36.6873 251.809 36.7824 252.651 36.8516V17.3787H250.172Z" fill="#819EEF"/>
<path d="M242.734 17.3789V34.6045C243.413 34.8782 244.121 35.1289 244.847 35.3594V17.3789H242.734Z" fill="#819EEF"/>
<path d="M246.312 17.3778V35.7818C247.088 35.9892 247.881 36.1765 248.699 36.332V17.3778H246.312Z" fill="#819EEF"/>
<path d="M235.566 17.3782V30.0087C236.196 30.654 236.891 31.2734 237.679 31.8496V17.3782H235.566Z" fill="#819EEF"/>
<path d="M279.224 17.3786H277.488V28.2344C278.599 26.598 279.224 24.8117 279.224 22.9332V17.3786Z" fill="#819EEF"/>
<path d="M273.914 17.3782V31.8496C274.702 31.2734 275.398 30.654 276.026 30.0087V17.3782H273.914Z" fill="#819EEF"/>
<path d="M270.324 17.3776V33.9492C271.063 33.5949 271.774 33.2261 272.437 32.8228V17.3776H270.324Z" fill="#819EEF"/>
<path d="M234.098 17.3774V28.2331C234.517 28.8497 235.013 29.4374 235.566 30.0078V17.3774H234.098Z" fill="#4F79E1"/>
<path d="M237.68 17.378V31.8494C238.143 32.1865 238.635 32.5121 239.15 32.8232V17.378H237.68Z" fill="#4F79E1"/>
<path d="M241.266 17.3779V33.9495C241.745 34.1771 242.228 34.399 242.735 34.6035V17.3779H241.266Z" fill="#4F79E1"/>
<path d="M244.844 17.3792V35.3597C245.323 35.5124 245.815 35.6507 246.314 35.7832V17.3792H244.844Z" fill="#4F79E1"/>
<path d="M248.703 17.3788V36.333C249.184 36.4252 249.679 36.4944 250.173 36.5664V17.3788H248.703Z" fill="#4F79E1"/>
<path d="M252.652 17.3792V36.8521C253.139 36.8895 253.627 36.9212 254.122 36.9414V17.3792H252.652Z" fill="#4F79E1"/>
<path d="M256.602 17.3787V36.9668C257.093 36.9582 257.587 36.9524 258.071 36.9236V17.3787H256.602Z" fill="#4F79E1"/>
<path d="M260.938 17.3781V36.6406C261.432 36.5744 261.923 36.4994 262.406 36.4159V17.3781H260.938Z" fill="#4F79E1"/>
<path d="M276.02 17.3774V30.0078C276.573 29.4374 277.071 28.8497 277.489 28.2331V17.3774H276.02Z" fill="#4F79E1"/>
<path d="M272.445 17.378V32.8232C272.96 32.5121 273.451 32.1865 273.915 31.8494V17.378H272.445Z" fill="#4F79E1"/>
<path d="M268.859 17.3779V34.6035C269.367 34.399 269.85 34.1771 270.328 33.9495V17.3779H268.859Z" fill="#4F79E1"/>
<path d="M265.273 17.3792V35.7832C265.772 35.6507 266.264 35.5124 266.743 35.3597V17.3792H265.273Z" fill="#4F79E1"/>
<path d="M255.791 3.3187C242.85 3.3187 232.359 9.61368 232.359 17.378C232.359 25.1424 242.85 31.4346 255.791 31.4346C268.732 31.4346 279.223 25.1424 279.223 17.378C279.223 9.61368 268.732 3.3187 255.791 3.3187Z" fill="#C5D2F8"/>
<path d="M255.888 29.541C245 29.541 236.126 24.4272 235.512 17.9881C236.126 11.549 245 6.43515 255.888 6.43515C266.777 6.43515 275.651 11.549 276.266 17.9881C275.651 24.4272 266.777 29.541 255.888 29.541Z" fill="#A9BCF4"/>
<path d="M263.301 22.4573L260.25 20.6961L259.704 22.6862L257.215 22.3617L258.025 19.4113L255.8 18.1264L255.277 20.103L252.765 19.792L253.574 16.8416L248.598 13.9688L244.111 16.5592L240.961 14.7402L253.458 7.52496L256.609 9.34394L252.098 11.9479L254.524 13.3483L255.086 11.2046L257.598 11.5156L256.749 14.6331L258.975 15.9179L259.539 13.8023L262.05 14.1132L261.2 17.2028L266.801 20.4365L263.301 22.4573Z" fill="#4F79E1"/>
<path d="M255.791 6.12194C266.68 6.12194 275.555 11.2357 276.168 17.6748L276.228 16.969C276.228 10.1957 267.078 4.70731 255.791 4.70731C244.505 4.70731 235.355 10.1957 235.355 16.969L235.415 17.6748C236.029 11.2357 244.903 6.12194 255.791 6.12194Z" fill="#4F79E1"/>
<path d="M272.605 2.69534V22.2402C273.582 22.1855 274.537 22.0847 275.475 21.9579V2.69534H272.605Z" fill="#819EEF"/>
<path d="M268.652 2.69651V22.2587C269.208 22.2846 269.763 22.3105 270.328 22.3105C270.599 22.3105 270.863 22.2904 271.132 22.2875V2.69651H268.652Z" fill="#819EEF"/>
<path d="M246.895 2.69705V8.25456C246.895 10.1301 247.519 11.9163 248.631 13.5527V2.69705H246.895Z" fill="#819EEF"/>
<path d="M276.938 2.69654V21.7344C277.923 21.5586 278.88 21.3483 279.807 21.1006V2.69654H276.938Z" fill="#819EEF"/>
<path d="M281.285 2.69722V20.6777C282.012 20.4473 282.72 20.1966 283.398 19.9229V2.69722H281.285Z" fill="#819EEF"/>
<path d="M253.68 2.69592V18.1411C254.343 18.5445 255.053 18.9161 255.792 19.2676V2.69592H253.68Z" fill="#819EEF"/>
<path d="M264.703 2.69705V21.8876C265.514 22.0057 266.341 22.1008 267.183 22.1699V2.69705H264.703Z" fill="#819EEF"/>
<path d="M257.27 2.69722V19.9229C257.948 20.1966 258.656 20.4473 259.382 20.6777V2.69722H257.27Z" fill="#819EEF"/>
<path d="M260.852 2.69612V21.1001C261.628 21.3076 262.422 21.4948 263.239 21.6504V2.69612H260.852Z" fill="#819EEF"/>
<path d="M250.102 2.69659V15.327C250.731 15.9724 251.425 16.5918 252.214 17.168V2.69659H250.102Z" fill="#819EEF"/>
<path d="M293.764 2.69705H292.027V13.5527C293.139 11.9163 293.764 10.1301 293.764 8.25456V2.69705Z" fill="#819EEF"/>
<path d="M288.438 2.69659V17.168C289.226 16.5918 289.921 15.9724 290.55 15.327V2.69659H288.438Z" fill="#819EEF"/>
<path d="M284.859 2.69592V19.2676C285.599 18.9161 286.308 18.5445 286.972 18.1411V2.69592H284.859Z" fill="#819EEF"/>
<path d="M248.637 2.69573V13.5514C249.055 14.168 249.553 14.7557 250.106 15.3262V2.69573H248.637Z" fill="#4F79E1"/>
<path d="M252.215 2.6964V17.1678C252.679 17.5077 253.169 17.8305 253.684 18.1416V2.6964H252.215Z" fill="#4F79E1"/>
<path d="M255.797 2.69817V19.2698C256.275 19.4974 256.759 19.7193 257.266 19.9238V2.69817H255.797Z" fill="#4F79E1"/>
<path d="M259.383 2.69754V20.6781C259.862 20.8308 260.354 20.969 260.852 21.1016V2.69754H259.383Z" fill="#4F79E1"/>
<path d="M263.234 2.69618V21.6505C263.716 21.7426 264.211 21.8118 264.704 21.8867V2.69618H263.234Z" fill="#4F79E1"/>
<path d="M267.184 2.69562V22.1685C267.669 22.2088 268.158 22.2376 268.652 22.2578V2.69562H267.184Z" fill="#4F79E1"/>
<path d="M271.137 2.69614V22.2871C271.63 22.2756 272.122 22.2698 272.606 22.241V2.69614H271.137Z" fill="#4F79E1"/>
<path d="M275.477 2.69643V21.959C275.973 21.8927 276.462 21.8178 276.946 21.7343V2.69643H275.477Z" fill="#4F79E1"/>
<path d="M290.559 2.69573V15.3262C291.112 14.7557 291.611 14.168 292.028 13.5514V2.69573H290.559Z" fill="#4F79E1"/>
<path d="M286.973 2.6964V18.1416C287.486 17.8305 287.978 17.5077 288.441 17.1678V2.6964H286.973Z" fill="#4F79E1"/>
<path d="M283.391 2.69817V19.9238C283.898 19.7193 284.382 19.4974 284.861 19.2698V2.69817H283.391Z" fill="#4F79E1"/>
<path d="M279.812 2.69754V21.1016C280.31 20.969 280.802 20.8308 281.281 20.6781V2.69754H279.812Z" fill="#4F79E1"/>
<path d="M270.327 -11.362C257.386 -11.362 246.895 -5.06698 246.895 2.69738C246.895 10.4617 257.386 16.7539 270.327 16.7539C283.269 16.7539 293.76 10.4617 293.76 2.69738C293.76 -5.06698 283.269 -11.362 270.327 -11.362Z" fill="#C5D2F8"/>
<path d="M270.327 -8.55977C281.216 -8.55977 290.09 -3.44593 290.704 2.99316L290.764 2.28733C290.764 -4.48596 281.613 -9.97433 270.327 -9.97433C259.041 -9.97433 249.891 -4.48596 249.891 2.28733L249.95 2.99316C250.565 -3.44593 259.439 -8.55977 270.327 -8.55977Z" fill="#4F79E1"/>
<path d="M270.326 14.5469C259.438 14.5469 250.564 9.43303 249.949 2.99394C250.564 -3.44515 259.438 -8.559 270.326 -8.559C281.215 -8.559 290.089 -3.44515 290.703 2.99394C290.089 9.43303 281.215 14.5469 270.326 14.5469Z" fill="#A9BCF4"/>
<path d="M306.316 32.0762V51.6211C307.295 51.5635 308.249 51.4655 309.186 51.3388V32.0762H306.316Z" fill="#819EEF"/>
<path d="M302.367 32.0774V51.6396C302.923 51.6626 303.478 51.6914 304.043 51.6914C304.314 51.6914 304.578 51.6712 304.848 51.6655V32.0774H302.367Z" fill="#819EEF"/>
<path d="M280.617 32.0778V37.6325C280.617 39.5109 281.242 41.2972 282.354 42.9336V32.0778H280.617Z" fill="#819EEF"/>
<path d="M310.656 32.0774V51.1123C311.642 50.9394 312.599 50.7291 313.526 50.4814V32.0774H310.656Z" fill="#819EEF"/>
<path d="M314.992 32.0771V50.0576C315.718 49.8243 316.425 49.5765 317.105 49.3028V32.0771H314.992Z" fill="#819EEF"/>
<path d="M287.398 32.0777V47.5229C288.061 47.9234 288.772 48.295 289.511 48.6465V32.0777H287.398Z" fill="#819EEF"/>
<path d="M298.414 32.0779V51.2656C299.227 51.3866 300.052 51.4816 300.895 51.5508V32.0779H298.414Z" fill="#819EEF"/>
<path d="M290.977 32.0781V49.3037C291.655 49.5774 292.363 49.8252 293.089 50.0586V32.0781H290.977Z" fill="#819EEF"/>
<path d="M294.57 32.077V50.481C295.347 50.6884 296.14 50.8757 296.958 51.0312V32.077H294.57Z" fill="#819EEF"/>
<path d="M283.824 32.0774V44.705C284.453 45.3532 285.149 45.9726 285.937 46.5488V32.0774H283.824Z" fill="#819EEF"/>
<path d="M327.471 32.0778H325.734V42.9336C326.846 41.2972 327.471 39.508 327.471 37.6325V32.0778Z" fill="#819EEF"/>
<path d="M322.164 32.0774V46.5488C322.953 45.9726 323.647 45.3532 324.276 44.705V32.0774H322.164Z" fill="#819EEF"/>
<path d="M318.582 32.0777V48.6465C319.322 48.295 320.031 47.9234 320.694 47.5229V32.0777H318.582Z" fill="#819EEF"/>
<path d="M282.344 32.0775V42.9333C282.762 43.5469 283.26 44.1375 283.814 44.7051V32.0775H282.344Z" fill="#4F79E1"/>
<path d="M285.934 32.0773V46.5486C286.396 46.8857 286.888 47.2113 287.402 47.5225V32.0773H285.934Z" fill="#4F79E1"/>
<path d="M289.516 32.079V48.6478C289.994 48.8754 290.478 49.1001 290.984 49.3047V32.079H289.516Z" fill="#4F79E1"/>
<path d="M293.09 32.0755V50.056C293.569 50.2087 294.061 50.347 294.56 50.4795V32.0755H293.09Z" fill="#4F79E1"/>
<path d="M296.945 32.078V51.0322C297.426 51.1216 297.921 51.1936 298.414 51.2656V32.078H296.945Z" fill="#4F79E1"/>
<path d="M300.898 32.0755V51.5484C301.383 51.5858 301.873 51.6175 302.367 51.6377V32.0755H300.898Z" fill="#4F79E1"/>
<path d="M304.848 32.0779V51.666C305.339 51.6574 305.832 51.6488 306.316 51.6228V32.0779H304.848Z" fill="#4F79E1"/>
<path d="M309.188 32.0773V51.3398C309.683 51.2736 310.173 51.1987 310.657 51.1122V32.0773H309.188Z" fill="#4F79E1"/>
<path d="M324.27 32.0775V44.7051C324.823 44.1375 325.321 43.5469 325.739 42.9333V32.0775H324.27Z" fill="#4F79E1"/>
<path d="M320.691 32.0792V47.5244C321.205 47.2133 321.696 46.8877 322.16 46.5506V32.0792H320.691Z" fill="#4F79E1"/>
<path d="M317.113 32.079V49.3047C317.619 49.1001 318.103 48.8754 318.582 48.6478V32.079H317.113Z" fill="#4F79E1"/>
<path d="M313.527 32.0755V50.4795C314.026 50.347 314.518 50.2087 314.997 50.056V32.0755H313.527Z" fill="#4F79E1"/>
<path d="M304.048 18.0178C291.108 18.0178 280.617 24.3129 280.617 32.0773C280.617 39.8416 291.108 46.1338 304.048 46.1338C316.99 46.1338 327.481 39.8416 327.481 32.0773C327.481 24.3129 316.99 18.0178 304.048 18.0178Z" fill="#C5D2F8"/>
<path d="M304.05 20.8212C314.939 20.8212 323.813 25.9349 324.427 32.374L324.487 31.6653C324.487 24.8949 315.336 19.4065 304.05 19.4065C292.764 19.4065 283.613 24.8949 283.613 31.6653L283.674 32.374C284.287 25.9349 293.162 20.8212 304.05 20.8212Z" fill="#4F79E1"/>
<path d="M304.043 43.9258C293.156 43.9258 284.281 38.8119 283.668 32.3728C284.281 25.9338 293.156 20.82 304.043 20.82C314.933 20.82 323.807 25.9338 324.421 32.3728C323.807 38.8119 314.933 43.9258 304.043 43.9258Z" fill="#A9BCF4"/>
<path d="M268.281 102.387V121.932C269.258 121.874 270.212 121.776 271.151 121.649V102.387H268.281Z" fill="#819EEF"/>
<path d="M264.332 102.386V121.948C264.888 121.971 265.442 122 266.008 122C266.279 122 266.542 121.98 266.811 121.974V102.386H264.332Z" fill="#819EEF"/>
<path d="M242.582 102.387V107.941C242.582 109.82 243.207 111.606 244.318 113.242V102.387H242.582Z" fill="#819EEF"/>
<path d="M272.621 102.385V121.423C273.606 121.247 274.563 121.037 275.491 120.789V102.385H272.621Z" fill="#819EEF"/>
<path d="M276.957 102.387V120.367C277.684 120.137 278.391 119.886 279.069 119.612V102.387H276.957Z" fill="#819EEF"/>
<path d="M249.367 102.385V117.831C250.03 118.234 250.74 118.606 251.48 118.957V102.385H249.367Z" fill="#819EEF"/>
<path d="M260.391 102.387V121.577C261.202 121.695 262.028 121.79 262.87 121.859V102.387H260.391Z" fill="#819EEF"/>
<path d="M252.945 102.387V119.612C253.624 119.886 254.332 120.137 255.058 120.367V102.387H252.945Z" fill="#819EEF"/>
<path d="M256.535 102.386V120.79C257.312 120.997 258.105 121.184 258.923 121.34V102.386H256.535Z" fill="#819EEF"/>
<path d="M245.793 102.386V115.016C246.422 115.662 247.116 116.281 247.904 116.857V102.386H245.793Z" fill="#819EEF"/>
<path d="M289.451 102.387H287.715V113.242C288.827 111.606 289.451 109.82 289.451 107.941V102.387Z" fill="#819EEF"/>
<path d="M284.129 102.386V116.857C284.917 116.281 285.612 115.662 286.241 115.016V102.386H284.129Z" fill="#819EEF"/>
<path d="M280.547 102.385V118.957C281.286 118.606 281.997 118.234 282.658 117.831V102.385H280.547Z" fill="#819EEF"/>
<path d="M244.324 102.385V113.241C244.743 113.857 245.239 114.445 245.794 115.016V102.385H244.324Z" fill="#4F79E1"/>
<path d="M247.898 102.386V116.857C248.362 117.197 248.854 117.52 249.368 117.831V102.386H247.898Z" fill="#4F79E1"/>
<path d="M251.484 102.386V118.957C251.963 119.185 252.446 119.407 252.953 119.611V102.386H251.484Z" fill="#4F79E1"/>
<path d="M255.066 102.387V120.367C255.546 120.52 256.038 120.658 256.536 120.791V102.387H255.066Z" fill="#4F79E1"/>
<path d="M258.926 102.386V121.34C259.406 121.432 259.902 121.501 260.395 121.576V102.386H258.926Z" fill="#4F79E1"/>
<path d="M262.863 102.387V121.86C263.35 121.897 263.838 121.929 264.333 121.949V102.387H262.863Z" fill="#4F79E1"/>
<path d="M266.812 102.387V121.975C267.304 121.966 267.798 121.96 268.282 121.931V102.387H266.812Z" fill="#4F79E1"/>
<path d="M271.152 102.386V121.648C271.647 121.582 272.138 121.507 272.622 121.424V102.386H271.152Z" fill="#4F79E1"/>
<path d="M286.234 102.385V115.016C286.788 114.445 287.286 113.857 287.704 113.241V102.385H286.234Z" fill="#4F79E1"/>
<path d="M282.66 102.386V117.831C283.175 117.52 283.666 117.197 284.13 116.857V102.386H282.66Z" fill="#4F79E1"/>
<path d="M279.078 102.386V119.611C279.586 119.407 280.069 119.185 280.548 118.957V102.386H279.078Z" fill="#4F79E1"/>
<path d="M275.492 102.387V120.791C275.99 120.658 276.482 120.52 276.961 120.367V102.387H275.492Z" fill="#4F79E1"/>
<path d="M266.014 88.3264C253.073 88.3264 242.582 94.6215 242.582 102.386C242.582 110.15 253.073 116.442 266.014 116.442C278.956 116.442 289.447 110.15 289.447 102.386C289.447 94.6215 278.956 88.3264 266.014 88.3264Z" fill="#C5D2F8"/>
<path d="M266.014 91.1297C276.903 91.1297 285.778 96.2435 286.392 102.683L286.452 101.977C286.452 95.2035 277.301 89.7151 266.014 89.7151C254.728 89.7151 245.578 95.2035 245.578 101.977L245.638 102.683C246.252 96.2435 255.126 91.1297 266.014 91.1297Z" fill="#4F79E1"/>
<path d="M266.013 114.236C255.125 114.236 246.251 109.122 245.637 102.683C246.251 96.2443 255.125 91.1305 266.013 91.1305C276.902 91.1305 285.777 96.2443 286.391 102.683C285.777 109.122 276.902 114.236 266.013 114.236Z" fill="#A9BCF4"/>
<path d="M213.369 98.2256C202.48 98.2256 193.606 93.1117 192.992 86.6727C193.606 80.2307 202.48 75.1197 213.369 75.1197C224.257 75.1197 233.132 80.2307 233.746 86.6727C233.132 93.1117 224.257 98.2256 213.369 98.2256Z" fill="#A9BCF4"/>
<path d="M220.781 92.8606L217.731 91.0994L217.184 93.0895L214.696 92.765L215.505 89.8146L213.28 88.5297L212.757 90.5063L210.245 90.1953L211.055 87.2449L206.079 84.3721L201.592 86.9625L198.441 85.1436L210.939 77.9283L214.089 79.7473L209.579 82.3513L212.004 83.7516L212.567 81.6079L215.079 81.9189L214.23 85.0364L216.455 86.3213L217.019 84.2056L219.531 84.5166L218.681 87.6061L224.282 90.8398L220.781 92.8606Z" fill="#4F79E1"/>
<path d="M206.703 75.1544V94.7021C207.68 94.6445 208.634 94.5466 209.573 94.4198V75.1544H206.703Z" fill="#819EEF"/>
<path d="M202.754 75.1545V94.7196C203.31 94.7426 203.863 94.7686 204.43 94.7686C204.701 94.7686 204.964 94.7512 205.233 94.7455V75.1545H202.754Z" fill="#819EEF"/>
<path d="M181 75.1541V80.7116C181 82.5871 181.625 84.3762 182.736 86.0098V75.1541H181Z" fill="#819EEF"/>
<path d="M211.039 75.1555V94.1934C212.025 94.0205 212.981 93.8073 213.909 93.5624V75.1555H211.039Z" fill="#819EEF"/>
<path d="M215.375 75.1542V93.1348C216.102 92.9043 216.809 92.6565 217.487 92.3828V75.1542H215.375Z" fill="#819EEF"/>
<path d="M187.789 75.1539V90.602C188.452 91.0025 189.162 91.3741 189.901 91.7256V75.1539H187.789Z" fill="#819EEF"/>
<path d="M198.801 75.1541V94.3447C199.612 94.4657 200.438 94.5607 201.28 94.6299V75.1541H198.801Z" fill="#819EEF"/>
<path d="M191.363 75.1542V92.3828C192.041 92.6565 192.749 92.9043 193.474 93.1348V75.1542H191.363Z" fill="#819EEF"/>
<path d="M194.949 75.1561V93.563C195.726 93.7704 196.519 93.9577 197.337 94.1104V75.1561H194.949Z" fill="#819EEF"/>
<path d="M184.211 75.1556V87.7861C184.84 88.4343 185.534 89.0537 186.322 89.6299V75.1556H184.211Z" fill="#819EEF"/>
<path d="M227.861 75.1541H226.125V86.0098C227.237 84.3733 227.861 82.5871 227.861 80.7116V75.1541Z" fill="#819EEF"/>
<path d="M222.547 75.1556V89.6299C223.335 89.0537 224.03 88.4343 224.659 87.7861V75.1556H222.547Z" fill="#819EEF"/>
<path d="M218.965 75.1539V91.7256C219.704 91.3741 220.415 91.0025 221.077 90.602V75.1539H218.965Z" fill="#819EEF"/>
<path d="M182.73 75.1547V86.0104C183.149 86.6269 183.645 87.2176 184.2 87.7852V75.1547H182.73Z" fill="#4F79E1"/>
<path d="M186.32 75.1554V89.6297C186.784 89.9668 187.277 90.2924 187.79 90.6035V75.1554H186.32Z" fill="#4F79E1"/>
<path d="M189.895 75.1543V91.7259C190.373 91.9535 190.857 92.1783 191.364 92.3828V75.1543H189.895Z" fill="#4F79E1"/>
<path d="M193.473 75.1536V93.1342C193.952 93.2869 194.444 93.428 194.943 93.5605V75.1536H193.473Z" fill="#4F79E1"/>
<path d="M197.332 75.1542V94.1085C197.811 94.2007 198.308 94.2727 198.801 94.3447V75.1542H197.332Z" fill="#4F79E1"/>
<path d="M201.285 75.1537V94.6294C201.771 94.6669 202.261 94.6986 202.755 94.7188V75.1537H201.285Z" fill="#4F79E1"/>
<path d="M205.23 75.1532V94.7441C205.722 94.7355 206.218 94.7269 206.7 94.701V75.1532H205.23Z" fill="#4F79E1"/>
<path d="M209.566 75.1555V94.4209C210.061 94.3546 210.552 94.2797 211.036 94.1933V75.1555H209.566Z" fill="#4F79E1"/>
<path d="M224.656 75.1547V87.7852C225.211 87.2176 225.708 86.6269 226.126 86.0104V75.1547H224.656Z" fill="#4F79E1"/>
<path d="M221.074 75.1545V90.6025C221.588 90.2914 222.079 89.9658 222.543 89.6287V75.1545H221.074Z" fill="#4F79E1"/>
<path d="M217.496 75.1543V92.3828C218.004 92.1783 218.487 91.9535 218.966 91.7259V75.1543H217.496Z" fill="#4F79E1"/>
<path d="M213.91 75.1536V93.5605C214.408 93.428 214.9 93.2869 215.379 93.1342V75.1536H213.91Z" fill="#4F79E1"/>
<path d="M204.432 61.0989C191.491 61.0989 181 67.394 181 75.1554C181 82.9198 191.491 89.2148 204.432 89.2148C217.374 89.2148 227.864 82.9198 227.864 75.1554C227.864 67.394 217.374 61.0989 204.432 61.0989Z" fill="#C5D2F8"/>
<path d="M204.436 63.9002C215.324 63.9002 224.199 69.0112 224.814 75.4531L224.873 74.7444C224.873 67.974 215.724 62.4827 204.436 62.4827C193.15 62.4827 184 67.974 184 74.7444L184.06 75.4531C184.674 69.0112 193.548 63.9002 204.436 63.9002Z" fill="#4F79E1"/>
<path d="M204.435 87.0068C193.547 87.0068 184.673 81.893 184.059 75.4539C184.673 69.0119 193.547 63.901 204.435 63.901C215.323 63.901 224.198 69.0119 224.813 75.4539C224.198 81.893 215.323 87.0068 204.435 87.0068Z" fill="#A9BCF4"/>
<path d="M279.465 9.80497L276.414 8.04374L275.868 10.0339L273.38 9.70932L274.189 6.75891L271.964 5.47408L271.441 7.45064L268.929 7.13965L269.738 4.18925L264.762 1.31642L260.276 3.90687L257.125 2.08789L269.622 -5.12738L272.773 -3.3084L268.263 -0.704397L270.688 0.695926L271.25 -1.44775L273.762 -1.13676L272.913 1.98076L275.139 3.26559L275.703 1.14991L278.215 1.4609L277.364 4.55042L282.965 7.78416L279.465 9.80497Z" fill="#4F79E1"/>
<path d="M311.059 38.5296L308.008 36.7684L307.462 38.7585L304.973 38.4339L305.783 35.4835L303.557 34.1987L303.034 36.1752L300.522 35.8643L301.332 32.9139L296.356 30.041L291.869 32.6315L288.719 30.8125L301.216 23.5972L304.367 25.4162L299.856 28.0202L302.282 29.4205L302.844 27.2769L305.356 27.5878L304.507 30.7054L306.732 31.9902L307.296 29.8745L309.808 30.1855L308.958 33.275L314.559 36.5088L311.059 38.5296Z" fill="#4F79E1"/>
<path d="M273.719 108.908L270.668 107.147L270.122 109.137L267.633 108.813L268.443 105.862L266.218 104.578L265.695 106.554L263.183 106.243L263.992 103.293L259.016 100.42L254.529 103.01L251.379 101.191L263.876 93.9761L267.027 95.7951L262.516 98.3991L264.942 99.7994L265.504 97.6558L268.016 97.9668L267.167 101.084L269.393 102.369L269.957 100.253L272.468 100.564L271.618 103.654L277.219 106.888L273.719 108.908Z" fill="#4F79E1"/>
<path d="M213.391 81.6194L210.34 79.8582L209.794 81.8483L207.305 81.5238L208.115 78.5734L205.889 77.2885L205.366 79.2651L202.855 78.9541L203.664 76.0037L198.688 73.1309L194.201 75.7213L191.051 73.9023L203.548 66.6871L206.699 68.506L202.188 71.1101L204.614 72.5104L205.176 70.3667L207.688 70.6777L206.839 73.7952L209.064 75.08L209.628 72.9644L212.14 73.2754L211.29 76.3649L216.891 79.5986L213.391 81.6194Z" fill="#4F79E1"/>
<path d="M36.2125 102.471L43.8769 98.559L55.4467 108.604L84.5759 130.32L90.0429 127.123L105.334 137.608L106.293 96.3325L34.3164 82.5197L36.2125 102.471Z" fill="#504FFD"/>
<path d="M93.6202 120.479L87.5859 123.963L97.1443 140.198L103.195 136.702L101.193 125.95L93.6202 120.479Z" fill="#4D68EF"/>
<path d="M45.3723 92.6143L39.3359 96.0969L48.8123 112.386L54.8631 108.891L52.4081 97.9702L45.3723 92.6143Z" fill="#4D68EF"/>
<path d="M114.475 92.4914C114.475 92.7577 114.495 93.0089 114.552 93.1835L114.557 93.2095L114.655 93.379L114.777 93.4818C114.978 93.6355 115.321 93.8308 115.727 93.9025C115.875 93.9274 116.029 93.9379 116.188 93.9225H116.193L116.281 93.9127H116.286C116.455 93.8912 116.63 93.8401 116.799 93.7528L116.916 93.6862H116.922L117.045 93.6149L117.05 93.6096C117.819 93.138 118.719 92.2391 119.103 91.4497C119.159 91.3311 119.205 91.2127 119.236 91.0954C119.278 90.9517 119.308 90.8031 119.324 90.6485L119.334 90.5414C119.35 90.4128 119.355 90.2943 119.355 90.1818L119.344 89.92L119.329 89.7654C119.313 89.5962 119.283 89.4318 119.236 89.2792L119.231 89.2626C119.144 88.9249 118.995 88.6425 118.8 88.4782C118.636 88.3389 118.447 88.2829 118.2 88.3141C117.691 88.3754 116.954 88.8218 115.706 89.6688C115.188 90.0232 114.7 90.6332 114.546 91.188L114.531 91.2346L114.495 91.4952C114.495 91.6136 114.485 91.752 114.48 91.89V91.8953C114.475 92.0905 114.47 92.2963 114.475 92.4914Z" fill="#C5D2F8"/>
<path d="M115.488 92.0143V92.1835L115.493 92.1887V92.2249C115.499 92.5991 115.561 92.9481 115.678 93.2204V93.2257L115.684 93.2298C115.782 93.4667 115.925 93.64 116.12 93.7286C116.326 93.821 116.588 93.821 116.91 93.6819V93.6766L117.044 93.6153L117.049 93.61C117.942 93.1478 118.732 92.3008 119.102 91.4501C119.158 91.3316 119.204 91.2131 119.235 91.0958C119.282 90.9566 119.306 90.8182 119.322 90.679V90.649L119.332 90.5419C119.348 90.4133 119.353 90.2947 119.353 90.1823L119.343 89.9205L119.332 89.7814V89.7765C119.317 89.5768 119.282 89.4128 119.235 89.2796L119.23 89.263C119.153 89.048 119.045 88.9254 118.932 88.9034C118.87 88.8942 118.788 88.8994 118.685 88.9149C118.254 88.9854 117.526 89.2992 117.024 89.7254C116.408 90.2481 115.51 90.8483 115.488 92.0143Z" fill="#C5D2F8"/>
<path d="M60.4237 79.844C61.5769 81.7388 62.7593 83.9625 65.1198 85.3232L65.7899 85.7109V82.7166C65.7899 77.786 69.2745 75.8035 73.5727 78.2843C77.8657 80.7624 81.3514 86.7705 81.3514 91.7015V94.6958L114.048 113.573V110.579C114.048 105.649 117.529 103.662 121.827 106.144C126.124 108.625 129.609 114.632 129.609 119.563V124.684C130.725 125.328 130.474 126.185 130.474 126.185C130.474 126.185 134.051 126.896 135.79 126.098C136.124 125.946 137.364 120.138 136.895 118.196C136.428 116.255 136.337 114.281 133.122 110.313C130.475 107.053 119.879 98.2441 119.879 98.2441C119.879 98.2441 107.348 82.6338 101.211 78.2583C94.1389 73.2134 69.4013 58.1412 67.7161 57.8368C64.3863 57.229 61.0668 62.1338 60.3354 63.7763C60.3052 63.84 59.5977 69.0628 59.5042 69.3526C59.1655 70.3835 58.4351 71.6362 58.2086 72.4187C57.9873 73.1987 59.2746 77.9466 60.4237 79.844Z" fill="#C5D2F8"/>
<path d="M136.897 118.196C136.399 115.317 135.41 113.734 135.41 113.734C135.41 113.734 132.855 110.462 131.546 108.609C130.238 106.755 117.98 95.9207 117.98 95.9207L118.951 109.252L136.897 118.196Z" fill="#C5D2F8"/>
<path d="M58.2091 72.4187C58.4355 71.6362 59.1659 70.3835 59.5046 69.3526C59.5877 69.0981 60.1457 65.0222 60.2984 64.006C63.0734 65.6009 69.9087 68.5579 73.3228 70.7218C77.8734 73.609 90.9611 82.7771 93.5564 84.5659C96.1549 86.3562 112.504 98.5992 119.046 101.989C125.592 105.387 130.621 112.439 131.631 113.731C132.643 115.026 134.246 116.628 136.895 118.196C137.364 120.138 136.125 125.946 135.79 126.098C134.052 126.896 130.475 126.185 130.475 126.185C130.475 126.185 130.725 125.328 129.609 124.684V119.563C129.609 114.632 126.125 108.625 121.827 106.144C117.529 103.662 114.049 105.649 114.049 110.579V113.573L81.3518 94.6958V91.7015C81.3518 86.7705 77.8661 80.7624 73.5731 78.2843C69.275 75.8035 65.7903 77.786 65.7903 82.7166V85.7109L65.1202 85.3232C62.7597 83.9625 61.5773 81.7388 60.4241 79.844C59.275 77.9466 58.1529 73.1833 58.2091 72.4187Z" fill="#4F79E1"/>
<path d="M115.141 111.213C115.141 115.449 118.134 120.612 121.826 122.743C125.519 124.874 128.511 123.168 128.511 118.931C128.511 114.696 125.519 109.533 121.826 107.401C118.134 105.269 115.141 106.976 115.141 111.213Z" fill="#304EA4"/>
<path d="M66.8867 83.3513C66.8867 87.5882 69.88 92.751 73.5714 94.8816C77.2628 97.0135 80.256 95.3065 80.256 91.07C80.256 86.8341 77.2628 81.6715 73.5714 79.5404C69.88 77.4085 66.8867 79.1154 66.8867 83.3513Z" fill="#304EA4"/>
<path d="M59.5023 69.3533C59.839 68.3225 59.6041 65.4154 60.3345 63.775C61.0649 62.1334 64.3865 57.2306 67.7153 57.8343C68.3168 57.9443 71.8555 59.9349 76.4789 62.6788C76.4685 62.6728 68.8374 58.6343 67.9948 58.8034C67.1532 58.9731 62.401 62.144 61.6696 64.8027C60.9361 67.4621 61.4441 68.2487 61.1075 69.5859C60.7699 70.9232 58.7969 71.0156 58.7969 71.0156C59.0545 70.4637 59.3299 69.8797 59.5023 69.3533Z" fill="#C5D2F8"/>
<path d="M113.039 109.998V112.991L114.047 113.573V110.58C114.047 105.649 117.527 103.663 121.826 106.145C126.123 108.626 129.607 114.633 129.607 119.564V124.685L130.615 125.266V120.146C130.615 114.576 126.678 107.79 121.826 104.988C116.971 102.186 113.039 104.428 113.039 109.998Z" fill="#C5D2F8"/>
<path d="M64.7812 82.1356V85.1174C64.8893 85.1872 65.0046 85.2578 65.1189 85.3231L65.789 85.7107V82.7164C65.789 77.7858 69.2737 75.8033 73.5719 78.2841C77.8648 80.7622 81.3505 86.7703 81.3505 91.7013V94.6956L82.3583 95.2764V92.2833C82.3583 86.7143 78.4238 79.9298 73.5719 77.1271C68.7179 74.3248 64.7812 76.5658 64.7812 82.1356Z" fill="#C5D2F8"/>
<path d="M60.0781 65.5318C60.1322 65.1528 60.182 64.8033 60.2236 64.5176V64.5156C60.2537 64.307 60.2797 64.1324 60.2984 64.0055C60.7576 64.2684 61.3093 64.5874 61.9171 64.9384C62.2869 65.1621 62.7056 65.41 63.1763 65.6816C63.9503 66.1279 64.8282 66.6373 65.6251 67.0996C66.4365 67.5752 68.129 67.563 68.9425 68.0472C68.8677 68.1539 68.4708 68.714 68.2952 68.7598C67.8308 68.8792 63.5566 67.5878 62.7649 67.1328C62.155 66.7818 60.7088 65.912 60.0781 65.5318Z" fill="#304EA4"/>
<path d="M62.1238 82.5195C61.4797 81.6332 60.9477 80.7054 60.4241 79.8442C59.275 77.9469 58.1529 73.1836 58.2091 72.4189V72.4178L58.2101 72.4189C59.647 74.3358 60.9436 75.5638 61.4693 77.0942C61.9347 78.4518 62.1166 80.5395 62.1238 82.5195Z" fill="#4F79E1"/>
<path d="M117.978 97.1729C117.978 97.1729 110.002 94.351 109.048 93.7995C108.093 93.2476 82.3588 75.7797 82.3588 75.7797L73.5703 66.8313C73.5703 66.8313 74.1958 62.6535 75.376 63.0991C76.3932 63.4859 96.4481 75.7537 102.109 79.9042C107.559 84.9932 117.978 97.1729 117.978 97.1729Z" fill="#304EA4"/>
<path d="M91.0421 72.6186L94.2878 83.832L91.9594 82.2542L89.9844 71.9538L91.0421 72.6186Z" fill="#4F79E1"/>
<path d="M102.541 80.3163L112.057 95.0195L109.668 94.1551L101.625 79.5525L102.541 80.3163Z" fill="#4F79E1"/>
<path d="M65.7983 58.0405C65.7983 58.0405 61.7578 59.5636 60.8611 59.9552C55.6269 62.2417 45.5074 67.7786 41.0732 71.3805C40.1547 72.1277 34.8789 77.1073 34.8789 77.1073L74.6419 93.5967C74.6419 93.5967 77.2081 93.3297 78.0153 93.0501C86.0662 90.2667 97.6942 83.9458 100.413 80.1191C100.705 79.7068 101.209 78.2582 101.209 78.2582C101.209 78.2582 76.7717 63.3505 69.0824 58.885C68.2523 58.4028 66.2783 58.0486 65.7983 58.0405Z" fill="#C5D2F8"/>
<path d="M119.879 98.2439L90.3008 115.321C90.3008 115.321 108.2 135.062 108.992 135.263C109.246 135.326 112.541 139.159 116.419 136.793C121.674 133.588 128.662 129.189 133.06 126.407C135.585 124.81 136.895 118.196 136.895 118.196L131.759 109.641L119.879 98.2439Z" fill="#C5D2F8"/>
<path d="M135.791 126.097C135.791 126.097 135.454 126.963 135.025 127.339C130.411 131.383 117.383 138.634 115.303 139.617C111.945 141.202 107.827 142.043 107.827 142.043C107.827 142.043 105.082 132.569 106.973 133.204C112.762 135.146 134.177 121.033 136.172 119.087C136.499 118.768 136.896 118.196 136.896 118.196L135.791 126.097Z" fill="#4F79E1"/>
<path d="M93.1055 114.909C97.8847 117.506 103.487 124.024 106.839 125.631C110.193 127.236 109.876 132.612 116.533 129.275C127.738 123.661 131.934 119.944 131.934 119.944C131.934 119.944 132.247 114.909 131.315 112.097C130.381 109.285 118.658 99.5549 118.658 99.5549C118.658 99.5549 110.736 109.808 93.1055 114.909Z" fill="#ECF1FD"/>
<path d="M118.118 96.0831C118.717 96.8039 119.372 97.9654 119.144 99.8221C119.072 101.309 118.641 103.123 116.81 104.468C112.992 107.273 108.015 110.627 102.945 112.933C100.671 113.968 97.3925 114.266 95.326 114.888C94.5977 115.107 90.3016 115.321 90.3016 115.321L74.6445 93.5969L101.212 78.2585C101.212 78.2585 111.834 88.5101 118.118 96.0831Z" fill="#C5D2F8"/>
<path d="M80.55 95.9873C77.6254 92.54 64.4899 83.6676 49.2224 75.2714C48.6073 74.9331 48.4546 74.1205 48.9034 73.5812C49.3616 73.0336 49.8956 72.4237 50.2094 72.1664C54.0411 69.0183 62.8057 64.1445 67.3875 62.2484C67.6805 62.1279 68.1709 61.9793 68.708 61.8348C70.3506 61.3881 72.1054 61.5784 73.6161 62.3624C88.7859 70.241 99.9567 78.9071 101.501 80.1193C103.123 81.3932 104.032 82.431 104.032 82.431L100.269 94.8911L80.55 95.9873Z" fill="#A9BCF4"/>
<path d="M48.9044 74.3678C49.3626 73.8192 49.8966 73.2105 50.2104 72.9527C54.042 69.8038 62.8067 64.9312 67.3885 63.0339C67.6815 62.9134 68.1719 62.766 68.709 62.6204C70.3516 62.1748 72.1064 62.3626 73.617 63.1471C88.7868 71.0257 99.9577 79.6925 101.502 80.906C102.707 81.8504 103.516 82.6661 103.854 83.0225L104.033 82.4312C104.033 82.4312 103.124 81.3934 101.502 80.1195C99.9577 78.9073 88.7868 70.2412 73.617 62.3626C72.1064 61.5774 70.3516 61.3883 68.709 61.835C68.1719 61.9795 67.6815 62.1281 67.3885 62.2486C62.8067 64.1447 54.042 69.0185 50.2104 72.1666C49.8966 72.4239 49.3626 73.0338 48.9044 73.5814C48.6332 73.9077 48.5854 74.3325 48.7236 74.6929C48.7662 74.5789 48.8213 74.4677 48.9044 74.3678Z" fill="#4F79E1"/>
<path d="M109.714 136.505C109.676 136.929 109.617 137.368 109.554 137.805L109.547 137.86C109.279 139.637 108.865 141.347 108.647 141.728L108.586 141.805C108.433 141.875 108.266 141.933 108.087 141.985L108.002 142.004L107.931 142.019L107.854 142.035L107.826 142.043C107.721 142.065 107.612 142.082 107.504 142.102L107.398 142.112C107.298 142.129 107.197 142.14 107.091 142.147C106.947 142.163 106.799 142.171 106.648 142.176C106.515 142.179 106.383 142.183 106.25 142.183C104.737 142.183 103.27 141.891 103.27 141.891C103.27 141.891 103.044 141.837 102.705 141.743L102.553 141.701C102.406 141.658 102.241 141.61 102.071 141.556L101.834 141.483C101.577 141.397 101.304 141.303 101.039 141.202C100.674 141.063 100.32 140.906 100.031 140.739V136.641C100.031 131.71 96.5486 125.701 92.2473 123.222C87.9502 120.739 84.4717 122.723 84.4717 127.654L84.5767 130.32L83.5689 129.736L51.8776 111.44L51.7727 108.779C51.7727 103.848 48.2901 97.839 43.9929 95.3602C39.6958 92.8813 36.2132 94.8626 36.2132 99.7932V102.471C35.4662 101.933 33.4964 100.485 32.9707 99.7964C32.3244 98.9413 30.8959 96.8 30.6351 95.4368C30.3785 94.0761 29.8933 90.639 30.0211 89.3236C30.1499 88.0083 31.0247 87.1678 31.352 86.0315C31.6481 84.9925 32.4605 81.8205 32.9707 80.0335C33.0174 79.8704 33.06 79.7186 33.1026 79.5786C33.2938 78.9434 33.9909 78.0409 34.8813 77.1078C36.2984 75.62 38.2132 74.0677 39.3311 73.4488L39.354 73.4341L39.4267 73.3517C39.6408 73.2811 39.8527 73.2272 40.0543 73.1918C40.1561 73.1731 40.2558 73.1606 40.3576 73.1525C40.5561 73.1297 40.7472 73.1297 40.9301 73.1525L41.0818 73.1691L41.1483 73.1772L41.2449 73.1991L41.2989 73.2198L41.4319 73.2698L41.5098 73.301L41.5337 73.3136L41.6272 73.3562L41.8288 73.4454L41.8329 73.4488C41.941 73.5035 42.0615 73.5619 42.1945 73.6273C42.2839 73.6707 42.3774 73.7207 42.475 73.7718C42.6194 73.8497 42.7784 73.9317 42.9457 74.0209L43.1981 74.1569L43.4714 74.3059C43.5919 74.3712 43.7197 74.4406 43.8527 74.5157C44.0158 74.6049 44.1872 74.7015 44.3618 74.7994C44.5374 74.8968 44.7202 75.0019 44.9072 75.1066C45.1337 75.2316 45.3664 75.3635 45.6085 75.5035C45.9264 75.6873 46.261 75.881 46.607 76.0802L46.8677 76.232C47.1327 76.3838 47.4018 76.5425 47.6781 76.7024L47.9545 76.8655C48.102 76.9519 48.2506 77.0404 48.4023 77.1305L48.4137 77.1346C48.7098 77.3095 49.0173 77.4889 49.329 77.676L49.356 77.6906C49.5036 77.7799 49.6511 77.8691 49.8038 77.9597L49.8423 77.9796L49.8693 77.9942C58.2059 82.9373 70.0915 90.3472 74.6453 93.5972C75.4889 94.2007 76.4042 95.0525 77.3455 96.0728L77.5596 96.3058C77.8048 96.5737 78.0499 96.8553 78.2951 97.1418L78.3699 97.2282C78.4936 97.3768 78.6183 97.5233 78.7471 97.6799C78.8447 97.7964 78.9414 97.9169 79.0421 98.0376C79.144 98.1621 79.2489 98.2912 79.3497 98.423C79.4598 98.559 79.5679 98.6954 79.6811 98.8354C79.8203 99.0184 79.9647 99.2043 80.1092 99.3922C80.2608 99.5907 80.4125 99.7932 80.5642 99.9948C80.7045 100.178 80.8406 100.365 80.984 100.555C81.3112 101.007 81.6427 101.466 81.9741 101.933C82.1881 102.24 82.4011 102.548 82.6151 102.855C82.9341 103.319 83.2499 103.786 83.5616 104.249C84.0198 104.934 84.4676 105.619 84.8956 106.292C85.04 106.514 85.1793 106.735 85.3195 106.957C85.519 107.269 85.7133 107.576 85.9045 107.88L85.9148 107.896C86.0042 108.044 86.0946 108.191 86.1881 108.336C86.3668 108.623 86.5424 108.907 86.7138 109.188C86.7948 109.328 86.8811 109.464 86.9663 109.6C87.3985 110.313 87.7995 110.982 88.1652 111.597C88.3398 111.892 88.5039 112.177 88.6629 112.446L88.7179 112.542C88.7792 112.647 88.8385 112.752 88.8966 112.854L88.9122 112.878C88.9933 113.017 89.0722 113.149 89.146 113.278C89.4452 113.796 89.6946 114.231 89.8816 114.566C89.947 114.687 90.0104 114.796 90.0603 114.889C90.2203 115.17 90.3013 115.322 90.3013 115.322C90.3013 115.322 100.607 122.907 103.059 124.95C106.573 127.888 108.741 131.2 109.489 133.251C109.574 133.488 109.644 133.706 109.69 133.905C109.835 134.5 109.815 135.458 109.714 136.505Z" fill="#A9BCF4"/>
<path d="M109.737 136.497C109.686 136.929 109.625 137.368 109.554 137.805L109.547 137.86C109.255 139.668 108.855 141.349 108.647 141.728L108.586 141.805C108.41 141.887 108.212 141.953 108.002 142.004L107.931 142.019L107.854 142.035L107.826 142.043C107.721 142.065 107.612 142.082 107.504 142.102L107.398 142.112C107.298 142.129 107.197 142.14 107.091 142.147C106.947 142.163 106.799 142.171 106.648 142.176C106.515 142.179 106.383 142.183 106.25 142.183C104.737 142.183 103.27 141.891 103.27 141.891C103.27 141.891 103.044 141.837 102.705 141.743L102.553 141.701C102.406 141.658 102.241 141.61 102.071 141.556L101.834 141.483C101.577 141.397 101.304 141.303 101.039 141.202C100.674 141.063 100.32 140.906 100.031 140.739V136.641C100.031 131.71 96.5486 125.701 92.2473 123.222C87.9502 120.739 84.4717 122.723 84.4717 127.654L84.5767 130.32L83.5689 129.736L51.8776 111.44L51.7727 108.779C51.7727 103.848 48.2901 97.839 43.9929 95.3602C39.6958 92.8813 36.2132 94.8626 36.2132 99.7932V102.471C35.4662 101.933 33.4964 100.485 32.9707 99.7964C32.3244 98.9413 30.8959 96.8001 30.6351 95.4368C30.3785 94.0761 29.8933 90.639 30.0211 89.3236C30.1499 88.0083 31.0247 87.1678 31.352 86.0315C31.6481 84.9925 32.4605 81.8205 32.9707 80.0335C33.0174 79.8704 33.06 79.7186 33.1026 79.5786L33.3021 79.7458C38.7971 84.3691 40.3701 85.6613 43.7436 87.7985C48.2963 90.6861 61.3809 99.8549 63.9773 101.642C66.5767 103.432 76.8312 111.114 83.4639 114.328C94.0883 119.477 102.241 129.736 103.254 131.028C104.226 132.277 106.741 133.363 109.489 133.251C109.591 133.247 109.694 133.243 109.796 133.235C109.959 133.921 109.9 135.162 109.737 136.497Z" fill="#4F79E1"/>
<path d="M136.828 121.599C136.635 124.027 136.035 125.99 135.789 126.098C135.789 126.098 135.454 126.961 135.023 127.34C130.411 131.383 117.382 138.634 115.304 139.618C112.353 141.008 108.823 141.828 108.002 142.004L107.931 142.019L107.854 142.035L107.826 142.043C107.721 142.065 107.612 142.082 107.504 142.102L107.398 142.112C107.298 142.129 107.197 142.14 107.091 142.147C106.947 142.163 106.799 142.171 106.648 142.176C106.515 142.179 106.383 142.183 106.25 142.183C104.737 142.183 103.27 141.891 103.27 141.891C103.27 141.891 103.044 141.837 102.705 141.743L102.553 141.701C102.406 141.658 102.241 141.61 102.071 141.556L101.834 141.483C101.577 141.397 101.304 141.303 101.039 141.202C100.674 141.063 100.32 140.906 100.031 140.739V136.641C100.031 131.71 96.5486 125.701 92.2473 123.222C87.9502 120.739 84.4717 122.723 84.4717 127.654L84.5767 130.32L83.5689 129.736L52.8854 112.024L51.8776 111.44L51.7727 108.779C51.7727 103.848 48.2901 97.839 43.9929 95.3602C39.6958 92.8813 36.2132 94.8626 36.2132 99.7932V102.471C35.9712 102.299 35.6096 102.034 35.2055 101.727C34.3525 101.081 33.3291 100.264 32.9707 99.7964C32.3244 98.9413 30.8959 96.8001 30.6351 95.4368C30.3785 94.0761 29.8933 90.639 30.0211 89.3236C30.2278 90.3598 32.687 92.5497 33.4268 92.8419C35.2595 93.2624 37.0569 89.2105 43.7436 92.6787C50.4293 96.15 53.0568 101.112 53.5898 104.809C54.1269 108.507 54.3451 111.013 55.782 112.099C57.2137 113.181 79.3195 125.307 82.5767 126.849C82.8842 125.487 83.1762 124.591 83.7289 123.408C85.9148 119.323 89.4026 119.824 92.0883 121.319C101.518 126.768 101.56 134.905 101.728 135.781C101.888 136.59 104.301 137.711 106.854 137.762C107.068 137.762 111.991 135.999 112.94 135.968C114.089 135.932 124.978 130.371 130.75 126.234C132.435 125.028 133.661 123.997 134.339 123.393C136.253 121.688 136.716 121.67 136.828 121.599Z" fill="#4D68EF"/>
<path d="M100.97 135.896C100.011 124.625 94.0262 120.612 90.3026 119.435C86.9862 118.387 82.9343 120.571 83.4652 126.311C85.3478 121.332 88.0355 121.025 90.5851 121.738C93.1347 122.451 98.688 127.117 100.97 135.896Z" fill="#C5D2F8"/>
<path d="M52.7827 109.23C52.7827 99.795 48.2197 94.7256 44.1843 92.1303C40.149 89.5361 35.5859 92.647 35.5859 96.489C38.0337 94.0422 41.0529 92.8814 43.4675 94.2885C45.881 95.6951 50.9999 99.644 52.7827 109.23Z" fill="#C5D2F8"/>
<path d="M54.4697 109.701C54.9352 110.866 55.7768 111.84 56.8562 112.48C62.1726 115.625 79.2613 125.714 79.7444 125.701C82.4707 125.632 66.3762 115.392 63.0037 113.586C60.7897 112.402 53.6895 107.753 54.4697 109.701Z" fill="#C5D2F8"/>
<path d="M90.2989 115.321L88.3997 114.251L43.9906 83.9063C43.9906 83.9063 39.655 80.9951 35.7901 77.8588C35.4825 77.6051 35.1792 77.3559 34.8789 77.1075C36.296 75.6197 38.2108 74.0674 39.3288 73.4485L39.3516 73.4339C39.9968 73.2074 40.5963 73.0982 41.0794 73.1688L41.1459 73.1769L41.2425 73.1989C41.309 73.2229 41.3984 73.2582 41.5074 73.3008L41.5313 73.3134C41.7641 73.4173 42.083 73.5699 42.4726 73.7715C42.7646 73.9233 43.0981 74.1019 43.469 74.3057C43.5895 74.3709 43.7173 74.4403 43.8503 74.5154C44.1776 74.6981 44.5308 74.8965 44.9048 75.1064C45.1313 75.2314 45.3641 75.3632 45.6061 75.5033C45.9241 75.6871 46.2586 75.8807 46.6046 76.08L46.8653 76.2318C47.1303 76.3836 47.3994 76.5422 47.6757 76.7021L47.9521 76.8652C48.5443 77.2114 49.1625 77.5784 49.8014 77.9595L49.8399 77.9793L49.8669 77.994C58.2035 82.9371 70.0891 90.347 74.6429 93.5969C75.4865 94.2004 76.4018 95.0523 77.3431 96.0725L77.5572 96.3056C77.8024 96.5734 78.0476 96.8551 78.2928 97.1415L78.3676 97.228C78.4912 97.3765 78.6159 97.523 78.7447 97.6797C78.8424 97.7962 78.939 97.9167 79.0398 98.0373C79.1416 98.1619 79.2465 98.2909 79.3473 98.4228C79.4574 98.5588 79.5655 98.6952 79.6787 98.8351C79.8179 99.0182 79.9623 99.2041 80.1068 99.392C80.2585 99.5904 80.4101 99.7929 80.5618 99.9946C80.7021 100.178 80.8382 100.364 80.9816 100.555C81.3088 101.007 81.6403 101.466 81.9717 101.933C82.1857 102.24 82.3987 102.547 82.6127 102.855C82.9317 103.319 83.2475 103.786 83.5592 104.249C84.166 105.163 84.7571 106.075 85.3171 106.957C85.5166 107.269 85.7109 107.576 85.9021 107.879L85.9125 107.896C86.0018 108.043 86.0922 108.191 86.1857 108.336C86.3644 108.623 86.54 108.907 86.7114 109.187C86.7924 109.328 86.8787 109.464 86.9639 109.6C87.3961 110.312 87.7971 110.982 88.1628 111.597C88.3374 111.896 88.5057 112.176 88.6605 112.445L88.7156 112.542C88.7769 112.647 88.8361 112.752 88.8943 112.854L88.9099 112.878C88.9909 113.017 89.0699 113.149 89.1436 113.278C89.4428 113.795 89.6922 114.23 89.8792 114.566C89.9488 114.687 90.008 114.796 90.0579 114.889C90.2179 115.169 90.2989 115.321 90.2989 115.321Z" fill="#A9BCF4"/>
<path d="M85.5664 128.291C85.5664 132.527 88.5586 137.688 92.2511 139.82C95.9435 141.952 98.9357 140.245 98.9357 136.008C98.9357 131.772 95.9435 126.61 92.2511 124.479C88.5586 122.347 85.5664 124.053 85.5664 128.291Z" fill="#304EA4"/>
<path d="M37.3086 100.428C37.3086 104.664 40.3008 109.827 43.9932 111.959C47.6857 114.091 50.6779 112.384 50.6779 108.147C50.6779 103.911 47.6857 98.7486 43.9932 96.6168C40.3008 94.4844 37.3086 96.1918 37.3086 100.428Z" fill="#304EA4"/>
<path d="M81.51 127.504C80.5126 127.504 61.6171 116.417 53.4821 111.615L53.3855 111.559L53.3927 111.448C53.4 111.352 53.9475 101.793 46.6863 94.2239C45.372 92.8247 43.7159 88.9521 43.5642 87.8239C43.2785 85.722 47.6452 80.274 47.8312 80.0422L48.1138 80.2695C48.0691 80.3247 43.6577 85.8258 43.9216 87.7751C44.0525 88.7496 45.6068 92.5471 46.9481 93.9756C53.8925 101.214 53.7979 110.25 53.7585 111.359C64.1792 117.508 79.7594 126.56 81.3698 127.124C81.7085 126.059 83.4612 118.993 83.2337 115.332C83.1942 114.679 81.5121 110.196 80.868 108.523L81.2046 108.393C81.3002 108.64 83.5422 114.467 83.5952 115.31C83.8352 119.195 81.9215 126.825 81.6544 127.396L81.6212 127.469L81.5339 127.501L81.51 127.504Z" fill="#819EEF"/>
<path d="M62.1759 116.445L61.8226 116.373C61.8258 116.355 62.179 114.597 61.912 113.077C61.485 110.645 62.0107 101.596 62.2465 100.697C62.499 99.7347 63.6055 94.0153 63.6169 93.9584L63.9712 94.0266C63.9255 94.2628 62.8512 99.816 62.5956 100.788C62.3639 101.675 61.8445 110.611 62.2673 113.014C62.5458 114.604 62.1904 116.371 62.1759 116.445Z" fill="#819EEF"/>
<path d="M49.8443 77.9793L49.8058 77.9594C48.9456 77.5085 43.3446 74.5767 42.5664 74.7379C41.8963 74.8697 39.223 75.543 35.7945 77.8588C35.0007 78.3949 34.1643 79.0182 33.3041 79.7455L33.062 79.9521L32.9727 80.0332C33.0194 79.8701 33.062 79.7183 33.1046 79.5783C33.2958 78.9431 33.9929 78.0406 34.8833 77.1075C36.3004 75.6197 38.2152 74.0674 39.3331 73.4485L39.356 73.4339L39.4287 73.3515C39.6428 73.2808 39.8547 73.2269 40.0563 73.1916C40.1581 73.1729 40.2578 73.1603 40.3596 73.1522C40.4698 73.1409 40.5768 73.1368 40.6817 73.1375C40.8417 73.1368 40.9976 73.1441 41.1503 73.1729L41.2469 73.1988L41.3009 73.2195L41.4339 73.2695L41.5118 73.3008L41.5357 73.3133L41.6292 73.3559L41.8308 73.4452L41.8349 73.4485C41.943 73.4992 42.0635 73.5616 42.1965 73.627C42.2859 73.6704 42.3794 73.7204 42.477 73.7715C42.6214 73.845 42.7804 73.9274 42.9477 74.0207L43.2001 74.1567L43.4734 74.3056C43.5939 74.3709 43.7217 74.4403 43.8547 74.5154C44.0178 74.6047 44.1892 74.6981 44.3638 74.7991C44.5394 74.8965 44.7222 75.0016 44.9092 75.1064C45.1357 75.2314 45.3685 75.3632 45.6105 75.5033C45.9284 75.687 46.263 75.8774 46.609 76.08L46.8697 76.2318C47.1347 76.3836 47.4038 76.5422 47.6801 76.7021L47.9565 76.8652C48.104 76.9517 48.2526 77.0402 48.4043 77.1303L48.4157 77.1343C48.7118 77.3093 49.0193 77.4886 49.331 77.6757L49.358 77.6904C49.517 77.7837 49.6812 77.8815 49.8443 77.9793Z" fill="#A9BCF4"/>
<path d="M101.04 137.22V141.201C100.675 141.062 100.321 140.905 100.032 140.738V136.64C100.032 131.709 96.5495 125.7 92.2482 123.221C87.9511 120.738 84.4726 122.722 84.4726 127.653L84.5776 130.319L83.5698 129.735L83.4648 127.075C83.4648 121.504 87.3952 119.263 92.2482 122.065C97.1011 124.868 101.04 131.651 101.04 137.22Z" fill="#4F79E1"/>
<path d="M52.7781 109.358L52.883 112.023L51.8753 111.439L51.7703 108.779C51.7703 103.848 48.2877 97.8384 43.9906 95.3595C39.6935 92.8807 36.2109 94.862 36.2109 99.7925V102.47C35.9688 102.299 35.6073 102.034 35.2031 101.726V99.2118C35.2031 93.6432 39.1376 91.4021 43.9906 94.2032C48.8477 97.0052 52.7781 103.79 52.7781 109.358Z" fill="#4F79E1"/>
<path d="M88.4003 114.25C88.4003 114.25 80.4242 111.427 79.4694 110.877C78.5552 110.349 78.8575 110.572 53.6472 92.3561L43.9922 83.9084C43.9922 83.9084 47.6296 77.9912 48.8088 78.4381C49.8259 78.8237 69.8809 91.0914 75.5422 95.2432C80.9915 100.331 88.4003 114.25 88.4003 114.25Z" fill="#C5D2F8"/>
<path d="M87.1519 113.186C85.6807 112.661 84.0506 112.069 82.6917 111.555C81.7119 111.186 80.8704 110.863 80.3291 110.633C80.0569 110.52 79.8626 110.43 79.7618 110.372L79.7254 110.349C78.9982 109.933 78.8621 109.855 62.7614 98.2213C62.6221 98.1207 62.4777 98.0201 62.3333 97.9137C59.925 96.1747 57.1686 94.182 54.0081 91.8971L44.75 83.7945C46.3386 81.2802 48.058 79.1597 48.6461 79.0039C49.4824 79.409 57.3473 84.1569 64.5484 88.6983C64.9255 88.9406 65.3037 89.1771 65.6767 89.4154C69.5925 91.8931 73.181 94.236 75.1696 95.6925C75.6361 96.1288 76.1151 96.6297 76.6086 97.1864C77.0564 97.6957 77.5156 98.2526 77.9748 98.8407C81.6797 103.55 85.5716 110.337 87.1519 113.186Z" fill="#4F79E1"/>
<path d="M65.6756 89.4148L64.6564 99.5049L62.7603 98.2208L62.3281 97.9298L62.3323 97.9132L64.5473 88.6978C64.9245 88.94 65.3027 89.1766 65.6756 89.4148Z" fill="#504FFD"/>
<path d="M82.868 112.033L80.4784 111.169L80.3299 110.632L76.6094 97.1855C77.0572 97.6948 77.5164 98.2516 77.9756 98.8397L82.6925 111.554L82.868 112.033Z" fill="#504FFD"/>
<path d="M80.273 110.235L80.2366 110.213C79.3982 109.73 79.3473 109.701 54.5224 91.7624L45.2622 83.6593C46.6014 81.5388 48.0321 79.7019 48.8009 79.0851L48.6461 79.0047C48.058 79.1597 46.3386 81.2811 44.75 83.7956L54.0113 91.8984C78.8371 109.837 78.888 109.866 79.7254 110.35L79.7628 110.371C80.3343 110.701 84.087 112.087 87.1529 113.186C87.0833 113.061 87.0075 112.926 86.9296 112.787C84.0267 111.739 80.8008 110.54 80.273 110.235Z" fill="#504FFD"/>
<path d="M65.3513 88.8606L64.2697 99.5732L61.9414 97.9949L64.2946 88.1967L65.3513 88.8606Z" fill="#C5D2F8"/>
<path d="M76.7807 96.7231L82.4794 112.098L80.0898 111.233L75.8633 95.9585L76.7807 96.7231Z" fill="#C5D2F8"/>
<path d="M115.437 127.429C114.098 126.458 112.532 125.852 110.888 125.668C108.024 125.349 103.66 124.885 103.057 124.949C102.149 125.046 102.537 127.969 103.057 129.216C103.576 130.462 108.237 131.483 109.892 131.322C111.205 131.193 114.857 130.13 116.532 129.275C116.923 129.076 116.963 128.536 116.608 128.279L115.437 127.429Z" fill="#A9BCF4"/>
<path d="M116.608 128.28L115.437 127.429C114.098 126.459 112.532 125.852 110.889 125.668C108.024 125.349 103.661 124.885 103.057 124.95L102.84 125.053C103.81 125.049 107.829 125.478 110.523 125.779C112.168 125.961 113.734 126.568 115.074 127.54L116.244 128.388C116.599 128.645 116.558 129.186 116.168 129.385C115.359 129.798 114.092 130.258 112.846 130.639C114.203 130.24 115.645 129.729 116.532 129.276C116.923 129.076 116.963 128.537 116.608 128.28Z" fill="#4F79E1"/>
<path d="M110.264 131.228C108.61 131.391 103.949 130.37 103.43 129.122C102.955 127.981 102.591 125.436 103.231 124.944L103.057 124.949C102.149 125.046 102.537 127.969 103.057 129.216C103.576 130.462 108.237 131.483 109.892 131.322C110.316 131.279 110.985 131.14 111.753 130.942C111.144 131.089 110.618 131.193 110.264 131.228Z" fill="#4F79E1"/>
<path d="M116.534 128.791C114.859 129.646 111.207 130.708 109.894 130.837C108.239 130.999 103.578 129.979 103.058 128.731C102.79 128.087 102.559 126.996 102.521 126.078C102.473 127.064 102.741 128.454 103.058 129.216C103.578 130.462 108.239 131.483 109.894 131.322C111.207 131.193 114.859 130.13 116.534 129.275C116.829 129.124 116.923 128.779 116.799 128.508C116.747 128.624 116.66 128.725 116.534 128.791Z" fill="#4F79E1"/>
<path d="M131.544 108.609V109.435C131.544 109.435 131.7 110.916 130.862 114.153C130.488 115.601 130.459 117.122 130.781 118.583C130.863 118.954 130.941 119.295 131.007 119.58C131.104 119.994 131.583 120.182 131.934 119.945C133.631 118.809 135.53 116.676 135.784 115.927C136.077 115.065 135.668 114.219 135.668 114.219C135.668 114.219 133.971 110.559 131.544 108.609Z" fill="#A9BCF4"/>
<path d="M135.667 114.219C135.667 114.219 135.085 112.967 134.117 111.539C134.748 112.574 135.115 113.359 135.115 113.359C135.115 113.359 135.767 114.936 135.475 115.798C135.22 116.546 133.321 118.679 131.626 119.815C131.497 119.9 131.355 119.929 131.219 119.914C131.415 120.069 131.701 120.102 131.933 119.945C133.629 118.809 135.528 116.676 135.783 115.927C136.076 115.065 135.667 114.219 135.667 114.219Z" fill="#504FFD"/>
<path d="M134.63 127.217C135.164 126.149 135.79 122.683 134.969 123.425C134.889 123.498 133.449 126.199 133.228 126.43C130.682 129.072 117.071 137.191 114.83 137.469C112.535 137.754 111.975 136.637 111.619 137.026C111.262 137.416 111.401 139.824 110.856 140.436C110.312 141.048 113.905 139.77 116.852 138.425C117.331 138.207 129.333 131.681 134.63 127.217Z" fill="#304EA4"/>
<path d="M113.5 139.058C112.442 139.19 111.757 139.024 111.286 138.844C111.21 139.507 111.104 140.157 110.856 140.436C110.312 141.048 113.905 139.77 116.852 138.425C117.3 138.219 115.74 138.779 113.5 139.058Z" fill="#504FFD"/>
<path d="M134.969 123.425C134.934 123.458 134.629 124.008 134.283 124.632C134.143 125.466 133.892 126.397 133.658 126.865C128.36 131.329 116.357 137.856 115.878 138.074C114.192 138.845 112.296 139.592 111.082 139.975C111.023 140.168 110.95 140.329 110.856 140.436C110.312 141.048 113.905 139.77 116.852 138.425C117.331 138.207 129.333 131.681 134.63 127.217C135.164 126.149 135.79 122.683 134.969 123.425Z" fill="#504FFD"/>
<path d="M112.169 137.062C111.995 136.983 111.867 136.931 111.762 136.946C111.885 136.989 112.017 137.028 112.169 137.062Z" fill="#504FFD"/>
<path d="M78.8195 95.8002L91.2194 113.566C91.2194 113.566 94.703 114.142 99.022 112.912C99.6152 112.743 95.2578 114.533 95.2578 114.533L90.7332 115.321C90.7332 115.321 80.5358 98.1257 77.6953 95.8002C77.8418 95.3226 78.8195 95.8002 78.8195 95.8002Z" fill="#C5D2F8"/>
<path d="M70.7161 59.3476C65.9442 56.58 62.6507 55.8859 61.0725 56.0148C59.4943 56.1446 54.5104 58.2932 49.8403 61.0506C45.1702 63.807 40.2643 67.225 39.218 68.6921C38.1708 70.1581 38.7266 70.9978 39.9006 71.9689C41.0757 72.9405 44.1957 74.7148 44.1957 74.7148C44.1957 74.7148 46.0461 71.4628 48.8928 69.3248C51.7395 67.1856 60.3005 62.32 61.9878 61.6719C63.674 61.0225 66.6039 59.8558 67.8309 59.6613C69.0579 59.4662 70.7161 59.3476 70.7161 59.3476Z" fill="#C5D2F8"/>
<path d="M117.491 97.3773C117.491 97.3773 117.606 101.663 116.435 102.7C111.689 106.898 105.387 111.013 97.8536 113.282C97.1637 113.49 92.4209 113.955 92.4209 113.955L80.5508 95.9873C80.5508 95.9873 83.3871 94.8371 84.024 94.5599C89.5378 92.1557 99.3226 86.8883 102.79 83.7256C103.386 83.1821 103.908 82.2949 103.908 82.2949C103.908 82.2949 111.708 90.1472 117.491 97.3773Z" fill="#A9BCF4"/>
<path d="M80.5522 95.9875C80.5522 95.9875 83.3885 94.8374 84.0254 94.5602C89.5391 92.156 99.324 86.8886 102.791 83.7259C103.387 83.1824 103.909 82.2952 103.909 82.2952C103.909 82.2952 104.354 82.7429 105.103 83.516L106.027 82.9819L94.9874 75.0193L70.3984 89.2156L81.2472 97.0391L80.5522 95.9875Z" fill="#C5D2F8"/>
<path d="M66.7716 85.6915L69.1197 87.2467C70.4589 88.1306 72.1815 88.1838 73.235 87.3319L92.6427 76.1279C93.7908 75.7083 93.8302 74.5508 93.052 74.0268L89.637 71.7298L92.0474 72.6047L96.7892 75.9201L70.9877 89.6416L65.4844 85.8847L66.7716 85.6915Z" fill="#C5D2F8"/>
<path d="M37.6977 83.4088L36.1123 83.7695C36.1123 83.7695 33.5564 82.0248 33.038 81.5553C32.5196 81.085 32.7575 80.4229 32.8188 79.9421C32.8811 79.4619 34.2162 77.8443 34.2162 77.8443C34.2162 77.8443 33.3798 79.1251 33.6562 79.9262C33.9305 80.7261 37.6977 83.4088 37.6977 83.4088Z" fill="#4F79E1"/>
<path d="M36.2983 83.5845C36.2983 83.5845 33.5181 81.6612 32.9996 81.1908C32.8386 81.0452 32.7555 80.88 32.7118 80.7087C32.7025 81.0078 32.7638 81.3081 33.037 81.5553C33.5555 82.0248 36.1113 83.7695 36.1113 83.7695L37.6967 83.4088C37.6967 83.4088 37.6406 83.3694 37.5461 83.302L36.2983 83.5845Z" fill="#504FFD"/>
<path d="M34.2145 77.8445C34.2145 77.8445 33.9683 78.1428 33.6826 78.5207C33.5766 78.8515 33.5194 79.2058 33.6015 79.5049L34.2145 77.8445Z" fill="#A9BCF4"/>
<path d="M50.6779 108.147C50.6779 112.384 47.6857 114.091 43.9932 111.959C40.3008 109.827 37.3086 104.664 37.3086 100.428C37.3086 96.1906 40.3008 94.4844 43.9932 96.6155C47.6857 98.7473 50.6779 103.911 50.6779 108.147Z" fill="#4F79E1"/>
<path d="M50.2597 108.07C50.2597 112.146 47.3807 113.788 43.8296 111.737C40.2774 109.686 37.3984 104.72 37.3984 100.644C37.3984 96.5691 40.2774 94.9274 43.8296 96.9781C47.3807 99.0292 50.2597 103.994 50.2597 108.07Z" fill="#4F79E1"/>
<path d="M49.3511 107.565C49.3511 111.035 46.9002 112.434 43.8758 110.687C40.8504 108.942 38.3984 104.712 38.3984 101.242C38.3984 97.7719 40.8504 96.3733 43.8758 98.12C46.9002 99.8656 49.3511 104.094 49.3511 107.565Z" fill="#4F79E1"/>
<path d="M49.181 107.205C49.181 110.493 46.8568 111.818 43.9904 110.163C41.1239 108.509 38.8008 104.501 38.8008 101.211C38.8008 97.922 41.1239 96.5974 43.9904 98.2512C46.8568 99.9067 49.181 103.916 49.181 107.205Z" fill="#4F79E1"/>
<path d="M39.1742 102.205C39.3913 104.094 40.3378 106.249 41.8308 107.963C43.3238 109.674 45.0121 110.536 46.3669 110.451C46.9664 110.412 47.5004 110.189 47.918 109.767C48.0552 109.638 48.1799 109.483 48.2869 109.305L48.3482 109.202C48.4251 109.073 48.4905 108.941 48.5445 108.798C48.6193 108.611 48.6827 108.417 48.7305 108.207C48.8147 107.839 48.8562 107.438 48.8562 107.021C48.8562 106.83 48.8469 106.635 48.8282 106.439C48.824 106.337 48.8115 106.239 48.798 106.142L48.771 105.942L48.7399 105.755C48.7087 105.568 48.6734 105.377 48.6245 105.186L48.5539 104.912L48.4864 104.68C48.4552 104.569 48.4199 104.453 48.3804 104.342L48.2952 104.094C48.1664 103.733 48.0157 103.378 47.8422 103.021L47.7352 102.804C47.6105 102.566 47.4817 102.329 47.3404 102.094L47.2334 101.921C47.1679 101.813 47.0952 101.707 47.0297 101.605C46.7627 101.205 46.4697 100.818 46.1539 100.455C45.9939 100.273 45.8339 100.099 45.6697 99.9391L45.4381 99.7127L45.3674 99.6449L45.1773 99.4769C44.4033 98.8064 43.6126 98.3527 42.8666 98.1262C41.5503 97.7313 40.3731 98.037 39.6978 99.1132L39.6365 99.2099C39.5077 99.4277 39.41 99.6681 39.33 99.9212C39.1243 100.588 39.0755 101.369 39.1742 102.205Z" fill="#4D68EF"/>
<path d="M45.5872 100.627L45.6361 102.085C46.1826 102.04 46.7249 101.986 47.2309 101.92C47.1654 101.813 47.0927 101.707 47.0272 101.605C46.7602 101.204 46.4672 100.818 46.1514 100.454C45.9914 100.272 45.8314 100.098 45.6672 99.9385L45.4355 99.7121L45.3649 99.6442L45.1748 99.4762C44.4007 98.8058 43.6101 98.3521 42.8641 98.1256C41.5478 97.7307 40.3706 98.0364 39.6953 99.1126C43.4678 97.8192 45.5872 100.627 45.5872 100.627Z" fill="#504FFD"/>
<path d="M39.4844 102.182C39.4844 102.182 40.7415 103.847 42.035 104.288C43.3275 104.727 45.8283 107.753 45.8283 107.753L45.6381 102.084C42.6833 102.306 39.4844 102.182 39.4844 102.182Z" fill="#504FFD"/>
<path d="M42.0756 101.204C42.2626 102.827 43.0751 104.679 44.3593 106.15C45.0657 106.963 45.8294 107.554 46.5639 107.901V107.904C47.1592 108.189 47.7327 108.318 48.2522 108.288L48.3717 108.274C48.4964 108.265 48.6159 108.243 48.7312 108.206C48.8153 107.839 48.8569 107.438 48.8569 107.021C48.8569 106.829 48.8475 106.635 48.8288 106.438C48.8247 106.336 48.8122 106.239 48.7987 106.141L48.7717 105.942L48.7405 105.755C48.7094 105.568 48.674 105.377 48.6252 105.185L48.5546 104.911L48.487 104.679C48.4559 104.568 48.4205 104.453 48.381 104.342L48.2959 104.093C48.167 103.733 48.0164 103.377 47.8429 103.021L47.7359 102.804C47.6112 102.565 47.4824 102.328 47.3411 102.093C47.2434 101.929 47.1364 101.764 47.0304 101.605C46.7634 101.204 46.4704 100.818 46.1546 100.454C45.9946 100.272 45.8346 100.099 45.6704 99.9387L45.4387 99.7123L45.3681 99.6444L45.1779 99.4764C44.4039 98.806 43.6133 98.3523 42.8673 98.1258C42.7198 98.2678 42.5868 98.4362 42.4715 98.6368C42.3655 98.8226 42.2761 99.0236 42.2086 99.2455C42.1151 99.5605 42.058 99.9075 42.0403 100.276C42.0268 100.575 42.0403 100.885 42.0756 101.204Z" fill="#504FFD"/>
<path d="M45.8087 103.927L45.6871 105.066V105.07L45.8087 103.927L46.6949 103.413L47.3401 102.093C47.2424 101.929 47.1354 101.764 47.0295 101.605C46.7624 101.204 46.4695 100.818 46.1536 100.454C45.9936 100.272 45.8336 100.099 45.6695 99.9388L45.4378 99.7124L45.3671 99.6446C45.1936 99.7476 45.0513 99.837 45.043 99.8451L46.1526 101.122L45.8087 103.927Z" fill="#4D68EF"/>
<path d="M45.809 103.927L45.6875 105.065V105.069L46.5633 107.901L46.954 109.175C47.087 109.456 46.6922 110.091 46.8729 110.055C47.168 109.997 47.8963 109.566 48.287 109.304L48.3483 109.201C48.4251 109.072 48.4906 108.94 48.5446 108.797L48.4771 108.593L48.3711 108.274L46.7722 103.564L46.6953 103.412L45.809 103.927Z" fill="#4D68EF"/>
<path d="M40.4585 99.6974C40.5333 99.658 40.6341 99.6661 40.7443 99.7287L44.9905 101.527L45.11 101.596L45.1141 103.876L44.1707 103.332L40.6518 101.953C40.4315 101.826 40.2518 101.525 40.2404 101.266C40.2154 100.768 39.4487 100.659 39.5432 100.229L40.4585 99.6974Z" fill="#4D68EF"/>
<path d="M44.9261 105.732L46.7713 101.939C46.8627 101.782 46.8066 101.495 46.6383 101.265C46.4627 101.027 46.2778 100.796 46.0835 100.573C45.8882 100.35 45.6897 100.141 45.4882 99.9475C45.296 99.7625 45.084 99.7438 44.9936 99.9009L43.1484 103.694L44.9261 105.732Z" fill="#4F79E1"/>
<path d="M44.225 104.389L44.2218 102.108L44.1024 102.041L39.8551 100.242C39.6639 100.132 39.4967 100.189 39.4551 100.379C39.3606 100.81 39.3273 101.281 39.3512 101.78C39.3637 102.039 39.5434 102.34 39.7637 102.467L43.2816 103.847L44.225 104.389Z" fill="#4F79E1"/>
<path d="M47.5762 109.687C47.6998 109.592 47.7039 109.349 47.5886 109.107L45.8816 104.079L45.8089 103.928L44.2266 104.389L44.7959 105.581L46.0655 109.689C46.1975 109.968 46.4437 110.154 46.6255 110.117C46.9767 110.049 47.2977 109.906 47.5762 109.687Z" fill="#4F79E1"/>
<path d="M46.6291 109.555L46.5616 109.453L45.2608 105.275L43.6379 103.415L40.039 101.99L39.9008 101.753C39.8873 101.457 39.8956 101.176 39.9257 100.913L44.307 102.789L45.2805 100.508C45.4145 100.645 45.5455 100.786 45.6733 100.933C45.8561 101.142 46.0327 101.364 46.201 101.59L46.2655 101.725L45.2649 104.054L47.1008 109.353C46.9564 109.444 46.7995 109.51 46.6291 109.555Z" fill="#504FFD"/>
<path d="M98.9367 136.008C98.9367 140.245 95.9435 141.952 92.2511 139.82C88.5586 137.688 85.5664 132.527 85.5664 128.29C85.5664 124.053 88.5586 122.347 92.2511 124.479C95.9435 126.61 98.9367 131.772 98.9367 136.008Z" fill="#4F79E1"/>
<path d="M98.5185 135.931C98.5185 140.006 95.6396 141.648 92.0874 139.597C88.5362 137.547 85.6562 132.58 85.6562 128.506C85.6562 124.43 88.5362 122.789 92.0874 124.838C95.6396 126.89 98.5185 131.856 98.5185 135.931Z" fill="#4F79E1"/>
<path d="M97.6089 135.427C97.6089 138.898 95.157 140.294 92.1326 138.549C89.1082 136.803 86.6562 132.574 86.6562 129.104C86.6562 125.632 89.1082 124.234 92.1326 125.981C95.157 127.727 97.6089 131.957 97.6089 135.427Z" fill="#4F79E1"/>
<path d="M97.4388 135.065C97.4388 138.355 95.1157 139.679 92.2492 138.024C89.3817 136.369 87.0586 132.362 87.0586 129.072C87.0586 125.783 89.3817 124.458 92.2492 126.113C95.1157 127.768 97.4388 131.776 97.4388 135.065Z" fill="#4F79E1"/>
<path d="M87.4306 130.067C87.6488 131.954 88.5953 134.109 90.0882 135.825C91.5812 137.535 93.2696 138.397 94.6243 138.313C95.2238 138.273 95.7568 138.05 96.1745 137.628C96.3126 137.499 96.4363 137.344 96.5443 137.167L96.6067 137.064C96.6815 136.935 96.748 136.802 96.802 136.66C96.8768 136.474 96.9391 136.277 96.988 136.069C97.0732 135.7 97.1126 135.301 97.1126 134.882C97.1126 134.692 97.1033 134.496 97.0856 134.301C97.0815 134.199 97.068 134.1 97.0545 134.003L97.0285 133.803L96.9963 133.617C96.9661 133.43 96.9308 133.238 96.881 133.047L96.8103 132.772L96.7438 132.54C96.7126 132.43 96.6773 132.315 96.6368 132.203L96.5527 131.954C96.4238 131.594 96.2721 131.238 96.0997 130.884L95.9937 130.666C95.869 130.426 95.7402 130.191 95.5978 129.954L95.4908 129.782C95.4243 129.676 95.3526 129.569 95.2862 129.466C95.0202 129.067 94.7262 128.681 94.4114 128.316C94.2514 128.133 94.0914 127.96 93.9262 127.801L93.6955 127.573L93.6238 127.508L93.4337 127.338C92.6607 126.667 91.8701 126.214 91.1231 125.988C89.8088 125.592 88.6306 125.898 87.9553 126.974L87.8929 127.071C87.7641 127.29 87.6665 127.529 87.5865 127.782C87.3828 128.449 87.334 129.231 87.4306 130.067Z" fill="#4D68EF"/>
<path d="M93.844 128.487L93.8939 129.945C94.4404 129.901 94.9816 129.847 95.4887 129.781C95.4222 129.675 95.3505 129.568 95.284 129.465C95.018 129.066 94.724 128.68 94.4092 128.315C94.2492 128.132 94.0892 127.959 93.924 127.8L93.6934 127.572L93.6217 127.507L93.4315 127.337C92.6586 126.666 91.8679 126.213 91.1209 125.987C89.8066 125.591 88.6284 125.897 87.9531 126.973C91.7256 125.68 93.844 128.487 93.844 128.487Z" fill="#504FFD"/>
<path d="M87.7422 130.043C87.7422 130.043 89.0004 131.71 90.2928 132.149C91.5863 132.588 94.0881 135.615 94.0881 135.615L93.897 129.946C90.9411 130.168 87.7422 130.043 87.7422 130.043Z" fill="#504FFD"/>
<path d="M90.333 129.066C90.52 130.687 91.3335 132.539 92.6177 134.011C93.3242 134.824 94.0888 135.414 94.8213 135.761V135.765C95.4166 136.05 95.9901 136.179 96.5096 136.148L96.6301 136.134C96.7538 136.126 96.8743 136.103 96.9896 136.068C97.0748 135.699 97.1143 135.3 97.1143 134.881C97.1143 134.691 97.1049 134.495 97.0873 134.3C97.0831 134.198 97.0696 134.099 97.0561 134.002L97.0301 133.802L96.9979 133.616C96.9678 133.429 96.9325 133.237 96.8826 133.046L96.812 132.771L96.7454 132.539C96.7143 132.429 96.679 132.314 96.6384 132.202L96.5543 131.953C96.4255 131.593 96.2738 131.237 96.1013 130.883L95.9953 130.665C95.8706 130.425 95.7418 130.19 95.5995 129.953C95.5008 129.789 95.3948 129.625 95.2878 129.465C95.0218 129.066 94.7278 128.68 94.413 128.315C94.253 128.132 94.093 127.959 93.9278 127.8L93.6972 127.572L93.6255 127.507L93.4353 127.337C92.6624 126.666 91.8717 126.213 91.1247 125.987C90.9782 126.128 90.8452 126.298 90.7289 126.498C90.6229 126.684 90.5346 126.884 90.467 127.106C90.3746 127.422 90.3164 127.769 90.2977 128.136C90.2852 128.435 90.2977 128.745 90.333 129.066Z" fill="#504FFD"/>
<path d="M94.0665 131.789L93.9449 132.926V132.932L94.0665 131.789L94.9538 131.275L95.5979 129.954C95.4992 129.79 95.3932 129.626 95.2862 129.466C95.0202 129.067 94.7262 128.68 94.4114 128.316C94.2514 128.133 94.0914 127.959 93.9262 127.8L93.6956 127.573L93.6239 127.507C93.4514 127.608 93.3101 127.697 93.3008 127.707L94.4104 128.984L94.0665 131.789Z" fill="#4D68EF"/>
<path d="M94.0669 131.789L93.9453 132.926V132.932L94.8201 135.762L95.2118 137.037C95.3448 137.317 94.9489 137.952 95.1318 137.917C95.4248 137.859 96.1531 137.427 96.5448 137.167L96.6071 137.063C96.6819 136.935 96.7484 136.802 96.8024 136.66L96.7359 136.455L96.6289 136.135L95.0289 131.425L94.9541 131.275L94.0669 131.789Z" fill="#4D68EF"/>
<path d="M88.7174 127.558C88.7922 127.518 88.894 127.528 89.0031 127.591L93.2493 129.388L93.3678 129.457L93.373 131.736L92.4296 131.193L88.9096 129.813C88.6904 129.688 88.5107 129.385 88.4982 129.127C88.4733 128.629 87.7065 128.52 87.801 128.09L88.7174 127.558Z" fill="#4D68EF"/>
<path d="M93.1878 133.594L95.033 129.802C95.1234 129.644 95.0673 129.356 94.899 129.126C94.7244 128.889 94.5385 128.657 94.3442 128.434C94.1488 128.211 93.9514 128.002 93.7509 127.81C93.5566 127.624 93.3457 127.605 93.2553 127.763L91.4102 131.555L93.1878 133.594Z" fill="#4F79E1"/>
<path d="M92.4844 132.25L92.4792 129.97L92.3608 129.901L88.1146 128.104C87.9224 127.994 87.7551 128.05 87.7135 128.241C87.618 128.671 87.5857 129.142 87.6086 129.64C87.6211 129.899 87.8018 130.2 88.0211 130.328L91.541 131.708L92.4844 132.25Z" fill="#4F79E1"/>
<path d="M95.8319 137.549C95.9566 137.452 95.9607 137.21 95.8454 136.967L94.1384 131.939L94.0657 131.789L92.4844 132.25L93.0537 133.442L94.3212 137.551C94.4542 137.829 94.7005 138.014 94.8823 137.979C95.2324 137.909 95.5535 137.768 95.8319 137.549Z" fill="#4F79E1"/>
<path d="M94.8817 137.417L94.8151 137.314L93.5133 133.139L91.8915 131.278L88.2926 129.851L88.1554 129.614C88.1409 129.319 88.1492 129.037 88.1783 128.774L92.5606 130.65L93.5331 128.371C93.6671 128.507 93.7991 128.648 93.9269 128.794C94.1087 129.003 94.2863 129.225 94.4536 129.452L94.5201 129.587L93.5175 131.916L95.3533 137.215C95.211 137.305 95.052 137.373 94.8817 137.417Z" fill="#504FFD"/>
<path d="M31.6559 84.9089C31.6559 84.9089 30.0684 87.0201 30.0195 89.3232C30.7437 90.5318 31.3452 91.3817 32.6699 91.5156C31.1385 89.8252 31.1146 88.5233 31.3089 87.5031C31.5032 86.4807 31.6559 84.9089 31.6559 84.9089Z" fill="#C5D2F8"/>
<path d="M85.2229 112.641C85.2229 112.641 85.7787 112.56 86.0073 112.372C86.2359 112.185 86.0655 111.494 85.6748 111.245C85.2842 110.999 84.1891 111.548 84.0083 111.454C83.8276 111.362 82.7148 111.831 82.7148 111.831L83.0754 112.625L85.2229 112.641Z" fill="#C5D2F8"/>
<path d="M83.018 109.757C84.0497 109.5 85.1011 109.836 85.2403 111.007C85.4086 112.428 84.7842 112.654 84.406 112.833C84.0299 113.011 82.6221 113.625 80.8362 113.645C79.0502 113.665 78.8331 112.711 78.832 112.076L78.8393 111.907C78.8902 111.001 79.2164 110.732 79.8242 110.55C81.1364 110.159 83.018 109.757 83.018 109.757Z" fill="#C5D2F8"/>
<path d="M84.8347 110.346C84.2425 110.163 83.0155 110.402 81.8103 110.663C80.6051 110.925 79.6992 110.904 79.6046 112.076C79.509 113.247 79.8893 113.532 80.389 113.609C80.8898 113.686 81.8394 113.678 83.269 113.263C84.6997 112.846 84.9002 112.612 85.1236 112.217C85.3469 111.824 85.4259 110.53 84.8347 110.346Z" fill="#ECF1FD"/>
<path d="M71.0245 71.1829C70.4522 70.4067 69.8446 69.5244 69.2494 68.5338C68.4253 67.1687 67.6825 65.8514 67.0977 64.8109C66.1384 63.1108 65.8949 62.6946 65.693 62.526L65.0312 63.2731C65.1707 63.4229 65.7076 64.3781 66.2278 65.3021C66.8188 66.3488 67.5659 67.6744 68.3942 69.0499C69.1745 70.3464 69.9695 71.4639 70.677 72.3857L71.0245 71.1829Z" fill="#819EEF"/>
<path d="M71.001 75C70.4484 75 70 74.7211 70 74.3757V37.6242C70 37.2789 70.4484 37 71.001 37C71.5537 37 72 37.2789 72 37.6242V74.3757C72 74.7211 71.5537 75 71.001 75Z" fill="#819EEF"/>
<path d="M63.5277 52.2934C69.3316 58.2991 67.4504 66.0508 67.4504 66.0508C67.4504 66.0508 61.0722 65.722 57.0455 59.6663C53.0188 53.6107 53 49.02 53 49.02C53 49.02 59.9006 48.5372 63.5277 52.2934Z" fill="#C5D2F8"/>
<path d="M67.2358 66.0312C67.1359 66.0208 66.9965 66.0042 66.8259 65.9792C66.701 65.9605 66.5636 65.9376 66.4097 65.9085C64.6096 65.5693 60.8243 64.4476 57.8755 60.7996C57.5884 60.4459 57.3116 60.0672 57.0431 59.6655C56.8787 59.42 56.7227 59.1744 56.5707 58.933C53.5533 54.1051 53.0851 50.3323 53.0122 49.3001C53.0081 49.2481 53.006 49.2023 53.0039 49.1669C54.6812 50.3822 56.4625 51.4519 58.0524 52.8003C63.5337 57.4493 65.5335 61.6986 66.4179 63.7671C66.7072 64.4476 66.9549 65.2405 67.2358 66.0312Z" fill="#819EEF"/>
<path d="M71 65.0685C71.5431 64.2715 72.1154 63.3683 72.6752 62.3549C73.4452 60.9585 74.1361 59.6142 74.6834 58.5529C75.5761 56.8173 75.805 56.3928 75.9985 56.2159L76.6894 56.936C76.5563 57.0941 76.0548 58.068 75.5699 59.0107C75.0205 60.0782 74.3233 61.4309 73.5471 62.8376C72.8167 64.1611 72.0655 65.3099 71.3913 66.2588L71 65.0685Z" fill="#819EEF"/>
<path d="M77.74 45.6715C72.1692 51.8916 74.3438 59.5684 74.3438 59.5684C74.3438 59.5684 80.7033 58.9961 84.499 52.7927C88.2926 46.5893 88.1366 42.0027 88.1366 42.0027C88.1366 42.0027 81.2235 41.7801 77.74 45.6715Z" fill="#C5D2F8"/>
<path d="M74.5547 59.541C74.8044 58.7378 75.0229 57.9387 75.2872 57.2478C76.0905 55.146 77.93 50.8238 83.2303 45.9709C84.7682 44.5621 86.5079 43.4259 88.1373 42.1502C88.1373 42.1898 88.1352 42.2439 88.1352 42.3084C88.0957 43.4134 87.7294 47.4172 84.6308 52.5739C84.6308 52.576 84.6308 52.576 84.6287 52.578C84.6246 52.5884 84.6163 52.5989 84.61 52.6093C84.61 52.6113 84.6079 52.6134 84.6059 52.6155C84.6017 52.6238 84.5975 52.6321 84.5913 52.6405C84.5892 52.6446 84.5871 52.6488 84.585 52.653C84.5788 52.6613 84.5747 52.6696 84.5684 52.6779C84.5663 52.6821 84.5663 52.6842 84.5643 52.6883C84.558 52.6946 84.5538 52.7008 84.5497 52.7091C84.5476 52.7133 84.5434 52.7195 84.5413 52.7237C84.5372 52.7299 84.533 52.7362 84.5288 52.7424C84.5268 52.7487 84.5226 52.7528 84.5206 52.7591C84.5122 52.7695 84.506 52.782 84.4997 52.7924C84.4914 52.8049 84.4851 52.8153 84.4789 52.8278C84.4747 52.8319 84.4706 52.8382 84.4685 52.8423C84.4644 52.8486 84.4602 52.8548 84.4581 52.8611C84.454 52.8673 84.4498 52.8735 84.4456 52.8798C84.4415 52.8839 84.4394 52.8902 84.4373 52.8944C84.4331 52.9006 84.429 52.9068 84.4248 52.9131C84.4206 52.9193 84.4186 52.9235 84.4144 52.9276C84.4103 52.9339 84.4061 52.9422 84.4019 52.9485C84.3998 52.9526 84.3978 52.9568 84.3957 52.9609C84.3894 52.9672 84.3853 52.9755 84.3811 52.9817C84.379 52.9859 84.3769 52.9901 84.3728 52.9942C84.3686 53.0005 84.3645 53.0088 84.3603 53.015C84.3582 53.0213 84.3541 53.0234 84.352 53.0275C84.3478 53.0358 84.3437 53.0421 84.3395 53.0483C84.3374 53.0525 84.3332 53.0567 84.3312 53.0629C84.3166 53.0858 84.302 53.1087 84.2875 53.1295C84.2833 53.1358 84.2791 53.142 84.275 53.1461C84.2729 53.1524 84.2687 53.1565 84.2666 53.1607C84.2625 53.1669 84.2583 53.1753 84.2521 53.1815C84.25 53.1857 84.2479 53.1898 84.2459 53.1919C84.2417 53.2002 84.2354 53.2086 84.2313 53.2148C84.2292 53.219 84.2271 53.2231 84.225 53.2252C84.2188 53.2336 84.2126 53.244 84.2063 53.2523C84.2063 53.2544 84.2042 53.2564 84.2042 53.2585C84.1959 53.2669 84.1897 53.2772 84.1834 53.2876C84.1834 53.2897 84.1813 53.2897 84.1813 53.2897C81.3325 57.5682 77.2641 58.9563 75.3767 59.387C75.2227 59.4203 75.0832 59.4495 74.9605 59.4724C74.7919 59.5056 74.6546 59.5264 74.5547 59.541Z" fill="#819EEF"/>
<path d="M80.014 19.928L75.9353 17.6243L75.929 17.6348L75.7729 17.539C74.6763 17 73.3964 16.8565 72.0042 17.1478L79.0692 21.2265L77.4336 22.1713L69.9628 17.8595C69.711 17.9823 69.455 18.1092 69.197 18.257C68.8703 18.4463 68.5457 18.6607 68.2252 18.8833L74.1206 22.2878L72.485 23.2326L66.8476 19.9779C66.3585 20.4087 65.8841 20.879 65.4242 21.3826L71.8835 25.1117L70.2458 26.0565L64.3441 22.6499C63.9321 23.1743 63.5367 23.7237 63.1601 24.296L69.9066 28.1916L68.2689 29.1364L62.3027 25.6902C61.9698 26.2688 61.6576 26.8619 61.3642 27.4695L68.0899 31.3547L66.4543 32.2995L60.69 28.9699C60.4049 29.6587 60.1406 30.3537 59.9117 31.0592L67.0078 35.1546L65.3701 36.0993L59.4434 32.6782C59.2437 33.4606 59.0813 34.2473 58.9586 35.0318L66.5 39.3852L64.8644 40.33L58.7442 36.7965C58.7026 37.3209 58.6797 37.8411 58.6797 38.3551C58.6797 38.7838 58.7047 39.1896 58.7317 39.5933L65.7113 43.6221L64.0757 44.5669L59.021 41.6493C59.2832 42.8605 59.6869 43.9176 60.2258 44.777L66.704 48.5166L67.3408 47.1473C67.9443 46.9434 68.5623 46.6728 69.197 46.3066C75.0071 42.952 79.7164 33.9559 79.7164 26.2084C79.7164 24.5644 79.502 23.1077 79.1108 21.8675L80.014 19.928Z" fill="#819EEF"/>
<path d="M74.1246 22.2886L68.2292 18.8841C67.7589 19.2129 67.3011 19.5813 66.8516 19.9787L72.489 23.2334L74.1246 22.2886Z" fill="#4F79E1"/>
<path d="M79.0751 21.2271L72.0102 17.1484C71.3526 17.2857 70.6721 17.523 69.9688 17.8601L77.4395 22.1719L79.0751 21.2271Z" fill="#4F79E1"/>
<path d="M71.8832 25.1128L65.4238 21.3837C65.0534 21.7874 64.6934 22.2078 64.3438 22.651L70.2454 26.0576L71.8832 25.1128Z" fill="#4F79E1"/>
<path d="M69.9086 28.1919L63.162 24.2963C62.8624 24.7479 62.5773 25.214 62.3047 25.6906L68.2709 29.1367L69.9086 28.1919Z" fill="#4F79E1"/>
<path d="M68.0953 31.355L61.3695 27.4698C61.1302 27.963 60.9055 28.4625 60.6953 28.9702L66.4596 32.2998L68.0953 31.355Z" fill="#4F79E1"/>
<path d="M67.0097 35.1548L59.9135 31.0595C59.7387 31.5964 59.5868 32.1353 59.4453 32.6785L65.372 36.0996L67.0097 35.1548Z" fill="#4F79E1"/>
<path d="M66.498 39.3863L58.9565 35.0329C58.8629 35.6239 58.7859 36.2128 58.7422 36.7975L64.8623 40.3311L66.498 39.3863Z" fill="#4F79E1"/>
<path d="M65.7101 43.6236L58.7305 39.5948C58.7825 40.3252 58.8803 41.0099 59.0198 41.6508L64.0744 44.5684L65.7101 43.6236Z" fill="#4F79E1"/>
<path d="M62.4119 46.9081L62.4098 46.9144L62.5014 46.9664L62.5055 46.9685L66.397 49.166L66.7008 48.5167L60.2227 44.7772C60.8137 45.7178 61.5524 46.4378 62.4119 46.9081Z" fill="#4F79E1"/>
<path d="M83.7007 28.4597C83.7007 36.2052 78.9915 45.2034 73.1814 48.5558C67.3733 51.9104 62.6641 48.3498 62.6641 40.6044C62.6641 32.859 67.3733 23.8608 73.1814 20.5062C78.9915 17.1537 83.7007 20.7122 83.7007 28.4597Z" fill="#C5D2F8"/>
<path d="M78.1428 21.1158C80.1426 22.1688 81.3933 24.8242 81.3455 28.6657C81.2622 35.4892 77.1148 43.4677 72.0788 46.4851C70.3558 47.5194 68.7576 47.8211 67.3945 47.5173C68.949 48.3351 70.9551 48.1832 73.1568 46.8618C78.1928 43.8444 82.3402 35.8659 82.4234 29.0423C82.4775 24.5557 80.7544 21.6985 78.1428 21.1158Z" fill="#4F79E1"/>
<path d="M68.4359 47.6309C68.4338 47.6309 68.4317 47.6309 68.4296 47.6309C68.0988 47.6309 67.7762 47.5975 67.4661 47.533C67.462 47.533 67.4578 47.531 67.4537 47.531C67.4349 47.5268 67.4162 47.5226 67.3954 47.5185C65.3956 46.4676 64.1449 43.8102 64.1927 39.9707C64.276 33.1451 68.4234 25.1666 73.4594 22.1492C74.7621 21.3688 75.9919 21.0046 77.1032 21.0046C77.4632 21.0046 77.8107 21.0442 78.1437 21.117C80.104 22.1492 81.3443 24.7233 81.3484 28.4421C81.3484 28.517 81.3484 28.5919 81.3463 28.6668C81.2631 35.4904 77.1157 43.4689 72.0797 46.4863C72.0485 46.5071 72.0152 46.5258 71.984 46.5446C71.9694 46.5529 71.9569 46.5592 71.9444 46.5675C71.9361 46.5716 71.9299 46.5758 71.9236 46.58C71.8654 46.6132 71.8071 46.6445 71.7488 46.6778H71.7467C70.573 47.3249 69.4618 47.6288 68.4483 47.6309C68.4442 47.6309 68.4401 47.6309 68.4359 47.6309Z" fill="#A9BCF4"/>
<path d="M71.5597 41.1416V39.266L70.4206 40.8153L69.8711 40.1948L71.5597 37.8977V36.5295L70.434 38.0711L69.8711 37.4582L71.5597 35.1612V32.1018L69 33.5797V31.6426L76.1297 27.5263V29.4634L73.5566 30.9489V32.4402L74.7761 30.7675L75.339 31.3804L73.5566 33.8085V35.1767L74.7627 33.5272L75.3256 34.14L73.5566 36.545V39.9887L71.5597 41.1416Z" fill="#4F79E1"/>
</g>
</g>
<defs>
<clipPath id="clip0_271_497">
<rect width="327" height="160" fill="white"/>
</clipPath>
<clipPath id="clip1_271_497">
<rect width="327" height="160" fill="white"/>
</clipPath>
</defs>
</svg>
