<svg width="327" height="160" viewBox="0 0 327 160" fill="none" xmlns="http://www.w3.org/2000/svg">
<g clip-path="url(#clip0_286_8)">
<rect width="327" height="160" fill="#ECF1FD"/>
<path d="M300.792 83.7578L195.422 22.9225L249.872 -8.51646L355.242 52.3188L300.792 83.7578Z" fill="#F6F9FF"/>
<path d="M301.224 81.2227L199.812 22.6733L249.447 -5.98314L350.858 52.5663L301.224 81.2227Z" fill="#4F79E1"/>
<path d="M334.578 49.0331L255.555 3.41117C249.895 6.67743 241.334 7.03418 236.431 4.20395L233.702 5.77893L231.557 7.01836L217.447 15.1655C222.348 17.993 221.734 22.9373 216.074 26.2036L295.096 71.8281C300.755 68.5592 309.318 68.2051 314.219 71.0353L328.328 62.8882L330.474 61.6515L333.204 60.0738C328.302 57.2436 328.917 52.302 334.578 49.0331Z" fill="#F6F9FF"/>
<path d="M220.297 24.9091L221.414 25.5539L225.364 23.2707L224.404 22.7157L225.385 22.1503C226.081 22.3907 226.631 22.4832 227.284 22.5255L228.156 23.0302L222.599 26.2384L223.56 26.7933L222.28 27.5332L219.016 25.6491L220.297 24.9091Z" fill="#4F79E1"/>
<path d="M228.997 27.4379C230.872 26.3544 230.987 25.9342 230.583 25.7017C230.187 25.4744 229.451 25.5352 227.577 26.616C225.713 27.6916 225.545 28.154 225.941 28.3813C226.344 28.6138 227.135 28.5108 228.997 27.4379ZM226.456 25.9686C228.782 24.6235 230.712 24.3593 231.811 24.9935C232.91 25.6277 232.448 26.7402 230.122 28.0853C227.796 29.4278 225.812 29.7237 224.714 29.0922C223.615 28.4553 224.129 27.311 226.456 25.9686Z" fill="#4F79E1"/>
<path d="M233.263 29.899C235.139 28.8182 235.251 28.3981 234.849 28.1655C234.452 27.9382 233.717 27.9964 231.843 29.0798C229.979 30.1554 229.81 30.6178 230.206 30.8451C230.61 31.0776 231.401 30.9745 233.263 29.899ZM230.721 28.4324C233.047 27.0873 234.978 26.823 236.077 27.4572C237.174 28.0915 236.714 29.2041 234.388 30.5465C232.062 31.8916 230.078 32.1875 228.979 31.5533C227.881 30.9191 228.395 29.7722 230.721 28.4324Z" fill="#4F79E1"/>
<path d="M284.89 62.3134L286.006 62.9582L289.959 60.675L288.997 60.12L289.977 59.5545C290.674 59.795 291.223 59.8875 291.876 59.9298L292.75 60.4345L287.191 63.6427L288.154 64.1976L286.872 64.9375L283.609 63.0534L284.89 62.3134Z" fill="#4F79E1"/>
<path d="M293.601 64.8402C295.475 63.7568 295.587 63.3366 295.185 63.1041C294.789 62.8768 294.054 62.9349 292.18 64.0184C290.318 65.094 290.148 65.5564 290.544 65.7837C290.946 66.0162 291.738 65.9131 293.601 64.8402ZM291.057 63.371C293.383 62.0259 295.313 61.7616 296.412 62.3958C297.512 63.03 297.05 64.1426 294.724 65.4877C292.398 66.8302 290.414 67.1261 289.316 66.4945C288.216 65.8576 288.731 64.7134 291.057 63.371Z" fill="#4F79E1"/>
<path d="M297.867 67.3014C299.74 66.2205 299.854 65.8004 299.451 65.5678C299.055 65.3405 298.318 65.3987 296.445 66.4822C294.582 67.5577 294.414 68.0202 294.809 68.2474C295.212 68.48 296.004 68.3769 297.867 67.3014ZM295.323 65.8347C297.649 64.4896 299.579 64.2254 300.678 64.8596C301.776 65.4938 301.316 66.6064 298.99 67.9488C296.664 69.2939 294.68 69.5899 293.581 68.9556C292.482 68.3214 292.997 67.1745 295.323 65.8347Z" fill="#4F79E1"/>
<path d="M288.375 45.1855C278.434 50.9253 264.46 52.1646 257.165 47.9523C249.869 43.74 252.014 35.6722 261.955 29.9325C271.897 24.1927 285.871 22.956 293.167 27.1683C300.462 31.378 298.316 39.4458 288.375 45.1855Z" fill="#4D68EF"/>
<path d="M286.738 44.2449C277.918 49.3345 265.522 50.4339 259.051 46.6972C252.579 42.9606 254.482 35.8044 263.301 30.7122C272.12 25.6199 284.518 24.5205 290.989 28.2572C297.461 31.9938 295.559 39.15 286.738 44.2449Z" fill="#4D68EF"/>
<path d="M251.862 22.1509C247.652 24.5795 241.286 24.8437 237.641 22.7402C233.995 20.6341 234.452 16.9582 238.662 14.5297C242.87 12.0985 249.237 11.8342 252.882 13.9404C256.527 16.0439 256.07 19.7197 251.862 22.1509Z" fill="#4F79E1"/>
<path d="M249.878 21.0063C246.931 22.7055 242.476 22.8905 239.926 21.4185C237.375 19.9466 237.694 17.3727 240.64 15.6735C243.585 13.9717 248.041 13.7867 250.592 15.2613C253.143 16.7332 252.823 19.3044 249.878 21.0063Z" fill="#4D68EF"/>
<path d="M316.146 59.2662C311.937 61.6974 305.57 61.9616 301.926 59.8555C298.281 57.7519 298.738 54.0761 302.946 51.6475C307.156 49.2163 313.522 48.9521 317.168 51.0556C320.813 53.1617 320.356 56.8376 316.146 59.2662Z" fill="#4F79E1"/>
<path d="M314.174 58.1293C311.229 59.8285 306.773 60.0135 304.222 58.5416C301.671 57.0697 301.991 54.4958 304.936 52.7966C307.882 51.0947 312.338 50.9097 314.888 52.3843C317.44 53.8562 317.12 56.4275 314.174 58.1293Z" fill="#4D68EF"/>
<path d="M275.06 17.877L253.711 5.54925L254.751 4.94937L276.1 17.2744L275.06 17.877Z" fill="#4F79E1"/>
<path d="M264.633 13.5935L252.204 6.41885L251.164 7.01873L263.592 14.1934L264.633 13.5935Z" fill="#4F79E1"/>
<path d="M240.982 27.1872L228.552 20.01L227.512 20.6098L239.941 27.7871L240.982 27.1872Z" fill="#4F79E1"/>
<path d="M331.201 50.2891L309.852 37.9639L310.892 37.3614L332.242 49.6892L331.201 50.2891Z" fill="#4F79E1"/>
<path d="M329.697 51.156L317.267 43.9813L316.227 44.5812L328.656 51.7559L329.697 51.156Z" fill="#4F79E1"/>
<path d="M306.043 64.7497L293.614 57.5724L292.574 58.1749L305.003 65.3496L306.043 64.7497Z" fill="#4F79E1"/>
<path d="M195.422 22.922V34.1979L300.792 95.0332V83.7572L195.422 22.922Z" fill="#A9BCF4"/>
<path d="M355.243 52.3182V63.5968L300.793 95.0332V83.7572L355.243 52.3182Z" fill="#C5D2F8"/>
<path d="M296.13 87.438C292.985 85.2684 289.386 83.6512 285.99 81.9071C282.964 80.3559 279.938 78.6831 276.727 77.5494L276.672 77.6816C279.87 79.7904 283.437 81.3891 286.832 83.157C289.856 84.7294 292.816 86.5264 295.977 87.8027L296.13 87.438Z" fill="#819EEF"/>
<path d="M289.442 81.5399C281.6 75.0285 271.951 69.8279 262.82 65.3619L262.699 65.5944C271.485 70.9932 280.118 77.0051 289.146 81.9653C289.437 82.1239 289.702 81.7566 289.442 81.5399Z" fill="#819EEF"/>
<path d="M224.008 46.6062C219.764 43.591 215.222 41.0304 210.708 38.4459C206.586 36.0861 202.458 33.5677 198.085 31.6993L197.961 31.9557C202.082 34.7119 206.569 36.9661 210.858 39.4527C215.169 41.95 219.391 44.6032 223.808 46.9102L224.008 46.6062Z" fill="#819EEF"/>
<path d="M250.927 59.2504C248.106 57.2288 245.044 55.5481 242.045 53.8092C239.433 52.2924 236.867 50.5456 234.041 49.4648L233.891 49.7687C236.527 51.9648 239.76 53.5556 242.716 55.297C245.338 56.8403 247.933 58.4338 250.689 59.7287C250.974 59.8635 251.166 59.4221 250.927 59.2504Z" fill="#819EEF"/>
<path d="M212.826 36.068C210.697 34.6172 208.247 33.6421 205.961 32.4635C203.662 31.2743 201.415 29.9503 199.047 28.9065L198.906 29.0889C202.784 32.0882 207.902 35.1642 212.635 36.5198C212.916 36.6018 213.052 36.2212 212.826 36.068Z" fill="#819EEF"/>
<path d="M325.414 77.4617C329.655 74.4438 334.2 71.8832 338.714 69.2987C342.836 66.9389 346.964 64.4231 351.338 62.5522L351.459 62.8085C347.339 65.5674 342.852 67.8189 338.563 70.3056C334.253 72.8028 330.03 75.456 325.613 77.7656L325.414 77.4617Z" fill="#A9BCF4"/>
<path d="M317.499 30.5281L262.93 61.8984L234.57 45.5249L289.141 14.1546L317.499 30.5281Z" fill="#4F79E1"/>
<path d="M314.586 28.8472L260.016 60.2148L236.867 46.8513L291.438 15.481L314.586 28.8472Z" fill="#C5D2F8"/>
<path d="M262.93 61.8972L234.57 45.5236V56.8022L262.93 73.1758V61.8972Z" fill="#4D68EF"/>
<path d="M236.867 46.8499V58.1285L260.016 71.4922V60.2135L236.867 46.8499Z" fill="#4D68EF"/>
<path d="M300.792 70.2715L195.422 9.4362L249.872 -22.0002L355.242 38.8325L300.792 70.2715Z" fill="#F6F9FF"/>
<path d="M301.224 67.7383L199.812 9.18882L249.447 -19.4675L350.858 39.0819L301.224 67.7383Z" fill="#4F79E1"/>
<path d="M334.578 35.5487L255.555 -10.0732C249.895 -6.80431 241.334 -6.4502 236.431 -9.28042L233.702 -7.70538L231.557 -6.46601L217.447 1.68108C222.348 4.5113 221.734 9.45297 216.074 12.7219L295.096 58.3438C300.755 55.0775 309.318 54.7207 314.219 57.551L328.328 49.4065L330.474 48.1671L333.204 46.5895C328.302 43.7592 328.917 38.8176 334.578 35.5487Z" fill="#F6F9FF"/>
<path d="M220.297 11.4228L221.414 12.0676L225.364 9.78439L224.404 9.23207L225.385 8.66393C226.081 8.90441 226.631 8.99952 227.284 9.03916L228.156 9.54387L222.599 12.752L223.56 13.3069L222.28 14.0469L219.016 12.1627L220.297 11.4228Z" fill="#4F79E1"/>
<path d="M228.997 13.9523C230.872 12.8689 230.987 12.4487 230.583 12.2161C230.188 11.9889 229.452 12.0496 227.577 13.1305C225.714 14.206 225.546 14.6684 225.941 14.8984C226.345 15.1309 227.135 15.0279 228.997 13.9523ZM226.456 12.483C228.782 11.1406 230.712 10.8737 231.812 11.5079C232.909 12.1422 232.448 13.2547 230.123 14.5998C227.796 15.9422 225.812 16.2408 224.714 15.6066C223.615 14.9698 224.129 13.8255 226.456 12.483Z" fill="#4F79E1"/>
<path d="M233.263 16.4144C235.139 15.331 235.252 14.9109 234.849 14.6783C234.452 14.451 233.717 14.5118 231.843 15.5926C229.979 16.6682 229.81 17.1306 230.206 17.3579C230.61 17.5904 231.401 17.4873 233.263 16.4144ZM230.721 14.9452C233.047 13.6001 234.978 13.3358 236.077 13.97C237.174 14.6043 236.714 15.7168 234.388 17.0619C232.062 18.4044 230.078 18.7003 228.979 18.0687C227.881 17.4318 228.395 16.2876 230.721 14.9452Z" fill="#4F79E1"/>
<path d="M284.89 48.8271L286.006 49.4719L289.959 47.1887L288.997 46.6337L289.977 46.0682C290.674 46.3087 291.223 46.4038 291.876 46.4435L292.75 46.9482L287.191 50.1563L288.154 50.7112L286.872 51.4512L283.609 49.567L284.89 48.8271Z" fill="#4F79E1"/>
<path d="M293.601 51.3559C295.475 50.2724 295.587 49.8522 295.185 49.6197C294.789 49.3924 294.054 49.4532 292.18 50.534C290.318 51.6095 290.148 52.072 290.544 52.3019C290.946 52.5318 291.738 52.4314 293.601 51.3559ZM291.057 49.8866C293.383 48.5441 295.313 48.2772 296.412 48.9115C297.512 49.5457 297.05 50.6608 294.724 52.0033C292.398 53.3457 290.414 53.6417 289.316 53.0101C288.216 52.3733 288.731 51.229 291.057 49.8866Z" fill="#4F79E1"/>
<path d="M297.867 53.8188C299.74 52.7353 299.854 52.3152 299.451 52.0826C299.055 51.8554 298.318 51.9135 296.445 52.9969C294.582 54.0725 294.414 54.5349 294.809 54.7622C295.212 54.9947 296.004 54.8917 297.867 53.8188ZM295.323 52.3495C297.649 51.0044 299.579 50.7401 300.678 51.3744C301.776 52.0086 301.316 53.1211 298.99 54.4662C296.664 55.8086 294.68 56.1046 293.581 55.473C292.482 54.8362 292.997 53.692 295.323 52.3495Z" fill="#4F79E1"/>
<path d="M288.375 31.7004C278.434 37.4428 264.46 38.6795 257.165 34.4672C249.869 30.2549 252.014 22.1897 261.955 16.4473C271.897 10.7102 285.871 9.47086 293.167 13.6832C300.462 17.8955 298.316 25.9633 288.375 31.7004Z" fill="#4D68EF"/>
<path d="M286.738 30.7598C277.918 35.8521 265.522 36.9487 259.051 33.2121C252.579 29.4755 254.482 22.3193 263.301 17.227C272.12 12.1347 284.518 11.0354 290.989 14.772C297.461 18.5087 295.559 25.6675 286.738 30.7598Z" fill="#4D68EF"/>
<path d="M251.862 8.66656C247.652 11.0951 241.286 11.3594 237.641 9.25586C233.995 7.15235 234.452 3.47647 238.662 1.04528C242.87 -1.38591 249.237 -1.64752 252.882 0.455986C256.527 2.5595 256.07 6.23537 251.862 8.66656Z" fill="#4F79E1"/>
<path d="M249.878 7.52101C246.931 9.22285 242.476 9.4052 239.926 7.93327C237.375 6.46135 237.694 3.88746 240.64 2.18826C243.585 0.486429 248.041 0.301432 250.592 1.776C253.143 3.24793 252.823 5.81918 249.878 7.52101Z" fill="#4D68EF"/>
<path d="M316.146 45.7837C311.938 48.2123 305.571 48.4766 301.926 46.373C298.28 44.2669 298.738 40.591 302.947 38.1625C307.155 35.7313 313.522 35.467 317.168 37.5732C320.813 39.6767 320.356 43.3526 316.146 45.7837Z" fill="#4F79E1"/>
<path d="M314.174 44.6441C311.229 46.3459 306.773 46.5282 304.222 45.0563C301.671 43.5844 301.991 41.0105 304.936 39.3113C307.882 37.6095 312.338 37.4245 314.888 38.899C317.44 40.371 317.12 42.9449 314.174 44.6441Z" fill="#4D68EF"/>
<path d="M275.06 4.39062L253.711 -7.93443L254.751 -8.53695L276.1 3.78817L275.06 4.39062Z" fill="#4F79E1"/>
<path d="M264.633 0.107156L252.204 -7.06748L251.164 -6.4676L263.592 0.707031L264.633 0.107156Z" fill="#4F79E1"/>
<path d="M240.982 13.701L228.552 6.52363L227.512 7.12615L239.941 14.3008L240.982 13.701Z" fill="#4F79E1"/>
<path d="M331.201 36.8047L309.852 24.4796L310.892 23.8797L332.242 36.2048L331.201 36.8047Z" fill="#4F79E1"/>
<path d="M329.697 37.6709L317.267 30.4962L316.227 31.0961L328.656 38.2734L329.697 37.6709Z" fill="#4F79E1"/>
<path d="M306.043 51.2634L293.614 44.0861L292.574 44.6886L305.003 51.8633L306.043 51.2634Z" fill="#4F79E1"/>
<path d="M195.422 9.43684V20.7154L300.792 81.5508V70.2721L195.422 9.43684Z" fill="#A9BCF4"/>
<path d="M355.243 38.8331V50.1117L300.793 81.5508V70.2721L355.243 38.8331Z" fill="#C5D2F8"/>
<path d="M296.13 73.9563C292.985 71.7841 289.386 70.1668 285.99 68.4253C282.964 66.8715 279.938 65.1987 276.727 64.0651L276.672 64.1972C279.87 66.306 283.437 67.9074 286.832 69.6726C289.856 71.245 292.816 73.042 295.977 74.3184L296.13 73.9563Z" fill="#819EEF"/>
<path d="M289.442 68.0581C281.6 61.5441 271.951 56.3435 262.82 51.8775L262.699 52.11C271.485 57.5089 280.118 63.5208 289.146 68.4809C289.437 68.6395 289.702 68.2722 289.442 68.0581Z" fill="#819EEF"/>
<path d="M224.008 33.1219C219.764 30.1041 215.222 27.5433 210.708 24.9589C206.586 22.599 202.458 20.0806 198.085 18.2123L197.961 18.4686C202.082 21.2275 206.569 23.479 210.858 25.9657C215.169 28.463 219.391 31.1161 223.808 33.4258L224.008 33.1219Z" fill="#819EEF"/>
<path d="M250.927 45.766C248.106 43.7444 245.044 42.0664 242.045 40.3249C239.433 38.8081 236.867 37.0613 234.041 35.9804L233.891 36.2844C236.527 38.483 239.76 40.0738 242.716 41.8127C245.338 43.3586 247.933 44.9494 250.689 46.2443C250.974 46.3791 251.166 45.9378 250.927 45.766Z" fill="#819EEF"/>
<path d="M212.826 22.5836C210.697 21.1354 208.247 20.1603 205.961 18.9791C203.662 17.7926 201.415 16.4659 199.047 15.4221L198.906 15.6045C202.784 18.6038 207.902 21.6798 212.635 23.0381C212.916 23.1174 213.052 22.7368 212.826 22.5836Z" fill="#819EEF"/>
<path d="M325.414 63.9774C329.655 60.9595 334.2 58.4015 338.714 55.817C342.836 53.4572 346.964 50.9387 351.338 49.0678L351.459 49.3241C347.339 52.083 342.852 54.3345 338.563 56.8212C334.253 59.3185 330.03 61.9716 325.613 64.2812L325.414 63.9774Z" fill="#A9BCF4"/>
<path d="M317.499 17.0445L262.93 48.4121L234.57 32.0386L289.141 0.670927L317.499 17.0445Z" fill="#4F79E1"/>
<path d="M314.586 15.3628L260.016 46.7305L236.867 33.3668L291.438 1.99652L314.586 15.3628Z" fill="#C5D2F8"/>
<path d="M262.93 48.4128L234.57 32.0393V43.3179L262.93 59.6914V48.4128Z" fill="#4D68EF"/>
<path d="M236.867 33.3656V44.6442L260.016 58.0078V46.7292L236.867 33.3656Z" fill="#4D68EF"/>
<path d="M212.121 78.6741V96.6016C213.018 96.5487 213.893 96.4589 214.754 96.3426V78.6741H212.121Z" fill="#819EEF"/>
<path d="M208.504 78.6752V96.6184C209.014 96.6395 209.522 96.666 210.041 96.666C210.289 96.666 210.531 96.6475 210.778 96.6422V78.6752H208.504Z" fill="#819EEF"/>
<path d="M188.547 78.6755V83.7705C188.547 85.4908 189.119 87.1318 190.139 88.6328V78.6755H188.547Z" fill="#819EEF"/>
<path d="M216.102 78.677V96.1367C217.007 95.9782 217.883 95.7853 218.735 95.558V78.677H216.102Z" fill="#819EEF"/>
<path d="M220.09 78.6755V95.168C220.757 94.9539 221.405 94.7267 222.027 94.4756V78.6755H220.09Z" fill="#819EEF"/>
<path d="M194.77 78.6755V92.8425C195.378 93.2098 196.03 93.5506 196.707 93.873V78.6755H194.77Z" fill="#819EEF"/>
<path d="M204.883 78.6758V96.2755C205.627 96.3865 206.385 96.4737 207.157 96.5371V78.6758H204.883Z" fill="#819EEF"/>
<path d="M198.055 78.6755V94.4756C198.677 94.7267 199.326 94.9539 199.992 95.168V78.6755H198.055Z" fill="#819EEF"/>
<path d="M201.348 78.6768V95.5578C202.059 95.7481 202.787 95.9198 203.537 96.0625V78.6768H201.348Z" fill="#819EEF"/>
<path d="M191.492 78.6754V90.258C192.069 90.8526 192.707 91.4207 193.43 91.9492V78.6754H191.492Z" fill="#819EEF"/>
<path d="M231.537 78.6755H229.945V88.6328C230.964 87.1318 231.537 85.4908 231.537 83.7705V78.6755Z" fill="#819EEF"/>
<path d="M226.652 78.6754V91.9492C227.375 91.4207 228.012 90.8526 228.59 90.258V78.6754H226.652Z" fill="#819EEF"/>
<path d="M223.371 78.6755V93.873C224.049 93.5506 224.701 93.2098 225.309 92.8425V78.6755H223.371Z" fill="#819EEF"/>
<path d="M190.145 78.6753V88.6326C190.529 89.1954 190.985 89.7372 191.493 90.2578V78.6753H190.145Z" fill="#4F79E1"/>
<path d="M193.426 78.6767V91.9505C193.851 92.2597 194.302 92.5583 194.773 92.8438V78.6767H193.426Z" fill="#4F79E1"/>
<path d="M196.703 78.6764V93.874C197.142 94.0828 197.586 94.2889 198.051 94.4766V78.6764H196.703Z" fill="#4F79E1"/>
<path d="M200 78.6757V95.1681C200.44 95.3055 200.891 95.4351 201.348 95.5566V78.6757H200Z" fill="#4F79E1"/>
<path d="M203.535 78.6756V96.0613C203.976 96.1432 204.43 96.2093 204.883 96.2754V78.6756H203.535Z" fill="#4F79E1"/>
<path d="M207.152 78.6759V96.5373C207.598 96.5716 208.046 96.6006 208.5 96.6191V78.6759H207.152Z" fill="#4F79E1"/>
<path d="M210.773 78.6755V96.6426C211.225 96.6347 211.678 96.6267 212.12 96.603V78.6755H210.773Z" fill="#4F79E1"/>
<path d="M214.754 78.6753V96.3438C215.208 96.283 215.658 96.2143 216.101 96.135V78.6753H214.754Z" fill="#4F79E1"/>
<path d="M228.598 78.6753V90.2578C229.106 89.7372 229.562 89.1954 229.946 88.6326V78.6753H228.598Z" fill="#4F79E1"/>
<path d="M225.309 78.6767V92.8438C225.78 92.5583 226.231 92.2597 226.657 91.9505V78.6767H225.309Z" fill="#4F79E1"/>
<path d="M222.023 78.6764V94.4766C222.489 94.2889 222.933 94.0828 223.371 93.874V78.6764H222.023Z" fill="#4F79E1"/>
<path d="M218.742 78.6757V95.5566C219.198 95.4351 219.649 95.3055 220.089 95.1681V78.6757H218.742Z" fill="#4F79E1"/>
<path d="M210.04 65.7792C198.17 65.7792 188.547 71.5533 188.547 78.6751C188.547 85.7943 198.17 91.5684 210.04 91.5684C221.91 91.5684 231.532 85.7943 231.532 78.6751C231.532 71.5533 221.91 65.7792 210.04 65.7792Z" fill="#C5D2F8"/>
<path d="M210.042 68.3504C220.029 68.3504 228.169 73.0384 228.732 78.9473L228.787 78.2972C228.787 72.0871 220.394 67.0503 210.042 67.0503C199.689 67.0503 191.297 72.0871 191.297 78.2972L191.352 78.9473C191.915 73.0384 200.055 68.3504 210.042 68.3504Z" fill="#4F79E1"/>
<path d="M216.73 77.2584C214.34 78.6537 207.059 82.6176 202.55 85.5245C201.521 86.1878 202.766 86.7877 203.763 86.2063C207.139 84.2376 213.57 80.7626 217.839 77.9086C218.333 77.5809 217.269 76.9413 216.73 77.2584Z" fill="#4F79E1"/>
<path d="M212.679 75.0475C210.29 76.4428 203.008 80.4093 198.499 83.3135C197.47 83.9768 198.716 84.5767 199.711 83.9954C203.089 82.0266 209.52 78.5516 213.789 75.7002C214.282 75.3699 213.219 74.7304 212.679 75.0475Z" fill="#4F79E1"/>
<path d="M250.695 15.0374V32.9648C251.591 32.912 252.467 32.8221 253.328 32.7059V15.0374H250.695Z" fill="#819EEF"/>
<path d="M247.07 15.0365V32.9798C247.58 33.0009 248.088 33.0273 248.607 33.0273C248.856 33.0273 249.098 33.0088 249.344 33.0035V15.0365H247.07Z" fill="#819EEF"/>
<path d="M227.109 15.0368V20.1317C227.109 21.8547 227.681 23.4931 228.702 24.9941V15.0368H227.109Z" fill="#819EEF"/>
<path d="M254.672 15.0357V32.498C255.576 32.3368 256.455 32.144 257.304 31.9167V15.0357H254.672Z" fill="#819EEF"/>
<path d="M258.648 15.0368V31.5293C259.314 31.3179 259.963 31.088 260.586 30.8369V15.0368H258.648Z" fill="#819EEF"/>
<path d="M233.34 15.0361V29.2031C233.947 29.5731 234.599 29.9113 235.276 30.2363V15.0361H233.34Z" fill="#819EEF"/>
<path d="M243.449 15.0371V32.6368C244.193 32.7478 244.951 32.835 245.723 32.8984V15.0371H243.449Z" fill="#819EEF"/>
<path d="M236.625 15.0368V30.8369C237.248 31.088 237.897 31.3179 238.563 31.5293V15.0368H236.625Z" fill="#819EEF"/>
<path d="M239.906 15.0362V31.9172C240.617 32.1074 241.345 32.2792 242.096 32.4219V15.0362H239.906Z" fill="#819EEF"/>
<path d="M230.051 15.0368V26.622C230.628 27.2139 231.266 27.782 231.988 28.3105V15.0368H230.051Z" fill="#819EEF"/>
<path d="M270.096 15.0368H268.504V24.9941C269.523 23.4931 270.096 21.8547 270.096 20.1317V15.0368Z" fill="#819EEF"/>
<path d="M265.223 15.0368V28.3105C265.945 27.782 266.583 27.2139 267.16 26.622V15.0368H265.223Z" fill="#819EEF"/>
<path d="M261.934 15.0361V30.2363C262.612 29.9113 263.263 29.5731 263.871 29.2031V15.0361H261.934Z" fill="#819EEF"/>
<path d="M228.703 15.0359V24.9933C229.087 25.5588 229.542 26.0979 230.05 26.6211V15.0359H228.703Z" fill="#4F79E1"/>
<path d="M231.988 15.0361V28.3099C232.413 28.6191 232.865 28.9177 233.337 29.2031V15.0361H231.988Z" fill="#4F79E1"/>
<path d="M235.277 15.0358V30.2361C235.717 30.4448 236.16 30.6483 236.625 30.8359V15.0358H235.277Z" fill="#4F79E1"/>
<path d="M238.559 15.037V31.5295C238.998 31.6696 239.449 31.7964 239.907 31.918V15.037H238.559Z" fill="#4F79E1"/>
<path d="M242.102 15.037V32.4227C242.542 32.5072 242.997 32.5707 243.45 32.6367V15.037H242.102Z" fill="#4F79E1"/>
<path d="M245.723 15.0372V32.8985C246.169 32.9329 246.617 32.962 247.071 32.9805V15.0372H245.723Z" fill="#4F79E1"/>
<path d="M249.344 15.0369V33.0039C249.795 32.996 250.248 32.9907 250.692 32.9643V15.0369H249.344Z" fill="#4F79E1"/>
<path d="M253.324 15.0366V32.7051C253.778 32.6443 254.229 32.5756 254.671 32.4989V15.0366H253.324Z" fill="#4F79E1"/>
<path d="M267.156 15.0359V26.6211C267.664 26.0979 268.121 25.5588 268.505 24.9933V15.0359H267.156Z" fill="#4F79E1"/>
<path d="M263.879 15.0361V29.2031C264.351 28.9177 264.802 28.6191 265.227 28.3099V15.0361H263.879Z" fill="#4F79E1"/>
<path d="M260.586 15.0358V30.8359C261.052 30.6483 261.494 30.4448 261.933 30.2361V15.0358H260.586Z" fill="#4F79E1"/>
<path d="M257.301 15.037V31.918C257.758 31.7964 258.209 31.6696 258.649 31.5295V15.037H257.301Z" fill="#4F79E1"/>
<path d="M248.602 2.1406C236.732 2.1406 227.109 7.91463 227.109 15.0364C227.109 22.1582 236.732 27.9297 248.602 27.9297C260.472 27.9297 270.095 22.1582 270.095 15.0364C270.095 7.91463 260.472 2.1406 248.602 2.1406Z" fill="#C5D2F8"/>
<path d="M248.69 26.1934C238.703 26.1934 230.564 21.5027 230 15.5965C230.564 9.6903 238.703 4.99966 248.69 4.99966C258.678 4.99966 266.818 9.6903 267.381 15.5965C266.818 21.5027 258.678 26.1934 248.69 26.1934Z" fill="#A9BCF4"/>
<path d="M255.491 19.6956L252.693 18.0802L252.192 19.9056L249.909 19.6079L250.652 16.9017L248.611 15.7231L248.131 17.5361L245.827 17.2509L246.569 14.5446L242.005 11.9096L237.89 14.2856L235 12.6172L246.463 5.99903L249.353 7.66747L245.216 10.056L247.441 11.3404L247.956 9.37414L250.26 9.65939L249.482 12.5189L251.523 13.6974L252.04 11.7568L254.344 12.0421L253.564 14.8759L258.702 17.842L255.491 19.6956Z" fill="#4F79E1"/>
<path d="M248.6 4.71181C258.587 4.71181 266.728 9.40238 267.291 15.3086L267.345 14.6612C267.345 8.44842 258.953 3.41425 248.6 3.41425C238.248 3.41425 229.855 8.44842 229.855 14.6612L229.91 15.3086C230.474 9.40238 238.613 4.71181 248.6 4.71181Z" fill="#4F79E1"/>
<path d="M264.023 1.56867V19.4961C264.92 19.4459 265.795 19.3534 266.656 19.2371V1.56867H264.023Z" fill="#819EEF"/>
<path d="M260.398 1.56971V19.513C260.908 19.5368 261.417 19.5605 261.936 19.5605C262.184 19.5605 262.426 19.542 262.673 19.5394V1.56971H260.398Z" fill="#819EEF"/>
<path d="M240.441 1.57005V6.66763C240.441 8.38796 241.014 10.0263 242.034 11.5273V1.57005H240.441Z" fill="#819EEF"/>
<path d="M268 1.56893V19.0312C268.904 18.8701 269.782 18.6772 270.632 18.4499V1.56893H268Z" fill="#819EEF"/>
<path d="M271.984 1.56999V18.0625C272.651 17.8511 273.301 17.6212 273.922 17.3701V1.56999H271.984Z" fill="#819EEF"/>
<path d="M246.664 1.56929V15.7363C247.272 16.1063 247.924 16.4471 248.602 16.7695V1.56929H246.664Z" fill="#819EEF"/>
<path d="M256.777 1.57028V19.1727C257.521 19.281 258.279 19.3682 259.052 19.4316V1.57028H256.777Z" fill="#819EEF"/>
<path d="M249.957 1.56999V17.3701C250.579 17.6212 251.229 17.8511 251.895 18.0625V1.56999H249.957Z" fill="#819EEF"/>
<path d="M253.242 1.5694V18.4504C253.955 18.6406 254.682 18.8124 255.432 18.9551V1.5694H253.242Z" fill="#819EEF"/>
<path d="M243.383 1.56998V13.1552C243.96 13.7471 244.597 14.3152 245.32 14.8438V1.56998H243.383Z" fill="#819EEF"/>
<path d="M283.433 1.57005H281.84V11.5273C282.86 10.0263 283.433 8.38796 283.433 6.66763V1.57005Z" fill="#819EEF"/>
<path d="M278.547 1.56998V14.8438C279.27 14.3152 279.907 13.7471 280.484 13.1552V1.56998H278.547Z" fill="#819EEF"/>
<path d="M275.266 1.56929V16.7695C275.944 16.4471 276.594 16.1063 277.203 15.7363V1.56929H275.266Z" fill="#819EEF"/>
<path d="M242.039 1.56911V11.5264C242.423 12.0919 242.879 12.6311 243.387 13.1543V1.56911H242.039Z" fill="#4F79E1"/>
<path d="M245.32 1.56932V14.8431C245.746 15.1549 246.196 15.4509 246.668 15.7363V1.56932H245.32Z" fill="#4F79E1"/>
<path d="M248.609 1.57098V16.7712C249.048 16.98 249.492 17.1835 249.957 17.3711V1.57098H248.609Z" fill="#4F79E1"/>
<path d="M251.895 1.57021V18.0627C252.334 18.2028 252.785 18.3296 253.243 18.4512V1.57021H251.895Z" fill="#4F79E1"/>
<path d="M255.43 1.56949V18.9552C255.871 19.0397 256.326 19.1032 256.778 19.1719V1.56949H255.43Z" fill="#4F79E1"/>
<path d="M259.051 1.56843V19.4298C259.496 19.4668 259.945 19.4932 260.398 19.5117V1.56843H259.051Z" fill="#4F79E1"/>
<path d="M262.676 1.56938V19.5391C263.128 19.5285 263.58 19.5232 264.024 19.4968V1.56938H262.676Z" fill="#4F79E1"/>
<path d="M266.656 1.56983V19.2383C267.112 19.1775 267.561 19.1088 268.005 19.0322V1.56983H266.656Z" fill="#4F79E1"/>
<path d="M280.492 1.56911V13.1543C281 12.6311 281.457 12.0919 281.84 11.5264V1.56911H280.492Z" fill="#4F79E1"/>
<path d="M277.203 1.56932V15.7363C277.674 15.4509 278.125 15.1549 278.55 14.8431V1.56932H277.203Z" fill="#4F79E1"/>
<path d="M273.918 1.57098V17.3711C274.384 17.1835 274.828 16.98 275.266 16.7712V1.57098H273.918Z" fill="#4F79E1"/>
<path d="M270.637 1.57021V18.4512C271.093 18.3296 271.544 18.2028 271.984 18.0627V1.57021H270.637Z" fill="#4F79E1"/>
<path d="M261.934 -11.3263C250.064 -11.3263 240.441 -5.55217 240.441 1.56964C240.441 8.69144 250.064 14.4629 261.934 14.4629C273.805 14.4629 283.428 8.69144 283.428 1.56964C283.428 -5.55217 273.805 -11.3263 261.934 -11.3263Z" fill="#C5D2F8"/>
<path d="M261.936 -8.75505C271.924 -8.75505 280.064 -4.06441 280.628 1.8418L280.682 1.19437C280.682 -5.01838 272.289 -10.0525 261.936 -10.0525C251.585 -10.0525 243.191 -5.01838 243.191 1.19437L243.246 1.8418C243.81 -4.06441 251.949 -8.75505 261.936 -8.75505Z" fill="#4F79E1"/>
<path d="M261.933 12.4395C251.945 12.4395 243.806 7.74881 243.242 1.8426C243.806 -4.06361 251.945 -8.75425 261.933 -8.75425C271.92 -8.75425 280.06 -4.06361 280.624 1.8426C280.06 7.74881 271.92 12.4395 261.933 12.4395Z" fill="#A9BCF4"/>
<path d="M294.945 28.5179V46.4453C295.842 46.3925 296.718 46.3026 297.578 46.1863V28.5179H294.945Z" fill="#819EEF"/>
<path d="M291.324 28.5189V46.4622C291.834 46.4834 292.343 46.5098 292.861 46.5098C293.11 46.5098 293.352 46.4912 293.599 46.486V28.5189H291.324Z" fill="#819EEF"/>
<path d="M271.371 28.5192V33.6141C271.371 35.3371 271.944 36.9756 272.964 38.4766V28.5192H271.371Z" fill="#819EEF"/>
<path d="M298.926 28.5188V45.9785C299.83 45.82 300.707 45.6271 301.558 45.3998V28.5188H298.926Z" fill="#819EEF"/>
<path d="M302.902 28.5192V45.0117C303.568 44.7977 304.217 44.5704 304.84 44.3193V28.5192H302.902Z" fill="#819EEF"/>
<path d="M277.594 28.5192V42.6862C278.202 43.0535 278.853 43.3944 279.531 43.7168V28.5192H277.594Z" fill="#819EEF"/>
<path d="M287.699 28.5195V46.1192C288.445 46.2302 289.201 46.3174 289.975 46.3809V28.5195H287.699Z" fill="#819EEF"/>
<path d="M280.875 28.5192V44.3193C281.498 44.5704 282.147 44.7977 282.813 45.0117V28.5192H280.875Z" fill="#819EEF"/>
<path d="M284.172 28.5186V45.3996C284.884 45.5899 285.612 45.7616 286.362 45.9043V28.5186H284.172Z" fill="#819EEF"/>
<path d="M274.316 28.5192V40.1017C274.893 40.6963 275.531 41.2644 276.254 41.793V28.5192H274.316Z" fill="#819EEF"/>
<path d="M314.351 28.5192H312.758V38.4766C313.778 36.9756 314.351 35.3345 314.351 33.6141V28.5192Z" fill="#819EEF"/>
<path d="M309.48 28.5192V41.793C310.204 41.2644 310.841 40.6963 311.418 40.1017V28.5192H309.48Z" fill="#819EEF"/>
<path d="M306.195 28.5192V43.7168C306.874 43.3944 307.525 43.0535 308.133 42.6862V28.5192H306.195Z" fill="#819EEF"/>
<path d="M272.957 28.519V38.4764C273.341 39.0393 273.797 39.581 274.305 40.1016V28.519H272.957Z" fill="#4F79E1"/>
<path d="M276.25 28.5185V41.7923C276.674 42.1015 277.125 42.4001 277.597 42.6855V28.5185H276.25Z" fill="#4F79E1"/>
<path d="M279.535 28.5202V43.7178C279.974 43.9266 280.418 44.1327 280.882 44.3203V28.5202H279.535Z" fill="#4F79E1"/>
<path d="M282.812 28.5175V45.01C283.252 45.15 283.703 45.2769 284.161 45.3984V28.5175H282.812Z" fill="#4F79E1"/>
<path d="M286.352 28.5194V45.9051C286.792 45.987 287.246 46.0531 287.698 46.1191V28.5194H286.352Z" fill="#4F79E1"/>
<path d="M289.977 28.5176V46.379C290.421 46.4134 290.871 46.4424 291.323 46.4609V28.5176H289.977Z" fill="#4F79E1"/>
<path d="M293.598 28.5193V46.4863C294.049 46.4784 294.501 46.4705 294.945 46.4467V28.5193H293.598Z" fill="#4F79E1"/>
<path d="M297.578 28.519V46.1875C298.032 46.1267 298.482 46.058 298.926 45.9787V28.519H297.578Z" fill="#4F79E1"/>
<path d="M311.414 28.519V40.1016C311.922 39.581 312.378 39.0393 312.762 38.4764V28.519H311.414Z" fill="#4F79E1"/>
<path d="M308.133 28.5205V42.6875C308.603 42.4021 309.055 42.1035 309.48 41.7943V28.5205H308.133Z" fill="#4F79E1"/>
<path d="M304.848 28.5202V44.3203C305.312 44.1327 305.756 43.9266 306.195 43.7178V28.5202H304.848Z" fill="#4F79E1"/>
<path d="M301.559 28.5175V45.3984C302.016 45.2769 302.467 45.15 302.907 45.01V28.5175H301.559Z" fill="#4F79E1"/>
<path d="M292.863 15.623C280.994 15.623 271.371 21.397 271.371 28.5189C271.371 35.6407 280.994 41.4121 292.863 41.4121C304.734 41.4121 314.357 35.6407 314.357 28.5189C314.357 21.397 304.734 15.623 292.863 15.623Z" fill="#C5D2F8"/>
<path d="M292.866 18.1942C302.854 18.1942 310.994 22.8848 311.557 28.791L311.612 28.1409C311.612 21.9308 303.219 16.8967 292.866 16.8967C282.515 16.8967 274.121 21.9308 274.121 28.1409L274.177 28.791C274.739 22.8848 282.88 18.1942 292.866 18.1942Z" fill="#4F79E1"/>
<path d="M292.861 39.3867C282.875 39.3867 274.734 34.6961 274.172 28.7899C274.734 22.8837 282.875 18.1931 292.861 18.1931C302.849 18.1931 310.989 22.8837 311.552 28.7899C310.989 34.6961 302.849 39.3867 292.861 39.3867Z" fill="#A9BCF4"/>
<path d="M260.059 93.0101V110.938C260.954 110.885 261.83 110.795 262.691 110.679V93.0101H260.059Z" fill="#819EEF"/>
<path d="M256.438 93.0092V110.952C256.947 110.974 257.455 111 257.974 111C258.223 111 258.465 110.981 258.711 110.976V93.0092H256.438Z" fill="#819EEF"/>
<path d="M236.484 93.0095V98.1044C236.484 99.8274 237.057 101.466 238.077 102.967V93.0095H236.484Z" fill="#819EEF"/>
<path d="M264.039 93.0084V110.471C264.942 110.31 265.821 110.117 266.671 109.889V93.0084H264.039Z" fill="#819EEF"/>
<path d="M268.016 93.0095V109.502C268.682 109.291 269.331 109.061 269.953 108.81V93.0095H268.016Z" fill="#819EEF"/>
<path d="M242.711 93.0087V107.176C243.319 107.546 243.97 107.887 244.648 108.209V93.0087H242.711Z" fill="#819EEF"/>
<path d="M252.82 93.0097V110.612C253.564 110.72 254.322 110.808 255.094 110.871V93.0097H252.82Z" fill="#819EEF"/>
<path d="M245.992 93.0095V108.81C246.615 109.061 247.264 109.291 247.93 109.502V93.0095H245.992Z" fill="#819EEF"/>
<path d="M249.285 93.0089V109.89C249.997 110.08 250.725 110.252 251.476 110.395V93.0089H249.285Z" fill="#819EEF"/>
<path d="M239.43 93.0094V104.595C240.007 105.187 240.644 105.755 241.366 106.283V93.0094H239.43Z" fill="#819EEF"/>
<path d="M279.476 93.0095H277.883V102.967C278.903 101.466 279.476 99.8274 279.476 98.1044V93.0095Z" fill="#819EEF"/>
<path d="M274.594 93.0094V106.283C275.316 105.755 275.954 105.187 276.531 104.595V93.0094H274.594Z" fill="#819EEF"/>
<path d="M271.309 93.0087V108.209C271.987 107.887 272.638 107.546 273.245 107.176V93.0087H271.309Z" fill="#819EEF"/>
<path d="M238.082 93.0086V102.966C238.466 103.531 238.921 104.071 239.43 104.594V93.0086H238.082Z" fill="#4F79E1"/>
<path d="M241.363 93.0088V106.283C241.788 106.594 242.24 106.89 242.712 107.176V93.0088H241.363Z" fill="#4F79E1"/>
<path d="M244.648 93.0085V108.209C245.087 108.417 245.531 108.621 245.995 108.809V93.0085H244.648Z" fill="#4F79E1"/>
<path d="M247.938 93.0097V109.502C248.377 109.642 248.828 109.769 249.286 109.891V93.0097H247.938Z" fill="#4F79E1"/>
<path d="M251.477 93.0089V110.395C251.917 110.479 252.372 110.543 252.824 110.611V93.0089H251.477Z" fill="#4F79E1"/>
<path d="M255.09 93.0099V110.871C255.536 110.906 255.984 110.935 256.438 110.953V93.0099H255.09Z" fill="#4F79E1"/>
<path d="M258.711 93.0095V110.977C259.162 110.969 259.615 110.963 260.059 110.937V93.0095H258.711Z" fill="#4F79E1"/>
<path d="M262.691 93.0093V110.678C263.145 110.617 263.595 110.548 264.039 110.472V93.0093H262.691Z" fill="#4F79E1"/>
<path d="M276.527 93.0086V104.594C277.035 104.071 277.492 103.531 277.876 102.966V93.0086H276.527Z" fill="#4F79E1"/>
<path d="M273.246 93.0088V107.176C273.718 106.89 274.169 106.594 274.594 106.283V93.0088H273.246Z" fill="#4F79E1"/>
<path d="M269.961 93.0085V108.809C270.427 108.621 270.87 108.417 271.309 108.209V93.0085H269.961Z" fill="#4F79E1"/>
<path d="M266.672 93.0097V109.891C267.128 109.769 267.579 109.642 268.019 109.502V93.0097H266.672Z" fill="#4F79E1"/>
<path d="M257.977 80.1132C246.107 80.1132 236.484 85.8873 236.484 93.0091C236.484 100.131 246.107 105.902 257.977 105.902C269.848 105.902 279.471 100.131 279.471 93.0091C279.471 85.8873 269.848 80.1132 257.977 80.1132Z" fill="#C5D2F8"/>
<path d="M257.979 82.6844C267.967 82.6844 276.107 87.375 276.671 93.2812L276.725 92.6338C276.725 86.4211 268.332 81.3869 257.979 81.3869C247.627 81.3869 239.234 86.4211 239.234 92.6338L239.289 93.2812C239.853 87.375 247.992 82.6844 257.979 82.6844Z" fill="#4F79E1"/>
<path d="M257.979 103.879C247.992 103.879 239.853 99.1883 239.289 93.2821C239.853 87.3758 247.992 82.6852 257.979 82.6852C267.967 82.6852 276.107 87.3758 276.671 93.2821C276.107 99.1883 267.967 103.879 257.979 103.879Z" fill="#A9BCF4"/>
<path d="M209.69 89.1934C199.703 89.1934 191.563 84.5027 191 78.5965C191.563 72.6877 199.703 67.9997 209.69 67.9997C219.677 67.9997 227.818 72.6877 228.381 78.5965C227.818 84.5027 219.677 89.1934 209.69 89.1934Z" fill="#A9BCF4"/>
<path d="M216.491 84.2718L213.693 82.6563L213.192 84.4818L210.909 84.1841L211.652 81.4778L209.611 80.2993L209.131 82.1123L206.827 81.8271L207.569 79.1208L203.005 76.4857L198.89 78.8618L196 77.1934L207.463 70.5752L210.353 72.2436L206.216 74.6322L208.441 75.9166L208.956 73.9503L211.26 74.2356L210.482 77.0951L212.523 78.2736L213.04 76.333L215.344 76.6183L214.564 79.4521L219.702 82.4182L216.491 84.2718Z" fill="#4F79E1"/>
<path d="M203.574 68.0309V85.9609C204.47 85.9081 205.346 85.8182 206.207 85.702V68.0309H203.574Z" fill="#819EEF"/>
<path d="M199.953 68.0306V85.9766C200.463 85.9977 200.971 86.0215 201.49 86.0215C201.739 86.0215 201.981 86.0056 202.227 86.0003V68.0306H199.953Z" fill="#819EEF"/>
<path d="M180 68.031V73.1286C180 74.8489 180.573 76.4899 181.593 77.9883V68.031H180Z" fill="#819EEF"/>
<path d="M207.555 68.0318V85.4941C208.459 85.3356 209.336 85.14 210.187 84.9154V68.0318H207.555Z" fill="#819EEF"/>
<path d="M211.531 68.0309V84.5234C212.198 84.312 212.846 84.0847 213.469 83.8337V68.0309H211.531Z" fill="#819EEF"/>
<path d="M186.227 68.0302V82.1999C186.834 82.5672 187.486 82.9081 188.164 83.2305V68.0302H186.227Z" fill="#819EEF"/>
<path d="M196.328 68.0305V85.6329C197.072 85.7439 197.83 85.8311 198.602 85.8945V68.0305H196.328Z" fill="#819EEF"/>
<path d="M189.504 68.0309V83.8337C190.125 84.0847 190.775 84.312 191.44 84.5234V68.0309H189.504Z" fill="#819EEF"/>
<path d="M192.797 68.0323V84.9159C193.509 85.1062 194.237 85.2779 194.987 85.418V68.0323H192.797Z" fill="#819EEF"/>
<path d="M182.945 68.0322V79.6174C183.522 80.2119 184.159 80.7801 184.882 81.3086V68.0322H182.945Z" fill="#819EEF"/>
<path d="M222.983 68.031H221.391V77.9883C222.41 76.4873 222.983 74.8489 222.983 73.1286V68.031Z" fill="#819EEF"/>
<path d="M218.109 68.0322V81.3086C218.832 80.7801 219.47 80.2119 220.047 79.6174V68.0322H218.109Z" fill="#819EEF"/>
<path d="M214.824 68.0302V83.2305C215.503 82.9081 216.154 82.5672 216.762 82.1999V68.0302H214.824Z" fill="#819EEF"/>
<path d="M181.586 68.032V77.9893C181.97 78.5548 182.425 79.0966 182.934 79.6172V68.032H181.586Z" fill="#4F79E1"/>
<path d="M184.879 68.0315V81.3079C185.304 81.6171 185.756 81.9158 186.227 82.2012V68.0315H184.879Z" fill="#4F79E1"/>
<path d="M188.16 68.0312V83.2315C188.599 83.4402 189.043 83.6464 189.508 83.834V68.0312H188.16Z" fill="#4F79E1"/>
<path d="M191.441 68.0305V84.523C191.881 84.663 192.332 84.7925 192.79 84.9141V68.0305H191.441Z" fill="#4F79E1"/>
<path d="M194.98 68.0304V85.4161C195.42 85.5007 195.876 85.5667 196.328 85.6328V68.0304H194.98Z" fill="#4F79E1"/>
<path d="M198.605 68.0306V85.8946C199.052 85.929 199.501 85.9581 199.954 85.9766V68.0306H198.605Z" fill="#4F79E1"/>
<path d="M202.227 68.0303V86C202.678 85.9921 203.132 85.9842 203.575 85.9604V68.0303H202.227Z" fill="#4F79E1"/>
<path d="M206.203 68.032V85.7031C206.657 85.6423 207.107 85.5736 207.551 85.4943V68.032H206.203Z" fill="#4F79E1"/>
<path d="M220.043 68.032V79.6172C220.552 79.0966 221.007 78.5548 221.391 77.9893V68.032H220.043Z" fill="#4F79E1"/>
<path d="M216.758 68.0315V82.2012C217.229 81.9158 217.68 81.6171 218.105 81.3079V68.0315H216.758Z" fill="#4F79E1"/>
<path d="M213.477 68.0312V83.834C213.942 83.6464 214.386 83.4402 214.825 83.2315V68.0312H213.477Z" fill="#4F79E1"/>
<path d="M210.188 68.0305V84.9141C210.644 84.7925 211.095 84.663 211.535 84.523V68.0305H210.188Z" fill="#4F79E1"/>
<path d="M201.493 55.1386C189.623 55.1386 180 60.9127 180 68.0318C180 75.1536 189.623 80.9277 201.493 80.9277C213.364 80.9277 222.986 75.1536 222.986 68.0318C222.986 60.9127 213.364 55.1386 201.493 55.1386Z" fill="#C5D2F8"/>
<path d="M201.495 57.7078C211.482 57.7078 219.622 62.3958 220.186 68.3047L220.241 67.6546C220.241 61.4445 211.848 56.4077 201.495 56.4077C191.143 56.4077 182.75 61.4445 182.75 67.6546L182.805 68.3047C183.368 62.3958 191.508 57.7078 201.495 57.7078Z" fill="#4F79E1"/>
<path d="M201.495 78.9023C191.508 78.9023 183.368 74.2117 182.805 68.3055C183.368 62.3966 191.508 57.7086 201.495 57.7086C211.482 57.7086 219.622 62.3966 220.186 68.3055C219.622 74.2117 211.482 78.9023 201.495 78.9023Z" fill="#A9BCF4"/>
<path d="M270.315 8.09016L267.517 6.47469L267.016 8.30011L264.734 8.00242L265.476 5.29618L263.435 4.11768L262.955 5.93067L260.651 5.64541L261.394 2.93917L256.83 0.304094L252.714 2.68016L249.824 1.01172L261.287 -5.60644L264.177 -3.938L260.04 -1.54949L262.265 -0.265051L262.781 -2.23133L265.085 -1.94607L264.306 0.913453L266.347 2.09196L266.864 0.151362L269.168 0.436615L268.388 3.27046L273.526 6.23658L270.315 8.09016Z" fill="#4F79E1"/>
<path d="M299.296 34.4378L296.498 32.8223L295.997 34.6478L293.714 34.3501L294.457 31.6438L292.415 30.4653L291.936 32.2783L289.632 31.9931L290.374 29.2868L285.81 26.6518L281.695 29.0278L278.805 27.3594L290.268 20.7412L293.158 22.4097L289.02 24.7982L291.245 26.0826L291.761 24.1163L294.065 24.4016L293.286 27.2611L295.328 28.4396L295.845 26.499L298.149 26.7843L297.369 29.6181L302.506 32.5842L299.296 34.4378Z" fill="#4F79E1"/>
<path d="M265.046 98.9925L262.248 97.377L261.747 99.2025L259.464 98.9048L260.207 96.1985L258.165 95.02L257.686 96.833L255.382 96.5478L256.124 93.8415L251.56 91.2064L247.445 93.5825L244.555 91.9141L256.018 85.2959L258.908 86.9643L254.77 89.3529L256.995 90.6373L257.511 88.671L259.815 88.9563L259.036 91.8158L261.078 92.9943L261.595 91.0537L263.899 91.339L263.119 94.1728L268.256 97.1389L265.046 98.9925Z" fill="#4F79E1"/>
<path d="M209.71 73.9613L206.912 72.3458L206.411 74.1712L204.128 73.8735L204.871 71.1673L202.829 69.9888L202.35 71.8018L200.046 71.5165L200.788 68.8103L196.224 66.1752L192.109 68.5513L189.219 66.8828L200.682 60.2647L203.572 61.9331L199.435 64.3216L201.659 65.606L202.175 63.6398L204.479 63.925L203.7 66.7845L205.742 67.963L206.259 66.0225L208.563 66.3077L207.783 69.1416L212.92 72.1077L209.71 73.9613Z" fill="#4F79E1"/>
<path d="M78.0793 128.536C77.0058 127.079 75.8659 125.424 74.7494 123.566C73.2035 121.005 71.8099 118.534 70.7129 116.582C68.9133 113.393 68.4566 112.612 68.0779 112.296L66.8364 113.697C67.098 113.978 68.1052 115.77 69.0811 117.504C70.1898 119.467 71.5913 121.954 73.145 124.534C74.6089 126.966 76.1001 129.063 77.4274 130.792L78.0793 128.536Z" fill="#A9BCF4"/>
<path d="M78.061 143C76.908 143 75.9727 142.271 75.9727 141.369V45.3279C75.9727 44.4254 76.908 43.6966 78.061 43.6966C79.214 43.6966 80.1451 44.4254 80.1451 45.3279V141.369C80.1451 142.271 79.214 143 78.061 143Z" fill="#A9BCF4"/>
<path d="M64.0114 93.1004C74.899 104.367 71.3701 118.908 71.3701 118.908C71.3701 118.908 59.405 118.291 51.8512 106.931C44.2974 95.5715 44.2622 86.9598 44.2622 86.9598C44.2622 86.9598 57.2071 86.0541 64.0114 93.1004Z" fill="#C5D2F8"/>
<path d="M70.9684 118.872C70.7811 118.852 70.5195 118.821 70.1994 118.774C69.9652 118.739 69.7075 118.696 69.4187 118.641C66.0419 118.005 58.9409 115.901 53.4093 109.057C52.8706 108.394 52.3514 107.683 51.8478 106.93C51.5394 106.469 51.2466 106.009 50.9616 105.556C45.3012 96.4991 44.4228 89.4215 44.2861 87.4853C44.2783 87.3877 44.2744 87.3018 44.2705 87.2354C47.4169 89.5152 50.7586 91.5218 53.7411 94.0514C64.0236 102.772 67.7751 110.744 69.4342 114.624C69.9768 115.901 70.4414 117.388 70.9684 118.872Z" fill="#819EEF"/>
<path d="M78.0391 113.721C79.0579 112.226 80.1315 110.532 81.1816 108.631C82.626 106.011 83.9221 103.489 84.9488 101.498C86.6235 98.2427 87.0529 97.4463 87.4159 97.1145L88.712 98.4652C88.4622 98.7619 87.5214 100.589 86.6118 102.357C85.5812 104.36 84.2734 106.897 82.8173 109.536C81.447 112.019 80.0378 114.174 78.773 115.954L78.0391 113.721Z" fill="#A9BCF4"/>
<path d="M90.681 77.333C80.2306 89.0013 84.31 103.402 84.31 103.402C84.31 103.402 96.24 102.329 103.36 90.6917C110.477 79.0546 110.184 70.4506 110.184 70.4506C110.184 70.4506 97.2159 70.0329 90.681 77.333Z" fill="#C5D2F8"/>
<path d="M84.7046 103.352C85.173 101.845 85.5829 100.346 86.0787 99.0501C87.5856 95.1073 91.0365 86.9992 100.979 77.8956C103.864 75.2527 107.128 73.1213 110.185 70.7283C110.185 70.8024 110.181 70.9039 110.181 71.025C110.106 73.0979 109.419 80.6087 103.607 90.2822C103.607 90.2861 103.607 90.2861 103.603 90.2901C103.595 90.3096 103.579 90.3291 103.568 90.3486C103.568 90.3525 103.564 90.3564 103.56 90.3603C103.552 90.3759 103.544 90.3915 103.532 90.4071C103.529 90.4149 103.525 90.4228 103.521 90.4306C103.509 90.4462 103.501 90.4618 103.49 90.4774C103.486 90.4852 103.486 90.4892 103.482 90.497C103.47 90.5087 103.462 90.5204 103.454 90.536C103.451 90.5438 103.443 90.5555 103.439 90.5633C103.431 90.575 103.423 90.5867 103.415 90.5984C103.411 90.6101 103.404 90.618 103.4 90.6297C103.384 90.6492 103.372 90.6726 103.361 90.6922C103.345 90.7156 103.333 90.7351 103.322 90.7585C103.314 90.7663 103.306 90.778 103.302 90.7858C103.294 90.7975 103.287 90.8092 103.283 90.821C103.275 90.8327 103.267 90.8444 103.259 90.8561C103.251 90.8639 103.247 90.8756 103.244 90.8834C103.236 90.8951 103.228 90.9068 103.22 90.9186C103.212 90.9303 103.209 90.9381 103.201 90.9459C103.193 90.9576 103.185 90.9732 103.177 90.9849C103.173 90.9927 103.169 91.0005 103.166 91.0083C103.154 91.02 103.146 91.0356 103.138 91.0474C103.134 91.0552 103.13 91.063 103.123 91.0708C103.115 91.0825 103.107 91.0981 103.099 91.1098C103.095 91.1215 103.087 91.1254 103.084 91.1332C103.076 91.1488 103.068 91.1606 103.06 91.1723C103.056 91.1801 103.048 91.1879 103.044 91.1996C103.017 91.2426 102.99 91.2855 102.963 91.3246C102.955 91.3363 102.947 91.348 102.939 91.3558C102.935 91.3675 102.927 91.3753 102.923 91.3831C102.916 91.3948 102.908 91.4104 102.896 91.4222C102.892 91.43 102.888 91.4377 102.884 91.4416C102.877 91.4573 102.865 91.4729 102.857 91.4846C102.853 91.4924 102.849 91.5002 102.845 91.5041C102.834 91.5197 102.822 91.5393 102.81 91.5549C102.81 91.5588 102.806 91.5627 102.806 91.5666C102.791 91.5822 102.779 91.6017 102.767 91.6212C102.767 91.6251 102.763 91.6251 102.763 91.6251C97.4192 99.6513 89.7873 102.255 86.2466 103.063C85.9577 103.126 85.6961 103.18 85.4658 103.223C85.1496 103.286 84.892 103.325 84.7046 103.352Z" fill="#819EEF"/>
<path d="M94.9414 27.4931L87.29 23.1716L87.2783 23.1911L86.9855 23.0115C84.9283 22.0004 82.5274 21.7311 79.9158 22.2776L93.169 29.929L90.1007 31.7013L76.0861 23.6127C75.6138 23.843 75.1337 24.0811 74.6496 24.3583C74.0367 24.7136 73.4277 25.1156 72.8266 25.5334L83.8859 31.9199L80.8176 33.6922L70.2422 27.5867C69.3248 28.3948 68.4348 29.2771 67.5721 30.2218L79.6893 37.2173L76.6171 38.9896L65.546 32.5992C64.773 33.5829 64.0313 34.6135 63.3247 35.6871L75.9807 42.9949L72.9085 44.7672L61.7164 38.3026C61.0918 39.3878 60.5063 40.5004 59.9558 41.6403L72.5728 48.9286L69.5044 50.7009L58.691 44.4549C58.1562 45.7471 57.6604 47.0509 57.231 48.3743L70.5428 56.0569L67.4706 57.8292L56.3527 51.4114C55.9779 52.8792 55.6734 54.3549 55.4431 55.8266L69.5903 63.9933L66.5219 65.7656L55.041 59.137C54.9629 60.1207 54.9199 61.0967 54.9199 62.0609C54.9199 62.8651 54.9668 63.6263 55.0175 64.3837L68.1108 71.9414L65.0424 73.7137L55.5602 68.2406C56.0521 70.5126 56.8093 72.4957 57.8204 74.1079L69.9729 81.123L71.1675 78.5543C72.2995 78.1718 73.4589 77.6643 74.6496 76.9772C85.5489 70.6844 94.3832 53.8083 94.3832 39.2746C94.3832 36.1906 93.981 33.458 93.2471 31.1313L94.9414 27.4931Z" fill="#819EEF"/>
<path d="M83.8907 31.9215L72.8314 25.535C71.9492 26.1518 71.0903 26.8427 70.2471 27.5883L80.8224 33.6938L83.8907 31.9215Z" fill="#4F79E1"/>
<path d="M93.1742 29.9299L79.9209 22.2785C78.6873 22.5361 77.4108 22.9811 76.0913 23.6135L90.1059 31.7021L93.1742 29.9299Z" fill="#4F79E1"/>
<path d="M79.6888 37.2184L67.5715 30.2229C66.8767 30.9802 66.2012 31.7688 65.5454 32.6003L76.6165 38.9907L79.6888 37.2184Z" fill="#4F79E1"/>
<path d="M75.9777 42.9962L63.3217 35.6884C62.7595 36.5355 62.2248 37.4099 61.7134 38.3039L72.9055 44.7686L75.9777 42.9962Z" fill="#4F79E1"/>
<path d="M72.577 48.9288L59.9601 41.6405C59.5112 42.5657 59.0896 43.5026 58.6953 44.4551L69.5087 50.7012L72.577 48.9288Z" fill="#4F79E1"/>
<path d="M70.5451 56.0568L57.2333 48.3742C56.9054 49.3814 56.6204 50.3924 56.355 51.4113L67.4729 57.8291L70.5451 56.0568Z" fill="#4F79E1"/>
<path d="M69.5816 63.9953L55.4343 55.8286C55.2587 56.9373 55.1142 58.042 55.0322 59.139L66.5132 65.7676L69.5816 63.9953Z" fill="#4F79E1"/>
<path d="M68.105 71.944L55.0117 64.3863C55.1093 65.7566 55.2928 67.0409 55.5544 68.2433L65.0366 73.7163L68.105 71.944Z" fill="#4F79E1"/>
<path d="M61.9203 78.1057L61.9163 78.1174L62.0882 78.215L62.096 78.2189L69.396 82.3413L69.966 81.1233L57.8135 74.1082C58.9221 75.8727 60.308 77.2234 61.9203 78.1057Z" fill="#4F79E1"/>
<path d="M101.854 43.4993C101.854 58.0291 93.0201 74.909 82.1208 81.198C71.2254 87.4909 62.3911 80.8115 62.3911 66.2817C62.3911 51.7519 71.2254 34.8719 82.1208 28.5791C93.0201 22.2901 101.854 28.9656 101.854 43.4993Z" fill="#C5D2F8"/>
<path d="M91.4286 29.7223C95.1801 31.6976 97.5263 36.6788 97.4365 43.8851C97.2804 56.6856 89.5001 71.6527 80.053 77.3131C76.8207 79.2533 73.8226 79.8193 71.2656 79.2494C74.1817 80.7836 77.945 80.4986 82.0751 78.0197C91.5223 72.3592 99.3025 57.3922 99.4586 44.5917C99.5601 36.1752 96.3278 30.8153 91.4286 29.7223Z" fill="#4F79E1"/>
<path d="M73.2197 79.4614C73.2158 79.4614 73.2118 79.4614 73.2079 79.4614C72.5872 79.4614 71.9821 79.3989 71.4004 79.2779C71.3926 79.2779 71.3849 79.2741 71.3771 79.2741C71.342 79.2662 71.3068 79.2584 71.2678 79.2506C67.5162 77.2792 65.17 72.2941 65.2598 65.0916C65.416 52.2873 73.1962 37.3202 82.6433 31.6597C85.0871 30.1958 87.3942 29.5127 89.4788 29.5127C90.1542 29.5127 90.8061 29.5868 91.4307 29.7235C95.1081 31.6597 97.4348 36.4887 97.4426 43.4647C97.4426 43.6053 97.4426 43.7458 97.4387 43.8864C97.2825 56.6868 89.5023 71.6539 80.0552 77.3144C79.9966 77.3534 79.9342 77.3885 79.8756 77.4236C79.8483 77.4392 79.8248 77.451 79.8014 77.4666C79.7857 77.4744 79.7741 77.4822 79.7624 77.49C79.6531 77.5525 79.5437 77.611 79.4344 77.6735H79.4305C77.2288 78.8875 75.1441 79.4575 73.243 79.4614C73.2352 79.4614 73.2275 79.4614 73.2197 79.4614Z" fill="#A9BCF4"/>
<path d="M79.0806 67.2876V63.7692L76.9437 66.6756L75.9129 65.5115L79.0806 61.2024V58.6357L76.9688 61.5276L75.9129 60.378L79.0806 56.0689V50.3298L74.2788 53.1021V49.4683L87.6535 41.7464V45.3802L82.8266 48.1671V50.9645L85.1143 47.8268L86.1702 48.9764L82.8266 53.5313V56.098L85.0892 53.0036L86.1451 54.1532L82.8266 58.6648V65.1249L79.0806 67.2876Z" fill="#4F79E1"/>
</g>
<defs>
<clipPath id="clip0_286_8">
<rect width="327" height="160" fill="white"/>
</clipPath>
</defs>
</svg>
