<svg width="327" height="160" viewBox="0 0 327 160" fill="none" xmlns="http://www.w3.org/2000/svg">
<g clip-path="url(#clip0_286_333)">
<rect width="327" height="160" fill="#ECF1FD"/>
<path d="M240.389 160.26C239.381 160.26 238.566 159.442 238.566 158.434V51.1506C238.566 50.1424 239.381 49.3244 240.389 49.3244C241.397 49.3244 242.215 50.1424 242.215 51.1506V158.434C242.215 159.442 241.397 160.26 240.389 160.26Z" fill="#A9BCF4"/>
<path d="M240.387 112.053C239.34 110.634 238.233 109.021 237.141 107.21C235.635 104.714 234.28 102.306 233.208 100.404C231.458 97.2915 231.009 96.5344 230.64 96.2262L229.43 97.5882C229.685 97.866 230.67 99.6122 231.617 101.298C232.698 103.211 234.064 105.639 235.578 108.15C237.008 110.52 238.458 112.567 239.755 114.252L240.387 112.053Z" fill="#A9BCF4"/>
<path d="M226.727 77.0819C237.334 88.0578 233.895 102.233 233.895 102.233C233.895 102.233 222.238 101.632 214.876 90.5612C207.515 79.4901 207.48 71.0974 207.48 71.0974C207.48 71.0974 220.092 70.2147 226.727 77.0819Z" fill="#C5D2F8"/>
<path d="M232.002 101.975C229.711 101.549 225.637 100.419 221.547 97.4929C221.547 97.4891 221.547 97.4891 221.547 97.4891C225.633 100.411 229.704 101.541 232.002 101.975Z" fill="#C5D2F8"/>
<path d="M232.776 102.104C232.552 102.07 232.293 102.028 232.008 101.975C232.293 102.028 232.548 102.07 232.776 102.104Z" fill="#A9BCF4"/>
<path d="M233.518 102.2C233.332 102.181 233.084 102.15 232.772 102.105C232.544 102.07 232.289 102.029 232.004 101.975C229.706 101.542 225.635 100.412 221.549 97.4897C222.051 94.9141 222.318 92.3384 222.318 89.8389C222.318 87.0045 221.975 84.4784 221.336 82.2984C227.941 89.0552 230.684 94.9255 232.019 98.0604C232.552 99.3045 233.004 100.75 233.518 102.2Z" fill="#819EEF"/>
<path d="M240.387 117.805C241.38 116.348 242.43 114.693 243.449 112.844C244.857 110.287 246.124 107.83 247.121 105.89C248.753 102.717 249.175 101.94 249.529 101.617L250.788 102.937C250.545 103.223 249.628 105.003 248.745 106.726C247.737 108.678 246.466 111.155 245.047 113.723C243.708 116.146 242.335 118.243 241.106 119.978L240.387 117.805Z" fill="#A9BCF4"/>
<path d="M252.718 82.3396C242.533 93.7113 246.505 107.746 246.505 107.746C246.505 107.746 258.135 106.704 265.071 95.3624C272.006 84.0212 271.725 75.6323 271.725 75.6323C271.725 75.6323 259.086 75.229 252.718 82.3396Z" fill="#C5D2F8"/>
<path d="M248.398 107.415C251.309 106.753 257.073 104.836 261.935 99.5397V99.5435C257.065 104.851 251.297 106.757 248.398 107.415Z" fill="#C5D2F8"/>
<path d="M248 107.503C248.126 107.476 248.259 107.446 248.399 107.415C248.259 107.45 248.126 107.476 248 107.503Z" fill="#A9BCF4"/>
<path d="M246.879 107.697C247.339 106.232 247.739 104.767 248.218 103.504C249.69 99.6655 253.05 91.7635 262.744 82.8876C264.425 81.3468 266.236 79.9848 268.062 78.6418C264.517 85.06 262.211 92.5244 261.922 99.5399C257.06 104.836 251.296 106.753 248.385 107.415C248.245 107.446 248.112 107.476 247.986 107.503C247.507 107.602 247.134 107.663 246.879 107.697Z" fill="#819EEF"/>
<path d="M257.176 11.3589L249.719 7.14733L249.707 7.17013L249.422 6.99133C246.127 5.37442 241.95 5.68261 237.4 8.30772C226.781 14.4368 218.172 30.8874 218.172 45.0478C218.172 52.904 220.827 58.3939 225.001 60.688L224.997 60.6957L225.164 60.7908L225.172 60.7946L232.287 64.8159L234.006 61.1218C235.109 60.7489 236.239 60.2581 237.4 59.5847C248.022 53.4557 256.631 37.005 256.631 22.8447C256.631 19.8353 256.24 17.176 255.524 14.9047L257.176 11.3589Z" fill="#819EEF"/>
<path d="M257.176 11.3559L249.719 7.1443L249.707 7.16715L249.422 6.9883C247.417 6.00293 245.077 5.74423 242.532 6.27305L255.448 13.7337L252.454 15.4571L238.8 7.57421C238.34 7.79868 237.872 8.03077 237.4 8.30469C236.803 8.6509 236.209 9.03896 235.623 9.44985L246.401 15.674L243.411 17.4012L233.105 11.4472C232.21 12.2385 231.343 13.0984 230.502 14.0152L242.311 20.8329L239.317 22.5601L228.528 16.3322C227.774 17.2909 227.052 18.2953 226.363 19.3415L238.697 26.4636L235.703 28.1908L224.795 21.8905C224.187 22.9482 223.616 24.0363 223.08 25.1472L235.376 32.2464L232.385 33.9736L221.847 27.8902C221.326 29.1457 220.843 30.4164 220.424 31.7062L233.394 39.1972L230.403 40.9245L219.568 34.666C219.203 36.1003 218.906 37.5346 218.682 38.9689L232.469 46.9317L229.479 48.659L218.29 42.199C218.214 43.1539 218.172 44.105 218.172 45.0447C218.172 45.8284 218.218 46.5741 218.267 47.3084L231.027 54.6739L228.037 56.4011L218.796 51.0672C219.275 53.2814 220.013 55.2141 220.999 56.7854L232.842 63.6221L234.006 61.1187C235.109 60.7459 236.239 60.2513 237.4 59.5817C248.022 53.4526 256.631 37.002 256.631 22.8417C256.631 19.8323 256.24 17.173 255.524 14.9017L257.176 11.3559Z" fill="#819EEF"/>
<path d="M246.406 15.6732L235.628 9.44902C234.768 10.0501 233.931 10.7235 233.109 11.4464L243.416 17.4004L246.406 15.6732Z" fill="#4F79E1"/>
<path d="M255.445 13.7331L242.529 6.27248C241.327 6.52357 240.083 6.9573 238.797 7.57363L252.451 15.4565L255.445 13.7331Z" fill="#4F79E1"/>
<path d="M242.319 20.8328L230.51 14.0152C229.832 14.7532 229.174 15.5217 228.535 16.3321L239.325 22.5601L242.319 20.8328Z" fill="#4F79E1"/>
<path d="M238.702 26.4632L226.368 19.3412C225.82 20.1668 225.299 21.019 224.801 21.8902L235.708 28.1904L238.702 26.4632Z" fill="#4F79E1"/>
<path d="M235.373 32.2464L223.076 25.1472C222.639 26.0488 222.228 26.9619 221.844 27.8902L232.382 33.9736L235.373 32.2464Z" fill="#4F79E1"/>
<path d="M233.4 39.1966L220.43 31.7055C220.111 32.6871 219.833 33.6762 219.574 34.6654L230.409 40.9238L233.4 39.1966Z" fill="#4F79E1"/>
<path d="M232.472 46.9309L218.685 38.9682C218.514 40.0486 218.373 41.1291 218.293 42.1982L229.482 48.6582L232.472 46.9309Z" fill="#4F79E1"/>
<path d="M231.03 54.6732L218.27 47.3076C218.365 48.643 218.543 49.8947 218.798 51.0665L228.039 56.4004L231.03 54.6732Z" fill="#4F79E1"/>
<path d="M225.006 60.685L225.002 60.6926L225.17 60.7877L225.177 60.7916L232.292 64.8091L232.847 63.6221L221.004 56.7854C222.084 58.5088 223.435 59.8214 225.006 60.685Z" fill="#4F79E1"/>
<path d="M263.905 26.9541C263.905 41.1144 255.295 57.5651 244.673 63.6979C234.055 69.827 225.445 63.3175 225.445 49.1572C225.445 34.9968 234.055 18.5499 244.673 12.4171C255.295 6.28423 263.905 12.7937 263.905 26.9541Z" fill="#C5D2F8"/>
<path d="M253.76 13.5317C257.416 15.453 259.702 20.3075 259.615 27.3307C259.463 39.8056 251.88 54.392 242.673 59.9085C239.523 61.7994 236.601 62.3511 234.109 61.7956C236.951 63.2908 240.619 63.013 244.644 60.601C253.851 55.0845 261.433 40.498 261.585 28.0192C261.684 19.8167 258.534 14.597 253.76 13.5317Z" fill="#4F79E1"/>
<path d="M236.01 62.001C236.006 62.001 236.002 62.001 235.998 62.001C235.393 62.001 234.804 61.9401 234.237 61.826C234.229 61.8222 234.222 61.8222 234.214 61.8184C234.18 61.8108 234.146 61.8032 234.108 61.7956C230.451 59.8743 228.165 55.0159 228.252 47.9966C228.405 35.5217 235.987 20.9314 245.194 15.4187C247.575 13.9882 249.824 13.3262 251.856 13.3262C252.514 13.3262 253.149 13.3947 253.758 13.5317C257.342 15.4149 259.609 20.1211 259.617 26.9197C259.617 27.0567 259.617 27.1937 259.613 27.3306C259.461 39.8056 251.878 54.392 242.671 59.9085C242.614 59.9465 242.554 59.9808 242.496 60.015C242.47 60.0303 242.447 60.0455 242.424 60.0569C242.409 60.0645 242.398 60.0721 242.386 60.0797C242.28 60.1406 242.173 60.2015 242.067 60.2585L242.063 60.2623C239.917 61.4417 237.885 61.9972 236.033 62.001C236.025 62.001 236.017 62.001 236.01 62.001Z" fill="#A9BCF4"/>
<path d="M284.42 193.823C283.412 193.823 282.594 193.005 282.594 191.997V84.714C282.594 83.7058 283.412 82.8916 284.42 82.8916C285.428 82.8916 286.242 83.7058 286.242 84.714V191.997C286.242 193.005 285.428 193.823 284.42 193.823Z" fill="#A9BCF4"/>
<path d="M284.422 166.244C283.372 164.825 282.265 163.212 281.173 161.401C279.666 158.905 278.312 156.497 277.239 154.595C275.489 151.483 275.04 150.726 274.671 150.418L273.465 151.78C273.716 152.057 274.701 153.804 275.649 155.489C276.729 157.403 278.095 159.83 279.609 162.341C281.04 164.711 282.489 166.758 283.786 168.443L284.422 166.244Z" fill="#A9BCF4"/>
<path d="M270.767 131.273C281.373 142.249 277.938 156.425 277.938 156.425C277.938 156.425 266.277 155.824 258.915 144.753C251.554 133.681 251.52 125.289 251.52 125.289C251.52 125.289 264.135 124.406 270.767 131.273Z" fill="#C5D2F8"/>
<path d="M276.025 156.166C272.791 155.561 265.989 153.56 260.613 147.054C265.978 153.545 272.776 155.553 276.025 156.166Z" fill="#C5D2F8"/>
<path d="M260.613 147.042C260.605 147.031 260.594 147.02 260.586 147.008C260.598 147.02 260.605 147.031 260.613 147.042ZM258.052 143.413C252.456 134.465 251.661 127.563 251.543 125.802C251.676 127.689 252.536 134.587 258.052 143.413Z" fill="#C5D2F8"/>
<path d="M277.55 156.391C277.299 156.364 276.922 156.318 276.447 156.238C276.318 156.216 276.181 156.193 276.036 156.166C272.787 155.554 265.988 153.545 260.624 147.054C260.62 147.051 260.616 147.047 260.613 147.043C260.605 147.032 260.597 147.02 260.586 147.009C260.578 147.001 260.571 146.99 260.563 146.982C260.559 146.978 260.556 146.971 260.552 146.967C259.989 146.278 259.441 145.544 258.916 144.753C258.615 144.3 258.326 143.855 258.052 143.413C252.536 134.587 251.676 127.689 251.543 125.802C251.539 125.707 251.535 125.624 251.531 125.559C254.598 127.781 257.851 129.736 260.761 132.202C270.782 140.701 274.438 148.47 276.051 152.251C276.584 153.495 277.037 154.941 277.55 156.391Z" fill="#819EEF"/>
<path d="M284.422 151.369C285.411 149.912 286.461 148.257 287.481 146.408C288.892 143.855 290.155 141.397 291.156 139.457C292.788 136.28 293.206 135.504 293.56 135.184L294.82 136.501C294.58 136.786 293.659 138.567 292.777 140.29C291.772 142.246 290.498 144.718 289.079 147.286C287.739 149.71 286.37 151.81 285.137 153.545L284.422 151.369Z" fill="#A9BCF4"/>
<path d="M296.745 115.903C286.56 127.279 290.532 141.313 290.532 141.313C290.532 141.313 302.163 140.267 309.098 128.926C316.038 117.585 315.752 109.196 315.752 109.196C315.752 109.196 303.114 108.793 296.745 115.903Z" fill="#C5D2F8"/>
<path d="M292.426 140.982C292.426 140.982 292.426 140.982 292.426 140.979C295.949 140.18 303.634 137.547 308.854 129.325C303.622 137.566 295.93 140.187 292.426 140.982ZM308.987 129.116C308.994 129.101 309.002 129.09 309.01 129.078C309.002 129.09 308.994 129.105 308.987 129.116ZM309.238 128.701C309.242 128.694 309.249 128.682 309.253 128.675C309.249 128.686 309.242 128.694 309.238 128.701ZM309.276 128.637C309.284 128.629 309.287 128.622 309.295 128.61C309.287 128.618 309.284 128.629 309.276 128.637ZM309.31 128.58C309.318 128.568 309.325 128.553 309.337 128.542C309.329 128.553 309.318 128.568 309.31 128.58ZM309.348 128.523C314.933 119.217 315.656 111.973 315.744 109.839C315.671 111.859 315.002 119.107 309.348 128.523Z" fill="#C5D2F8"/>
<path d="M291.668 141.138C291.892 141.096 292.144 141.043 292.421 140.978C292.421 140.982 292.421 140.982 292.421 140.982C292.144 141.043 291.892 141.096 291.668 141.138Z" fill="#A9BCF4"/>
<path d="M290.918 141.264C291.375 139.796 291.774 138.335 292.257 137.072C293.726 133.229 297.085 125.327 306.779 116.455C309.59 113.879 312.767 111.802 315.75 109.466C315.746 109.561 315.746 109.683 315.739 109.839C315.651 111.973 314.928 119.217 309.343 128.523C309.339 128.527 309.336 128.534 309.332 128.542C309.32 128.553 309.313 128.569 309.305 128.58C309.301 128.591 309.294 128.599 309.29 128.61C309.282 128.622 309.278 128.629 309.271 128.637C309.263 128.652 309.256 128.664 309.248 128.675C309.244 128.683 309.237 128.694 309.233 128.702C309.225 128.717 309.218 128.728 309.21 128.74C309.206 128.747 309.202 128.751 309.199 128.759C309.191 128.774 309.18 128.789 309.172 128.801C309.168 128.812 309.164 128.82 309.157 128.827C309.149 128.839 309.141 128.854 309.134 128.865C309.122 128.884 309.111 128.907 309.096 128.926C309.084 128.949 309.069 128.968 309.058 128.991C309.054 128.995 309.05 129.002 309.046 129.006C309.039 129.021 309.027 129.037 309.02 129.052C309.012 129.059 309.008 129.071 309.005 129.078C308.997 129.09 308.989 129.101 308.982 129.116C308.974 129.124 308.97 129.132 308.966 129.139C308.955 129.154 308.947 129.166 308.94 129.181C308.936 129.189 308.928 129.196 308.925 129.204C308.917 129.215 308.909 129.231 308.898 129.242C308.894 129.25 308.89 129.257 308.887 129.265C308.879 129.28 308.868 129.295 308.86 129.31C308.856 129.314 308.852 129.322 308.849 129.326C303.629 137.547 295.944 140.18 292.421 140.979C292.143 141.043 291.892 141.097 291.667 141.139C291.355 141.196 291.101 141.238 290.918 141.264Z" fill="#819EEF"/>
<path d="M300.894 67.3388L293.441 63.1272L293.43 63.1462L293.141 62.9712C289.85 61.3505 285.669 61.6586 281.122 64.2837C270.5 70.4166 261.891 86.8673 261.891 101.028C261.891 108.884 264.55 114.37 268.72 116.664L268.716 116.676L268.887 116.771H268.891L276.009 120.792L277.729 117.102C278.832 116.725 279.962 116.234 281.122 115.565C291.741 109.432 300.354 92.9811 300.354 78.8208C300.354 75.8114 299.962 73.1521 299.247 70.8808L300.894 67.3388Z" fill="#819EEF"/>
<path d="M300.894 67.3349L293.441 63.1233L293.43 63.1423L293.141 62.9673C291.136 61.9781 288.8 61.7194 286.255 62.2521L299.171 69.7089L296.177 71.4361L282.522 63.5532C282.058 63.7739 281.594 64.006 281.122 64.2799C280.521 64.6261 279.932 65.0141 279.346 65.425L290.124 71.6492L287.134 73.3764L276.827 67.4262C275.933 68.2137 275.066 69.0735 274.221 69.9942L286.03 76.8119L283.04 78.5391L272.25 72.3074C271.497 73.2661 270.774 74.2743 270.082 75.3205L282.42 82.4387L279.426 84.166L268.514 77.8695C267.906 78.9234 267.335 80.0114 266.798 81.1224L279.098 88.2254L276.108 89.9488L265.57 83.8654C265.048 85.1209 264.565 86.3916 264.147 87.6851L277.116 95.1724L274.126 96.8997L263.291 90.645C262.922 92.0755 262.629 93.5136 262.4 94.9479L276.192 102.907L273.198 104.634L262.009 98.1742C261.936 99.1329 261.891 100.084 261.891 101.024C261.891 101.807 261.94 102.549 261.99 103.284L274.75 110.653L271.756 112.38L262.518 107.042C262.998 109.26 263.736 111.193 264.721 112.764L276.561 119.601L277.729 117.098C278.832 116.721 279.962 116.23 281.122 115.561C291.741 109.428 300.354 92.9772 300.354 78.8169C300.354 75.8075 299.962 73.1482 299.247 70.8769L300.894 67.3349Z" fill="#819EEF"/>
<path d="M290.129 71.6488L279.351 65.4246C278.491 66.0257 277.654 66.6991 276.832 67.4257L287.138 73.376L290.129 71.6488Z" fill="#4F79E1"/>
<path d="M299.176 69.7088L286.26 62.252C285.057 62.5031 283.809 62.9368 282.527 63.5531L296.182 71.436L299.176 69.7088Z" fill="#4F79E1"/>
<path d="M286.03 76.8123L274.221 69.9946C273.547 70.7289 272.885 71.4974 272.25 72.3078L283.04 78.5396L286.03 76.8123Z" fill="#4F79E1"/>
<path d="M282.421 82.4388L270.083 75.3206C269.539 76.1461 269.018 76.9946 268.516 77.8696L279.427 84.166L282.421 82.4388Z" fill="#4F79E1"/>
<path d="M279.099 88.2253L266.799 81.1223C266.365 82.0239 265.955 82.937 265.57 83.8653L276.109 89.9487L279.099 88.2253Z" fill="#4F79E1"/>
<path d="M277.126 95.1722L264.157 87.6849C263.837 88.6626 263.556 89.6518 263.301 90.6448L274.136 96.8994L277.126 95.1722Z" fill="#4F79E1"/>
<path d="M276.203 102.908L262.411 94.9485C262.24 96.029 262.103 97.1057 262.02 98.1747L273.209 104.635L276.203 102.908Z" fill="#4F79E1"/>
<path d="M274.756 110.653L261.996 103.283C262.091 104.622 262.27 105.874 262.525 107.042L271.762 112.38L274.756 110.653Z" fill="#4F79E1"/>
<path d="M268.725 116.66L268.721 116.668L268.892 116.767H268.896L276.015 120.788L276.566 119.601L264.727 112.764C265.803 114.484 267.158 115.797 268.725 116.66Z" fill="#4F79E1"/>
<path d="M307.639 82.9294C307.639 97.0897 299.03 113.54 288.411 119.673C277.789 125.806 269.18 119.297 269.18 105.136C269.18 90.9759 277.789 74.5252 288.411 68.3924C299.03 62.2633 307.639 68.769 307.639 82.9294Z" fill="#C5D2F8"/>
<path d="M297.471 69.5075C301.127 71.4288 303.413 76.2871 303.33 83.3064C303.177 95.7851 295.591 110.372 286.388 115.888C283.234 117.779 280.312 118.331 277.824 117.775C280.666 119.267 284.334 118.989 288.359 116.577C297.562 111.06 305.148 96.4738 305.3 83.9988C305.399 75.7963 302.249 70.5727 297.471 69.5075Z" fill="#4F79E1"/>
<path d="M279.736 117.98C279.732 117.98 279.728 117.98 279.725 117.98C279.135 117.98 278.564 117.923 278.013 117.813C277.986 117.805 277.956 117.802 277.929 117.794C277.898 117.786 277.864 117.783 277.834 117.775C274.178 115.85 271.891 110.995 271.975 103.972C272.127 91.4974 279.713 76.9109 288.916 71.3944C291.298 69.9677 293.55 69.3019 295.582 69.3019C296.24 69.3019 296.872 69.3704 297.48 69.5074C301.068 71.3944 303.335 76.0967 303.343 82.8992C303.343 83.0323 303.339 83.1693 303.339 83.3062C303.187 95.785 295.601 110.371 286.398 115.888C286.337 115.922 286.28 115.96 286.219 115.995C286.196 116.006 286.173 116.021 286.147 116.036C286.135 116.044 286.124 116.048 286.112 116.055C286.006 116.116 285.899 116.177 285.793 116.238C285.789 116.238 285.789 116.238 285.789 116.238C283.651 117.414 281.627 117.969 279.782 117.98C279.767 117.98 279.751 117.98 279.736 117.98Z" fill="#A9BCF4"/>
<path d="M155.076 167.165C154.068 167.165 153.254 166.347 153.254 165.338V58.0553C153.254 57.0471 154.068 56.2292 155.076 56.2292C156.084 56.2292 156.902 57.0471 156.902 58.0553V165.338C156.902 166.347 156.084 167.165 155.076 167.165Z" fill="#A9BCF4"/>
<path d="M155.074 118.958C154.028 117.539 152.917 115.926 151.829 114.115C150.322 111.619 148.964 109.211 147.895 107.308C146.141 104.2 145.696 103.439 145.327 103.131L144.117 104.497C144.372 104.771 145.354 106.517 146.305 108.206C147.385 110.12 148.751 112.543 150.265 115.058C151.692 117.428 153.145 119.471 154.439 121.157L155.074 118.958Z" fill="#A9BCF4"/>
<path d="M141.423 83.9867C152.03 94.9665 148.59 109.142 148.59 109.142C148.59 109.142 136.93 108.537 129.568 97.4661C122.21 86.395 122.172 78.0061 122.172 78.0061C122.172 78.0061 134.788 77.1196 141.423 83.9867Z" fill="#C5D2F8"/>
<path d="M146.685 108.88C144.532 108.48 140.804 107.457 136.965 104.908C136.965 104.904 136.965 104.904 136.969 104.904C140.8 107.449 144.524 108.473 146.685 108.88Z" fill="#C5D2F8"/>
<path d="M147.041 108.944C146.927 108.925 146.805 108.906 146.68 108.88C146.805 108.903 146.927 108.925 147.041 108.944Z" fill="#A9BCF4"/>
<path d="M148.204 109.104C147.945 109.078 147.549 109.032 147.051 108.945C146.937 108.926 146.815 108.903 146.689 108.88C144.528 108.473 140.804 107.45 136.973 104.904C137.718 101.739 138.125 98.5508 138.125 95.473C138.125 93.9322 138.023 92.4826 137.829 91.132C143.14 97.0671 145.495 102.135 146.705 104.969C147.237 106.209 147.69 107.659 148.204 109.104Z" fill="#819EEF"/>
<path d="M155.074 124.711C156.067 123.254 157.113 121.599 158.137 119.75C159.545 117.197 160.811 114.739 161.808 112.795C163.44 109.622 163.859 108.846 164.216 108.527L165.476 109.843C165.232 110.128 164.315 111.909 163.433 113.632C162.425 115.588 161.15 118.061 159.735 120.629C158.396 123.052 157.022 125.152 155.793 126.883L155.074 124.711Z" fill="#A9BCF4"/>
<path d="M167.394 89.2451C157.213 100.621 161.185 114.655 161.185 114.655C161.185 114.655 172.815 113.609 179.751 102.268C186.686 90.9266 186.405 82.5377 186.405 82.5377C186.405 82.5377 173.766 82.1344 167.394 89.2451Z" fill="#C5D2F8"/>
<path d="M163.078 114.324C163.078 114.32 163.078 114.32 163.078 114.32C165.992 113.658 171.756 111.741 176.615 106.449C171.749 111.756 165.981 113.666 163.078 114.324Z" fill="#C5D2F8"/>
<path d="M162.66 114.412C162.79 114.385 162.927 114.355 163.071 114.32C163.071 114.32 163.071 114.32 163.071 114.324C162.927 114.355 162.79 114.385 162.66 114.412Z" fill="#A9BCF4"/>
<path d="M161.57 114.606C162.031 113.137 162.426 111.673 162.91 110.413C164.382 106.571 167.741 98.6689 177.431 89.7968C179.117 88.256 180.928 86.894 182.754 85.5472C179.208 91.9692 176.902 99.4298 176.61 106.449C171.751 111.741 165.987 113.659 163.073 114.321C162.929 114.355 162.792 114.385 162.662 114.412C162.19 114.511 161.821 114.568 161.57 114.606Z" fill="#819EEF"/>
<path d="M171.867 18.2685L164.41 14.0569L164.399 14.0759L164.11 13.8971C160.819 12.2802 156.641 12.5883 152.091 15.2134C141.473 21.3463 132.863 37.797 132.863 51.9573C132.863 59.8136 135.519 65.2997 139.692 67.5938L139.685 67.6014L139.856 67.7003H139.86L146.978 71.7217L148.698 68.0313C149.801 67.6547 150.931 67.1639 152.091 66.4943C162.713 60.3614 171.323 43.9108 171.323 29.7505C171.323 26.7411 170.931 24.0818 170.216 21.8105L171.867 18.2685Z" fill="#819EEF"/>
<path d="M171.867 18.2641L164.41 14.0525L164.399 14.0715L164.11 13.8927C162.105 12.9073 159.769 12.6486 157.224 13.1812L170.14 20.6381L167.146 22.3653L153.491 14.4824C153.027 14.7031 152.563 14.9351 152.091 15.209C151.49 15.5552 150.9 15.9433 150.314 16.3542L161.093 22.5783L158.102 24.3056L147.796 18.3554C146.902 19.1429 146.034 20.0027 145.194 20.9234L156.999 27.7411L154.009 29.4645L143.219 23.2366C142.466 24.1953 141.743 25.1996 141.054 26.2459L153.389 33.3679L150.394 35.0952L139.483 28.7987C138.878 29.8526 138.304 30.9406 137.767 32.0516L150.067 39.1508L147.077 40.878L136.538 34.7946C136.017 36.0501 135.534 37.3208 135.116 38.6143L148.085 46.1016L145.095 47.8288L134.26 41.5742C133.89 43.0047 133.597 44.4428 133.369 45.8771L147.161 53.8361L144.166 55.5634L132.977 49.1034C132.905 50.0621 132.863 51.0132 132.863 51.9529C132.863 52.7366 132.909 53.4785 132.958 54.2128L145.719 61.5821L142.728 63.3093L133.487 57.9716C133.967 60.1896 134.705 62.1223 135.69 63.6936L147.53 70.5303L148.698 68.0269C149.801 67.6503 150.931 67.1595 152.091 66.4899C162.713 60.357 171.323 43.9064 171.323 29.7461C171.323 26.7367 170.931 24.0774 170.216 21.8061L171.867 18.2641Z" fill="#819EEF"/>
<path d="M161.094 22.5789L150.315 16.3547C149.456 16.9558 148.619 17.6292 147.797 18.3559L158.103 24.3062L161.094 22.5789Z" fill="#4F79E1"/>
<path d="M170.137 20.6385L157.221 13.1817C156.018 13.4328 154.77 13.8627 153.488 14.4828L167.143 22.3657L170.137 20.6385Z" fill="#4F79E1"/>
<path d="M156.991 27.7414L145.185 20.9237C144.508 21.658 143.846 22.4265 143.211 23.2369L154 29.4648L156.991 27.7414Z" fill="#4F79E1"/>
<path d="M153.382 33.3685L141.048 26.2464C140.5 27.0758 139.979 27.9242 139.477 28.7993L150.388 35.0957L153.382 33.3685Z" fill="#4F79E1"/>
<path d="M150.064 39.1512L137.764 32.052C137.33 32.9536 136.919 33.8667 136.535 34.795L147.074 40.8784L150.064 39.1512Z" fill="#4F79E1"/>
<path d="M148.079 46.1024L135.11 38.6151C134.79 39.5929 134.509 40.582 134.254 41.575L145.089 47.8296L148.079 46.1024Z" fill="#4F79E1"/>
<path d="M147.156 53.8367L133.365 45.8777C133.197 46.9582 133.056 48.0349 132.973 49.1039L144.162 55.564L147.156 53.8367Z" fill="#4F79E1"/>
<path d="M145.717 61.5823L132.957 54.213C133.052 55.5522 133.231 56.8039 133.486 57.9718L142.727 63.3096L145.717 61.5823Z" fill="#4F79E1"/>
<path d="M139.694 67.5894L139.686 67.597L139.857 67.6921L139.861 67.6959L146.979 71.7173L147.531 70.5303L135.691 63.6936C136.772 65.4132 138.122 66.7258 139.694 67.5894Z" fill="#4F79E1"/>
<path d="M178.589 33.8591C178.589 48.0194 169.979 64.4701 159.357 70.6029C148.735 76.7358 140.125 70.2263 140.125 56.0659C140.125 41.9056 148.735 25.4549 159.357 19.3221C169.979 13.1892 178.589 19.6987 178.589 33.8591Z" fill="#C5D2F8"/>
<path d="M168.436 20.4371C172.092 22.3584 174.382 27.2167 174.294 34.236C174.142 46.7148 166.56 61.3013 157.353 66.8178C154.203 68.7048 151.277 69.2565 148.789 68.7049C151.631 70.1962 155.299 69.9185 159.324 67.5064C168.527 61.9899 176.113 47.4035 176.265 34.9285C176.364 26.7222 173.214 21.5024 168.436 20.4371Z" fill="#4F79E1"/>
<path d="M150.697 68.9097C150.693 68.9097 150.69 68.9097 150.686 68.9097C150.058 68.9059 149.449 68.8412 148.867 68.7194C148.841 68.7118 148.818 68.7081 148.795 68.7043C145.139 66.7792 142.852 61.9246 142.94 54.9015C143.088 42.4266 150.674 27.8401 159.878 22.3236C162.259 20.8969 164.511 20.2311 166.543 20.2311C167.201 20.2311 167.837 20.2996 168.441 20.4365C172.029 22.3197 174.297 27.0259 174.304 33.8284C174.304 33.9615 174.304 34.0985 174.3 34.2354C174.148 46.7142 166.566 61.3007 157.359 66.8172C157.332 66.8324 157.302 66.8514 157.275 66.8667C154.932 68.2553 152.721 68.9021 150.72 68.9097C150.712 68.9097 150.705 68.9097 150.697 68.9097Z" fill="#A9BCF4"/>
<path d="M114.916 206.362C113.908 206.362 113.09 205.548 113.09 204.54V97.2531C113.09 96.2449 113.908 95.4307 114.916 95.4307C115.924 95.4307 116.738 96.2449 116.738 97.2531V204.54C116.738 205.548 115.924 206.362 114.916 206.362Z" fill="#A9BCF4"/>
<path d="M101.247 143.812C111.858 154.792 108.419 168.964 108.419 168.964C108.419 168.964 96.7577 168.363 89.396 157.292C82.0343 146.221 82 137.828 82 137.828C82 137.828 94.6158 136.945 101.247 143.812Z" fill="#C5D2F8"/>
<path d="M106.52 168.706C103.245 168.094 96.3204 166.054 90.918 159.366C96.3089 166.035 103.229 168.086 106.52 168.706Z" fill="#C5D2F8"/>
<path d="M88.5292 155.953C82.9328 147.009 82.1376 140.104 82.0234 138.342C82.1566 140.229 83.0126 147.127 88.5292 155.953Z" fill="#C5D2F8"/>
<path d="M108.027 168.93C107.844 168.911 107.589 168.88 107.277 168.835C107.049 168.8 106.798 168.758 106.516 168.705C103.226 168.085 96.3052 166.034 90.9142 159.365C90.3892 158.718 89.8832 158.026 89.3924 157.292C89.0918 156.843 88.8065 156.394 88.5288 155.953C83.0123 147.126 82.1562 140.229 82.023 138.342C82.0154 138.246 82.0116 138.163 82.0078 138.098C85.0742 140.32 88.3309 142.275 91.2375 144.741C101.259 153.24 104.915 161.009 106.532 164.79C107.06 166.034 107.513 167.484 108.027 168.93Z" fill="#819EEF"/>
<path d="M114.918 163.908C115.911 162.451 116.957 160.8 117.981 158.947C119.388 156.394 120.651 153.936 121.652 151.996C123.284 148.823 123.703 148.047 124.056 147.723L125.32 149.04C125.076 149.329 124.159 151.109 123.273 152.833C122.268 154.785 120.994 157.258 119.575 159.829C118.239 162.249 116.866 164.349 115.633 166.084L114.918 163.908Z" fill="#A9BCF4"/>
<path d="M127.239 128.447C117.054 139.818 121.03 153.853 121.03 153.853C121.03 153.853 132.656 152.807 139.596 141.466C146.531 130.124 146.246 121.739 146.246 121.739C146.246 121.739 133.608 121.332 127.239 128.447Z" fill="#C5D2F8"/>
<path d="M122.906 153.522C126.357 152.735 133.795 150.197 139.003 142.375C133.783 150.216 126.338 152.743 122.906 153.522ZM139.315 141.896C139.319 141.888 139.327 141.884 139.33 141.873C139.327 141.881 139.319 141.888 139.315 141.896ZM139.471 141.652C139.475 141.645 139.479 141.633 139.486 141.626C139.482 141.633 139.475 141.645 139.471 141.652ZM139.787 141.131C139.798 141.112 139.813 141.093 139.821 141.074C139.81 141.093 139.798 141.112 139.787 141.131ZM139.825 141.067C145.49 131.639 146.159 124.319 146.232 122.299C146.171 124.197 145.562 131.513 139.825 141.067Z" fill="#C5D2F8"/>
<path d="M122.148 153.678C122.373 153.636 122.628 153.583 122.909 153.522C122.628 153.586 122.373 153.636 122.148 153.678Z" fill="#A9BCF4"/>
<path d="M121.414 153.803C121.871 152.335 122.27 150.874 122.753 149.611C124.222 145.768 127.585 137.866 137.275 128.994C140.087 126.418 143.267 124.341 146.246 122.009C146.246 122.081 146.242 122.18 146.242 122.298C146.17 124.318 145.5 131.638 139.835 141.066C139.835 141.07 139.835 141.07 139.832 141.073C139.824 141.092 139.809 141.111 139.797 141.13C139.797 141.134 139.794 141.138 139.79 141.142C139.782 141.157 139.775 141.172 139.763 141.187C139.759 141.195 139.756 141.203 139.752 141.21C139.74 141.226 139.733 141.241 139.721 141.256C139.718 141.264 139.718 141.267 139.714 141.275C139.702 141.286 139.695 141.298 139.687 141.313C139.683 141.321 139.676 141.332 139.672 141.34C139.664 141.351 139.657 141.362 139.649 141.374C139.645 141.385 139.638 141.393 139.634 141.404C139.619 141.423 139.607 141.446 139.596 141.465C139.581 141.488 139.569 141.507 139.558 141.53C139.55 141.538 139.543 141.549 139.539 141.557C139.531 141.568 139.524 141.579 139.52 141.591C139.512 141.602 139.504 141.614 139.497 141.625C139.489 141.633 139.485 141.644 139.482 141.652C139.474 141.663 139.466 141.674 139.459 141.686C139.451 141.697 139.447 141.705 139.44 141.713C139.432 141.724 139.425 141.739 139.417 141.751C139.413 141.758 139.409 141.766 139.406 141.773C139.394 141.785 139.387 141.8 139.379 141.811C139.375 141.819 139.371 141.827 139.364 141.834C139.356 141.846 139.349 141.861 139.341 141.872C139.337 141.884 139.329 141.888 139.326 141.895C139.318 141.91 139.31 141.922 139.303 141.933C139.299 141.941 139.291 141.948 139.288 141.96C139.261 142.002 139.234 142.044 139.208 142.082C139.2 142.093 139.192 142.104 139.185 142.112C139.181 142.123 139.173 142.131 139.17 142.139C139.162 142.15 139.154 142.165 139.143 142.177C139.139 142.184 139.135 142.192 139.132 142.196C139.124 142.211 139.113 142.226 139.105 142.238C139.101 142.245 139.097 142.253 139.094 142.257C139.082 142.272 139.071 142.291 139.059 142.306C139.059 142.31 139.056 142.314 139.056 142.317C139.04 142.333 139.029 142.352 139.017 142.371C139.017 142.374 139.014 142.374 139.014 142.374C133.805 150.197 126.368 152.734 122.917 153.522C122.635 153.583 122.38 153.636 122.156 153.678C121.848 153.739 121.597 153.777 121.414 153.803Z" fill="#819EEF"/>
<path d="M131.39 79.8788L123.934 75.6672L123.922 75.6901L123.637 75.5112C120.342 73.8905 116.165 74.1987 111.615 76.8238C100.996 82.9566 92.3867 99.4073 92.3867 113.568C92.3867 121.424 95.0422 126.91 99.2158 129.204L99.212 129.216L99.3794 129.311L99.3871 129.314L106.501 133.332L108.221 129.642C109.324 129.269 110.454 128.774 111.615 128.105C122.237 121.972 130.846 105.525 130.846 91.3646C130.846 88.3552 130.455 85.6921 129.739 83.4246L131.39 79.8788Z" fill="#819EEF"/>
<path d="M131.39 79.8744L123.934 75.6628L123.922 75.6818L123.637 75.5068C121.632 74.5214 119.292 74.259 116.747 74.7916L129.663 82.2484L126.673 83.9756L113.015 76.0927C112.554 76.3172 112.086 76.5493 111.615 76.8194C111.017 77.1656 110.424 77.5575 109.838 77.9645L120.616 84.1887L117.626 85.916L107.319 79.9657C106.425 80.7532 105.558 81.6131 104.717 82.5337L116.526 89.3514L113.532 91.0786L102.743 84.8507C101.989 85.8094 101.266 86.8138 100.578 87.86L112.912 94.9821L109.918 96.7093L99.0104 90.409C98.4017 91.4667 97.831 92.551 97.2946 93.6619L109.591 100.765L106.6 102.492L96.0619 96.4049C95.5407 97.6642 95.0575 98.9349 94.639 100.225L107.612 107.712L104.618 109.439L93.783 103.185C93.4178 104.615 93.121 106.053 92.8966 107.487L106.684 115.446L103.694 117.174L92.5047 110.714C92.4286 111.672 92.3867 112.624 92.3867 113.563C92.3867 114.347 92.4324 115.089 92.4818 115.827L105.242 123.192L102.252 124.92L93.0107 119.586C93.4901 121.8 94.2281 123.733 95.2134 125.304L107.057 132.141L108.221 129.637C109.324 129.264 110.454 128.77 111.615 128.1C122.237 121.967 130.846 105.521 130.846 91.3564C130.846 88.3508 130.455 85.6877 129.739 83.4202L131.39 79.8744Z" fill="#819EEF"/>
<path d="M120.621 84.1888L109.843 77.9646C108.983 78.5657 108.146 79.2391 107.324 79.9658L117.631 85.916L120.621 84.1888Z" fill="#4F79E1"/>
<path d="M129.668 82.2489L116.752 74.7921C115.55 75.0431 114.305 75.4768 113.02 76.0932L126.678 83.9761L129.668 82.2489Z" fill="#4F79E1"/>
<path d="M116.526 89.3514L104.717 82.5337C104.04 83.2718 103.381 84.0403 102.742 84.8506L113.532 91.0786L116.526 89.3514Z" fill="#4F79E1"/>
<path d="M112.909 94.9822L100.575 87.8602C100.027 88.6858 99.5062 89.538 99.0078 90.4092L109.915 96.7095L112.909 94.9822Z" fill="#4F79E1"/>
<path d="M109.595 100.765L97.2991 93.662C96.8615 94.5636 96.4507 95.4767 96.0664 96.405L106.605 102.492L109.595 100.765Z" fill="#4F79E1"/>
<path d="M107.614 107.712L94.6412 100.224C94.3216 101.206 94.0439 102.191 93.7852 103.184L104.62 109.439L107.614 107.712Z" fill="#4F79E1"/>
<path d="M106.675 115.447L92.888 107.488C92.7168 108.568 92.576 109.645 92.4961 110.714L103.685 117.174L106.675 115.447Z" fill="#4F79E1"/>
<path d="M105.237 123.193L92.4766 115.827C92.5717 117.163 92.7505 118.414 93.0054 119.586L102.246 124.92L105.237 123.193Z" fill="#4F79E1"/>
<path d="M99.2094 129.2L99.2056 129.211L99.373 129.306L99.3806 129.31L106.495 133.328L107.05 132.141L95.207 125.304C96.2875 127.024 97.6381 128.34 99.2094 129.2Z" fill="#4F79E1"/>
<path d="M138.128 95.4723C138.128 109.633 129.518 126.083 118.896 132.212C108.278 138.345 99.668 131.836 99.668 117.675C99.668 103.515 108.278 87.0643 118.896 80.9314C129.518 74.8024 138.128 81.3081 138.128 95.4723Z" fill="#C5D2F8"/>
<path d="M127.967 82.0467C131.623 83.9718 133.909 88.8264 133.822 95.8495C133.67 108.324 126.087 122.911 116.88 128.427C113.73 130.318 110.808 130.87 108.316 130.314C111.158 131.81 114.826 131.532 118.851 129.116C128.058 123.599 135.64 109.013 135.792 96.5381C135.891 88.3356 132.741 83.112 127.967 82.0467Z" fill="#4F79E1"/>
<path d="M110.221 130.521C110.217 130.521 110.213 130.521 110.209 130.521C109.604 130.521 109.015 130.46 108.448 130.342C108.44 130.342 108.433 130.338 108.425 130.338C108.391 130.33 108.357 130.323 108.319 130.315C104.662 128.394 102.376 123.535 102.463 116.516C102.616 104.037 110.198 89.4509 119.405 83.9344C121.786 82.5077 124.035 81.8419 126.066 81.8419C126.725 81.8419 127.36 81.9142 127.969 82.0474C131.553 83.9344 133.82 88.6405 133.828 95.4392C133.828 95.5761 133.828 95.7131 133.824 95.8501C133.672 108.325 126.089 122.912 116.882 128.428C116.825 128.466 116.765 128.5 116.707 128.535C116.681 128.55 116.658 128.561 116.635 128.576C116.62 128.584 116.609 128.592 116.597 128.599C116.491 128.66 116.384 128.717 116.278 128.778H116.274C114.128 129.961 112.096 130.517 110.244 130.521C110.236 130.521 110.228 130.521 110.221 130.521Z" fill="#A9BCF4"/>
<path d="M110.244 130.521C112.097 130.517 114.129 129.961 116.274 128.778C114.125 129.961 112.097 130.517 110.244 130.521Z" fill="#4F79E1"/>
<path d="M199.108 200.729C198.099 200.729 197.285 199.914 197.285 198.906V91.6193C197.285 90.6111 198.099 89.7969 199.108 89.7969C200.116 89.7969 200.934 90.6111 200.934 91.6193V198.906C200.934 199.914 200.116 200.729 199.108 200.729Z" fill="#A9BCF4"/>
<path d="M199.102 173.15C198.055 171.731 196.944 170.117 195.856 168.307C194.35 165.811 192.995 163.402 191.922 161.5C190.169 158.392 189.723 157.631 189.354 157.323L188.145 158.689C188.399 158.963 189.385 160.709 190.332 162.398C191.413 164.312 192.778 166.735 194.293 169.25C195.723 171.62 197.173 173.663 198.47 175.349L199.102 173.15Z" fill="#A9BCF4"/>
<path d="M185.442 138.179C196.049 149.158 192.61 163.334 192.61 163.334C192.61 163.334 180.949 162.729 173.591 151.658C166.23 140.587 166.195 132.194 166.195 132.194C166.195 132.194 178.807 131.312 185.442 138.179Z" fill="#C5D2F8"/>
<path d="M190.716 163.071C187.444 162.459 180.519 160.416 175.113 153.731C180.508 160.401 187.428 162.451 190.716 163.071Z" fill="#C5D2F8"/>
<path d="M172.717 150.299C167.216 141.492 166.36 134.667 166.23 132.787C166.379 134.777 167.288 141.598 172.717 150.299Z" fill="#C5D2F8"/>
<path d="M192.23 163.296C191.979 163.273 191.61 163.227 191.138 163.148C191.005 163.125 190.864 163.102 190.716 163.071C187.429 162.451 180.508 160.401 175.113 153.731C174.592 153.085 174.082 152.396 173.595 151.658C173.291 151.201 172.998 150.749 172.717 150.3C167.288 141.599 166.378 134.777 166.23 132.788C166.219 132.654 166.215 132.548 166.211 132.464C169.277 134.686 172.53 136.642 175.441 139.107C185.458 147.606 189.118 155.375 190.731 159.16C191.264 160.401 191.716 161.85 192.23 163.296Z" fill="#819EEF"/>
<path d="M199.102 158.274C200.095 156.816 201.145 155.165 202.164 153.312C203.576 150.76 204.839 148.302 205.836 146.362C207.468 143.189 207.886 142.413 208.244 142.089L209.503 143.406C209.26 143.695 208.343 145.475 207.46 147.199C206.452 149.15 205.181 151.623 203.762 154.195C202.423 156.615 201.053 158.715 199.821 160.45L199.102 158.274Z" fill="#A9BCF4"/>
<path d="M211.429 122.812C201.244 134.184 205.216 148.219 205.216 148.219C205.216 148.219 216.846 147.176 223.782 135.831C230.717 124.49 230.436 116.105 230.436 116.105C230.436 116.105 217.797 115.698 211.429 122.812Z" fill="#C5D2F8"/>
<path d="M207.102 147.888C210.373 147.142 217.237 144.817 222.38 137.905C217.225 144.836 210.354 147.15 207.102 147.888ZM222.399 137.874C222.407 137.867 222.411 137.863 222.415 137.851C222.411 137.859 222.407 137.867 222.399 137.874ZM224.56 134.511C229.658 125.643 230.336 118.791 230.419 116.736C230.351 118.684 229.727 125.532 224.56 134.511Z" fill="#C5D2F8"/>
<path d="M205.598 148.169C206.058 146.7 206.454 145.239 206.937 143.976C208.409 140.134 211.769 132.232 221.462 123.36C224.274 120.784 227.451 118.707 230.43 116.375C230.43 116.462 230.43 116.584 230.422 116.736C230.338 118.791 229.661 125.642 224.563 134.511C224.312 134.948 224.053 135.386 223.779 135.831C223.342 136.546 222.889 137.22 222.417 137.851C222.414 137.863 222.41 137.866 222.402 137.874C222.394 137.885 222.387 137.893 222.383 137.904C217.239 144.817 210.376 147.142 207.104 147.887C206.826 147.948 206.575 148.002 206.355 148.043C206.039 148.104 205.784 148.142 205.598 148.169Z" fill="#819EEF"/>
<path d="M215.586 74.244L208.129 70.0325L208.121 70.0553L207.832 69.8765C204.541 68.2558 200.36 68.5639 195.814 71.1928C185.192 77.3219 176.582 93.7726 176.582 107.933C176.582 115.789 179.238 121.275 183.411 123.569L183.407 123.581L183.578 123.676L183.582 123.68L190.701 127.697L192.416 124.007C193.524 123.634 194.653 123.139 195.814 122.47C206.432 116.341 215.042 99.8902 215.042 85.7299C215.042 82.7205 214.65 80.0573 213.938 77.7898L215.586 74.244Z" fill="#819EEF"/>
<path d="M215.586 74.2401L208.129 70.0286L208.121 70.0514L207.832 69.8726C205.827 68.8872 203.491 68.6247 200.942 69.1573L213.859 76.6141L210.868 78.3414L197.214 70.4585C196.75 70.6829 196.286 70.915 195.814 71.1851C195.213 71.5313 194.623 71.9232 194.037 72.3341L204.815 78.5544L201.825 80.2817L191.518 74.3314C190.624 75.119 189.753 75.9826 188.912 76.8995L200.722 83.7172L197.731 85.4444L186.942 79.2164C186.188 80.1751 185.466 81.1795 184.773 82.2258L197.107 89.3478L194.117 91.075L183.206 84.7748C182.597 85.8325 182.026 86.9167 181.49 88.0276L193.79 95.1307L190.796 96.8579L180.257 90.7745C179.74 92.03 179.257 93.3007 178.838 94.5904L191.808 102.078L188.817 103.805L177.982 97.5503C177.613 98.9808 177.316 100.419 177.092 101.853L190.879 109.812L187.889 111.543L176.7 105.079C176.628 106.038 176.582 106.989 176.582 107.929C176.582 108.713 176.628 109.455 176.681 110.193L189.441 117.558L186.447 119.285L177.206 113.951C177.689 116.166 178.423 118.098 179.409 119.67L191.252 126.506L192.416 124.003C193.524 123.63 194.653 123.136 195.814 122.466C206.432 116.333 215.042 99.8863 215.042 85.7221C215.042 82.7166 214.65 80.0534 213.938 77.7859L215.586 74.2401Z" fill="#819EEF"/>
<path d="M204.816 78.5545L194.038 72.3341C193.178 72.9314 192.341 73.6086 191.52 74.3315L201.826 80.2817L204.816 78.5545Z" fill="#4F79E1"/>
<path d="M213.86 76.6145L200.943 69.1577C199.745 69.4088 198.497 69.8426 197.215 70.4589L210.869 78.3418L213.86 76.6145Z" fill="#4F79E1"/>
<path d="M200.717 83.7171L188.908 76.8994C188.235 77.6375 187.573 78.406 186.938 79.2163L197.727 85.4443L200.717 83.7171Z" fill="#4F79E1"/>
<path d="M197.105 89.3479L184.771 82.2259C184.227 83.0515 183.705 83.9037 183.203 84.775L194.114 91.0752L197.105 89.3479Z" fill="#4F79E1"/>
<path d="M193.783 95.1302L181.483 88.0271C181.049 88.9288 180.638 89.8457 180.25 90.774L190.789 96.8574L193.783 95.1302Z" fill="#4F79E1"/>
<path d="M191.806 102.077L178.836 94.5902C178.517 95.5718 178.235 96.5571 177.98 97.5501L188.816 103.805L191.806 102.077Z" fill="#4F79E1"/>
<path d="M190.875 109.812L177.087 101.853C176.916 102.934 176.779 104.011 176.695 105.08L187.884 111.543L190.875 109.812Z" fill="#4F79E1"/>
<path d="M189.432 117.558L176.672 110.192C176.767 111.528 176.946 112.779 177.197 113.951L186.438 119.285L189.432 117.558Z" fill="#4F79E1"/>
<path d="M183.409 123.565L183.405 123.577L183.576 123.672L183.58 123.676L190.698 127.693L191.25 126.506L179.406 119.67C180.487 121.389 181.841 122.706 183.409 123.565Z" fill="#4F79E1"/>
<path d="M222.315 89.8384C222.315 103.999 213.705 120.449 203.087 126.579C192.465 132.711 183.855 126.202 183.855 112.042C183.855 97.8812 192.465 81.4305 203.087 75.3015C213.705 69.1686 222.315 75.6781 222.315 89.8384Z" fill="#C5D2F8"/>
<path d="M212.158 76.4127C215.814 78.3377 218.101 83.1923 218.017 90.2154C217.865 102.69 210.279 117.277 201.076 122.793C197.922 124.684 195 125.236 192.512 124.68C195.354 126.176 199.021 125.898 203.046 123.486C212.25 117.969 219.836 103.379 219.988 90.904C220.087 82.7015 216.937 77.4779 212.158 76.4127Z" fill="#4F79E1"/>
<path d="M194.408 124.885C194.408 124.885 194.404 124.885 194.4 124.885C193.807 124.885 193.232 124.828 192.681 124.718C192.654 124.71 192.631 124.706 192.605 124.699C192.574 124.695 192.54 124.687 192.51 124.68C188.853 122.759 186.567 117.9 186.651 110.881C186.803 98.4022 194.389 83.8157 203.592 78.2992C205.974 76.8725 208.226 76.2067 210.258 76.2067C210.912 76.2067 211.547 76.2789 212.156 76.4121C215.74 78.2991 218.011 83.0053 218.015 89.804C218.015 89.9409 218.015 90.0779 218.015 90.2148C217.863 102.69 210.277 117.276 201.073 122.793C201.028 122.819 200.982 122.85 200.937 122.876C198.623 124.235 196.436 124.874 194.458 124.885C194.442 124.885 194.427 124.885 194.408 124.885Z" fill="#A9BCF4"/>
<path d="M115.934 118.657V115.228L113.851 118.061L112.846 116.926L115.934 112.727V110.225L113.876 113.044L112.846 111.923L115.934 107.724V102.131L111.254 104.832V101.291L124.289 93.7655V97.3069L119.584 100.023V102.749L121.814 99.6913L122.843 100.812L119.584 105.251V107.752L121.789 104.736L122.818 105.857L119.584 110.254V116.55L115.934 118.657Z" fill="#4F79E1"/>
<path d="M200.191 112.806V109.377L198.109 112.21L197.104 111.075L200.191 106.876V104.374L198.133 107.193L197.104 106.072L200.191 101.873V96.2795L195.512 98.9814V95.4399L208.546 87.9144V91.4558L203.842 94.1718V96.8982L206.072 93.8402L207.101 94.9606L203.842 99.3996V101.901L206.047 98.8854L207.076 100.006L203.842 104.403V110.698L200.191 112.806Z" fill="#4F79E1"/>
<path d="M155.723 57.8067V54.3777L153.64 57.2102L152.636 56.0757L155.723 51.8762V49.3747L153.665 52.1931L152.636 51.0727L155.723 46.8732V41.28L151.043 43.9819V40.4404L164.078 32.9149V36.4563L159.373 39.1723V41.8986L161.603 38.8407L162.632 39.961L159.373 44.4001V46.9016L161.578 43.8859L162.607 45.0063L159.373 49.4031V55.699L155.723 57.8067Z" fill="#4F79E1"/>
<path d="M239.977 51.9556V48.5266L237.894 51.3592L236.889 50.2246L239.977 46.0251V43.5236L237.918 46.3421L236.889 45.2217L239.977 41.0221V35.4289L235.297 38.1308V34.5894L248.331 27.0638V30.6053L243.627 33.3212V36.0476L245.857 32.9896L246.886 34.11L243.627 38.5491V41.0505L245.832 38.0348L246.861 39.1552L243.627 43.552V49.8479L239.977 51.9556Z" fill="#4F79E1"/>
<path d="M284.445 106.955V103.526L282.363 106.359L281.358 105.224L284.445 101.025V98.5231L282.387 101.342L281.358 100.221L284.445 96.0217V90.4285L279.766 93.1303V89.5889L292.8 82.0633V85.6048L288.096 88.3207V91.0471L290.326 87.9891L291.355 89.1095L288.096 93.5486V96.05L290.301 93.0343L291.33 94.1547L288.096 98.5515V104.847L284.445 106.955Z" fill="#4F79E1"/>
</g>
<defs>
<clipPath id="clip0_286_333">
<rect width="327" height="160" fill="white"/>
</clipPath>
</defs>
</svg>
