<svg width="24" height="24" viewBox="0 0 24 24" fill="none" xmlns="http://www.w3.org/2000/svg">
<path fill-rule="evenodd" clip-rule="evenodd" d="M12.0009 8.92896C9.10345 8.92896 6.75391 11.2788 6.75391 14.179C6.75391 16.5785 7.5063 18.7991 8.78612 20.6256C9.02382 20.9648 8.94152 21.4325 8.6023 21.6702C8.26308 21.9079 7.79539 21.8256 7.55769 21.4863C6.10751 19.4168 5.25391 16.8974 5.25391 14.179C5.25391 10.4511 8.27437 7.42896 12.0009 7.42896C15.7274 7.42896 18.7479 10.4511 18.7479 14.179C18.7479 14.5932 18.4121 14.929 17.9979 14.929C17.5837 14.929 17.2479 14.5932 17.2479 14.179C17.2479 11.2788 14.8984 8.92896 12.0009 8.92896Z" fill="#051C2C"/>
<path fill-rule="evenodd" clip-rule="evenodd" d="M12.0039 13.429C12.4181 13.429 12.7539 13.7647 12.7539 14.179C12.7539 17.0791 15.1034 19.429 18.0009 19.429C18.0532 19.429 18.0939 19.4262 18.1547 19.4221C18.1889 19.4198 18.2296 19.417 18.2823 19.4141C18.6959 19.3911 19.0498 19.7078 19.0728 20.1214C19.0957 20.5349 18.7791 20.8888 18.3655 20.9118C18.3496 20.9127 18.3292 20.914 18.3055 20.9156C18.2248 20.921 18.1062 20.929 18.0009 20.929C14.2744 20.929 11.2539 17.9068 11.2539 14.179C11.2539 13.7647 11.5897 13.429 12.0039 13.429Z" fill="#051C2C"/>
<path fill-rule="evenodd" clip-rule="evenodd" d="M2.25781 14.179C2.25781 8.79401 6.62133 4.42896 12.0038 4.42896C17.3863 4.42896 21.7498 8.79401 21.7498 14.179C21.7498 16.25 20.0712 17.929 18.0008 17.929C15.9304 17.929 14.2518 16.25 14.2518 14.179C14.2518 12.936 13.2444 11.929 12.0028 11.929C10.7612 11.929 9.75381 12.936 9.75381 14.179C9.75381 17.1342 11.3079 19.7267 13.6457 21.1846C13.9972 21.4037 14.1044 21.8664 13.8852 22.2178C13.666 22.5693 13.2034 22.6765 12.8519 22.4573C10.0937 20.7372 8.25381 17.6737 8.25381 14.179C8.25381 12.1079 9.93244 10.429 12.0028 10.429C14.0732 10.429 15.7518 12.1079 15.7518 14.179C15.7518 15.4219 16.7592 16.429 18.0008 16.429C19.2424 16.429 20.2498 15.4219 20.2498 14.179C20.2498 9.6219 16.5573 5.92896 12.0038 5.92896C7.4503 5.92896 3.75781 9.6219 3.75781 14.179C3.75781 15.2308 3.8755 16.2559 4.09241 17.2453C4.18112 17.65 3.92503 18.0499 3.52042 18.1386C3.11582 18.2273 2.71591 17.9712 2.62721 17.5666C2.38812 16.476 2.25781 15.3431 2.25781 14.179Z" fill="#051C2C"/>
<path fill-rule="evenodd" clip-rule="evenodd" d="M3.06597 5.47738C5.24646 3.00048 8.4382 1.42896 12.0019 1.42896C15.5656 1.42896 18.7574 3.00048 20.9379 5.47738C21.2116 5.78829 21.1814 6.2622 20.8705 6.5359C20.5596 6.8096 20.0857 6.77944 19.812 6.46853C17.9025 4.29943 15.1142 2.92896 12.0019 2.92896C8.88963 2.92896 6.10138 4.29943 4.19186 6.46853C3.91816 6.77944 3.44425 6.8096 3.13334 6.5359C2.82244 6.2622 2.79227 5.78829 3.06597 5.47738Z" fill="#051C2C"/>
</svg>
