<svg width="24" height="24" viewBox="0 0 24 24" fill="none" xmlns="http://www.w3.org/2000/svg">
<path fill-rule="evenodd" clip-rule="evenodd" d="M7.5 8.32996C7.91421 8.32996 8.25 8.66574 8.25 9.07996V10.58C8.25 10.9942 7.91421 11.33 7.5 11.33C7.08579 11.33 6.75 10.9942 6.75 10.58V9.07996C6.75 8.66574 7.08579 8.32996 7.5 8.32996Z" fill="#051C2C"/>
<path fill-rule="evenodd" clip-rule="evenodd" d="M16.5 8.32996C16.9142 8.32996 17.25 8.66574 17.25 9.07996V10.58C17.25 10.9942 16.9142 11.33 16.5 11.33C16.0858 11.33 15.75 10.9942 15.75 10.58V9.07996C15.75 8.66574 16.0858 8.32996 16.5 8.32996Z" fill="#051C2C"/>
<path fill-rule="evenodd" clip-rule="evenodd" d="M12.5 8.34705C12.9142 8.34705 13.25 8.68283 13.25 9.09705V12.597C13.25 13.5633 12.4662 14.347 11.5 14.347H11C10.5858 14.347 10.25 14.0113 10.25 13.597C10.25 13.1828 10.5858 12.847 11 12.847H11.5C11.6378 12.847 11.75 12.7348 11.75 12.597V9.09705C11.75 8.68283 12.0858 8.34705 12.5 8.34705Z" fill="#051C2C"/>
<path fill-rule="evenodd" clip-rule="evenodd" d="M8.22748 15.6267C8.52038 15.3338 8.99525 15.3338 9.28814 15.6267C10.7852 17.1238 13.2134 17.1238 14.7105 15.6267C15.0034 15.3338 15.4782 15.3338 15.7711 15.6267C16.064 15.9195 16.064 16.3944 15.7711 16.6873C13.6882 18.7702 10.3104 18.7702 8.22748 16.6873C7.93459 16.3944 7.93459 15.9195 8.22748 15.6267Z" fill="#051C2C"/>
<path fill-rule="evenodd" clip-rule="evenodd" d="M2.25 5C2.25 3.48079 3.48079 2.25 5 2.25H7.588C8.00221 2.25 8.338 2.58579 8.338 3C8.338 3.41421 8.00221 3.75 7.588 3.75H5C4.30921 3.75 3.75 4.30921 3.75 5V7.588C3.75 8.00221 3.41421 8.338 3 8.338C2.58579 8.338 2.25 8.00221 2.25 7.588V5Z" fill="#051C2C"/>
<path fill-rule="evenodd" clip-rule="evenodd" d="M20.9982 15.662C21.4124 15.662 21.7482 15.9978 21.7482 16.412V19C21.7482 20.5192 20.5174 21.75 18.9982 21.75H16.4102C15.9959 21.75 15.6602 21.4142 15.6602 21C15.6602 20.5858 15.9959 20.25 16.4102 20.25H18.9982C19.6889 20.25 20.2482 19.6908 20.2482 19V16.412C20.2482 15.9978 20.5839 15.662 20.9982 15.662Z" fill="#051C2C"/>
<path fill-rule="evenodd" clip-rule="evenodd" d="M3 15.662C3.41421 15.662 3.75 15.9978 3.75 16.412V19C3.75 19.6908 4.30921 20.25 5 20.25H7.588C8.00221 20.25 8.338 20.5858 8.338 21C8.338 21.4142 8.00221 21.75 7.588 21.75H5C3.48079 21.75 2.25 20.5192 2.25 19V16.412C2.25 15.9978 2.58579 15.662 3 15.662Z" fill="#051C2C"/>
<path fill-rule="evenodd" clip-rule="evenodd" d="M15.6602 3C15.6602 2.58579 15.9959 2.25 16.4102 2.25H18.9982C20.5174 2.25 21.7482 3.48079 21.7482 5V7.588C21.7482 8.00221 21.4124 8.338 20.9982 8.338C20.5839 8.338 20.2482 8.00221 20.2482 7.588V5C20.2482 4.30921 19.6889 3.75 18.9982 3.75H16.4102C15.9959 3.75 15.6602 3.41421 15.6602 3Z" fill="#051C2C"/>
</svg>
