<?xml version="1.0" encoding="iso-8859-1"?>
<!-- Generator: Adobe Illustrator 16.0.0, SVG Export Plug-In . SVG Version: 6.00 Build 0)  -->
<!DOCTYPE svg PUBLIC "-//W3C//DTD SVG 1.1//EN" "http://www.w3.org/Graphics/SVG/1.1/DTD/svg11.dtd">
<svg version="1.1" id="Capa_1" xmlns="http://www.w3.org/2000/svg" xmlns:xlink="http://www.w3.org/1999/xlink" x="0px" y="0px"
	 width="45.836px" height="45.836px" viewBox="0 0 45.836 45.836" style="enable-background:new 0 0 45.836 45.836;"
	 xml:space="preserve">
<g>
	<g>
		<path d="M43.782,17.795h-0.113L38.994,6.935C38.67,6.18,37.93,5.695,37.109,5.695H8.727c-0.82,0-1.56,0.485-1.883,1.239
			L2.165,17.795H2.051C0.917,17.795,0,18.712,0,19.846v3.398v8.996c0,1.133,0.917,2.051,2.051,2.051h0.771v3.797
			c0,1.134,0.916,2.053,2.051,2.053h4.93c1.132,0,2.051-0.919,2.051-2.053v-3.797H33.98v3.797c0,1.134,0.918,2.053,2.051,2.053h4.93
			c1.137,0,2.053-0.919,2.053-2.053v-3.797h0.771c1.134,0,2.052-0.918,2.052-2.051v-8.996v-3.398
			C45.834,18.712,44.916,17.795,43.782,17.795z M10.075,9.795h25.684l3.445,8H6.631L10.075,9.795z M8.879,30.049
			c-2.213,0-4.009-1.795-4.009-4.006c0-2.213,1.796-4.008,4.009-4.008c2.214,0,4.008,1.795,4.008,4.008
			C12.887,28.254,11.093,30.049,8.879,30.049z M36.91,30.049c-2.213,0-4.01-1.795-4.01-4.006c0-2.213,1.797-4.008,4.01-4.008
			c2.214,0,4.008,1.795,4.008,4.008C40.918,28.254,39.124,30.049,36.91,30.049z"/>
	</g>
</g>
<g>
</g>
<g>
</g>
<g>
</g>
<g>
</g>
<g>
</g>
<g>
</g>
<g>
</g>
<g>
</g>
<g>
</g>
<g>
</g>
<g>
</g>
<g>
</g>
<g>
</g>
<g>
</g>
<g>
</g>
</svg>
