<svg width="12" height="12" viewBox="0 0 12 12" fill="none" xmlns="http://www.w3.org/2000/svg">
<path fill-rule="evenodd" clip-rule="evenodd" d="M5.85938 2.99219C6.06648 2.99219 6.23438 3.16008 6.23438 3.36719V6.31823L8.51248 7.67713C8.69035 7.78323 8.74853 8.01343 8.64243 8.19129C8.53633 8.36916 8.30613 8.42734 8.12827 8.32124L5.66727 6.85324C5.55385 6.78559 5.48438 6.66325 5.48438 6.53119V3.36719C5.48438 3.16008 5.65227 2.99219 5.85938 2.99219Z" fill="#898989"/>
<path fill-rule="evenodd" clip-rule="evenodd" d="M8.9168 3.08318C7.3059 1.47227 4.6941 1.47227 3.08319 3.08319L3.08318 3.08319C1.47227 4.69409 1.47227 7.30589 3.08319 8.91681C4.69409 10.5277 7.30589 10.5277 8.91681 8.9168C10.5277 7.30596 10.5277 4.69429 8.91698 3.08336C8.91692 3.0833 8.91686 3.08324 8.9168 3.08318ZM9.44714 2.55286C11.3509 4.45666 11.3509 7.54334 9.44713 9.44714C7.54333 11.3509 4.45665 11.3509 2.55286 9.44713C0.649049 7.54333 0.649048 4.45665 2.55286 2.55285C4.45666 0.649049 7.54334 0.649048 9.44714 2.55286Z" fill="#898989"/>
</svg>
