<svg width="24" height="25" viewBox="0 0 24 25" fill="none" xmlns="http://www.w3.org/2000/svg">
<path d="M17.0325 12.967C17.0505 12.985 17.0505 13.014 17.0325 13.032C17.0145 13.05 16.9855 13.05 16.9675 13.032C16.9495 13.014 16.9495 12.985 16.9675 12.967C16.9855 12.949 17.0155 12.95 17.0325 12.967" stroke="#898989" stroke-width="1.5" stroke-linecap="round" stroke-linejoin="round"/>
<path d="M14.662 7.978C14.873 7.527 15 7.03 15 6.5C15 4.567 13.433 3 11.5 3C9.567 3 8 4.567 8 6.5C8 7.123 8.176 7.7 8.462 8.206" stroke="#898989" stroke-width="1.5" stroke-linecap="round" stroke-linejoin="round"/>
<path d="M2.288 11C1.819 11.273 1.5 11.776 1.5 12.358C1.5 13.229 2.206 13.935 3.077 13.935H4" stroke="#898989" stroke-width="1.5" stroke-linecap="round" stroke-linejoin="round"/>
<path fill-rule="evenodd" clip-rule="evenodd" d="M18.5 7V9.554C19.218 10.202 19.788 11.01 20.126 11.935H21C21.552 11.935 22 12.383 22 12.935V16C22 16.552 21.552 17 21 17H19.689C19.164 17.908 18.406 18.664 17.5 19.191V21C17.5 21.552 17.052 22 16.5 22H14.5C13.948 22 13.5 21.552 13.5 21V20H10V20.868C10 21.42 9.552 21.868 9 21.868H7C6.448 21.868 6 21.42 6 20.868V18.463C4.775 17.364 4 15.775 4 14C4 10.686 6.686 8 10 8H14.526C14.955 8 15.371 7.859 15.713 7.601C16.212 7.225 16.828 7 17.5 7H18.5V7Z" stroke="#898989" stroke-width="1.5" stroke-linecap="round" stroke-linejoin="round"/>
</svg>
