<svg width="129" height="158" viewBox="0 0 129 158" fill="none" xmlns="http://www.w3.org/2000/svg">
<circle cx="64.5" cy="94" r="64" fill="#ECF1FD"/>
<path d="M67.0237 127.667C65.7372 125.922 64.3712 123.938 63.0332 121.712C61.1807 118.643 59.5107 115.682 58.1962 113.343C56.0396 109.521 55.4923 108.585 55.0385 108.206L53.5508 109.885C53.8642 110.222 55.0712 112.37 56.2407 114.447C57.5692 116.8 59.2487 119.78 61.1106 122.872C62.8649 125.786 64.6519 128.298 66.2425 130.371L67.0237 127.667Z" fill="#A9BCF4"/>
<path d="M67.0025 145C65.6209 145 64.5 144.127 64.5 143.045V27.9549C64.5 26.8734 65.6209 26 67.0025 26C68.3842 26 69.5 26.8734 69.5 27.9549V143.045C69.5 144.127 68.3842 145 67.0025 145Z" fill="#A9BCF4"/>
<path d="M50.1664 85.2029C63.2136 98.7038 58.9846 116.13 58.9846 116.13C58.9846 116.13 44.6463 115.391 35.5943 101.777C26.5422 88.1642 26.5 77.8443 26.5 77.8443C26.5 77.8443 42.0125 76.759 50.1664 85.2029Z" fill="#C5D2F8"/>
<path d="M58.5032 116.086C58.2786 116.063 57.9652 116.025 57.5816 115.969C57.3009 115.927 56.9922 115.876 56.646 115.81C52.5995 115.048 44.09 112.526 37.4612 104.325C36.8156 103.53 36.1934 102.679 35.59 101.776C35.2204 101.224 34.8695 100.672 34.528 100.129C27.7448 89.2761 26.6922 80.7947 26.5285 78.4744C26.5191 78.3575 26.5144 78.2545 26.5098 78.175C30.2803 80.907 34.2847 83.3116 37.8588 86.343C50.1808 96.7938 54.6764 106.346 56.6646 110.996C57.3149 112.526 57.8716 114.308 58.5032 116.086Z" fill="#819EEF"/>
<path d="M66.9766 109.914C68.1975 108.122 69.484 106.092 70.7424 103.813C72.4733 100.674 74.0265 97.6523 75.2568 95.2665C77.2637 91.365 77.7782 90.4106 78.2133 90.013L79.7665 91.6316C79.4671 91.9871 78.3397 94.1765 77.2497 96.2956C76.0147 98.6955 74.4474 101.736 72.7025 104.899C71.0605 107.874 69.3718 110.456 67.8561 112.589L66.9766 109.914Z" fill="#A9BCF4"/>
<path d="M82.1251 66.3082C69.6019 80.2909 74.4905 97.5483 74.4905 97.5483C74.4905 97.5483 88.7867 96.2619 97.3195 82.3166C105.848 68.3712 105.497 58.0607 105.497 58.0607C105.497 58.0607 89.9562 57.5602 82.1251 66.3082Z" fill="#C5D2F8"/>
<path d="M74.9648 97.4883C75.5262 95.6825 76.0174 93.8862 76.6115 92.333C78.4173 87.6082 82.5527 77.8919 94.4677 66.9826C97.9248 63.8155 101.836 61.2613 105.499 58.3937C105.499 58.4825 105.494 58.6042 105.494 58.7492C105.405 61.2332 104.582 70.2338 97.616 81.8261C97.616 81.8308 97.616 81.8308 97.6114 81.8355C97.602 81.8589 97.5834 81.8823 97.5693 81.9057C97.5693 81.9103 97.5646 81.915 97.56 81.9196C97.5506 81.9384 97.5412 81.9571 97.5272 81.9758C97.5225 81.9851 97.5178 81.9945 97.5131 82.0039C97.4991 82.0226 97.4898 82.0413 97.4758 82.06C97.4711 82.0694 97.4711 82.0741 97.4664 82.0834C97.4524 82.0975 97.443 82.1115 97.4336 82.1302C97.429 82.1395 97.4196 82.1536 97.4149 82.1629C97.4056 82.1769 97.3962 82.191 97.3868 82.205C97.3821 82.219 97.3729 82.2284 97.3682 82.2425C97.3495 82.2658 97.3354 82.2939 97.3214 82.3173C97.3027 82.3454 97.2886 82.3687 97.2745 82.3968C97.2652 82.4062 97.2559 82.4202 97.2512 82.4296C97.2419 82.4436 97.2325 82.4576 97.2278 82.4717C97.2185 82.4857 97.2091 82.4997 97.1997 82.5138C97.1904 82.5231 97.1857 82.5372 97.181 82.5465C97.1717 82.5606 97.1623 82.5746 97.1529 82.5886C97.1436 82.6027 97.139 82.612 97.1296 82.6214C97.1203 82.6354 97.1109 82.6541 97.1015 82.6682C97.0968 82.6775 97.0921 82.6869 97.0875 82.6962C97.0734 82.7103 97.064 82.729 97.0547 82.743C97.05 82.7523 97.0453 82.7617 97.036 82.7711C97.0266 82.7851 97.0173 82.8038 97.008 82.8179C97.0033 82.8319 96.9939 82.8365 96.9892 82.8459C96.9799 82.8646 96.9705 82.8787 96.9612 82.8927C96.9565 82.9021 96.9471 82.9114 96.9424 82.9254C96.9097 82.9769 96.8769 83.0284 96.8442 83.0752C96.8348 83.0892 96.8255 83.1032 96.8161 83.1126C96.8114 83.1266 96.8021 83.1359 96.7974 83.1453C96.788 83.1593 96.7787 83.1781 96.7647 83.1921C96.76 83.2015 96.7553 83.2108 96.7507 83.2155C96.7413 83.2342 96.7272 83.2529 96.7179 83.2669C96.7132 83.2763 96.7085 83.2857 96.7038 83.2903C96.6898 83.3091 96.6758 83.3324 96.6618 83.3512C96.6618 83.3558 96.6571 83.3605 96.6571 83.3652C96.6384 83.3839 96.6243 83.4073 96.6103 83.4306C96.6103 83.4353 96.6056 83.4353 96.6056 83.4353C90.2013 93.0535 81.0557 96.1737 76.8127 97.1421C76.4665 97.217 76.1531 97.2825 75.877 97.3339C75.4981 97.4088 75.1894 97.4555 74.9648 97.4883Z" fill="#819EEF"/>
<path d="M87.2311 6.58234L78.0621 1.40368L78.0481 1.42709L77.6972 1.21186C75.2319 0.000236511 72.3548 -0.322495 69.2252 0.332436L85.1072 9.50145L81.4303 11.6253L64.636 1.9323C64.0699 2.20831 63.4946 2.49368 62.9145 2.82583C62.18 3.25153 61.4503 3.73338 60.7299 4.23393L73.9828 11.8873L70.3059 14.0111L57.6329 6.6946C56.5336 7.66297 55.467 8.72021 54.4332 9.85231L68.9538 18.2354L65.2722 20.3592L52.0052 12.7012C51.0789 13.8801 50.1901 15.1151 49.3434 16.4016L64.5097 25.1589L60.8281 27.2828L47.4161 19.5359C46.6676 20.8364 45.9659 22.1697 45.3063 23.5357L60.4257 32.2696L56.7488 34.3935L43.7906 26.9085C43.1497 28.457 42.5556 30.0195 42.041 31.6053L57.9931 40.8118L54.3116 42.9356L40.9884 35.2448C40.5393 37.0038 40.1744 38.7721 39.8984 40.5358L56.8517 50.3223L53.1747 52.4461L39.4165 44.5028C39.323 45.6816 39.2715 46.8512 39.2715 48.0066C39.2715 48.9703 39.3276 49.8826 39.3884 50.7901L55.0787 59.8469L51.4017 61.9707L40.0388 55.4121C40.6282 58.1347 41.5356 60.5111 42.7473 62.4432L57.3102 70.8497L58.7417 67.7715C60.0983 67.313 61.4877 66.7049 62.9145 65.8816C75.9757 58.3405 86.5622 38.1172 86.5622 20.7007C86.5622 17.0051 86.0802 13.7304 85.2008 10.9423L87.2311 6.58234Z" fill="#819EEF"/>
<path d="M73.9885 11.8897L60.7356 4.23637C59.6784 4.9755 58.6491 5.80352 57.6387 6.69704L70.3116 14.0135L73.9885 11.8897Z" fill="#4F79E1"/>
<path d="M85.1138 9.50266L69.2318 0.333648C67.7535 0.642401 66.2238 1.17566 64.6426 1.93351L81.4369 11.6265L85.1138 9.50266Z" fill="#4F79E1"/>
<path d="M68.9545 18.2371L54.4339 9.85408C53.6012 10.7616 52.7918 11.7066 52.0059 12.703L65.2729 20.361L68.9545 18.2371Z" fill="#4F79E1"/>
<path d="M64.5057 25.1609L49.3394 16.4036C48.6658 17.4187 48.0249 18.4666 47.4121 19.5379L60.8241 27.2848L64.5057 25.1609Z" fill="#4F79E1"/>
<path d="M60.432 32.2697L45.3126 23.5358C44.7746 24.6445 44.2694 25.7672 43.7969 26.9086L56.7551 34.3936L60.432 32.2697Z" fill="#4F79E1"/>
<path d="M57.9969 40.8121L42.0448 31.6057C41.6518 32.8127 41.3103 34.0242 40.9922 35.2452L54.3153 42.936L57.9969 40.8121Z" fill="#4F79E1"/>
<path d="M56.8414 50.3249L39.8881 40.5383C39.6776 41.8669 39.5045 43.1908 39.4062 44.5053L53.1644 52.4487L56.8414 50.3249Z" fill="#4F79E1"/>
<path d="M55.0731 59.8496L39.3828 50.7928C39.4998 52.4348 39.7197 53.9739 40.0331 55.4148L51.3961 61.9734L55.0731 59.8496Z" fill="#4F79E1"/>
<path d="M47.6596 67.2341L47.6549 67.2481L47.8609 67.3651L47.8702 67.3697L56.6182 72.3098L57.3012 70.8503L42.7383 62.4437C44.0669 64.5582 45.7276 66.1768 47.6596 67.2341Z" fill="#4F79E1"/>
<path d="M95.5152 25.7629C95.5152 43.1747 84.9288 63.4027 71.8676 70.939C58.8111 78.4801 48.2246 70.4759 48.2246 53.0641C48.2246 35.6524 58.8111 15.4243 71.8676 7.88329C84.9288 0.346916 95.5152 8.34646 95.5152 25.7629Z" fill="#C5D2F8"/>
<path d="M83.0216 9.25344C87.5172 11.6205 90.3288 17.5898 90.2212 26.2255C90.0341 41.5649 80.7107 59.5006 69.3897 66.2838C65.5163 68.6088 61.9235 69.2871 58.8594 68.6041C62.3539 70.4426 66.8635 70.1011 71.8129 67.1305C83.1339 60.3473 92.4573 42.4116 92.6444 27.0722C92.766 16.9863 88.8926 10.5633 83.0216 9.25344Z" fill="#4F79E1"/>
<path d="M61.1998 68.8588C61.1952 68.8588 61.1905 68.8588 61.1858 68.8588C60.442 68.8588 59.7168 68.7839 59.0198 68.6389C59.0104 68.6389 59.0012 68.6342 58.9918 68.6342C58.9497 68.6249 58.9076 68.6155 58.8608 68.6062C54.3652 66.2437 51.5536 60.2698 51.6612 51.6388C51.8483 36.2947 61.1717 18.359 72.4927 11.5757C75.4211 9.82147 78.1859 9.00281 80.684 9.00281C81.4933 9.00281 82.2745 9.09171 83.023 9.25544C87.4298 11.5758 90.2179 17.3625 90.2273 25.7222C90.2273 25.8906 90.2273 26.0591 90.2226 26.2275C90.0355 41.5669 80.7121 59.5026 69.3911 66.2858C69.321 66.3326 69.2461 66.3747 69.176 66.4168C69.1432 66.4355 69.1151 66.4496 69.087 66.4683C69.0683 66.4777 69.0543 66.487 69.0403 66.4963C68.9093 66.5712 68.7783 66.6413 68.6473 66.7162H68.6426C66.0042 68.1711 63.506 68.8541 61.2278 68.8588C61.2185 68.8588 61.2092 68.8588 61.1998 68.8588Z" fill="#A9BCF4"/>
<path d="M68.225 54.2703V50.054L65.6642 53.5369L64.429 52.1419L68.225 46.9781V43.9022L65.6943 47.3678L64.429 45.9902L68.225 40.8264V33.9489L62.4707 37.2711V32.9165L78.4982 23.663V28.0176L72.7139 31.3572V34.7095L75.4554 30.9494L76.7208 32.327L72.7139 37.7854V40.8613L75.4253 37.1531L76.6906 38.5307L72.7139 43.9371V51.6786L68.225 54.2703Z" fill="#4F79E1"/>
</svg>
