<svg width="129" height="154" viewBox="0 0 129 154" fill="none" xmlns="http://www.w3.org/2000/svg">
<circle cx="64.5" cy="89.999" r="64" fill="#ECF1FD"/>
<path d="M55.9176 140.496C55.9176 142.935 59.1495 144.91 63.1366 144.91C67.1236 144.91 70.3555 142.935 70.3555 140.496C70.3555 138.058 67.1236 136.081 63.1366 136.081C59.1495 136.081 55.9176 138.058 55.9176 140.496Z" fill="#4F79E1"/>
<path d="M54.0708 125.492C54.0708 128.554 58.1298 131.037 63.137 131.037C68.1441 131.037 72.2031 128.554 72.2031 125.492C72.2031 122.429 68.1441 119.947 63.137 119.947C58.1298 119.947 54.0708 122.429 54.0708 125.492Z" fill="#4F79E1"/>
<path d="M72.1426 126.111L70.3536 140.498H55.9157L54.0685 125.494L72.1426 126.111Z" fill="#4F79E1"/>
<path d="M81.1731 125.433C81.1731 127.871 84.4049 129.849 88.392 129.849C92.3775 129.849 95.6094 127.871 95.6094 125.433C95.6094 122.995 92.3775 121.018 88.392 121.018C84.4049 121.018 81.1731 122.995 81.1731 125.433Z" fill="#4F79E1"/>
<path d="M79.3301 110.428C79.3301 113.49 83.3892 115.973 88.3963 115.973C93.4034 115.973 97.4609 113.49 97.4609 110.428C97.4609 107.367 93.4034 104.884 88.3963 104.884C83.3892 104.884 79.3301 107.367 79.3301 110.428Z" fill="#4F79E1"/>
<path d="M97.4004 111.046L95.6113 125.432H81.175L79.3278 110.428L97.4004 111.046Z" fill="#4F79E1"/>
<path d="M28.154 123.723C28.154 126.162 31.3859 128.137 35.3729 128.137C39.3599 128.137 42.5918 126.162 42.5918 123.723C42.5918 121.285 39.3599 119.308 35.3729 119.308C31.3859 119.308 28.154 121.285 28.154 123.723Z" fill="#4F79E1"/>
<path d="M26.3111 103.176C26.3111 106.238 30.3701 108.721 35.3772 108.721C40.3844 108.721 44.4434 106.238 44.4434 103.176C44.4434 100.112 40.3844 97.6312 35.3772 97.6312C30.3701 97.6312 26.3111 100.112 26.3111 103.176Z" fill="#4F79E1"/>
<path d="M44.3867 109.338L42.5977 123.725H28.1599L25.0627 98.562L44.3867 109.338Z" fill="#4F79E1"/>
<path d="M26.5518 64.6677C15.8223 83.9644 24.2313 109.862 45.332 122.512C66.4312 135.163 92.2343 129.776 102.962 110.479C113.692 91.1823 105.283 65.2848 84.1822 52.635C63.0814 39.9837 37.2799 45.371 26.5518 64.6677Z" fill="#A9BCF4"/>
<path d="M23.7046 71.286C25.1352 85.0157 33.4249 98.5163 46.9146 106.604C68.0153 119.254 93.8169 113.867 104.545 94.5702C105.732 92.4373 106.671 90.22 107.398 87.9518C108.206 95.6994 106.838 103.519 102.967 110.479C92.2392 129.776 66.4361 135.163 45.3369 122.512C26.5689 111.26 17.8551 89.5313 23.7046 71.286Z" fill="#A9BCF4"/>
<path d="M45.2571 122.467L45.2541 122.466C45.2449 122.459 45.2357 122.453 45.2265 122.448C45.2357 122.455 45.2479 122.461 45.2571 122.467ZM45.1958 122.431C45.1943 122.429 45.1927 122.427 45.1897 122.426C45.1836 122.423 45.179 122.419 45.1729 122.416C45.1805 122.421 45.1882 122.426 45.1958 122.431ZM45.1392 122.396C45.1361 122.394 45.1331 122.392 45.13 122.391C45.1269 122.388 45.1238 122.386 45.1192 122.384C45.1254 122.388 45.1331 122.392 45.1392 122.396ZM45.0794 122.359C45.0779 122.357 45.0733 122.356 45.0702 122.354C45.0687 122.353 45.0671 122.353 45.0656 122.351C45.0702 122.354 45.0764 122.357 45.0794 122.359ZM45.0473 122.34L45.0442 122.338C45.0427 122.337 45.0381 122.334 45.035 122.332C45.0396 122.335 45.0427 122.337 45.0473 122.34ZM44.9937 122.307C44.9906 122.305 44.9906 122.305 44.9875 122.303C44.9829 122.3 44.9753 122.295 44.9707 122.292C44.9784 122.297 44.986 122.302 44.9937 122.307ZM44.9416 122.275C44.9385 122.273 44.9355 122.272 44.9324 122.27C44.9263 122.265 44.9186 122.262 44.9124 122.257C44.9216 122.264 44.9309 122.268 44.9416 122.275ZM44.8864 122.241C44.8772 122.235 44.8681 122.23 44.8589 122.225C44.8681 122.23 44.8772 122.237 44.8864 122.241ZM44.8282 122.206C44.8206 122.2 44.8114 122.195 44.8022 122.189C44.8098 122.195 44.8206 122.202 44.8282 122.206ZM44.7731 122.171C44.7639 122.167 44.7547 122.16 44.7455 122.155C44.7547 122.16 44.7624 122.165 44.7731 122.171ZM44.675 122.111C44.672 122.109 44.6705 122.108 44.6674 122.106C44.6705 122.108 44.6735 122.111 44.675 122.111ZM44.6291 122.082C44.6276 122.082 44.6276 122.081 44.6261 122.081C44.623 122.079 44.623 122.079 44.6214 122.078C44.6184 122.076 44.6168 122.074 44.6122 122.073C44.6184 122.076 44.623 122.079 44.6291 122.082ZM44.5755 122.049C44.574 122.049 44.5724 122.047 44.5709 122.046C44.5693 122.046 44.5678 122.044 44.5663 122.044C44.5648 122.043 44.5602 122.039 44.5571 122.038C44.5648 122.043 44.5694 122.046 44.5755 122.049ZM44.5219 122.015C44.5173 122.012 44.5096 122.008 44.505 122.004C44.5112 122.009 44.5158 122.012 44.5219 122.015ZM44.3167 121.887C44.3151 121.885 44.3151 121.885 44.3136 121.885C44.3151 121.885 44.3151 121.887 44.3167 121.887ZM44.2645 121.853C44.263 121.853 44.2646 121.853 44.263 121.853H44.2645ZM102.996 110.422C102.998 110.419 103.001 110.416 103.002 110.411C103.001 110.412 103.001 110.414 103.001 110.415C102.999 110.417 102.998 110.42 102.996 110.422ZM103.028 110.365C103.03 110.363 103.03 110.36 103.031 110.358C103.031 110.36 103.03 110.361 103.028 110.363V110.365ZM103.061 110.306C103.064 110.301 103.065 110.296 103.068 110.291C103.067 110.296 103.064 110.299 103.062 110.303C103.062 110.304 103.061 110.304 103.061 110.306ZM103.093 110.247C103.094 110.244 103.096 110.241 103.097 110.237C103.096 110.241 103.094 110.242 103.094 110.245L103.093 110.247Z" fill="#819EEF"/>
<path d="M45.2666 122.471C45.2636 122.469 45.2606 122.466 45.2575 122.466L45.2605 122.468C45.2636 122.469 45.2636 122.469 45.2666 122.471ZM45.2115 122.437C45.2054 122.434 45.1993 122.431 45.1931 122.426C45.1962 122.428 45.1977 122.429 45.1993 122.431C45.2039 122.433 45.2069 122.436 45.2115 122.437ZM45.1579 122.406C45.1487 122.401 45.1426 122.396 45.1334 122.391C45.1365 122.393 45.1396 122.394 45.1426 122.396C45.1472 122.399 45.1518 122.402 45.1579 122.406ZM45.1013 122.371C45.0921 122.366 45.0829 122.359 45.0737 122.355C45.0768 122.356 45.0814 122.358 45.0829 122.359C45.0905 122.364 45.0952 122.367 45.1013 122.371ZM45.0477 122.339C45.0369 122.332 45.0278 122.326 45.0155 122.318C45.0232 122.323 45.0323 122.329 45.0385 122.332C45.0415 122.334 45.0461 122.337 45.0477 122.339ZM44.991 122.304C44.9818 122.299 44.9711 122.291 44.9619 122.286C44.9665 122.288 44.9695 122.291 44.9741 122.293C44.9787 122.296 44.9864 122.301 44.991 122.304ZM44.9358 122.27C44.9267 122.264 44.9174 122.259 44.9082 122.253C44.9113 122.256 44.9128 122.256 44.9159 122.258C44.922 122.262 44.9297 122.266 44.9358 122.27ZM44.8899 122.242C44.8776 122.235 44.8654 122.227 44.8531 122.219C44.8577 122.221 44.8593 122.223 44.8623 122.226C44.8715 122.231 44.8807 122.235 44.8899 122.242ZM44.8393 122.21C44.8255 122.204 44.8103 122.194 44.798 122.186C44.8011 122.186 44.8026 122.189 44.8056 122.189C44.8148 122.196 44.824 122.2 44.8317 122.207C44.8347 122.208 44.8362 122.21 44.8393 122.21ZM44.7857 122.178C44.7704 122.169 44.7566 122.159 44.7413 122.151C44.7429 122.151 44.7474 122.154 44.7489 122.156C44.7581 122.161 44.7674 122.167 44.7765 122.172C44.7796 122.173 44.7827 122.175 44.7857 122.178ZM44.6785 122.111C44.6632 122.102 44.6448 122.091 44.6295 122.081C44.631 122.081 44.631 122.083 44.6326 122.083C44.6464 122.091 44.6586 122.099 44.6709 122.106C44.6739 122.108 44.6754 122.11 44.6785 122.111ZM44.6249 122.078C44.608 122.068 44.5912 122.057 44.5743 122.046C44.5758 122.048 44.5774 122.049 44.5789 122.049C44.5912 122.057 44.6049 122.065 44.6157 122.073C44.6203 122.075 44.6218 122.076 44.6249 122.078ZM44.5698 122.044C44.4993 122 44.4288 121.955 44.3568 121.911C44.4074 121.941 44.4595 121.974 44.5085 122.005C44.5131 122.008 44.5207 122.013 44.5253 122.016C44.5376 122.024 44.5498 122.032 44.5606 122.038C44.5636 122.04 44.5682 122.043 44.5698 122.044ZM44.3538 121.908C44.3369 121.897 44.32 121.887 44.3032 121.876C44.3078 121.879 44.3109 121.882 44.317 121.885C44.3186 121.885 44.3186 121.885 44.3201 121.887C44.3308 121.893 44.343 121.901 44.3538 121.908ZM44.3002 121.874C44.2834 121.865 44.268 121.854 44.2511 121.844C44.2557 121.847 44.2619 121.85 44.2665 121.854C44.268 121.854 44.2664 121.854 44.268 121.854C44.2802 121.862 44.2895 121.868 44.3002 121.874ZM44.1393 121.773C44.121 121.761 44.1056 121.75 44.0888 121.739C44.1041 121.75 44.1225 121.761 44.1393 121.773ZM44.0873 121.739C44.0704 121.728 44.0536 121.718 44.0367 121.707C44.0536 121.717 44.0704 121.728 44.0873 121.739ZM41.9352 120.282C41.9199 120.271 41.9016 120.258 41.8878 120.249C41.9031 120.26 41.9183 120.271 41.9352 120.282ZM41.8831 120.246C41.8694 120.234 41.851 120.222 41.8356 120.212C41.8525 120.223 41.8678 120.234 41.8831 120.246ZM41.8326 120.209C41.7989 120.185 41.7652 120.161 41.733 120.137C41.7667 120.161 41.7989 120.185 41.8326 120.209ZM41.223 119.764C41.2076 119.752 41.1924 119.741 41.177 119.73C41.1924 119.741 41.2092 119.754 41.223 119.764ZM41.1709 119.725C41.1571 119.716 41.1433 119.705 41.1296 119.695C41.1433 119.705 41.1571 119.714 41.1709 119.725ZM41.0714 119.651C41.0576 119.64 41.0407 119.628 41.0254 119.617C41.0422 119.628 41.056 119.64 41.0714 119.651ZM41.0223 119.614C41.0055 119.601 40.9917 119.59 40.9748 119.577C40.9901 119.59 41.007 119.603 41.0223 119.614ZM40.9228 119.539C40.8217 119.465 40.7237 119.388 40.6241 119.314C40.7237 119.388 40.8232 119.465 40.9228 119.539ZM40.6225 119.312C40.6072 119.299 40.5919 119.288 40.5766 119.277C40.5919 119.288 40.6072 119.301 40.6225 119.312ZM40.5689 119.271C40.5551 119.261 40.5429 119.25 40.5291 119.24C40.5429 119.25 40.5551 119.259 40.5689 119.271ZM40.5169 119.231C40.5046 119.221 40.4923 119.212 40.4801 119.202C40.4923 119.212 40.5046 119.22 40.5169 119.231ZM40.4694 119.193C40.4556 119.183 40.4449 119.175 40.4327 119.166C40.4449 119.175 40.4571 119.185 40.4694 119.193ZM40.3683 119.116C40.3591 119.108 40.3484 119.1 40.3392 119.092C40.3499 119.1 40.3575 119.108 40.3683 119.116ZM40.3193 119.078C40.3086 119.07 40.2978 119.061 40.2886 119.053C40.2978 119.061 40.3101 119.07 40.3193 119.078ZM40.2733 119.041C40.2626 119.033 40.2519 119.026 40.2412 119.016C40.2519 119.024 40.2626 119.033 40.2733 119.041ZM40.0175 118.841C40.0068 118.833 39.9945 118.824 39.9853 118.816C39.9961 118.824 40.0068 118.833 40.0175 118.841ZM39.9685 118.801C39.9578 118.793 39.9486 118.787 39.9378 118.779C39.9486 118.785 39.9593 118.795 39.9685 118.801ZM39.9165 118.762C39.9088 118.755 39.8996 118.747 39.8904 118.741C39.8996 118.747 39.9088 118.754 39.9165 118.762ZM39.8674 118.722C39.8613 118.717 39.8521 118.709 39.8444 118.704C39.8521 118.709 39.8597 118.717 39.8674 118.722ZM39.8184 118.682C39.8123 118.677 39.8046 118.672 39.7985 118.666C39.8046 118.672 39.8107 118.677 39.8184 118.682ZM39.7694 118.644C39.7648 118.639 39.7586 118.634 39.7525 118.631C39.7586 118.634 39.7633 118.639 39.7694 118.644ZM39.7234 118.606C39.7173 118.601 39.7112 118.598 39.7051 118.591C39.7112 118.596 39.7173 118.601 39.7234 118.606ZM39.5335 118.453C39.5335 118.453 39.5304 118.45 39.5289 118.45L39.5335 118.453ZM102.997 110.427C102.998 110.425 102.998 110.424 103 110.422C103.001 110.421 103.003 110.417 103.004 110.416C103.001 110.419 103 110.424 102.997 110.427ZM103.03 110.368C103.03 110.367 103.032 110.367 103.032 110.365V110.363C103.032 110.365 103.03 110.367 103.03 110.368ZM103.062 110.308C103.064 110.308 103.064 110.306 103.064 110.306C103.064 110.305 103.065 110.305 103.065 110.303C103.065 110.305 103.064 110.306 103.062 110.308ZM103.095 110.249C103.096 110.249 103.096 110.247 103.096 110.247L103.098 110.246C103.096 110.247 103.096 110.249 103.095 110.249Z" fill="#819EEF"/>
<path d="M69.4172 129.356C83.2975 129.356 96.1592 122.712 102.96 110.479C102.971 110.462 102.98 110.444 102.989 110.427C102.992 110.424 102.994 110.419 102.997 110.416C102.997 110.414 102.997 110.412 102.998 110.411C103.006 110.397 103.014 110.382 103.023 110.368C103.023 110.366 103.024 110.365 103.024 110.363C103.026 110.362 103.027 110.36 103.027 110.358C103.037 110.341 103.046 110.325 103.055 110.308C103.056 110.306 103.058 110.304 103.058 110.303C103.06 110.3 103.063 110.296 103.064 110.292C103.072 110.277 103.079 110.263 103.087 110.249C103.089 110.249 103.089 110.247 103.09 110.245C103.09 110.242 103.092 110.241 103.093 110.238C103.104 110.22 103.113 110.203 103.122 110.185C103.124 110.182 103.127 110.179 103.128 110.174C103.136 110.158 103.145 110.142 103.154 110.126C103.156 110.123 103.158 110.121 103.158 110.12C103.168 110.101 103.177 110.082 103.188 110.064C103.19 110.061 103.19 110.059 103.191 110.058C103.202 110.039 103.211 110.02 103.222 110.002C105.879 105.049 107.282 99.6778 107.557 94.2174C106.808 97.7421 105.555 101.176 103.749 104.422C96.9466 116.657 84.0879 123.301 70.206 123.299C62.1937 123.299 53.8398 121.085 46.1169 116.455C30.5686 107.134 21.9314 90.6211 22.7478 74.8555C19.4531 90.2474 25.8893 107.398 39.5214 118.45C39.5229 118.45 39.5261 118.453 39.5261 118.453C39.5398 118.464 39.5521 118.473 39.5643 118.485C39.5674 118.488 39.5705 118.489 39.5735 118.491C39.5843 118.5 39.5965 118.51 39.6072 118.52C39.6118 118.523 39.6164 118.526 39.621 118.531C39.6318 118.539 39.6424 118.547 39.6516 118.555C39.6578 118.559 39.6639 118.564 39.6684 118.569C39.6792 118.577 39.6884 118.585 39.6976 118.591C39.7038 118.598 39.7098 118.601 39.7159 118.605C39.7251 118.615 39.7358 118.621 39.745 118.631C39.7512 118.634 39.7573 118.639 39.7619 118.644C39.7711 118.652 39.7818 118.66 39.791 118.666C39.7972 118.672 39.8048 118.677 39.8109 118.682C39.8186 118.69 39.8293 118.696 39.837 118.704C39.8446 118.709 39.8538 118.717 39.8599 118.722C39.8676 118.728 39.8753 118.734 39.8829 118.741C39.8921 118.747 39.9013 118.755 39.909 118.761C39.9166 118.766 39.9227 118.772 39.9304 118.779C39.9411 118.787 39.9503 118.793 39.961 118.801C39.9672 118.806 39.9717 118.811 39.9779 118.815C39.9871 118.823 39.9993 118.833 40.01 118.841C40.0161 118.846 40.0208 118.849 40.0254 118.854C40.0575 118.877 40.0882 118.903 40.1203 118.927C40.1249 118.932 40.1326 118.938 40.1387 118.943C40.1495 118.951 40.1586 118.957 40.1693 118.965C40.1739 118.97 40.1801 118.974 40.1847 118.978C40.1954 118.986 40.2061 118.995 40.2168 119.003C40.2214 119.008 40.2276 119.011 40.2337 119.016C40.2444 119.025 40.2552 119.033 40.2659 119.041C40.272 119.046 40.275 119.048 40.2811 119.052C40.2903 119.06 40.3011 119.07 40.3118 119.078C40.3179 119.083 40.3256 119.087 40.3317 119.092C40.3409 119.1 40.3516 119.108 40.3608 119.116C40.3654 119.119 40.3731 119.126 40.3777 119.129C40.3884 119.137 40.3991 119.145 40.4099 119.153C40.416 119.157 40.4191 119.161 40.4252 119.165C40.4374 119.175 40.4481 119.183 40.4619 119.192C40.465 119.196 40.4695 119.199 40.4726 119.202C40.4848 119.211 40.4971 119.221 40.5094 119.231C40.5125 119.232 40.5171 119.237 40.5217 119.24C40.5354 119.25 40.5477 119.261 40.5614 119.27C40.563 119.272 40.5676 119.275 40.5692 119.277C40.5845 119.288 40.5998 119.299 40.6151 119.312C40.6166 119.312 40.6166 119.312 40.6166 119.313C40.7162 119.388 40.8142 119.464 40.9153 119.539C40.9153 119.539 40.9184 119.541 40.9184 119.542C40.9352 119.553 40.9505 119.566 40.9658 119.577C40.9674 119.577 40.9658 119.577 40.9673 119.577C40.9842 119.59 40.998 119.601 41.0148 119.614C41.0164 119.615 41.0179 119.615 41.0179 119.617C41.0332 119.628 41.0501 119.639 41.0639 119.65C41.0654 119.652 41.0685 119.654 41.07 119.655C41.0838 119.665 41.0976 119.676 41.1114 119.687C41.116 119.689 41.119 119.692 41.1221 119.695C41.1359 119.705 41.1497 119.716 41.1634 119.725C41.165 119.727 41.168 119.728 41.1696 119.73C41.1849 119.741 41.2002 119.752 41.2155 119.763C41.217 119.765 41.217 119.765 41.2186 119.767C41.387 119.891 41.554 120.013 41.7241 120.136L41.7256 120.137C41.7577 120.161 41.7914 120.185 41.8251 120.209C41.8266 120.21 41.8282 120.21 41.8282 120.212C41.8435 120.221 41.8619 120.234 41.8757 120.245C41.8772 120.247 41.8788 120.247 41.8803 120.249C41.8941 120.258 41.9124 120.271 41.9277 120.282C41.9277 120.284 41.9293 120.284 41.9308 120.285C42.6124 120.772 43.3109 121.246 44.0247 121.702C44.0262 121.704 44.0277 121.705 44.0292 121.707C44.0461 121.718 44.063 121.728 44.0798 121.739C44.0798 121.739 44.0798 121.739 44.0813 121.739C44.0981 121.75 44.1135 121.761 44.1319 121.772C44.1334 121.772 44.1349 121.774 44.1349 121.774C44.1518 121.785 44.1686 121.796 44.1855 121.806C44.187 121.807 44.187 121.807 44.1885 121.807C44.2054 121.818 44.2207 121.828 44.2375 121.839C44.2391 121.841 44.2421 121.842 44.2437 121.844C44.2605 121.853 44.2759 121.864 44.2927 121.874L44.2957 121.876C44.3126 121.887 44.3294 121.896 44.3463 121.907C44.3478 121.909 44.3478 121.909 44.3493 121.911C44.4213 121.955 44.4918 122 44.5623 122.044C44.5638 122.044 44.5653 122.046 44.5668 122.046C44.5837 122.057 44.6005 122.068 44.6174 122.078C44.6189 122.079 44.619 122.079 44.622 122.081C44.6373 122.09 44.6557 122.102 44.671 122.111C44.6756 122.114 44.6772 122.114 44.6802 122.117C44.694 122.125 44.7108 122.137 44.7261 122.144C44.7292 122.148 44.7308 122.148 44.7338 122.151C44.7492 122.159 44.763 122.168 44.7783 122.178C44.7829 122.179 44.7859 122.183 44.7905 122.186C44.8028 122.194 44.818 122.203 44.8318 122.21C44.8364 122.213 44.8411 122.216 44.8457 122.219C44.8579 122.227 44.8701 122.235 44.8824 122.241C44.8885 122.245 44.8946 122.249 44.9008 122.253C44.91 122.259 44.9192 122.264 44.9284 122.27C44.9314 122.272 44.9345 122.273 44.9376 122.275C44.9422 122.278 44.9483 122.283 44.9544 122.286C44.9636 122.291 44.9743 122.299 44.9835 122.304C44.9866 122.305 44.9866 122.305 44.9896 122.307C44.9958 122.311 45.0019 122.315 45.008 122.318C45.0203 122.326 45.0295 122.332 45.0402 122.339L45.0433 122.34C45.0494 122.343 45.0554 122.348 45.0616 122.351C45.0631 122.353 45.0647 122.353 45.0662 122.354C45.0754 122.359 45.0846 122.366 45.0938 122.37C45.1015 122.375 45.1091 122.38 45.1152 122.385C45.1198 122.386 45.1229 122.388 45.126 122.391C45.1352 122.396 45.1412 122.401 45.1504 122.405C45.1566 122.409 45.1627 122.412 45.1688 122.416C45.1749 122.42 45.1795 122.423 45.1856 122.426C45.1918 122.431 45.1979 122.434 45.204 122.437C45.2102 122.442 45.2163 122.445 45.2224 122.448C45.2316 122.453 45.2409 122.459 45.25 122.466C45.2531 122.466 45.2561 122.469 45.2592 122.47C45.2653 122.474 45.2699 122.477 45.2761 122.48C45.2929 122.491 45.3112 122.502 45.3296 122.512C53.0525 127.144 61.4034 129.356 69.4172 129.356Z" fill="#819EEF"/>
<path d="M46.9141 106.604C33.4244 98.5156 25.1348 85.015 23.7042 71.2853C24.4302 69.0187 25.3692 66.7999 26.5547 64.667C37.2843 45.3703 63.0858 39.983 84.1865 52.6343C97.6763 60.7207 105.966 74.2214 107.396 87.9511C106.67 90.2192 105.731 92.4365 104.546 94.5695C93.8163 113.866 68.0148 119.253 46.9141 106.604Z" fill="#C5D2F8"/>
<path d="M85.2831 112.57C85.2831 119.259 89.6148 119.768 94.0322 116.229C98.4849 112.662 102.781 107.974 102.781 102.078C102.781 95.3883 98.8647 92.3122 94.0322 95.2102C89.2012 98.1066 85.2831 105.878 85.2831 112.57Z" fill="#4F79E1"/>
<path d="M106.432 98.7249L99.7319 94.6928L87.0464 117.734L94.2837 121.974L106.432 98.7249Z" fill="#4F79E1"/>
<path d="M91.6132 116.324C91.6132 123.014 95.9448 123.521 100.362 119.984C104.815 116.416 109.111 111.729 109.111 105.832C109.111 99.1426 105.193 96.0664 100.362 98.9644C95.5297 101.861 91.6132 109.632 91.6132 116.324Z" fill="#A9BCF4"/>
<path d="M95.4536 114.906C95.4536 116.395 96.3252 117.079 97.3989 116.435C98.4742 115.789 99.3457 114.06 99.3457 112.573C99.3457 111.084 98.4742 110.4 97.3989 111.044C96.3252 111.689 95.4536 113.418 95.4536 114.906Z" fill="#4F79E1"/>
<path d="M102.868 110.363C102.868 111.851 103.74 112.535 104.815 111.891C105.89 111.247 106.762 109.518 106.762 108.029C106.762 106.54 105.89 105.857 104.815 106.501C103.74 107.146 102.868 108.875 102.868 110.363Z" fill="#4F79E1"/>
<path d="M78.0764 100.323C78.0764 102.251 79.3921 103.816 81.0157 103.816C82.6394 103.816 83.9551 102.251 83.9551 100.323C83.9551 98.3934 82.6394 96.8299 81.0157 96.8299C79.3921 96.8299 78.0764 98.3934 78.0764 100.323Z" fill="#253D7F"/>
<path d="M99.5751 87.5741C99.5751 89.5035 100.86 91.067 102.446 91.067C104.029 91.067 105.314 89.5035 105.314 87.5741C105.314 85.6448 104.029 84.0813 102.446 84.0813C100.86 84.0813 99.5751 85.6448 99.5751 87.5741Z" fill="#253D7F"/>
<path d="M99.5801 56.0673C99.5801 56.0673 93.6907 52.1688 87.8993 55.5821C82.353 58.8523 81.0204 63.6781 81.0204 63.6781L85.0504 66.013L99.5801 56.0673Z" fill="#A9BCF4"/>
<path d="M71.2871 75.5767L66.3351 73.3436C66.3351 73.3436 56.4495 70.1131 50.9767 78.831C48.2258 83.2146 47.7264 91.0735 50.4437 95.605C53.1318 100.086 59.0212 101.263 59.0212 101.263L59.9648 85.3316L71.2871 75.5767Z" fill="#A9BCF4"/>
<path d="M71.2871 75.5767C71.2871 75.5767 68.0828 78.7419 63.8139 86.5452C60.5851 92.4446 59.0212 101.263 59.0212 101.263C59.0212 101.263 47.5442 95.3267 52.0075 83.0524C57.2628 68.6005 71.2871 75.5767 71.2871 75.5767Z" fill="#4F79E1"/>
<path d="M95.9462 68.1507C91.1183 66.1673 85.0466 66.0114 85.0466 66.0114C85.0466 66.0114 88.2708 53.2455 97.4411 55.3085C108.374 57.7675 103.658 75.006 103.658 75.006C103.658 75.006 100.82 70.1548 95.9462 68.1507Z" fill="#4F79E1"/>
<path d="M55.0503 50.1978C57.4275 50.8786 61.8326 52.7872 64.0919 54.1424C66.2792 55.453 70.064 57.578 72.7032 60.2072C73.8091 61.3078 74.578 63.5554 72.6296 64.6751C71.0826 65.5642 68.6533 64.7021 67.4571 63.7096C64.314 61.0995 61.3164 59.1272 59.2011 57.8595C56.8699 56.4614 51.7678 54.6084 49.4641 53.4743C48.081 52.7936 47.6828 51.7597 49.2145 50.842C50.7447 49.9242 53.8035 49.84 55.0503 50.1978Z" fill="#253D7F"/>
<path d="M63.5862 53.8634C62.8386 53.124 62.0351 52.2763 61.2266 51.31C60.1084 49.9788 59.0857 48.6854 58.28 47.6635C56.9595 45.9943 56.6269 45.5872 56.381 45.4397L55.7944 46.3562C55.9699 46.494 56.7095 47.4321 57.426 48.3395C58.2394 49.3671 59.2681 50.6687 60.3926 52.0103C61.4522 53.2749 62.4973 54.3443 63.4151 55.2177L63.5862 53.8634Z" fill="#819EEF"/>
<path d="M63.3258 57.7826C62.7232 57.7826 62.2344 57.5185 62.2344 57.1915V22.3942C62.2344 22.0672 62.7232 21.8032 63.3258 21.8032C63.9283 21.8032 64.4149 22.0672 64.4149 22.3942V57.1915C64.4149 57.5185 63.9283 57.7826 63.3258 57.7826Z" fill="#819EEF"/>
<path d="M52.3199 34.7846C59.586 40.2729 58.8694 48.9402 58.8694 48.9402C58.8694 48.9402 51.9438 49.6636 46.5835 43.8213C41.2231 37.979 40.4273 33.0375 40.4273 33.0375C40.4273 33.0375 47.7784 31.3516 52.3199 34.7846Z" fill="#C5D2F8"/>
<path d="M58.638 48.9566C58.5286 48.9622 58.3757 48.9678 58.1876 48.9698C58.05 48.9707 57.8982 48.9693 57.7274 48.9639C55.7312 48.9027 51.4645 48.334 47.672 44.903C47.3029 44.5704 46.9408 44.2093 46.5838 43.822C46.3652 43.5853 46.1556 43.3472 45.9512 43.1128C41.8854 38.4224 40.7436 34.4378 40.4908 33.3383C40.4775 33.283 40.4675 33.234 40.4593 33.1962C42.4713 34.2219 44.5707 35.073 46.511 36.2569C53.2005 40.3383 56.0724 44.5774 57.3745 46.656C57.8011 47.3401 58.2018 48.1523 58.638 48.9566Z" fill="#819EEF"/>
<path d="M63.3262 52.4049C63.9183 51.5359 64.5423 50.5512 65.1526 49.4463C65.9921 47.9239 66.7454 46.4582 67.3421 45.3011C68.3155 43.4088 68.565 42.946 68.776 42.7531L69.5293 43.5381C69.3841 43.7106 68.8373 44.7724 68.3087 45.8002C67.7097 46.9641 66.9496 48.4389 66.1033 49.9727C65.3069 51.4157 64.4879 52.6681 63.7527 53.7027L63.3262 52.4049Z" fill="#819EEF"/>
<path d="M70.6722 31.2574C64.5985 38.0391 66.9694 46.409 66.9694 46.409C66.9694 46.409 73.9031 45.785 78.0415 39.0215C82.1777 32.258 82.0075 27.2574 82.0075 27.2574C82.0075 27.2574 74.4703 27.0147 70.6722 31.2574Z" fill="#C5D2F8"/>
<path d="M67.1992 46.3802C67.4715 45.5045 67.7097 44.6332 67.9979 43.8799C68.8736 41.5884 70.8793 36.8759 76.6581 31.5849C78.3348 30.0489 80.2316 28.8101 82.0081 27.4193C82.0081 27.4624 82.0059 27.5214 82.0059 27.5917C81.9628 28.7965 81.5634 33.1618 78.1851 38.7841C78.1851 38.7863 78.1851 38.7863 78.1828 38.7886C78.1783 38.7999 78.1692 38.8113 78.1624 38.8226C78.1624 38.8249 78.1601 38.8272 78.1579 38.8294C78.1533 38.8385 78.1488 38.8476 78.142 38.8567C78.1397 38.8612 78.1374 38.8657 78.1352 38.8703C78.1284 38.8794 78.1239 38.8884 78.117 38.8975C78.1148 38.902 78.1148 38.9043 78.1125 38.9089C78.1057 38.9157 78.1011 38.9225 78.0966 38.9315C78.0943 38.9361 78.0898 38.9429 78.0875 38.9474C78.083 38.9542 78.0784 38.961 78.0739 38.9678C78.0716 38.9746 78.0671 38.9792 78.0649 38.986C78.0558 38.9973 78.049 39.011 78.0422 39.0223C78.0331 39.0359 78.0263 39.0472 78.0194 39.0609C78.0149 39.0654 78.0104 39.0722 78.0081 39.0768C78.0036 39.0836 77.9991 39.0904 77.9968 39.0972C77.9923 39.104 77.9877 39.1108 77.9832 39.1176C77.9786 39.1221 77.9763 39.1289 77.9741 39.1335C77.9695 39.1403 77.965 39.1471 77.9605 39.1539C77.9559 39.1607 77.9537 39.1652 77.9492 39.1698C77.9446 39.1766 77.9401 39.1857 77.9355 39.1925C77.9333 39.197 77.931 39.2015 77.9287 39.2061C77.9219 39.2129 77.9174 39.2219 77.9128 39.2288C77.9105 39.2333 77.9083 39.2378 77.9037 39.2424C77.8992 39.2492 77.8947 39.2583 77.8902 39.2651C77.8879 39.2719 77.8833 39.2741 77.8811 39.2787C77.8765 39.2877 77.872 39.2946 77.8674 39.3014C77.8652 39.3059 77.8606 39.3104 77.8584 39.3172C77.8425 39.3422 77.8266 39.3672 77.8107 39.3899C77.8062 39.3967 77.8016 39.4035 77.7971 39.408C77.7948 39.4148 77.7903 39.4193 77.788 39.4239C77.7835 39.4307 77.779 39.4398 77.7722 39.4466C77.7699 39.4511 77.7676 39.4556 77.7654 39.4579C77.7608 39.467 77.754 39.4761 77.7495 39.4829C77.7472 39.4874 77.7449 39.492 77.7427 39.4942C77.7358 39.5033 77.7291 39.5146 77.7223 39.5237C77.7223 39.526 77.72 39.5283 77.72 39.5305C77.7109 39.5396 77.7041 39.5509 77.6973 39.5623C77.6973 39.5645 77.695 39.5645 77.695 39.5645C74.5889 44.2293 70.1533 45.7427 68.0954 46.2123C67.9275 46.2486 67.7755 46.2804 67.6416 46.3054C67.4579 46.3417 67.3081 46.3644 67.1992 46.3802Z" fill="#819EEF"/>
<path d="M73.153 3.19246L68.7061 0.680801L68.6993 0.692154L68.5291 0.587769C67.3334 0.0001297 65.938 -0.156395 64.4202 0.161247L72.123 4.60823L70.3397 5.63828L62.1944 0.937183C61.9198 1.07104 61.6408 1.20945 61.3595 1.37054C61.0032 1.57701 60.6493 1.81071 60.2999 2.05348L66.7276 5.76534L64.9443 6.79542L58.7979 3.2469C58.2647 3.71656 57.7474 4.22933 57.246 4.77839L64.2885 8.84419L62.503 9.87427L56.0684 6.16013C55.6192 6.73188 55.1881 7.33087 54.7775 7.95481L62.1331 12.2021L60.3475 13.2322L53.8427 9.47494C53.4797 10.1057 53.1394 10.7523 52.8195 11.4148L60.1524 15.6508L58.3691 16.6809L52.0843 13.0507C51.7735 13.8017 51.4854 14.5595 51.2358 15.3286L58.9726 19.7938L57.187 20.8238L50.7253 17.0938C50.5075 17.9469 50.3305 18.8045 50.1966 19.6599L58.419 24.4064L56.6357 25.4364L49.9629 21.5839C49.9175 22.1557 49.8926 22.7229 49.8926 23.2833C49.8926 23.7507 49.9198 24.1931 49.9493 24.6333L57.5591 29.0258L55.7757 30.0559L50.2647 26.8749C50.5506 28.1954 50.9907 29.348 51.5783 30.285L58.6414 34.3622L59.3356 32.8693C59.9936 32.6469 60.6674 32.352 61.3595 31.9527C67.6941 28.2952 72.8286 18.4869 72.8286 10.0399C72.8286 8.24748 72.5949 6.65928 72.1683 5.30703L73.153 3.19246Z" fill="#819EEF"/>
<path d="M66.7305 5.76615L60.3028 2.05428C59.79 2.41277 59.2909 2.81436 58.8008 3.24771L64.9472 6.79623L66.7305 5.76615Z" fill="#4F79E1"/>
<path d="M72.1278 4.60665L64.425 0.159674C63.708 0.30942 62.9661 0.568053 62.1992 0.93561L70.3445 5.6367L72.1278 4.60665Z" fill="#4F79E1"/>
<path d="M64.2904 8.84249L57.2479 4.77669C56.844 5.21686 56.4515 5.67516 56.0703 6.15843L62.5049 9.87257L64.2904 8.84249Z" fill="#4F79E1"/>
<path d="M62.1322 12.2L54.7765 7.95267C54.4498 8.44502 54.139 8.95323 53.8418 9.4728L60.3466 13.2301L62.1322 12.2Z" fill="#4F79E1"/>
<path d="M60.1559 15.6478L52.823 11.4118C52.5621 11.9495 52.317 12.4941 52.0879 13.0477L58.3726 16.6779L60.1559 15.6478Z" fill="#4F79E1"/>
<path d="M58.9758 19.7913L51.239 15.3262C51.0484 15.9115 50.8828 16.4992 50.7285 17.0913L57.1903 20.8214L58.9758 19.7913Z" fill="#4F79E1"/>
<path d="M58.417 24.4069L50.1946 19.6604C50.0925 20.3047 50.0086 20.9468 49.9609 21.5844L56.6337 25.4369L58.417 24.4069Z" fill="#4F79E1"/>
<path d="M57.5571 29.0265L49.9473 24.634C50.004 25.4303 50.1107 26.1768 50.2627 26.8756L55.7737 30.0565L57.5571 29.0265Z" fill="#4F79E1"/>
<path d="M53.963 32.6064L53.9608 32.6132L54.0606 32.67L54.0652 32.6722L58.3079 35.0682L58.6392 34.3603L51.5762 30.2831C52.2205 31.3086 53.026 32.0937 53.963 32.6064Z" fill="#4F79E1"/>
<path d="M77.1723 12.4933C77.1723 20.938 72.0379 30.7486 65.7032 34.4038C59.3708 38.0612 54.2363 34.1792 54.2363 25.7344C54.2363 17.2897 59.3708 7.47909 65.7032 3.82167C72.0379 0.166527 77.1723 4.04631 77.1723 12.4933Z" fill="#C5D2F8"/>
<path d="M71.1113 4.48661C73.2917 5.63466 74.6553 8.52974 74.6031 12.7181C74.5123 20.1577 69.9905 28.8565 64.4998 32.1464C62.6212 33.274 60.8787 33.603 59.3926 33.2718C61.0874 34.1634 63.2746 33.9978 65.6751 32.5571C71.1657 29.2672 75.6876 20.5684 75.7783 13.1287C75.8373 8.23705 73.9587 5.12189 71.1113 4.48661Z" fill="#4F79E1"/>
<path d="M60.5281 33.3956C60.5258 33.3956 60.5235 33.3956 60.5213 33.3956C60.1605 33.3956 59.8088 33.3593 59.4708 33.2889C59.4662 33.2889 59.4617 33.2867 59.4572 33.2867C59.4368 33.2821 59.4163 33.2776 59.3937 33.273C57.2133 32.1273 55.8497 29.2299 55.9018 25.0439C55.9926 17.602 60.5145 8.90311 66.0051 5.61325C67.4254 4.76242 68.7663 4.36537 69.9779 4.36537C70.3704 4.36537 70.7493 4.40849 71.1124 4.4879C73.2496 5.61326 74.6019 8.41984 74.6064 12.4743C74.6064 12.556 74.6064 12.6377 74.6042 12.7194C74.5134 20.159 69.9916 28.8578 64.5009 32.1477C64.4669 32.1704 64.4306 32.1908 64.3965 32.2112C64.3806 32.2203 64.367 32.2271 64.3534 32.2362C64.3443 32.2407 64.3375 32.2452 64.3307 32.2498C64.2672 32.2861 64.2036 32.3201 64.1401 32.3564H64.1378C62.8582 33.062 61.6466 33.3933 60.5417 33.3956C60.5371 33.3956 60.5326 33.3956 60.5281 33.3956Z" fill="#A9BCF4"/>
<path d="M63.9353 26.3203V24.2754L62.6934 25.9646L62.0943 25.288L63.9353 22.7836V21.2918L62.708 22.9726L62.0943 22.3044L63.9353 19.8V16.4644L61.1445 18.0757V15.9637L68.9179 11.4757V13.5877L66.1125 15.2074V16.8333L67.4421 15.0096L68.0558 15.6778L66.1125 18.3251V19.8169L67.4275 18.0184L68.0412 18.6866L66.1125 21.3087V25.0633L63.9353 26.3203Z" fill="#4F79E1"/>
</svg>
