<svg width="24" height="24" viewBox="0 0 24 24" fill="none" xmlns="http://www.w3.org/2000/svg">
<path fill-rule="evenodd" clip-rule="evenodd" d="M10.3789 12C10.3789 11.5858 10.7147 11.25 11.1289 11.25H20.9989C21.4131 11.25 21.7489 11.5858 21.7489 12C21.7489 12.4142 21.4131 12.75 20.9989 12.75H11.1289C10.7147 12.75 10.3789 12.4142 10.3789 12Z" fill="#051C2C"/>
<path fill-rule="evenodd" clip-rule="evenodd" d="M21 11.25C21.4142 11.25 21.75 11.5858 21.75 12V15.48C21.75 15.8942 21.4142 16.23 21 16.23C20.5858 16.23 20.25 15.8942 20.25 15.48V12C20.25 11.5858 20.5858 11.25 21 11.25Z" fill="#051C2C"/>
<path fill-rule="evenodd" clip-rule="evenodd" d="M17 11.25C17.4142 11.25 17.75 11.5858 17.75 12V15.48C17.75 15.8942 17.4142 16.23 17 16.23C16.5858 16.23 16.25 15.8942 16.25 15.48V12C16.25 11.5858 16.5858 11.25 17 11.25Z" fill="#051C2C"/>
<path fill-rule="evenodd" clip-rule="evenodd" d="M9.40906 9.656C8.11447 8.36141 6.01553 8.36141 4.72094 9.656C3.42635 10.9506 3.42635 13.0495 4.72094 14.3441C6.01553 15.6387 8.11447 15.6387 9.40906 14.3441C10.7036 13.0495 10.7036 10.9506 9.40906 9.656ZM10.4697 8.59534C8.58935 6.71497 5.54065 6.71497 3.66028 8.59534C1.77991 10.4757 1.77991 13.5244 3.66028 15.4048C5.54065 17.2852 8.58935 17.2852 10.4697 15.4048C12.3501 13.5244 12.3501 10.4757 10.4697 8.59534Z" fill="#051C2C"/>
</svg>
