<svg width="198" height="40" viewBox="0 0 198 40" fill="none" xmlns="http://www.w3.org/2000/svg">
<g clip-path="url(#clip0_12450_84511)">
<mask id="mask0_12450_84511" style="mask-type:luminance" maskUnits="userSpaceOnUse" x="0" y="0" width="212" height="40">
<path d="M211.224 0H0V40H211.224V0Z" fill="white"/>
</mask>
<g mask="url(#mask0_12450_84511)">
<path d="M27.5852 0H12.4077C5.57044 0 0 5.49604 0 12.2528V15.8485V18.9349H3.12367H10.1224H10.5447H13.0163C16.2953 18.9349 18.9532 16.308 18.9532 13.0725V7.22869H12.948C9.71878 7.22869 7.09191 9.81835 7.09191 13.0104V13.7805H10.1224V13.0973C10.1224 11.5634 11.3831 10.3214 12.9418 10.3214H15.9164V13.0228C15.9164 14.5816 14.6372 15.8485 13.0598 15.8485H10.1224H7.09191V15.8547H3.12367V12.259C3.12367 7.20385 7.29064 3.08648 12.4077 3.08648H27.5852C32.7085 3.08648 36.8755 7.20385 36.8755 12.259V15.8547H32.8886V13.0166C32.8886 9.81835 30.2679 7.2349 27.0387 7.2349H21.0335V13.0787C21.0335 16.3142 23.6915 18.9412 26.9704 18.9412H27.7715V15.8485H26.9207C25.3433 15.8485 24.0641 14.5878 24.0641 13.0228V10.3214H27.0449C28.5974 10.3214 29.8581 11.5634 29.8581 13.0973V15.8423V15.8485H29.8457V18.9349H29.8581H32.6029H36.8817H40.0053V15.8485V12.2528C39.9929 5.49604 34.4287 0 27.5852 0Z" fill="#0048BA"/>
</g>
<mask id="mask1_12450_84511" style="mask-type:luminance" maskUnits="userSpaceOnUse" x="0" y="0" width="212" height="40">
<path d="M211.224 0H0V40H211.224V0Z" fill="white"/>
</mask>
<g mask="url(#mask1_12450_84511)">
<path d="M32.8637 20.9902H32.5967H29.8394H29.8146H26.8897C23.6604 20.9902 21.0335 23.5799 21.0335 26.7719V32.6965H26.958C30.2369 32.6965 32.8948 30.0696 32.8948 26.834V26.1385H29.8643V26.7844C29.8643 28.3431 28.585 29.61 27.0076 29.61H24.0703V26.8651C24.0703 25.3312 25.3309 24.0829 26.8834 24.0829H27.0449H32.8948H36.8817V27.7532C36.8817 32.8145 32.7147 36.9256 27.5914 36.9256H12.4077C7.29063 36.9256 3.12367 32.8145 3.12367 27.7532V24.0829H6.02999H7.09191V26.8403C7.09191 30.0758 9.74983 32.7027 13.0287 32.7027H18.947V26.7782C18.947 23.5861 16.3263 20.9964 13.0971 20.9964H12.209V24.0891H13.1033C14.6558 24.0891 15.9164 25.3312 15.9164 26.8713V29.6162H12.9791C11.4079 29.6162 10.1349 28.3618 10.1224 26.8154C10.1224 26.8092 10.1224 26.803 10.1224 26.7968V24.0891V24.0829V20.9902H7.32169H6.02999H3.12367H0V24.0767V27.7469C0 34.5037 5.57044 39.9997 12.4077 39.9997H27.5852C34.4287 39.9997 39.9929 34.5037 39.9929 27.7469V24.0767V20.9902H36.8692H32.8637Z" fill="#0048BA"/>
</g>
</g>
<path d="M52.0165 12.17C53.2405 12.17 54.2305 12.548 55.0225 13.268C55.7965 13.988 56.1925 14.924 56.1925 16.076C56.1925 17.246 55.7965 18.2 55.0225 18.92C54.2305 19.64 53.2405 20 52.0165 20H47.1925V7.4H55.1125V9.776H49.6765V12.17H52.0165ZM52.0165 17.678C52.5025 17.678 52.9165 17.552 53.2405 17.264C53.5645 16.976 53.7265 16.58 53.7265 16.076C53.7265 15.572 53.5645 15.194 53.2405 14.906C52.9165 14.636 52.5025 14.492 52.0165 14.492H49.6765V17.678H52.0165ZM66.0118 20V12.314L60.6118 20H58.7218V7.4H61.2058V15.104L66.6058 7.4H68.4958V20H66.0118ZM78.4031 7.4H80.8871V20H78.4031V15.392C77.6291 15.716 76.8011 15.878 75.9371 15.878C74.6591 15.878 73.6151 15.536 72.7871 14.816C71.9591 14.096 71.5631 13.124 71.5631 11.9V7.4H74.0471V11.576C74.0471 12.188 74.2091 12.656 74.5691 12.998C74.9291 13.34 75.3971 13.502 75.9911 13.502C76.8551 13.502 77.6651 13.34 78.4031 12.98V7.4ZM91.5137 20V12.314L86.1137 20H84.2237V7.4H86.7077V15.104L92.1077 7.4H93.9977V20H91.5137ZM96.363 20V17.696C97.101 17.804 97.659 17.66 98.037 17.246C98.397 16.85 98.595 16.04 98.595 14.852V7.4H107.163V20H104.697V9.776H101.061V14.78C101.061 15.878 100.917 16.796 100.665 17.534C100.395 18.29 100.035 18.83 99.567 19.19C99.099 19.55 98.613 19.802 98.091 19.91C97.569 20.036 96.993 20.072 96.363 20ZM123.163 7.4V9.776H118.483V20H115.999V7.4H123.163ZM123.656 20V17.696C124.394 17.804 124.952 17.66 125.33 17.246C125.69 16.85 125.888 16.04 125.888 14.852V7.4H134.456V20H131.99V9.776H128.354V14.78C128.354 15.878 128.21 16.796 127.958 17.534C127.688 18.29 127.328 18.83 126.86 19.19C126.392 19.55 125.906 19.802 125.384 19.91C124.862 20.036 124.286 20.072 123.656 20ZM143.75 20.252C141.914 20.252 140.366 19.622 139.106 18.362C137.846 17.102 137.216 15.536 137.216 13.7C137.216 11.864 137.846 10.316 139.106 9.056C140.366 7.796 141.914 7.148 143.75 7.148C145.568 7.148 147.116 7.796 148.394 9.056C149.654 10.316 150.302 11.864 150.302 13.7C150.302 15.536 149.654 17.102 148.394 18.362C147.116 19.622 145.568 20.252 143.75 20.252ZM143.75 17.822C144.902 17.822 145.856 17.444 146.648 16.67C147.422 15.896 147.818 14.906 147.818 13.7C147.818 12.512 147.422 11.522 146.648 10.73C145.856 9.956 144.902 9.56 143.75 9.56C142.598 9.56 141.626 9.956 140.852 10.73C140.06 11.522 139.682 12.512 139.682 13.7C139.682 14.906 140.06 15.896 140.852 16.67C141.626 17.444 142.598 17.822 143.75 17.822ZM157.872 12.17C159.096 12.17 160.086 12.548 160.878 13.268C161.652 13.988 162.048 14.924 162.048 16.076C162.048 17.246 161.652 18.2 160.878 18.92C160.086 19.64 159.096 20 157.872 20H153.048V7.4H160.968V9.776H155.532V12.17H157.872ZM157.872 17.678C158.358 17.678 158.772 17.552 159.096 17.264C159.42 16.976 159.582 16.58 159.582 16.076C159.582 15.572 159.42 15.194 159.096 14.906C158.772 14.636 158.358 14.492 157.872 14.492H155.532V17.678H157.872ZM170.981 7.4H173.465L169.685 16.526C168.677 18.974 167.021 20.144 164.717 20V17.678C165.383 17.75 165.923 17.66 166.337 17.408C166.751 17.156 167.093 16.76 167.381 16.202L163.259 7.4H165.743L168.497 13.484L170.981 7.4ZM181.063 20.252C179.155 20.252 177.589 19.622 176.365 18.362C175.123 17.102 174.511 15.554 174.511 13.7C174.511 11.846 175.123 10.298 176.365 9.038C177.589 7.778 179.155 7.148 181.063 7.148C182.197 7.148 183.241 7.418 184.213 7.958C185.185 8.498 185.941 9.218 186.481 10.118L184.339 11.36C184.015 10.802 183.583 10.37 183.007 10.046C182.431 9.722 181.783 9.56 181.063 9.56C179.839 9.56 178.849 9.956 178.093 10.712C177.337 11.486 176.977 12.476 176.977 13.7C176.977 14.924 177.337 15.914 178.093 16.67C178.849 17.444 179.839 17.822 181.063 17.822C181.783 17.822 182.431 17.678 183.007 17.354C183.583 17.03 184.033 16.598 184.339 16.04L186.481 17.282C185.941 18.2 185.185 18.92 184.231 19.46C183.259 20 182.215 20.252 181.063 20.252Z" fill="#0048BA"/>
<path d="M50.4978 35.06C49.9711 35.06 49.4845 34.9733 49.0378 34.8C48.5911 34.62 48.2045 34.37 47.8778 34.05C47.5511 33.73 47.2945 33.3533 47.1078 32.92C46.9278 32.4867 46.8378 32.0133 46.8378 31.5C46.8378 30.9867 46.9278 30.5133 47.1078 30.08C47.2945 29.6467 47.5511 29.27 47.8778 28.95C48.2111 28.63 48.6011 28.3833 49.0478 28.21C49.4945 28.03 49.9811 27.94 50.5078 27.94C51.0145 27.94 51.4911 28.0267 51.9378 28.2C52.3845 28.3667 52.7611 28.62 53.0678 28.96L52.5978 29.43C52.3111 29.1367 51.9945 28.9267 51.6478 28.8C51.3011 28.6667 50.9278 28.6 50.5278 28.6C50.1078 28.6 49.7178 28.6733 49.3578 28.82C48.9978 28.96 48.6845 29.1633 48.4178 29.43C48.1511 29.69 47.9411 29.9967 47.7878 30.35C47.6411 30.6967 47.5678 31.08 47.5678 31.5C47.5678 31.92 47.6411 32.3067 47.7878 32.66C47.9411 33.0067 48.1511 33.3133 48.4178 33.58C48.6845 33.84 48.9978 34.0433 49.3578 34.19C49.7178 34.33 50.1078 34.4 50.5278 34.4C50.9278 34.4 51.3011 34.3333 51.6478 34.2C51.9945 34.0667 52.3111 33.8533 52.5978 33.56L53.0678 34.03C52.7611 34.37 52.3845 34.6267 51.9378 34.8C51.4911 34.9733 51.0111 35.06 50.4978 35.06ZM53.3902 35L56.5902 28H57.3202L60.5202 35H59.7402L56.8002 28.43H57.1002L54.1602 35H53.3902ZM54.6502 33.13L54.8702 32.53H58.9402L59.1602 33.13H54.6502ZM66.9816 28H67.7116V35H66.9816V28ZM62.6016 35H61.8616V28H62.6016V35ZM67.0516 31.77H62.5216V31.12H67.0516V31.77ZM69.2945 28H70.1445L72.1345 30.77L74.1145 28H74.9845L72.5945 31.36L75.1745 35H74.3045L72.1345 31.99L69.9645 35H69.1145L71.6845 31.39L69.2945 28ZM77.9857 35V32.4L78.1557 32.86L75.1857 28H75.9757L78.5857 32.27H78.1657L80.7757 28H81.5157L78.5557 32.86L78.7157 32.4V35H77.9857ZM84.5091 35V32.4L84.6791 32.86L81.7091 28H82.4991L85.1091 32.27H84.6891L87.2991 28H88.0391L85.0791 32.86L85.2391 32.4V35H84.5091ZM89.1761 35V28H93.6261V28.64H89.7061L89.8961 28.45L89.9061 35H89.1761ZM94.8988 35V28H95.6288V33.8L100.109 28H100.779V35H100.049V29.21L95.5688 35H94.8988ZM103.141 35V28H103.871V33.8L108.351 28H109.021V35H108.291V29.21L103.811 35H103.141ZM106.061 27.49C105.561 27.49 105.164 27.3767 104.871 27.15C104.584 26.9233 104.438 26.6067 104.431 26.2H104.981C104.988 26.4667 105.088 26.6767 105.281 26.83C105.481 26.9833 105.741 27.06 106.061 27.06C106.381 27.06 106.638 26.9833 106.831 26.83C107.031 26.6767 107.134 26.4667 107.141 26.2H107.691C107.684 26.6067 107.534 26.9233 107.241 27.15C106.948 27.3767 106.554 27.49 106.061 27.49ZM116.503 28H117.233V35H116.503V28ZM112.123 35H111.383V28H112.123V35ZM116.573 31.77H112.043V31.12H116.573V31.77ZM122.213 35V28H127.333V28.63H122.943V30.92H125.233C126.06 30.92 126.687 31.09 127.113 31.43C127.547 31.7633 127.763 32.2567 127.763 32.91C127.763 33.5833 127.53 34.1 127.063 34.46C126.603 34.82 125.94 35 125.073 35H122.213ZM122.943 34.41H125.063C125.71 34.41 126.197 34.2867 126.523 34.04C126.857 33.7867 127.023 33.42 127.023 32.94C127.023 31.9867 126.37 31.51 125.063 31.51H122.943V34.41ZM128.439 35L131.639 28H132.369L135.569 35H134.789L131.849 28.43H132.149L129.209 35H128.439ZM129.699 33.13L129.919 32.53H133.989L134.209 33.13H129.699ZM136.91 35V28H137.64V33.8L142.12 28H142.79V35H142.06V29.21L137.58 35H136.91ZM139.83 27.49C139.33 27.49 138.934 27.3767 138.64 27.15C138.354 26.9233 138.207 26.6067 138.2 26.2H138.75C138.757 26.4667 138.857 26.6767 139.05 26.83C139.25 26.9833 139.51 27.06 139.83 27.06C140.15 27.06 140.407 26.9833 140.6 26.83C140.8 26.6767 140.904 26.4667 140.91 26.2H141.46C141.454 26.6067 141.304 26.9233 141.01 27.15C140.717 27.3767 140.324 27.49 139.83 27.49ZM145.153 35V28H149.603V28.64H145.683L145.873 28.45L145.883 35H145.153ZM150.755 34.31C151.095 34.4433 151.415 34.4767 151.715 34.41C152.015 34.3367 152.292 34.1 152.545 33.7L152.885 33.16L152.955 33.07L155.635 28H156.375L153.195 33.86C152.982 34.2667 152.729 34.57 152.435 34.77C152.149 34.97 151.842 35.0767 151.515 35.09C151.195 35.1033 150.872 35.0433 150.545 34.91L150.755 34.31ZM152.935 33.74L149.905 28H150.695L153.335 33.13L152.935 33.74ZM157.337 34.31C157.677 34.4433 157.997 34.4767 158.297 34.41C158.597 34.3367 158.874 34.1 159.127 33.7L159.467 33.16L159.537 33.07L162.217 28H162.957L159.777 33.86C159.564 34.2667 159.311 34.57 159.017 34.77C158.731 34.97 158.424 35.0767 158.097 35.09C157.777 35.1033 157.454 35.0433 157.127 34.91L157.337 34.31ZM159.517 33.74L156.487 28H157.277L159.917 33.13L159.517 33.74ZM163.529 35.06C163.436 35.06 163.346 35.0533 163.259 35.04C163.173 35.0333 163.076 35.0167 162.969 34.99L163.029 34.33C163.143 34.3567 163.253 34.37 163.359 34.37C163.659 34.37 163.899 34.2533 164.079 34.02C164.266 33.78 164.406 33.4133 164.499 32.92C164.593 32.42 164.653 31.78 164.679 31L164.779 28H169.529V35H168.799V28.44L168.989 28.64H165.249L165.429 28.43L165.339 30.98C165.313 31.68 165.263 32.2867 165.189 32.8C165.116 33.3067 165.009 33.73 164.869 34.07C164.729 34.4033 164.549 34.6533 164.329 34.82C164.109 34.98 163.843 35.06 163.529 35.06ZM171.274 35.06C171.18 35.06 171.09 35.0533 171.004 35.04C170.917 35.0333 170.82 35.0167 170.714 34.99L170.774 34.33C170.887 34.3567 170.997 34.37 171.104 34.37C171.404 34.37 171.644 34.2533 171.824 34.02C172.01 33.78 172.15 33.4133 172.244 32.92C172.337 32.42 172.397 31.78 172.424 31L172.524 28H177.274V35H176.544V28.44L176.734 28.64H172.994L173.174 28.43L173.084 30.98C173.057 31.68 173.007 32.2867 172.934 32.8C172.86 33.3067 172.754 33.73 172.614 34.07C172.474 34.4033 172.294 34.6533 172.074 34.82C171.854 34.98 171.587 35.06 171.274 35.06ZM178.605 35L181.805 28H182.535L185.735 35H184.955L182.015 28.43H182.315L179.375 35H178.605ZM179.865 33.13L180.085 32.53H184.155L184.375 33.13H179.865ZM187.076 35V28H191.526V28.64H187.606L187.796 28.45L187.806 35H187.076ZM190.451 35L193.651 28H194.381L197.581 35H196.801L193.861 28.43H194.161L191.221 35H190.451ZM191.711 33.13L191.931 32.53H196.001L196.221 33.13H191.711Z" fill="#0048BA"/>
<defs>
<clipPath id="clip0_12450_84511">
<rect width="40" height="40" fill="white"/>
</clipPath>
</defs>
</svg>
