<svg width="20" height="20" viewBox="0 0 20 20" fill="none" xmlns="http://www.w3.org/2000/svg">
<path d="M13.7929 0H6.20401C2.78528 0 0 2.74802 0 6.12638V7.92424V9.46747H1.56187H5.06133H5.27247H6.50831C8.1478 9.46747 9.47679 8.15401 9.47679 6.53625V3.61435H6.47415C4.85949 3.61435 3.54603 4.90918 3.54603 6.5052V6.89023H5.06133V6.54867C5.06133 5.78171 5.69166 5.16069 6.47105 5.16069H7.95839V6.51141C7.95839 7.29079 7.31874 7.92424 6.53004 7.92424H5.06133H3.54603V7.92734H1.56187V6.12948C1.56187 3.60192 3.6454 1.54324 6.20401 1.54324H13.7929C16.3546 1.54324 18.4381 3.60192 18.4381 6.12948V7.92734H16.4447V6.50831C16.4447 4.90918 15.1343 3.61745 13.5196 3.61745H10.517V6.53936C10.517 8.15712 11.846 9.47058 13.4855 9.47058H13.886V7.92424H13.4606C12.6719 7.92424 12.0323 7.2939 12.0323 6.51141V5.16069H13.5227C14.299 5.16069 14.9294 5.78171 14.9294 6.54867V7.92113V7.92424H14.9232V9.46747H14.9294H16.3018H18.4412H20.0031V7.92424V6.12638C19.9969 2.74802 17.2147 0 13.7929 0Z" fill="white"/>
<path d="M16.4322 10.4951H16.2987H14.92H14.9076H13.4451C11.8305 10.4951 10.517 11.7899 10.517 13.386V16.3482H13.4793C15.1188 16.3482 16.4478 15.0348 16.4478 13.417V13.0693H14.9325V13.3922C14.9325 14.1716 14.2928 14.805 13.5041 14.805H12.0354V13.4325C12.0354 12.6656 12.6657 12.0415 13.442 12.0415H13.5227H16.4478H18.4412V13.8766C18.4412 16.4072 16.3577 18.4628 13.796 18.4628H6.20401C3.6454 18.4628 1.56187 16.4072 1.56187 13.8766V12.0415H3.01506H3.54603V13.4201C3.54603 15.0379 4.87502 16.3514 6.51452 16.3514H9.47368V13.3891C9.47368 11.7931 8.16333 10.4982 6.54867 10.4982H6.10464V12.0446H6.55178C7.32805 12.0446 7.95839 12.6656 7.95839 13.4357V14.8081H6.48968C5.70408 14.8081 5.06754 14.1809 5.06133 13.4077C5.06133 13.4046 5.06133 13.4015 5.06133 13.3984V12.0446V12.0415V10.4951H3.66092H3.01506H1.56187H0V12.0384V13.8735C0 17.2518 2.78528 19.9999 6.20401 19.9999H13.7929C17.2147 19.9999 19.9969 17.2518 19.9969 13.8735V12.0384V10.4951H18.435H16.4322Z" fill="white"/>
</svg>
