<svg width="24" height="24" viewBox="0 0 24 24" fill="none" xmlns="http://www.w3.org/2000/svg">
<path fill-rule="evenodd" clip-rule="evenodd" d="M4.74609 12C4.74609 11.5858 5.08188 11.25 5.49609 11.25H18.5012C18.9154 11.25 19.2512 11.5858 19.2512 12C19.2512 12.4142 18.9154 12.75 18.5012 12.75H5.49609C5.08188 12.75 4.74609 12.4142 4.74609 12Z" fill="#051C2C"/>
<path fill-rule="evenodd" clip-rule="evenodd" d="M4.74609 16.0016C4.74609 15.5874 5.08188 15.2516 5.49609 15.2516H18.5012C18.9154 15.2516 19.2512 15.5874 19.2512 16.0016C19.2512 16.4158 18.9154 16.7516 18.5012 16.7516H5.49609C5.08188 16.7516 4.74609 16.4158 4.74609 16.0016Z" fill="#051C2C"/>
<path fill-rule="evenodd" clip-rule="evenodd" d="M4.74609 7.99829C4.74609 7.58408 5.08188 7.24829 5.49609 7.24829H18.5012C18.9154 7.24829 19.2512 7.58408 19.2512 7.99829C19.2512 8.4125 18.9154 8.74829 18.5012 8.74829H5.49609C5.08188 8.74829 4.74609 8.4125 4.74609 7.99829Z" fill="#051C2C"/>
</svg>
