<svg width="24" height="25" viewBox="0 0 24 25" fill="none" xmlns="http://www.w3.org/2000/svg">
<path fill-rule="evenodd" clip-rule="evenodd" d="M6 21.5H4C3.448 21.5 3 21.052 3 20.5V14.5C3 13.948 3.448 13.5 4 13.5H6C6.552 13.5 7 13.948 7 14.5V20.5C7 21.052 6.552 21.5 6 21.5Z" stroke="#898989" stroke-width="1.5" stroke-linecap="round" stroke-linejoin="round"/>
<path d="M13 17.5H15.333C15.766 17.5 16.187 17.36 16.533 17.1L18.949 15.288C19.552 14.836 20.396 14.896 20.929 15.429V15.429C21.521 16.021 21.521 16.98 20.929 17.571L18.856 19.644C18.298 20.202 17.586 20.583 16.812 20.738L13.882 21.324C13.301 21.44 12.702 21.426 12.127 21.282L9.477 20.62C9.16 20.54 8.835 20.5 8.508 20.5H7" stroke="#898989" stroke-width="1.5" stroke-linecap="round" stroke-linejoin="round"/>
<path d="M13 17.5H14.485C15.322 17.5 16 16.822 16 15.985V15.682C16 14.987 15.527 14.381 14.853 14.213L12.561 13.64C12.188 13.547 11.806 13.5 11.422 13.5V13.5C10.495 13.5 9.588 13.774 8.817 14.289L7 15.5" stroke="#898989" stroke-width="1.5" stroke-linecap="round" stroke-linejoin="round"/>
<path fill-rule="evenodd" clip-rule="evenodd" d="M10.667 10.5H19.334C20.254 10.5 21 9.754 21 8.833V4.167C21 3.246 20.254 2.5 19.333 2.5H10.666C9.746 2.5 9 3.246 9 4.167V8.834C9 9.754 9.746 10.5 10.667 10.5Z" stroke="#898989" stroke-width="1.5" stroke-linecap="round" stroke-linejoin="round"/>
<path d="M16.0615 5.43899C16.6475 6.02499 16.6475 6.97599 16.0615 7.56099C15.4755 8.14599 14.5245 8.14699 13.9395 7.56099C13.3535 6.97499 13.3535 6.02399 13.9395 5.43899C14.5255 4.85399 15.4755 4.85399 16.0615 5.43899" stroke="#898989" stroke-width="1.5" stroke-linecap="round" stroke-linejoin="round"/>
</svg>
