<svg width="24" height="24" viewBox="0 0 24 24" fill="none" xmlns="http://www.w3.org/2000/svg">
<path fill-rule="evenodd" clip-rule="evenodd" d="M9.50781 17.2524C9.92203 17.2524 10.2578 17.5882 10.2578 18.0024V18.5147C10.2578 18.9761 10.4412 19.4187 10.7677 19.7448C11.0941 20.071 11.5368 20.2541 11.9982 20.2537L11.9989 21.0037L11.9992 20.2537C12.4608 20.2539 12.9035 20.0706 13.23 19.7443C13.5565 19.418 13.7399 18.9753 13.7399 18.5137V18.0024C13.7399 17.5882 14.0757 17.2524 14.4899 17.2524C14.9041 17.2524 15.2399 17.5882 15.2399 18.0024V18.5137C15.2399 19.3732 14.8983 20.1975 14.2904 20.8052C13.6826 21.4127 12.8583 21.7539 11.9989 21.7537C11.1396 21.7542 10.3153 21.4133 9.70742 20.8059C9.09942 20.1984 8.75781 19.3742 8.75781 18.5147V18.0024C8.75781 17.5882 9.0936 17.2524 9.50781 17.2524Z" fill="#051C2C"/>
<path fill-rule="evenodd" clip-rule="evenodd" d="M5.24693 8.99859C5.24693 5.26929 8.27012 2.24609 11.9994 2.24609C15.7287 2.24609 18.7519 5.26929 18.7519 8.99859V12.7375L19.8974 13.8821C20.4446 14.4304 20.7521 15.1732 20.7528 15.9479C20.7528 17.4964 19.4974 18.7523 17.9489 18.7523H6.04995C5.30632 18.7523 4.59315 18.4569 4.06732 17.9311C3.5415 17.4053 3.24609 16.6921 3.24609 15.9485C3.24671 15.1738 3.55429 14.4304 4.10147 13.8821L5.24693 12.7375V8.99859ZM4.74609 15.9488C4.74617 16.2945 4.88353 16.626 5.12798 16.8705C5.3725 17.115 5.70415 17.2523 6.04995 17.2523H17.9489C18.6688 17.2523 19.2524 16.6689 19.2528 15.9491M4.74609 15.9488C4.74648 15.5712 4.89641 15.2091 5.1631 14.9418C5.16306 14.9418 5.16315 14.9417 5.1631 14.9418L6.52706 13.5788C6.66783 13.4381 6.74693 13.2473 6.74693 13.0483V8.99859C6.74693 6.09772 9.09855 3.74609 11.9994 3.74609C14.9003 3.74609 17.2519 6.09772 17.2519 8.99859V13.0483C17.2519 13.2473 17.331 13.4381 17.4718 13.5788L18.8356 14.9416C18.8355 14.9416 18.8357 14.9417 18.8356 14.9416C19.1023 15.209 19.2524 15.5714 19.2528 15.9491" fill="#051C2C"/>
</svg>
