<svg enable-background="new -74.749 0 512 512" height="512" viewBox="-74.749 0 512 512" width="512" xmlns="http://www.w3.org/2000/svg"><path d="m139.996 367.402h84.674v90.984h-84.674z"/><path d="m139.996 77.618h84.674v86.126h-84.674z"/><path d="m47.729 332.116v100.812c0 14.037 11.422 25.459 25.459 25.459h51.449v-90.984h-43.543z"/><path d="m240.029 367.402v90.984h47.439c14.039 0 25.459-11.422 25.459-25.459v-96.362l-32.994 30.837z"/><path d="m287.469 77.618h-47.439v86.126h39.904l32.994 30.84v-91.507c0-14.037-11.42-25.459-25.459-25.459z"/><path d="m362.248 462.676v-385.563l-69.043-67.249h-134.498l-8.967 12.803h-75.316l-17.041-22.667c-54.694 0-55.59 39.454-55.59 39.454s-1.793 368.529-1.793 421.432c0 52.901 39.449 51.106 39.449 51.106s206.232 0 268.102 0c61.871 0 54.697-49.316 54.697-49.316zm-33.961-29.748c0 22.543-18.277 40.818-40.818 40.818h-214.281c-22.543 0-40.818-18.275-40.818-40.818v-329.851c0-22.542 18.275-40.818 40.818-40.818h214.281c22.541 0 40.818 18.276 40.818 40.818z"/><path d="m124.637 179.104v-101.486h-51.449c-14.037 0-25.459 11.422-25.459 25.459v98.021l45.516-34.135 9.213 12.287-54.729 41.046v89.461l39.982 42.286h186.164l39.053-36.503v-99.935l-39.053-36.502h-149.238zm-51.16 97.755c-5.574 0-10.088-4.518-10.088-10.086 0-5.572 4.514-10.09 10.088-10.09 5.572 0 10.086 4.518 10.086 10.09 0 5.569-4.514 10.086-10.086 10.086z"/></svg>