<svg id="Layer_1" enable-background="new 0 0 48 48" viewBox="0 0 48 48" xmlns="http://www.w3.org/2000/svg"><g><path d="m43.72 45.5v-20.62c-.47-.17-.91-.43-1.3-.76l-18.42-15.68-18.42 15.68c-.39.33-.83.58-1.3.76v20.62h-3.78v2h47v-2zm-26.5-14.96h5.78v5.78h-5.78zm7.78 0h5.78v5.78h-5.78zm5.78-2h-5.78v-5.78h5.78zm-7.78-5.78v5.78h-5.78v-5.78z"/><path d="m10.91 4.79c0-.88-.71-1.6-1.6-1.6h-1.82c-.88 0-1.6.71-1.6 1.6v7.78l5.01-4.27v-3.51z"/><path d="m4.28 22.6 19.72-16.79 19.72 16.79c.97.82 2.41.71 3.24-.26.82-.97.71-2.41-.26-3.24l-21.21-18.05c-.86-.73-2.12-.73-2.98 0l-21.2 18.05c-.97.82-1.08 2.27-.26 3.24.82.96 2.27 1.08 3.23.26z"/></g></svg>