<svg width="24" height="24" viewBox="0 0 24 24" fill="none" xmlns="http://www.w3.org/2000/svg">
<path fill-rule="evenodd" clip-rule="evenodd" d="M12 3.75C7.46421 3.75 3.75 7.46421 3.75 12C3.75 13.8468 4.37322 15.5531 5.41514 16.9369C5.6643 17.2678 5.59804 17.738 5.26714 17.9871C4.93625 18.2363 4.46602 18.17 4.21686 17.8391C2.99078 16.2109 2.25 14.1912 2.25 12C2.25 6.63579 6.63579 2.25 12 2.25C12.4142 2.25 12.75 2.58579 12.75 3C12.75 3.41421 12.4142 3.75 12 3.75Z" fill="#051C2C"/>
<path fill-rule="evenodd" clip-rule="evenodd" d="M11.2504 3C11.2504 2.58579 11.5862 2.25 12.0004 2.25C17.3647 2.25 21.7505 6.63579 21.7505 12C21.7505 17.3642 17.3647 21.75 12.0004 21.75C8.82006 21.75 5.99648 20.202 4.21731 17.8391C3.96815 17.5082 4.03441 17.038 4.36531 16.7889C4.69621 16.5397 5.16644 16.606 5.41559 16.9369C6.92842 18.946 9.31884 20.25 12.0004 20.25C16.5362 20.25 20.2505 16.5358 20.2505 12C20.2505 7.46421 16.5362 3.75 12.0004 3.75C11.5862 3.75 11.2504 3.41421 11.2504 3Z" fill="#051C2C"/>
<path fill-rule="evenodd" clip-rule="evenodd" d="M11.1992 14.6999C11.1992 14.2577 11.557 13.8999 11.9992 13.8999C12.4414 13.8999 12.7992 14.2577 12.7992 14.6999C12.7992 15.1421 12.4414 15.4999 11.9992 15.4999C11.557 15.4999 11.1992 15.1421 11.1992 14.6999Z" fill="#051C2C"/>
<path fill-rule="evenodd" clip-rule="evenodd" d="M9.69591 10.9703C9.74465 9.74007 10.7526 8.75 12.0013 8.75C13.2772 8.75 14.3133 9.78447 14.3133 11.062C14.3133 11.0719 14.3131 11.0818 14.3127 11.0917C14.264 12.3219 13.2561 13.312 12.0073 13.312C11.5931 13.312 11.2573 12.9762 11.2573 12.562C11.2573 12.1478 11.5931 11.812 12.0073 11.812C12.4356 11.812 12.7885 11.4759 12.8132 11.0472C12.8053 10.6055 12.4445 10.25 12.0013 10.25C11.5681 10.25 11.212 10.5939 11.1947 11.0297C11.1783 11.4436 10.8295 11.7658 10.4156 11.7494C10.0017 11.733 9.67951 11.3842 9.69591 10.9703Z" fill="#051C2C"/>
</svg>
