<svg width="24" height="24" viewBox="0 0 24 24" fill="none" xmlns="http://www.w3.org/2000/svg">
<path fill-rule="evenodd" clip-rule="evenodd" d="M4.41533 6.48957C4.55724 6.3368 4.75634 6.25 4.96485 6.25H18.9988C19.207 6.25 19.4059 6.33654 19.5477 6.4889C19.6896 6.64127 19.7618 6.84575 19.7469 7.05342L18.8799 19.1954C18.7768 20.6346 17.5795 21.75 16.1368 21.75H7.85685C6.41681 21.75 5.22111 20.6388 5.11393 19.2028L4.21688 7.05523C4.20153 6.84729 4.27343 6.64234 4.41533 6.48957ZM16.1368 20.25C16.7921 20.25 17.3368 19.7433 17.3837 19.0886C17.3837 19.0886 17.3838 19.0885 17.3837 19.0886L18.1934 7.75H5.77227L6.60977 19.0912C6.60976 19.0911 6.60977 19.0913 6.60977 19.0912C6.65869 19.7451 7.20296 20.25 7.85685 20.25H16.1368Z" fill="#051C2C"/>
<path fill-rule="evenodd" clip-rule="evenodd" d="M12 10.25C12.4142 10.25 12.75 10.5858 12.75 11V17C12.75 17.4142 12.4142 17.75 12 17.75C11.5858 17.75 11.25 17.4142 11.25 17V11C11.25 10.5858 11.5858 10.25 12 10.25Z" fill="#051C2C"/>
<path fill-rule="evenodd" clip-rule="evenodd" d="M3.25 7C3.25 6.58579 3.58579 6.25 4 6.25H20C20.4142 6.25 20.75 6.58579 20.75 7C20.75 7.41421 20.4142 7.75 20 7.75H4C3.58579 7.75 3.25 7.41421 3.25 7Z" fill="#051C2C"/>
<path fill-rule="evenodd" clip-rule="evenodd" d="M7.31099 4.03456C7.71376 2.96097 8.73951 2.25 9.8862 2.25H14.1142C15.2609 2.25 16.2866 2.96097 16.6894 4.03456L17.7025 6.73671C17.8479 7.12457 17.6513 7.55686 17.2635 7.70227C16.8756 7.84768 16.4433 7.65114 16.2979 7.26329L15.285 4.56144C15.285 4.56139 15.285 4.56149 15.285 4.56144C15.1017 4.07312 14.6355 3.75 14.1142 3.75H9.8862C9.36495 3.75 8.89875 4.07296 8.71547 4.56129L7.70247 7.26329C7.55706 7.65114 7.12477 7.84768 6.73692 7.70227C6.34907 7.55686 6.15253 7.12457 6.29794 6.73671L7.31099 4.03456Z" fill="#051C2C"/>
<path fill-rule="evenodd" clip-rule="evenodd" d="M15.4836 10.252C15.8968 10.2816 16.2077 10.6405 16.1781 11.0536L15.7481 17.0536C15.7185 17.4668 15.3596 17.7777 14.9464 17.7481C14.5333 17.7185 14.2223 17.3596 14.252 16.9464L14.682 10.9464C14.7116 10.5333 15.0705 10.2223 15.4836 10.252Z" fill="#051C2C"/>
<path fill-rule="evenodd" clip-rule="evenodd" d="M8.51673 10.252C8.92989 10.2223 9.28882 10.5333 9.31843 10.9464L9.74843 16.9464C9.77804 17.3596 9.46711 17.7185 9.05396 17.7481C8.6408 17.7777 8.28187 17.4668 8.25226 17.0536L7.82226 11.0536C7.79265 10.6405 8.10358 10.2816 8.51673 10.252Z" fill="#051C2C"/>
</svg>
